<svg width="80" height="80" viewBox="0 0 80 80" fill="none" xmlns="http://www.w3.org/2000/svg">
<rect x="0.5" y="0.5" width="79" height="79" rx="39.5" fill="#F3F3F3" stroke="#D8D8D8"/>
<path fill-rule="evenodd" clip-rule="evenodd" d="M38.1954 16C29.2662 16 22.0031 23.2655 22.0031 32.1938V39.418L22 39.4133V58H47.8191C56.7415 57.9922 64 50.7309 64 41.8093C64 34.8726 59.6802 28.9163 53.3727 26.6377C51.0974 20.323 45.1369 16 38.1954 16ZM31 35.9468V33.8112V32.6038V32.592C31 30.7438 31.7405 29.071 32.93 27.8349C34.1143 26.7035 35.7086 26 37.4736 26C41.1163 26 44.0692 28.9566 44.0692 32.6038V35.9468H47.4044C51.0466 35.9468 54 38.9034 54 42.5501C54 43.8765 53.6008 45.1065 52.9284 46.1414C51.6851 47.8619 49.6793 48.9949 47.4044 48.999C47.3998 48.999 47.3957 49 47.3916 49H46.013H44.0692H31V35.9468Z" fill="#D8D8D8"/>
</svg>
