<svg width="80" height="80" viewBox="0 0 80 80" fill="none" xmlns="http://www.w3.org/2000/svg">
<rect x="0.5" y="0.5" width="79" height="79" rx="39.5" fill="url(#paint0_linear)" stroke="#FF3B3B"/>
<path fill-rule="evenodd" clip-rule="evenodd" d="M38.1954 17C29.2662 17 22.0031 24.2655 22.0031 33.1938V40.418L22 40.4133V59H47.8191C56.7415 58.9922 64 51.7309 64 42.8093C64 35.8726 59.6802 29.9163 53.3727 27.6377C51.0974 21.323 45.1369 17 38.1954 17ZM31 36.9468V34.8112V33.6038V33.592C31 31.7438 31.7405 30.071 32.93 28.8349C34.1143 27.7035 35.7086 27 37.4736 27C41.1163 27 44.0692 29.9566 44.0692 33.6038V36.9468H47.4044C51.0466 36.9468 54 39.9034 54 43.5501C54 44.8765 53.6008 46.1065 52.9284 47.1414C51.6851 48.8619 49.6793 49.9949 47.4044 49.999C47.3998 49.999 47.3957 50 47.3916 50H46.013H44.0692H31V36.9468Z" fill="white"/>
<defs>
<linearGradient id="paint0_linear" x1="40.4107" y1="97.625" x2="99.7857" y2="39.8929" gradientUnits="userSpaceOnUse">
<stop stop-color="#FF3B3B"/>
<stop offset="1" stop-color="#FF773B"/>
</linearGradient>
</defs>
</svg>
