<svg width="32" height="32" viewBox="0 0 32 32" fill="none" xmlns="http://www.w3.org/2000/svg">
<circle cx="16" cy="16" r="16" fill="#FF887D"/>
<path d="M14.5789 7.44991V11.961C14.5791 12.0596 14.5547 12.1566 14.508 12.2428C14.4612 12.3291 14.3937 12.4018 14.3118 12.454L7.26716 16.9458C7.18551 16.9979 7.11817 17.0703 7.07144 17.1561C7.02471 17.242 7.00013 17.3386 7 17.4369V18.3068C7 18.395 7.0197 18.482 7.05761 18.5612C7.09552 18.6405 7.15064 18.7099 7.21878 18.7641C7.28692 18.8183 7.36628 18.856 7.45084 18.8743C7.53539 18.8925 7.62291 18.8908 7.70674 18.8694L13.8722 17.2957C13.956 17.2743 14.0436 17.2726 14.1281 17.2908C14.2127 17.3091 14.292 17.3468 14.3602 17.401C14.4283 17.4552 14.4834 17.5246 14.5213 17.6039C14.5593 17.6831 14.579 17.7701 14.5789 17.8583V20.7194C14.5789 20.802 14.5615 20.8836 14.528 20.9588C14.4945 21.034 14.4457 21.101 14.3847 21.1554L12.3384 22.9823C11.9045 23.3708 12.2465 24.0948 12.814 23.9895L15.8986 23.4182C15.9657 23.4058 16.0343 23.4058 16.1014 23.4182L19.186 23.9895C19.7535 24.0958 20.0955 23.3708 19.6616 22.9832L17.6153 21.1564C17.5542 21.1019 17.5053 21.0347 17.4718 20.9594C17.4383 20.884 17.421 20.8022 17.4211 20.7194V17.8583C17.4211 17.7702 17.4408 17.6833 17.4786 17.6042C17.5165 17.525 17.5715 17.4557 17.6395 17.4015C17.7076 17.3473 17.7868 17.3096 17.8712 17.2912C17.9557 17.2729 18.0431 17.2745 18.1268 17.2957L24.2942 18.8694C24.378 18.8907 24.4654 18.8922 24.5498 18.8739C24.6343 18.8556 24.7135 18.8179 24.7815 18.7636C24.8495 18.7094 24.9046 18.6401 24.9424 18.5609C24.9803 18.4818 25 18.3949 25 18.3068V17.4369C24.9999 17.3386 24.9753 17.242 24.9286 17.1561C24.8818 17.0703 24.8145 16.9979 24.7328 16.9458L17.6882 12.453C17.6064 12.4009 17.539 12.3284 17.4923 12.2423C17.4455 12.1562 17.421 12.0594 17.4211 11.961V7.44991C17.4211 7.06537 17.2713 6.69658 17.0048 6.42467C16.7383 6.15276 16.3769 6 16 6C15.6231 6 15.2617 6.15276 14.9952 6.42467C14.7287 6.69658 14.5789 7.06537 14.5789 7.44991V7.44991Z" stroke="white" stroke-width="1.5" stroke-linecap="round" stroke-linejoin="round"/>
</svg>
