<svg width="32" height="32" viewBox="0 0 32 32" fill="none" xmlns="http://www.w3.org/2000/svg">
<circle cx="16" cy="16" r="16" fill="#FF887D"/>
<path fill-rule="evenodd" clip-rule="evenodd" d="M12.2941 8H20.7059C21.3143 8 21.8978 8.2417 22.3281 8.67193C22.7583 9.10216 23 9.68568 23 10.2941V23.9059C22.9995 24.2349 22.8072 24.5335 22.5079 24.67C22.2085 24.8065 21.857 24.756 21.6082 24.5406L19.5588 22.7818L17.4253 24.6094C17.1386 24.8562 16.7224 24.8812 16.4082 24.6706L13.5024 22.7282L11.3918 24.5406C11.143 24.756 10.7915 24.8065 10.4921 24.67C10.1928 24.5335 10.0005 24.2349 10 23.9059V10.2941C10 9.02711 11.0271 8 12.2941 8ZM20.1094 21.2293L21.4706 22.3993V10.294C21.4706 9.87163 21.1282 9.52926 20.7059 9.52926H12.2941C11.8718 9.52926 11.5294 9.87163 11.5294 10.294V22.4069L12.8982 21.2216C13.1859 20.9774 13.6003 20.9525 13.9153 21.1604L16.8212 23.1028L19.0082 21.2293C19.3266 20.962 19.791 20.962 20.1094 21.2293Z" fill="white"/>
<path d="M13.0589 12.5885H18.4118C18.8342 12.5885 19.1765 12.2461 19.1765 11.8238C19.1765 11.4015 18.8342 11.0591 18.4118 11.0591H13.0589C12.6366 11.0591 12.2942 11.4015 12.2942 11.8238C12.2942 12.2461 12.6366 12.5885 13.0589 12.5885Z" fill="white"/>
<path d="M13.0589 15.647H16.1177C16.5401 15.647 16.8824 15.3046 16.8824 14.8823C16.8824 14.4599 16.5401 14.1176 16.1177 14.1176H13.0589C12.6366 14.1176 12.2942 14.4599 12.2942 14.8823C12.2942 15.3046 12.6366 15.647 13.0589 15.647Z" fill="white"/>
<path d="M19.1765 17.1766H13.0589C12.6366 17.1766 12.2942 17.519 12.2942 17.9413C12.2942 18.3637 12.6366 18.706 13.0589 18.706H19.1765C19.5989 18.706 19.9412 18.3637 19.9412 17.9413C19.9412 17.519 19.5989 17.1766 19.1765 17.1766Z" fill="white"/>
</svg>
