<svg width="28" height="28" viewBox="0 0 28 28" fill="none" xmlns="http://www.w3.org/2000/svg">
<path d="M24.3996 14V27H3.59961V14" stroke="#555555" stroke-width="2" stroke-linecap="round" stroke-linejoin="round"/>
<path d="M24.3996 14V27H3.59961V14" stroke="#555555" stroke-width="2" stroke-linecap="round" stroke-linejoin="round"/>
<path d="M1 7.5H27V14H1V7.5Z" stroke="#555555" stroke-width="2" stroke-linecap="round" stroke-linejoin="round"/>
<path d="M1 7.5H27V14H1V7.5Z" stroke="#555555" stroke-width="2" stroke-linecap="round" stroke-linejoin="round"/>
<path d="M14 27V7.5" stroke="#555555" stroke-width="2" stroke-linecap="round" stroke-linejoin="round"/>
<path d="M14 27V7.5" stroke="#555555" stroke-width="2" stroke-linecap="round" stroke-linejoin="round"/>
<path d="M14.0004 7.5H8.15039C7.28844 7.5 6.46179 7.15759 5.85229 6.5481C5.2428 5.9386 4.90039 5.11195 4.90039 4.25C4.90039 3.38805 5.2428 2.5614 5.85229 1.9519C6.46179 1.34241 7.28844 1 8.15039 1C12.7004 1 14.0004 7.5 14.0004 7.5Z" stroke="#555555" stroke-width="2" stroke-linecap="round" stroke-linejoin="round"/>
<path d="M14.0004 7.5H8.15039C7.28844 7.5 6.46179 7.15759 5.85229 6.5481C5.2428 5.9386 4.90039 5.11195 4.90039 4.25C4.90039 3.38805 5.2428 2.5614 5.85229 1.9519C6.46179 1.34241 7.28844 1 8.15039 1C12.7004 1 14.0004 7.5 14.0004 7.5Z" stroke="#555555" stroke-width="2" stroke-linecap="round" stroke-linejoin="round"/>
<path d="M14 7.5H19.85C20.712 7.5 21.5386 7.15759 22.1481 6.5481C22.7576 5.9386 23.1 5.11195 23.1 4.25C23.1 3.38805 22.7576 2.5614 22.1481 1.9519C21.5386 1.34241 20.712 1 19.85 1C15.3 1 14 7.5 14 7.5Z" stroke="#555555" stroke-width="2" stroke-linecap="round" stroke-linejoin="round"/>
<path d="M14 7.5H19.85C20.712 7.5 21.5386 7.15759 22.1481 6.5481C22.7576 5.9386 23.1 5.11195 23.1 4.25C23.1 3.38805 22.7576 2.5614 22.1481 1.9519C21.5386 1.34241 20.712 1 19.85 1C15.3 1 14 7.5 14 7.5Z" stroke="#555555" stroke-width="2" stroke-linecap="round" stroke-linejoin="round"/>
</svg>
