<svg width="100" height="100" viewBox="0 0 100 100" fill="none" xmlns="http://www.w3.org/2000/svg">
<circle cx="50" cy="50" r="50" fill="white"/>
<mask id="mask0_3947_45784" style="mask-type:alpha" maskUnits="userSpaceOnUse" x="0" y="0" width="100" height="100">
<circle cx="50" cy="50" r="50" fill="white"/>
</mask>
<g mask="url(#mask0_3947_45784)">
<g style="mix-blend-mode:multiply" opacity="0.08">
<path d="M73.4998 112L28.2666 66.7333L64.4402 29L119 83.6L73.4998 112Z" fill="black"/>
</g>
</g>
<path d="M73.4607 61.6883C71.9926 59.087 70.2423 54.1509 70.2423 45.4074V43.6004C70.2423 32.3241 61.4535 23.0831 50.6506 23.0005C50.6001 23.0003 50.5501 23 50.4996 23C45.2576 23.007 40.233 25.1571 36.5311 28.9773C32.8292 32.7974 30.7532 37.9748 30.7598 43.3704V45.4074C30.7598 54.1503 29.0086 59.0863 27.5398 61.6873C27.1889 62.3059 27.0027 63.0088 27 63.7251C26.9973 64.4414 27.1781 65.1458 27.5243 65.7673C27.8704 66.3887 28.3696 66.9052 28.9716 67.2647C29.5735 67.6242 30.2569 67.8139 30.9529 67.8148H40.6048C40.6048 70.5161 41.6474 73.1067 43.5031 75.0168C45.3588 76.9269 47.8757 78 50.5001 78C53.1245 78 55.6414 76.9269 57.4971 75.0168C59.3528 73.1067 60.3954 70.5161 60.3954 67.8148H70.0473C70.7432 67.8139 71.4265 67.6242 72.0283 67.2648C72.6302 66.9054 73.1294 66.389 73.4755 65.7677C73.8217 65.1464 74.0026 64.4422 74 63.726C73.9974 63.0097 73.8113 62.3069 73.4607 61.6883ZM50.5001 73.9259C48.926 73.9241 47.4169 73.2796 46.3039 72.134C45.1908 70.9883 44.5647 69.435 44.5629 67.8148H56.4373C56.4355 69.435 55.8094 70.9883 54.6963 72.134C53.5833 73.2796 52.0742 73.9241 50.5001 73.9259Z" fill="#FE5C47"/>
<mask id="mask1_3947_45784" style="mask-type:alpha" maskUnits="userSpaceOnUse" x="27" y="23" width="47" height="55">
<path d="M73.4607 61.6883C71.9926 59.087 70.2423 54.1509 70.2423 45.4074V43.6004C70.2423 32.3241 61.4535 23.0831 50.6506 23.0005C50.6001 23.0003 50.5501 23 50.4996 23C45.2576 23.007 40.233 25.1571 36.5311 28.9773C32.8292 32.7974 30.7532 37.9748 30.7598 43.3704V45.4074C30.7598 54.1503 29.0086 59.0863 27.5398 61.6873C27.1889 62.3059 27.0027 63.0088 27 63.7251C26.9973 64.4414 27.1781 65.1458 27.5243 65.7673C27.8704 66.3887 28.3696 66.9052 28.9716 67.2647C29.5735 67.6242 30.2569 67.8139 30.9529 67.8148H40.6048C40.6048 70.5161 41.6474 73.1067 43.5031 75.0168C45.3588 76.9269 47.8757 78 50.5001 78C53.1245 78 55.6414 76.9269 57.4971 75.0168C59.3528 73.1067 60.3954 70.5161 60.3954 67.8148H70.0473C70.7432 67.8139 71.4265 67.6242 72.0283 67.2648C72.6302 66.9054 73.1294 66.389 73.4755 65.7677C73.8217 65.1464 74.0026 64.4422 74 63.726C73.9974 63.0097 73.8113 62.3069 73.4607 61.6883ZM50.5001 73.9259C48.926 73.9241 47.4169 73.2796 46.3039 72.134C45.1908 70.9883 44.5647 69.435 44.5629 67.8148H56.4373C56.4355 69.435 55.8094 70.9883 54.6963 72.134C53.5833 73.2796 52.0742 73.9241 50.5001 73.9259Z" fill="#FE5C47"/>
</mask>
<g mask="url(#mask1_3947_45784)">
<g style="mix-blend-mode:multiply" opacity="0.3">
<rect x="50.5098" y="18.339" width="23.7712" height="62.4576" fill="#C75A4C"/>
</g>
</g>
<path d="M70.3601 27.7155C73.5468 30.9105 75.3338 35.2405 75.328 39.7531" stroke="#FE5C47" stroke-width="3.40385" stroke-linecap="round"/>
<path d="M74.8743 23C79.5431 27.681 82.1612 34.0248 82.1527 40.6361" stroke="#FE5C47" stroke-width="3.40385" stroke-linecap="round"/>
<path d="M30.9256 27.7155C27.7389 30.9105 25.9519 35.2405 25.9577 39.7531" stroke="#FE5C47" stroke-width="3.40385" stroke-linecap="round"/>
<path d="M26.4113 23C21.7426 27.681 19.1244 34.0248 19.1329 40.6361" stroke="#FE5C47" stroke-width="3.40385" stroke-linecap="round"/>
</svg>
