<svg width="32" height="32" viewBox="0 0 32 32" fill="none" xmlns="http://www.w3.org/2000/svg">
<circle cx="16" cy="16" r="16" fill="#FF887D"/>
<path fill-rule="evenodd" clip-rule="evenodd" d="M20.8986 12.1128C21.2031 12.1041 21.4931 12.2432 21.6768 12.4863L23.9335 15.4979C24.0568 15.6585 24.1226 15.8558 24.1203 16.0582V20.5173C24.1203 21.033 23.7022 21.4511 23.1864 21.4511H21.0075C20.9635 21.4549 20.9192 21.4549 20.8752 21.4511C20.5432 22.38 19.6632 23 18.6768 23C17.6904 23 16.8104 22.38 16.4784 21.4511H13.8637C13.5286 22.3744 12.6514 22.9892 11.6692 22.9892C10.6869 22.9892 9.80977 22.3744 9.47466 21.4511H9.33458C8.04523 21.4511 7 20.4059 7 19.1165V11.3346C7 10.0452 8.04523 9 9.33458 9H17.1165C18.4059 9 19.4511 10.0452 19.4511 11.3346V12.1128H20.8986ZM10.8911 20.6726C10.8911 21.1024 11.2395 21.4508 11.6693 21.4508C12.0991 21.4508 12.4475 21.1024 12.4475 20.6726C12.4475 20.2428 12.0991 19.8944 11.6693 19.8944C11.2395 19.8944 10.8911 20.2428 10.8911 20.6726ZM18.673 21.4508C18.2432 21.4508 17.8948 21.1024 17.8948 20.6726C17.8948 20.2428 18.2432 19.8944 18.673 19.8944C19.1028 19.8944 19.4512 20.2428 19.4512 20.6726C19.4512 21.1024 19.1028 21.4508 18.673 21.4508ZM21.0077 19.8943H22.5641V16.2601L20.6186 13.6687H19.4513V16.7815C19.4513 17.2113 19.1029 17.5597 18.6732 17.5597C18.2434 17.5597 17.895 17.2113 17.895 16.7815V11.3342C17.895 10.9044 17.5465 10.556 17.1168 10.556H9.33482C8.90503 10.556 8.55662 10.9044 8.55662 11.3342V19.1161C8.55662 19.5459 8.90503 19.8943 9.33482 19.8943H9.47489C9.81 18.971 10.6872 18.3562 11.6694 18.3562C12.6516 18.3562 13.5288 18.971 13.8639 19.8943H16.4786C16.8106 18.9654 17.6906 18.3454 18.677 18.3454C19.6635 18.3454 20.5435 18.9654 20.8754 19.8943C20.9195 19.8905 20.9637 19.8905 21.0077 19.8943Z" fill="white"/>
</svg>
