<svg width="60" height="60" viewBox="0 0 60 60" fill="none" xmlns="http://www.w3.org/2000/svg">
<path d="M0.248047 30C0.248047 13.4315 13.6795 0 30.248 0H60.248V60H0.248047V30Z" fill="black" fill-opacity="0.1"/>
<path fill-rule="evenodd" clip-rule="evenodd" d="M28.3162 15C21.9382 15 16.7503 20.1896 16.7503 26.567V31.7271L16.748 31.7238V45H35.1902C41.5634 44.9945 46.748 39.8078 46.748 33.4352C46.748 28.4804 43.6625 24.2259 39.1571 22.5983C37.5319 18.0879 33.2744 15 28.3162 15ZM23.1766 29.2477V27.7223V26.8599V26.8514C23.1766 25.5313 23.7056 24.3364 24.5552 23.4535C25.4011 22.6453 26.5399 22.1429 27.8006 22.1429C30.4026 22.1429 32.5118 24.2547 32.5118 26.8599V29.2477H34.8941C37.4956 29.2477 39.6052 31.3596 39.6052 33.9644C39.6052 34.9118 39.32 35.7903 38.8398 36.5296C37.9517 37.7585 36.519 38.5678 34.8941 38.5707C34.8908 38.5707 34.8878 38.5714 34.8849 38.5714H33.9002H32.5118H23.1766V29.2477Z" fill="white"/>
</svg>
