<svg width="32" height="32" viewBox="0 0 32 32" fill="none" xmlns="http://www.w3.org/2000/svg">
<path d="M27.1067 8.87067C28.8349 10.5882 31.2543 15.741 27.1067 22.6113V8.87067Z" fill="#FF4B3B" stroke="#FF4B3B" stroke-width="0.7"/>
<path fill-rule="evenodd" clip-rule="evenodd" d="M5.50402 12.136H3.96625C3.43219 12.136 3.00012 12.5681 3.00012 13.1022V16.8138C3.00012 17.3478 3.43219 17.7799 3.96625 17.7799H5.50134V18.3864C5.50134 18.5286 5.50134 18.8265 6.00319 19.5968C6.09176 19.7309 6.183 19.8651 6.27962 19.9886C6.26083 20.4126 6.27425 21.054 6.43527 21.8135C6.69291 23.0292 7.38799 24.8032 9.24512 26.3463C9.5618 26.6066 9.94557 26.7408 10.332 26.7408C10.6541 26.7408 10.9788 26.6469 11.2633 26.4617C11.8913 26.0511 12.1757 25.2916 11.9718 24.5697C11.6202 23.3271 11.2418 21.6042 11.2794 19.9859H11.3894C11.5665 20.3321 11.8322 20.5817 12.2026 20.5817C19.4379 20.5817 25.0334 27.5701 25.0334 27.5701C25.2401 27.6935 25.4628 27.7499 25.6775 27.7499C26.3377 27.7499 26.9442 27.2239 26.9442 26.4832V4.98394C26.9442 4.2486 26.3404 3.71722 25.6775 3.71722C25.4789 3.71722 25.2749 3.76553 25.079 3.8702C25.079 3.8702 19.0219 9.70996 12.2804 9.70996C11.8832 9.70996 11.5934 9.97833 11.4001 10.3487H6.7761C6.07565 10.3487 5.50402 10.9391 5.50402 11.6637V12.136ZM18.0154 19.8948C16.3488 19.189 14.6768 18.7811 13.0317 18.6764C13.0317 18.6657 13.0317 18.6577 13.0344 18.6469V11.8437C13.0451 11.7873 13.0505 11.7283 13.0505 11.6666V11.621C14.5802 11.5351 16.169 11.1969 17.7846 10.6146C19.2526 10.0859 20.7474 9.35053 22.2288 8.4327C23.356 7.73493 24.306 7.03448 25.0145 6.4709V24.7094C24.357 24.0653 23.5089 23.3005 22.4999 22.5356C21.0346 21.4246 19.5263 20.5363 18.0154 19.8948ZM7.43617 18.2258C7.51937 18.3895 7.69381 18.6578 7.79847 18.792C7.88435 18.8457 7.96218 18.9128 8.02659 18.9906C8.20908 19.2107 8.28691 19.5005 8.23592 19.7823L8.23528 19.7872C8.22658 19.8505 8.13488 20.5173 8.32448 21.414C8.55528 22.509 9.08666 23.4858 9.90519 24.3285C9.51605 22.7586 9.18864 20.7404 9.41944 18.8994C9.48116 18.4163 9.89177 18.054 10.3775 18.054H11.0646V17.2516C11.0646 17.163 11.078 17.0771 11.0994 16.9966V12.2813H7.43617V18.2258ZM5.50381 15.8478H4.93217V14.0685H5.50381V15.8478Z" fill="#666666"/>
</svg>
