<svg width="40" height="40" viewBox="0 0 40 40" fill="none" xmlns="http://www.w3.org/2000/svg">
<path d="M29.9464 12.2498L31.3235 9.8646" stroke="#FA4131" stroke-width="2.22222" stroke-linecap="round" stroke-linejoin="round"/>
<path d="M34.964 23.4505L32.5788 22.0734" stroke="#FA4131" stroke-width="2.22222" stroke-linecap="round" stroke-linejoin="round"/>
<path d="M32.0703 16.833C32.2375 16.7882 34.0908 16.2916 34.9965 16.0489" stroke="#FA4131" stroke-width="2.22222" stroke-linecap="round" stroke-linejoin="round"/>
<path d="M11.356 27.3125L12.14 30.2387C12.5112 31.6239 13.935 32.446 15.3203 32.0748V32.0748C16.7055 31.7037 17.5276 30.2798 17.1564 28.8946L16.3723 25.9684" stroke="#3D3D3D" stroke-width="2.22222" stroke-linejoin="round"/>
<path d="M13.9086 16.7718L8.46453 18.2305C7.31552 18.5384 6.63365 19.7194 6.94153 20.8684L8.29085 25.9042C8.59873 27.0532 9.77976 27.7351 10.9288 27.4272L16.3729 25.9684L26.9472 28.0548C28.288 28.3194 29.4415 27.0859 29.0878 25.7658L25.0214 10.5898C24.6677 9.26966 23.052 8.77818 22.023 9.67774L13.9086 16.7718Z" stroke="#3D3D3D" stroke-width="2.22222" stroke-linejoin="round"/>
</svg>
