<svg width="124" height="124" viewBox="0 0 124 124" fill="none" xmlns="http://www.w3.org/2000/svg">
<path d="M20.3933 87.1661C23.5918 81.6638 27.223 71.597 27.223 54.2497L27.223 50.3747C27.2166 45.779 28.1199 41.2275 29.8807 36.9825C31.6415 32.7375 34.2252 28.883 37.4826 25.6411C40.7401 22.3993 44.607 19.8343 48.8604 18.0939C53.1138 16.3535 57.6697 15.4721 62.2653 15.5007C69.2325 15.5525 75.6931 17.6895 81.0956 21.312M40.6873 92.9997H100.273C100.955 92.998 101.623 92.8166 102.212 92.4739C102.801 92.1311 103.289 91.6392 103.627 91.0476C103.965 90.4561 104.141 89.7858 104.138 89.1045C104.134 88.4232 103.951 87.7548 103.606 87.1669C100.41 81.6648 96.7802 71.5979 96.7802 54.2497V50.8125C96.7802 46.5886 96.0401 42.5234 94.6819 38.7495" stroke="#DBDBDB" stroke-width="4" stroke-linecap="round" stroke-linejoin="round"/>
<path d="M46.5 93V96.875C46.5 100.986 48.133 104.928 51.0398 107.835C53.9467 110.742 57.8891 112.375 62 112.375C66.1109 112.375 70.0533 110.742 72.9602 107.835C75.867 104.928 77.5 100.986 77.5 96.875V93" stroke="#DBDBDB" stroke-width="4" stroke-linecap="round" stroke-linejoin="round"/>
<path d="M14.0858 114.836C13.3047 115.617 13.3047 116.883 14.0858 117.664C14.8668 118.445 16.1332 118.445 16.9142 117.664L14.0858 114.836ZM117.664 16.9142C118.445 16.1332 118.445 14.8668 117.664 14.0858C116.883 13.3047 115.617 13.3047 114.836 14.0858L117.664 16.9142ZM16.9142 117.664L117.664 16.9142L114.836 14.0858L14.0858 114.836L16.9142 117.664Z" fill="#DBDBDB"/>
</svg>
