<svg width="130" height="130" viewBox="0 0 130 130" fill="none" xmlns="http://www.w3.org/2000/svg">
<path d="M92.8036 42H81.1964C70.5945 42 62 50.4934 62 60.9706C62 71.4478 70.5945 79.9412 81.1964 79.9412C81.1964 79.9412 85.2143 81.2647 83.4286 87C83.4286 87 90.5714 86.5588 92.8036 79.9412C103.405 79.9412 112 71.4478 112 60.9706C112 50.4934 103.405 42 92.8036 42Z" fill="url(#paint0_linear_6677_98954)" stroke="url(#paint1_linear_6677_98954)" stroke-width="4" stroke-linejoin="round"/>
<path d="M84 33V28C84 24.134 80.866 21 77 21H38C34.134 21 31 24.134 31 28V100C31 103.866 34.134 107 38 107H77C80.866 107 84 103.866 84 100V96" stroke="#3D3D3D" stroke-width="5" stroke-linecap="round"/>
<path d="M52 30H63" stroke="#3D3D3D" stroke-width="5" stroke-linecap="round"/>
<path d="M96.2411 58C96.2411 61.902 97.0604 64.105 97.7476 65.2658C97.9117 65.5419 97.9988 65.8556 98 66.1752C98.0012 66.4948 97.9165 66.8091 97.7545 67.0864C97.5925 67.3637 97.3588 67.5941 97.0771 67.7545C96.7954 67.9149 96.4755 67.9996 96.1498 68H91.6319H77.8503C77.5245 67.9996 77.2046 67.9149 76.9229 67.7545C76.6411 67.594 76.4074 67.3635 76.2454 67.0862C76.0834 66.8089 75.9987 66.4945 76 66.1749C76.0013 65.8552 76.0884 65.5415 76.2527 65.2654C76.9402 64.1046 77.7599 61.9018 77.7599 58V57.0909C77.7568 54.683 78.7285 52.3724 80.4614 50.6675C82.1942 48.9627 84.5461 48.0031 86.9998 48L87.0705 48.0002C92.1272 48.0371 96.2411 52.1612 96.2411 57.1936V58Z" stroke="white" stroke-width="4"/>
<path d="M91 70C91 72.2091 89.2091 74 87 74C84.7909 74 83 72.2091 83 70" stroke="white" stroke-width="4"/>
<defs>
<linearGradient id="paint0_linear_6677_98954" x1="62" y1="64.5" x2="112" y2="64.5" gradientUnits="userSpaceOnUse">
<stop stop-color="#FF3C3B"/>
<stop offset="1" stop-color="#FF773B"/>
</linearGradient>
<linearGradient id="paint1_linear_6677_98954" x1="62" y1="64.5" x2="112" y2="64.5" gradientUnits="userSpaceOnUse">
<stop stop-color="#FF3C3B"/>
<stop offset="1" stop-color="#FF773B"/>
</linearGradient>
</defs>
</svg>
