<svg width="104" height="104" viewBox="0 0 104 104" fill="none" xmlns="http://www.w3.org/2000/svg">
<path d="M98 64C98 86.0698 76.6783 95.9338 48.1253 95.9338C19.5723 95.9338 5.5 86.0698 5.5 64C5.5 41.9302 27.947 34.5 56.5 34.5C76 64 98 41.9302 98 64Z" fill="#FFF1F1"/>
<path d="M43.4211 54.6771C36.4813 54.6771 30.8379 49.0338 30.8379 42.0939V28.6719H52.9538C54.6697 28.6719 56.0424 30.0446 56.0424 31.7605V42.1321C56.0424 49.0719 50.399 54.6771 43.4211 54.6771Z" fill="#FFC765"/>
<path d="M30.8379 38.7374C30.8379 47.5457 37.9684 54.7143 46.8147 54.7143H47.2342C56.0424 54.7143 63.211 47.5838 63.211 38.7374V22.2354H30.876V30.8443" stroke="#453838" stroke-width="2.5" stroke-miterlimit="10" stroke-linecap="round" stroke-linejoin="round"/>
<path d="M52.0377 74.5H41.5898" stroke="#453838" stroke-width="2.5" stroke-miterlimit="10" stroke-linecap="round" stroke-linejoin="round"/>
<path d="M38.2734 67.1377C38.731 63.4008 41.8959 61.541 45.7471 61.541H48.3019C52.1531 61.541 55.3179 63.439 55.7755 67.1377" stroke="#453838" stroke-width="2.5" stroke-miterlimit="10" stroke-linecap="round" stroke-linejoin="round"/>
<path d="M30.8378 43.8938C25.3851 43.8938 21 39.4706 21 34.056C21 28.6414 25.4232 24.2183 30.8378 24.2183" stroke="#453838" stroke-width="2.5" stroke-miterlimit="10" stroke-linecap="round" stroke-linejoin="round"/>
<path d="M63.1719 24.2183C68.6246 24.2183 73.0096 28.6414 73.0096 34.056C73.0096 39.4706 68.5865 43.8938 63.1719 43.8938" stroke="#453838" stroke-width="2.5" stroke-miterlimit="10" stroke-linecap="round" stroke-linejoin="round"/>
<path d="M47.0039 55.6689V60.7404" stroke="#453838" stroke-width="2.5" stroke-miterlimit="10" stroke-linecap="round" stroke-linejoin="round"/>
<path d="M57.606 82.0001H28.1309V67.1377H65.4991V82.0001H62.7918" stroke="#453838" stroke-width="2.5" stroke-miterlimit="10" stroke-linecap="round" stroke-linejoin="round"/>
<path d="M35.9482 14.1597L32.707 9.58398" stroke="#FFC765" stroke-width="2.5" stroke-miterlimit="10" stroke-linecap="round" stroke-linejoin="round"/>
<path d="M58.0645 14.1597L61.3437 9.58398" stroke="#FFC765" stroke-width="2.5" stroke-miterlimit="10" stroke-linecap="round" stroke-linejoin="round"/>
<path d="M47.0059 11.8722V6" stroke="#FFC765" stroke-width="2.5" stroke-miterlimit="10" stroke-linecap="round" stroke-linejoin="round"/>
</svg>
