<svg width="60" height="60" viewBox="0 0 60 60" fill="none" xmlns="http://www.w3.org/2000/svg">
<path d="M30 60C46.5685 60 60 46.5685 60 30C60 13.4315 46.5685 0 30 0C13.4315 0 0 13.4315 0 30C0 46.5685 13.4315 60 30 60Z" fill="black" fill-opacity="0.2"/>
<path d="M24.7 45.1854C25.9012 45.1854 26.875 44.2117 26.875 43.0104C26.875 41.8092 25.9012 40.8354 24.7 40.8354C23.4988 40.8354 22.525 41.8092 22.525 43.0104C22.525 44.2117 23.4988 45.1854 24.7 45.1854Z" stroke="white" stroke-width="2" stroke-linecap="round" stroke-linejoin="round"/>
<path d="M37.2824 45.1854C38.4836 45.1854 39.4574 44.2117 39.4574 43.0104C39.4574 41.8092 38.4836 40.8354 37.2824 40.8354C36.0812 40.8354 35.1074 41.8092 35.1074 43.0104C35.1074 44.2117 36.0812 45.1854 37.2824 45.1854Z" stroke="white" stroke-width="2" stroke-linecap="round" stroke-linejoin="round"/>
<path d="M14.125 18.5H19.1705L22.5509 34.2084C22.6663 34.7485 22.9822 35.2336 23.4434 35.579C23.9046 35.9243 24.4817 36.1077 25.0737 36.0971H37.3341C37.9261 36.1077 38.5032 35.9243 38.9644 35.579C39.4256 35.2336 39.7415 34.7485 39.8568 34.2084L41.875 24.3657H20.4318" stroke="white" stroke-width="2" stroke-linecap="round" stroke-linejoin="round"/>
</svg>
