<svg width="130" height="130" viewBox="0 0 130 130" fill="none" xmlns="http://www.w3.org/2000/svg">
<path d="M71.9161 24.4486C69.7669 23.9181 67.5251 23.629 65.2211 23.612C65.1468 23.6117 65.0732 23.6113 64.9989 23.6113C57.2845 23.6213 49.8901 26.6631 44.4423 32.0678C38.9944 37.4725 35.9393 44.7973 35.9491 52.4308V55.3128C35.9491 67.6821 33.3719 74.6654 31.2103 78.3452C30.694 79.2204 30.4201 80.2149 30.4161 81.2283C30.4121 82.2417 30.6782 83.2383 31.1876 84.1175C31.697 84.9966 32.4316 85.7274 33.3175 86.236C34.2033 86.7446 35.209 87.013 36.2332 87.0143H79.5618H93.766C94.79 87.013 95.7956 86.7446 96.6813 86.2361C97.5671 85.7277 98.3017 84.9971 98.8111 84.1181C99.3205 83.2391 99.5867 82.2427 99.5828 81.2295C99.579 80.2162 99.3053 79.2218 98.7892 78.3466C96.6287 74.6664 94.0529 67.6828 94.0529 55.3128V52.7563C94.0529 51.8271 94.0091 50.9077 93.9233 50" stroke="#3D3D3D" stroke-width="5" stroke-linecap="round"/>
<path d="M78.8328 87.0137C78.8328 96.4431 72.6394 102 64.9994 102C57.3594 102 51.166 96.4431 51.166 87.0137" stroke="#3D3D3D" stroke-width="5"/>
<circle cx="89.0552" cy="31.5278" r="11.5278" fill="url(#paint0_linear_6661_98359)"/>
<defs>
<linearGradient id="paint0_linear_6661_98359" x1="77.5273" y1="31.5278" x2="100.583" y2="31.5278" gradientUnits="userSpaceOnUse">
<stop stop-color="#FF3C3B"/>
<stop offset="1" stop-color="#FF773B"/>
</linearGradient>
</defs>
</svg>
