<svg width="120" height="120" viewBox="0 0 120 120" fill="none" xmlns="http://www.w3.org/2000/svg">
<rect width="120" height="120" rx="25" fill="url(#paint0_linear_6632_118956)"/>
<path d="M50.2498 55.2051C44.4717 55.2051 39.7705 59.9062 39.7705 65.6844C39.7705 71.4625 44.4717 76.1606 50.2498 76.1606C56.0279 76.1606 60.7261 71.4595 60.7261 65.6844C60.7261 59.9093 56.0279 55.2051 50.2498 55.2051ZM50.2498 70.9906C47.3244 70.9906 44.9436 68.6097 44.9436 65.6844C44.9436 62.759 47.3244 60.3782 50.2498 60.3782C53.1752 60.3782 55.556 62.759 55.556 65.6844C55.553 68.6097 53.1721 70.9906 50.2498 70.9906Z" fill="white"/>
<path d="M73.6261 70.8483C73.605 70.7515 73.5384 70.6668 73.4446 70.6274C73.3539 70.5881 73.248 70.6002 73.1633 70.6516C72.7519 70.9148 72.3283 71.0328 71.7838 71.0328C70.005 71.0328 69.3757 70.2553 69.3757 68.053V64.3048H73.3327C73.5021 64.3048 73.6352 64.1686 73.6352 64.0022V59.4796C73.6352 59.3102 73.4991 59.1771 73.3327 59.1771H69.3757V55.3562C69.3757 55.1868 69.2396 55.0537 69.0732 55.0537H64.5203C64.3509 55.0537 64.2178 55.1898 64.2178 55.3562V59.174V64.3017V68.05C64.2178 72.8873 66.9768 75.6614 71.7868 75.6614C72.8608 75.6614 73.8621 75.4738 74.9391 75.0714C75.0208 75.0412 75.0873 74.9716 75.1206 74.8869C75.1478 74.8022 75.1387 74.7084 75.0934 74.6298C74.3794 73.4499 73.8863 72.1763 73.6261 70.8483Z" fill="white"/>
<path d="M37.4818 72.597C37.4667 72.5849 35.821 70.9906 35.821 66.4952V50.1863C35.821 50.0169 35.6848 49.8838 35.5184 49.8838H30.7901C30.6206 49.8838 30.4845 50.0199 30.4845 50.1863V59.6219H18.9252V50.1863C18.9252 50.0169 18.7891 49.8838 18.6227 49.8838H13.8943C13.7249 49.8838 13.5918 50.0199 13.5918 50.1863V66.8219C13.5918 68.1772 13.616 71.0481 15.1952 73.9674C15.5733 74.6662 16.0422 75.2471 16.62 75.6131C16.6745 75.6464 16.735 75.6645 16.7955 75.6645C16.859 75.6645 16.9256 75.6464 16.983 75.607L20.58 73.1294C20.6677 73.0689 20.7161 72.9721 20.7192 72.8662C20.7222 72.7603 20.6738 72.6605 20.5921 72.597C20.577 72.5849 18.9282 70.9906 18.9282 66.353V64.7466H30.4875V66.8067C30.4875 66.8098 30.4845 66.8158 30.4845 66.8188C30.4845 66.8461 30.4875 66.9278 30.4875 67.0518C30.4875 68.7822 30.6751 71.3506 32.0879 73.9644C32.466 74.6632 32.9349 75.244 33.5127 75.6101C33.5672 75.6434 33.6277 75.6615 33.6882 75.6615C33.7517 75.6615 33.8183 75.6434 33.8727 75.604L37.4697 73.1264C37.5574 73.0659 37.6058 72.9691 37.6088 72.8632C37.6119 72.7603 37.5635 72.6605 37.4818 72.597Z" fill="white"/>
<path d="M88.0396 74.6328C87.3286 73.4469 86.8325 72.1733 86.5754 70.8483C86.5542 70.7515 86.4876 70.6668 86.3938 70.6274C86.3031 70.5881 86.1972 70.6002 86.1125 70.6516C85.7011 70.9148 85.2776 71.0328 84.733 71.0328C82.9542 71.0328 82.325 70.2553 82.325 68.053V64.3048H86.2819C86.4513 64.3048 86.5844 64.1686 86.5844 64.0022V59.4796C86.5844 59.3102 86.4483 59.1771 86.2819 59.1771H82.325V55.3562C82.325 55.1868 82.1888 55.0537 82.0224 55.0537H77.4695C77.3001 55.0537 77.167 55.1898 77.167 55.3562V59.174V64.3017V68.05C77.167 72.8873 79.926 75.6614 84.736 75.6614C85.81 75.6614 86.8113 75.4738 87.8883 75.0714C87.97 75.0412 88.0365 74.9716 88.0698 74.8869C88.094 74.8052 88.0849 74.7114 88.0396 74.6328Z" fill="white"/>
<path d="M102.506 37.6962C101.25 34.2107 97.9582 31.8242 94.1273 31.8242C89.1973 31.8242 85.1894 35.835 85.1894 40.765V44.7529L85.1865 44.7501V55.0126H99.4398C104.364 55.0097 108.372 50.9989 108.372 46.0746C108.372 42.2437 105.988 38.9551 102.506 37.6962ZM102.523 48.3041C101.829 49.2604 100.713 49.8913 99.4455 49.8942C99.4427 49.8942 99.4398 49.8942 99.4369 49.8942H98.669H97.5871H90.3078V42.6319V41.4444V40.7736V40.7678C90.3078 39.7402 90.7217 38.8096 91.384 38.1216C92.0434 37.4936 92.9312 37.0996 93.916 37.0996C95.9457 37.0996 97.59 38.7439 97.59 40.7736V42.6348H99.4484C101.478 42.6348 103.122 44.2791 103.122 46.3087C103.119 47.0424 102.897 47.7275 102.523 48.3041Z" fill="white"/>
<defs>
<linearGradient id="paint0_linear_6632_118956" x1="8.33333" y1="112" x2="112" y2="8.33333" gradientUnits="userSpaceOnUse">
<stop stop-color="#FF4943"/>
<stop offset="1" stop-color="#FF783E"/>
</linearGradient>
</defs>
</svg>
