<svg width="130" height="130" viewBox="0 0 130 130" fill="none" xmlns="http://www.w3.org/2000/svg">
<path d="M99.4944 23.7976L15.4588 46.3149C10.1242 47.7443 6.95833 53.2277 8.38775 58.5623L11.2348 69.1875C17.1029 67.6152 23.1346 71.0976 24.707 76.9657C26.2793 82.8338 22.7969 88.8655 16.9288 90.4379L19.2582 99.1312C20.6876 104.466 26.1709 107.632 31.5056 106.202L115.541 83.685C120.876 82.2556 124.042 76.7722 122.612 71.4376L120.024 61.7783C114.156 63.3507 108.124 59.8683 106.552 54.0001C104.979 48.132 108.462 42.1003 114.33 40.528L111.742 30.8687C110.312 25.534 104.829 22.3682 99.4944 23.7976Z" stroke="#3D3D3D" stroke-width="5" stroke-linejoin="round"/>
<path fill-rule="evenodd" clip-rule="evenodd" d="M51.5101 55.29C50.1764 55.6473 49.385 57.0182 49.7423 58.3518C50.0997 59.6855 51.4705 60.477 52.8042 60.1196C54.1379 59.7622 54.9293 58.3914 54.572 57.0577C54.2146 55.7241 52.8438 54.9326 51.5101 55.29ZM44.9127 59.6459C43.8406 55.6449 46.215 51.5324 50.216 50.4603C54.217 49.3883 58.3295 51.7627 59.4016 55.7636C60.4737 59.7646 58.0993 63.8772 54.0983 64.9492C50.0973 66.0213 45.9848 63.6469 44.9127 59.6459ZM79.1616 69.6215C77.8279 69.9788 77.0365 71.3496 77.3938 72.6833C77.7512 74.017 79.122 74.8084 80.4557 74.4511C81.7894 74.0937 82.5808 72.7229 82.2235 71.3892C81.8661 70.0556 80.4953 69.2641 79.1616 69.6215ZM72.5642 73.9774C71.4922 69.9764 73.8665 65.8639 77.8675 64.7918C81.8685 63.7198 85.981 66.0941 87.0531 70.0951C88.1252 74.0961 85.7508 78.2086 81.7498 79.2807C77.7488 80.3528 73.6363 77.9784 72.5642 73.9774ZM74.698 49.0638C75.2044 47.7793 74.5736 46.3275 73.2891 45.8211C72.0046 45.3146 70.5528 45.9454 70.0464 47.2299C67.9342 52.5876 64.7597 60.6914 62.101 67.5905C60.7721 71.0388 59.569 74.194 58.6912 76.557C58.2531 77.7367 57.8912 78.7317 57.634 79.4718C57.5061 79.8397 57.3979 80.1626 57.3176 80.4216L57.3103 80.4452C57.2607 80.6044 57.1345 81.0091 57.1027 81.3802C56.9846 82.7558 58.0042 83.9667 59.3798 84.0847C60.6803 84.1963 61.8335 83.2913 62.0554 82.0298C62.0632 82.0021 62.0754 81.9601 62.0936 81.9017C62.1493 81.7217 62.2364 81.4599 62.357 81.1129C62.5967 80.4231 62.9441 79.4671 63.3783 78.2981C64.2454 75.9639 65.4398 72.8313 66.7665 69.3885C69.419 62.5056 72.5885 54.4146 74.698 49.0638Z" fill="url(#paint0_linear_7488_165696)"/>
<defs>
<linearGradient id="paint0_linear_7488_165696" x1="55.9125" y1="100.698" x2="88.3698" y2="40.2368" gradientUnits="userSpaceOnUse">
<stop stop-color="#FF3C3B"/>
<stop offset="1" stop-color="#FF773B"/>
</linearGradient>
</defs>
</svg>
