<svg width="104" height="104" viewBox="0 0 104 104" fill="none" xmlns="http://www.w3.org/2000/svg">
<g clip-path="url(#clip0_7713_230230)">
<path d="M97.1033 72.1482C90.4418 93.1886 62.9743 103.259 35.7531 94.6402C8.5318 86.0218 -1.99953 66.9998 10.5007 51.5C42.0006 51.5 41.2795 23.3818 68.5008 32.0002C95.7221 40.6186 103.765 51.1077 97.1033 72.1482Z" fill="#FFF1F1"/>
<path d="M72.2876 75.9089H35.0234C32.5468 75.9089 30.5273 74.2099 30.5273 72.1261V46.1271C30.5273 44.0433 32.5468 42.3442 35.0234 42.3442H72.2876C74.7643 42.3442 76.7837 44.0433 76.7837 46.1271V72.1261C76.7837 74.2099 74.7643 75.9089 72.2876 75.9089Z" fill="#A8F05F"/>
<path d="M38.8467 27H70.4481C73.6082 27 76.1437 29.5597 76.1437 32.6679V70.3321C76.1437 73.4769 73.5715 76 70.4481 76L23.6956 75.9634C20.5355 75.9634 18 73.4037 18 70.2955V32.6679C18 29.5231 20.5722 27 23.6956 27L31.5711 27.0366" stroke="#453838" stroke-width="2.5" stroke-miterlimit="10" stroke-linecap="round" stroke-linejoin="round"/>
<path d="M52.6926 27H39.2012V43.3028H52.6926V27Z" stroke="#453838" stroke-width="2.5" stroke-miterlimit="10" stroke-linecap="round" stroke-linejoin="round"/>
<path d="M29.2522 54.6078V58.0817H34.5804C35.205 58.0817 35.793 58.4473 35.793 59.2884C35.793 60.1294 35.205 60.4951 34.5804 60.4951H29.2522V65.6876C29.2522 66.4921 28.7745 67.004 27.8926 67.004C27.0475 67.004 26.533 66.4921 26.533 65.7242V60.4951C25.9451 60.4585 25.4307 60.0928 25.4307 59.2884C25.4307 58.4839 25.9451 58.1548 26.533 58.0817V54.6078C25.9451 54.5712 25.4307 54.2421 25.4307 53.4011C25.4307 52.56 26.0186 52.1943 26.6433 52.1943H35.0581C35.6827 52.1943 36.2707 52.56 36.2707 53.4011C36.2707 54.2787 35.6827 54.6078 35.0581 54.6078H29.2522Z" fill="#453838"/>
<path d="M46.4134 58.5569C46.1194 59.0688 45.4948 59.3248 44.9436 59.0323C44.3556 58.7763 43.9147 58.63 43.29 58.63C42.6653 58.63 42.0407 58.886 41.3057 59.4345C41.3057 61.4091 41.269 63.8957 41.269 65.6143C41.269 66.4188 40.7913 66.9308 39.9094 66.9308C39.0275 66.9308 38.5498 66.4188 38.5498 65.6509V57.3867C38.5498 56.5823 39.0275 56.0703 39.9094 56.0703C40.6076 56.0703 41.0853 56.436 41.2322 56.9479C41.8202 56.5457 42.5551 56.2531 43.3635 56.2531C44.3924 56.2531 45.0905 56.436 45.9724 56.9479C46.5236 57.277 46.6706 58.0449 46.4134 58.5569Z" fill="#453838"/>
<path d="M56.738 65.8346C55.4152 66.6756 54.0188 67.0413 52.1815 67.0413C48.8009 67.0413 46.8534 65.0666 46.8902 61.8487C46.9269 58.4846 48.7642 56.2905 52.4388 56.2905C54.9742 56.2905 56.591 57.6801 56.591 59.6547C56.591 62.1047 54.1658 63.1652 49.8666 63.2749C50.2708 64.2622 51.1527 64.6644 52.1815 64.6644C53.1737 64.6644 54.0923 64.4816 54.9007 64.0428C55.2682 63.8599 55.5254 63.7137 55.9664 63.7137C57.2157 63.7137 57.5832 65.3226 56.738 65.8346ZM49.6828 61.0443C53.1002 60.9346 53.9086 60.3495 53.9086 59.5816C53.9086 59.0696 53.4676 58.6674 52.4388 58.6308C50.8954 58.5943 49.9033 59.4719 49.6828 61.0443Z" fill="#453838"/>
<path d="M68.24 65.8346C66.9171 66.6756 65.5208 67.0413 63.6835 67.0413C60.3029 67.0413 58.3554 65.0666 58.3921 61.8487C58.4289 58.4846 60.2661 56.2905 63.9407 56.2905C66.4762 56.2905 68.093 57.6801 68.093 59.6547C68.093 62.1047 65.6678 63.1652 61.3685 63.2749C61.7727 64.2622 62.6546 64.6644 63.6835 64.6644C64.6756 64.6644 65.5943 64.4816 66.4027 64.0428C66.7701 63.8599 67.0274 63.7137 67.4683 63.7137C68.7177 63.7137 69.0851 65.3226 68.24 65.8346ZM61.148 61.0443C64.5654 60.9346 65.3738 60.3495 65.3738 59.5816C65.3738 59.0696 64.9329 58.6674 63.904 58.6308C62.3607 58.5943 61.3685 59.4719 61.148 61.0443Z" fill="#453838"/>
<path d="M83.8193 54.4678H96.5586" stroke="#A8F05F" stroke-width="2.5" stroke-miterlimit="10" stroke-linecap="round" stroke-linejoin="round"/>
<path d="M91.2097 62.9194L83.8193 62.9482" stroke="#A8F05F" stroke-width="2.5" stroke-miterlimit="10" stroke-linecap="round" stroke-linejoin="round"/>
</g>
<defs>
<clipPath id="clip0_7713_230230">
<rect width="104" height="104" fill="white"/>
</clipPath>
</defs>
</svg>
