<svg width="104" height="104" viewBox="0 0 104 104" fill="none" xmlns="http://www.w3.org/2000/svg">
<g clip-path="url(#clip0_7713_230209)">
<path d="M102.103 72.1481C95.441 93.1886 67.9736 103.259 40.7523 94.6402C13.5311 86.0218 -3.13591 61.9786 3.5256 40.9382C10.1871 19.8977 29.8574 34.455 57.0787 43.0734C84.2999 51.6918 108.764 51.1077 102.103 72.1481Z" fill="#FFF1F1"/>
<path d="M70.3647 20.1348H42.9421C40.8075 20.1348 39.0771 21.8619 39.0771 23.9924V72.5805C39.0771 74.711 40.8075 76.4381 42.9421 76.4381H70.3647C72.4993 76.4381 74.2297 74.711 74.2297 72.5805V23.9924C74.2297 21.8619 72.4993 20.1348 70.3647 20.1348Z" fill="white"/>
<path fill-rule="evenodd" clip-rule="evenodd" d="M45.5638 19H42.9425C41.6164 19.0017 40.3451 19.5283 39.4074 20.4643C38.4697 21.4002 37.9422 22.6691 37.9404 23.9927V72.5873C37.9439 73.9097 38.4722 75.1769 39.4097 76.1115C40.3472 77.046 41.6175 77.5717 42.9425 77.5734H70.3717C71.6972 77.5734 72.9685 77.0483 73.9064 76.1134C74.8443 75.1785 75.372 73.9103 75.3738 72.5873V23.9927C75.3738 23.337 75.2444 22.6878 74.993 22.0821C74.7417 21.4763 74.3732 20.9259 73.9087 20.4623C73.4442 19.9987 72.8928 19.631 72.2859 19.38C71.679 19.1291 71.0286 19 70.3717 19H55.4277C55.1764 19.3783 54.975 19.8494 54.975 20.3881C54.975 20.7075 55.0458 21.0033 55.156 21.27H70.3717C71.0952 21.27 71.789 21.5569 72.3006 22.0675C72.8122 22.578 73.0995 23.2706 73.0995 23.9927V72.5873C73.0978 73.3082 72.8097 73.9991 72.2983 74.5083C71.7869 75.0174 71.094 75.3034 70.3717 75.3034H42.9425C42.2202 75.3034 41.5274 75.0174 41.016 74.5083C40.5046 73.9991 40.2164 73.3082 40.2147 72.5873V23.9927C40.2147 23.2706 40.5021 22.578 41.0137 22.0675C41.5252 21.5569 42.219 21.27 42.9425 21.27H45.7726C45.8775 20.9719 45.95 20.6655 45.95 20.3881C45.95 19.9487 45.7683 19.4369 45.5638 19Z" fill="#453838"/>
<path d="M71.1908 28.8564H42V71.5564H71.1908V28.8564Z" fill="#FFA7A1"/>
<path d="M60.1644 26.5698H53.1313C52.8297 26.5698 52.5405 26.4502 52.3272 26.2374C52.114 26.0245 51.9941 25.7358 51.9941 25.4348C51.9941 25.1338 52.114 24.8451 52.3272 24.6322C52.5405 24.4194 52.8297 24.2998 53.1313 24.2998H60.1447C60.4463 24.2998 60.7355 24.4194 60.9488 24.6322C61.162 24.8451 61.2818 25.1338 61.2818 25.4348C61.2818 25.7358 61.162 26.0245 60.9488 26.2374C60.7355 26.4502 60.4463 26.5698 60.1447 26.5698H60.1644Z" fill="#453838"/>
<path d="M64.0405 36.3833C63.5787 35.9449 63.0303 35.5971 62.4266 35.3598C61.823 35.1225 61.1759 35.0004 60.5224 35.0004C59.8689 35.0004 59.2218 35.1225 58.6182 35.3598C58.0145 35.5971 57.4661 35.9449 57.0044 36.3833C56.0701 35.4976 54.803 35 53.4818 35C52.1605 35 50.8934 35.4976 49.9591 36.3833C49.0248 37.2691 48.5 38.4704 48.5 39.7231C48.5 40.9757 49.0248 42.177 49.9591 43.0627L57.0044 49.7333L64.0405 43.0627C64.5032 42.6242 64.8702 42.1036 65.1206 41.5306C65.3711 40.9575 65.5 40.3433 65.5 39.7231C65.5 39.1028 65.3711 38.4885 65.1206 37.9155C64.8702 37.3425 64.5032 36.8218 64.0405 36.3833Z" fill="white" stroke="#453838" stroke-width="2.5" stroke-linejoin="round"/>
<path d="M89.8839 45.0328C89.5308 44.7055 89.1114 44.4458 88.6498 44.2686C88.1882 44.0914 87.6933 44.0003 87.1936 44.0003C86.6939 44.0003 86.199 44.0914 85.7374 44.2686C85.2758 44.4458 84.8564 44.7055 84.5033 45.0328C83.7889 44.3715 82.82 44 81.8096 44C80.7992 44 79.8302 44.3715 79.1158 45.0328C78.4013 45.6941 78 46.591 78 47.5263C78 48.4615 78.4013 49.3584 79.1158 50.0197L84.5033 55L89.8839 50.0197C90.2377 49.6923 90.5184 49.3036 90.7099 48.8758C90.9014 48.4479 91 47.9894 91 47.5263C91 47.0632 90.9014 46.6046 90.7099 46.1767C90.5184 45.7489 90.2377 45.3602 89.8839 45.0328Z" fill="#FFA7A1" stroke="#453838" stroke-width="2.5" stroke-linejoin="round"/>
<path d="M47.9516 57.8454H60.506C61.2846 57.8371 62.044 58.0864 62.6655 58.5544C63.2871 59.0225 63.7358 59.6829 63.9415 60.4324C64.1473 61.1819 64.0985 61.9783 63.8028 62.6972C63.5071 63.4161 62.9811 64.017 62.307 64.406C62.952 64.6715 63.5035 65.1222 63.8915 65.701C64.2796 66.2797 64.4867 66.9604 64.4867 67.6568C64.4867 68.3532 64.2796 69.0338 63.8915 69.6126C63.5035 70.1913 62.952 70.642 62.307 70.9076C62.9811 71.2965 63.5071 71.8974 63.8028 72.6163C64.0985 73.3352 64.1473 74.1317 63.9415 74.8812C63.7358 75.6307 63.2871 76.2911 62.6655 76.7591C62.044 77.2272 61.2846 77.4765 60.506 77.4682H60.0919C60.6663 77.9205 61.085 78.5404 61.2897 79.2415C61.4944 79.9425 61.475 80.6898 61.2342 81.3793C60.9933 82.0689 60.543 82.6662 59.9459 83.0882C59.3488 83.5102 58.6347 83.7358 57.9031 83.7336H42.1279C42.1279 83.7336 36.6131 84.042 32.6299 80.2171V61.6964C32.6299 61.6964 38.5981 58.6392 41.0499 53.9024C43.3504 49.4674 44.4218 46.2593 46.8736 46.8694C49.7394 47.5583 50.2455 52.1901 47.9516 57.8454Z" fill="white"/>
<path d="M41.8326 85.0005C40.4128 85.0005 35.4831 84.7184 31.7233 81.11C31.5963 80.9875 31.4953 80.8407 31.4264 80.6783C31.3575 80.516 31.3221 80.3415 31.3223 80.1653V61.6971C31.3224 61.4554 31.3894 61.2185 31.5158 61.0125C31.6422 60.8064 31.8232 60.6392 32.0388 60.5293C32.0914 60.5293 37.6653 57.5966 39.8935 53.3126C40.255 52.6106 40.5837 51.9479 40.8992 51.3444C42.5753 47.9656 43.7847 45.5186 46.3022 45.5186C46.604 45.5199 46.9044 45.5596 47.1961 45.6366C47.7974 45.79 48.3576 46.0734 48.8369 46.4668C49.3162 46.8602 49.703 47.354 49.9699 47.9132C51.015 49.9732 50.9559 53.0764 49.8253 56.5994H60.5065C61.4015 56.5982 62.2792 56.8451 63.0418 57.3127C63.8044 57.7802 64.422 58.45 64.8255 59.2474C65.229 60.0448 65.4027 60.9383 65.3271 61.8284C65.2516 62.7186 64.9299 63.5703 64.3978 64.2885C65.2981 65.1952 65.8032 66.4202 65.8032 67.6968C65.8032 68.9734 65.2981 70.1983 64.3978 71.105C64.8321 71.6921 65.1272 72.3698 65.261 73.0872C65.3947 73.8047 65.3636 74.543 65.17 75.2467C64.9763 75.9504 64.6252 76.601 64.143 77.1496C63.6608 77.6982 63.0602 78.1303 62.3864 78.4136C62.6236 78.99 62.7443 79.6077 62.7413 80.2309C62.7396 81.511 62.2294 82.7381 61.3225 83.6433C60.4156 84.5484 59.1861 85.0577 57.9036 85.0595H41.8326V85.0005ZM33.945 79.5879C36.1774 81.3903 38.9613 82.3744 41.8326 82.3762H57.9036C58.3634 82.3778 58.8122 82.2361 59.1874 81.9709C59.5626 81.7058 59.8456 81.3303 59.9968 80.8969C60.1481 80.4636 60.1601 79.9939 60.0311 79.5535C59.9021 79.113 59.6386 78.7237 59.2773 78.4398C59.0655 78.2702 58.9115 78.0392 58.8365 77.7786C58.7615 77.5181 58.7692 77.2407 58.8585 76.9847C58.9479 76.7287 59.1145 76.5066 59.3354 76.3489C59.5564 76.1913 59.8208 76.1058 60.0924 76.1042H60.5065C61.0922 76.1042 61.654 75.872 62.0682 75.4586C62.4823 75.0452 62.715 74.4845 62.715 73.8998C62.7169 73.5182 62.6183 73.1429 62.4291 72.8113C62.24 72.4797 61.9668 72.2035 61.637 72.0104C61.4269 71.8859 61.2557 71.7055 61.1425 71.4894C61.0294 71.2732 60.9788 71.0298 60.9966 70.7865C61.0143 70.5433 61.0997 70.3098 61.243 70.1122C61.3863 69.9147 61.5819 69.761 61.8079 69.6683C62.2118 69.5016 62.5571 69.219 62.8 68.8564C63.0429 68.4938 63.1725 68.0674 63.1725 67.6311C63.1725 67.1949 63.0429 66.7685 62.8 66.4059C62.5571 66.0433 62.2118 65.7608 61.8079 65.5941C61.5819 65.5014 61.3863 65.3476 61.243 65.15C61.0997 64.9525 61.0143 64.719 60.9966 64.4758C60.9788 64.2325 61.0294 63.9892 61.1425 63.773C61.2557 63.5568 61.4269 63.3764 61.637 63.2519C61.9668 63.0588 62.24 62.7827 62.4291 62.4511C62.6183 62.1195 62.7169 61.7441 62.715 61.3625C62.715 60.7778 62.4823 60.2172 62.0682 59.8038C61.654 59.3904 61.0922 59.1581 60.5065 59.1581H47.952C47.737 59.1577 47.5254 59.1046 47.3357 59.0035C47.146 58.9024 46.984 58.7564 46.864 58.5784C46.7439 58.4003 46.6695 58.1955 46.6472 57.982C46.6249 57.7686 46.6554 57.5529 46.7361 57.3539C48.4122 53.2273 48.2938 50.3537 47.6234 49.0416C47.5288 48.8163 47.3836 48.6157 47.1989 48.4553C47.0143 48.2949 46.7952 48.179 46.5586 48.1165C46.4753 48.0921 46.389 48.0788 46.3022 48.0772C45.4149 48.0772 44.3632 50.1963 43.2523 52.44C42.9368 53.0961 42.5951 53.7521 42.227 54.4804C40.1039 58.5742 35.6539 61.4346 33.9515 62.445L33.945 79.5879Z" fill="#453838"/>
<path d="M32.6369 60.417H24.3154V82.008H32.6369V60.417Z" fill="#FFA7A1"/>
<path d="M32.636 83.347H24.3146C23.9659 83.347 23.6315 83.2088 23.385 82.9627C23.1384 82.7166 23 82.3829 23 82.0349V60.4176C23 60.0696 23.1384 59.7359 23.385 59.4898C23.6315 59.2437 23.9659 59.1055 24.3146 59.1055H32.636C32.9846 59.1055 33.3191 59.2437 33.5656 59.4898C33.8122 59.7359 33.9506 60.0696 33.9506 60.4176V82.0349C33.9506 82.3829 33.8122 82.7166 33.5656 82.9627C33.3191 83.2088 32.9846 83.347 32.636 83.347ZM25.6292 80.7228H31.3214V61.7297H25.6292V80.7228Z" fill="#453838"/>
<path d="M24.3154 64.9832V60.417H32.6369V64.9832" fill="white"/>
<path d="M32.636 66.289C32.2873 66.289 31.953 66.1507 31.7064 65.9046C31.4599 65.6586 31.3214 65.3248 31.3214 64.9768V61.6965H25.6292V64.9768C25.6292 65.3248 25.4907 65.6586 25.2442 65.9046C24.9976 66.1507 24.6633 66.289 24.3146 66.289C23.9659 66.289 23.6315 66.1507 23.385 65.9046C23.1384 65.6586 23 65.3248 23 64.9768V60.3844C23 60.0364 23.1384 59.7027 23.385 59.4566C23.6315 59.2105 23.9659 59.0723 24.3146 59.0723H32.636C32.9846 59.0723 33.3191 59.2105 33.5656 59.4566C33.8122 59.7027 33.9506 60.0364 33.9506 60.3844V64.9768C33.9506 65.3248 33.8122 65.6586 33.5656 65.9046C33.3191 66.1507 32.9846 66.289 32.636 66.289Z" fill="#453838"/>
<path d="M22.7022 54.397L19.0967 51.5742" stroke="#FFA7A1" stroke-width="2.5" stroke-miterlimit="10" stroke-linecap="round" stroke-linejoin="round"/>
<path d="M29.2127 49.4961L27.2393 42.8809" stroke="#FFA7A1" stroke-width="2.5" stroke-miterlimit="10" stroke-linecap="round" stroke-linejoin="round"/>
</g>
<defs>
<clipPath id="clip0_7713_230209">
<rect width="104" height="104" fill="white"/>
</clipPath>
</defs>
</svg>
