<svg width="110" height="110" viewBox="0 0 110 110" fill="none" xmlns="http://www.w3.org/2000/svg">
<circle cx="55" cy="55" r="55" fill="#F7F7F7"/>
<g clip-path="url(#clip0_271_73340)">
<path d="M41.8961 80.7177C35.2908 80.7177 29.933 75.3081 29.933 68.639C29.933 61.9699 35.2855 56.5603 41.8961 56.5603C48.5014 56.5603 53.8592 61.9699 53.8592 68.639C53.8592 75.3081 48.5014 80.7177 41.8961 80.7177Z" fill="white" stroke="#323232" stroke-width="2" stroke-linecap="round"/>
<path d="M47.1686 38.2971C46.209 35.5681 43.0636 35.1913 42.056 35.1375V35.1321C42.056 35.1321 41.9974 35.1321 41.8961 35.1321C41.7948 35.1321 41.7362 35.1321 41.7362 35.1321V35.1375C40.7286 35.1859 37.5832 35.5627 36.6236 38.2971C35.4721 41.5697 39.3371 46.3119 39.4438 52.5396L41.7362 54.0252V54.2298L41.8961 54.1275L42.056 54.2298V54.0252L44.3484 52.5396C44.4497 46.3119 48.3201 41.5644 47.1686 38.2971Z" stroke="#323232" stroke-width="2" stroke-linecap="round"/>
<path d="M50.8417 48.562H32.9503C31.6122 48.562 30.5247 49.6601 30.5247 51.0111C30.5247 52.3622 31.6122 53.4602 32.9503 53.4602H38.3934V57.1043C38.3934 59.0582 39.9608 60.6407 41.896 60.6407C43.8312 60.6407 45.3986 59.0582 45.3986 57.1043V53.4602H50.8417C52.1798 53.4602 53.2673 52.3622 53.2673 51.0111C53.2673 49.6601 52.1798 48.562 50.8417 48.562Z" fill="#FFA99E" stroke="#323232" stroke-width="2" stroke-linecap="round" stroke-linejoin="round"/>
<path d="M39.2144 39.9871C39.2144 39.9871 39.1131 38.2162 41.5227 37.8125" stroke="#323232" stroke-width="2" stroke-linecap="round"/>
<path d="M79.0222 77.1544C79.0222 79.8672 76.8471 82.0634 74.1602 82.0634H64.9907C62.3038 82.0634 60.1287 79.8672 60.1287 77.1544V52.3672C60.1287 49.6544 62.3038 47.4583 64.9907 47.4583H74.1656C76.8525 47.4583 79.0276 49.6544 79.0276 52.3672V77.1544H79.0222Z" fill="white" stroke="#323232" stroke-width="2" stroke-linecap="round" stroke-linejoin="round"/>
<path d="M72.4544 37.8882C70.0501 35.8428 72.9609 33.4798 72.6463 31.1168C72.3638 29.0014 70.0607 28.9314 69.5756 28.9422C69.0905 28.9314 66.7874 29.0014 66.5049 31.1168C66.1903 33.4798 69.1011 35.8428 66.6968 37.8882C64.2924 39.9336 61.7601 41.8498 61.7601 44.0244H77.391C77.391 41.8498 74.8588 39.9336 72.4544 37.8882Z" stroke="#323232" stroke-width="2" stroke-linecap="round" stroke-linejoin="round"/>
<path d="M80.0671 50.2519C80.0671 50.9894 79.5553 51.5868 78.9263 51.5868H60.2246C59.5955 51.5868 59.0837 50.9894 59.0837 50.2519V44.8908C59.0837 44.1534 59.5955 43.5559 60.2246 43.5559H78.9316C79.5607 43.5559 80.0725 44.1534 80.0725 44.8908V50.2519H80.0671Z" fill="#FFA99E" stroke="#323232" stroke-width="2" stroke-linecap="round" stroke-linejoin="round"/>
<path d="M62.0317 45.9248V49.149" stroke="#323232" stroke-width="2"/>
<path d="M65.8062 45.9248V49.149" stroke="#323232" stroke-width="2"/>
<path d="M69.5752 45.9248V49.149" stroke="#323232" stroke-width="2"/>
<path d="M73.3496 45.9248V49.149" stroke="#323232" stroke-width="2"/>
<path d="M77.1189 45.9248V49.149" stroke="#323232" stroke-width="2"/>
<path d="M68.5624 56.9592H70.5935" stroke="#323232" stroke-width="2" stroke-linejoin="round"/>
<path d="M68.5624 62.5295H70.5935" stroke="#323232" stroke-width="2" stroke-linejoin="round"/>
<path d="M68.5624 68.0955H70.5935" stroke="#323232" stroke-width="2" stroke-linejoin="round"/>
<path d="M68.5624 73.6611H70.5935" stroke="#323232" stroke-width="2" stroke-linejoin="round"/>
</g>
<defs>
<clipPath id="clip0_271_73340">
<rect width="52" height="55" fill="white" transform="translate(29 28)"/>
</clipPath>
</defs>
</svg>
