<svg width="110" height="110" viewBox="0 0 110 110" fill="none" xmlns="http://www.w3.org/2000/svg">
<circle cx="55" cy="55" r="55" fill="#F7F7F7"/>
<g clip-path="url(#clip0_271_73341)">
<path d="M62.405 31.3357H58.3715L52.9935 38.4598C52.9935 40.2409 53.7106 44.1592 56.5788 45.584C59.4471 47.0088 61.658 43.803 62.405 42.0219V31.3357Z" fill="#FFA99E"/>
<path d="M62.5215 31.4426L58.5687 31.033C46.289 44.6757 58.7749 45.7087 58.7749 45.7087C63.5613 45.2991 62.656 31.309 62.656 31.309C65.4256 31.309 67.1376 31.8344 67.1376 31.8344C69.6384 34.0607 71.3504 37.2043 71.3504 37.2043H78.9961C79.256 42.9659 74.12 44.5688 74.12 44.5688H67.2631L65.4435 51.408L65.6049 51.8088L72.6052 76.9481C75.4735 77.6605 74.7564 80.0382 74.7564 80.0382H68.0519L61.1143 67.4374L52.2585 73.1456L56.0859 76.4761C60.6303 76.4761 58.9541 79.8067 58.9541 79.8067H40.3015L34.081 71.231C19.9638 59.1021 34.798 58.3897 34.798 58.3897C24.5082 63.3855 36.2321 67.9004 36.2321 67.9004L54.0691 50.3038L56.3368 45.3703" stroke="#323232" stroke-width="2.2"/>
<path d="M65.6139 51.791L55.2523 47.0535" stroke="#323232" stroke-width="2.2"/>
</g>
<defs>
<clipPath id="clip0_271_73341">
<rect width="53" height="51" fill="white" transform="translate(27 30)"/>
</clipPath>
</defs>
</svg>
