<svg width="200" height="200" viewBox="0 0 200 200" fill="none" xmlns="http://www.w3.org/2000/svg">
<path fill-rule="evenodd" clip-rule="evenodd" d="M95.03 115.52C97.81 115.52 100.06 113.27 100.06 110.49V91.03C100.06 88.25 97.81 86 95.03 86C92.25 86 90 88.25 90 91.03V110.49C90 113.27 92.25 115.52 95.03 115.52ZM95.03 130.81C97.81 130.81 100.06 128.56 100.06 125.78C100.06 123 97.81 120.75 95.03 120.75C92.25 120.75 90 123 90 125.78C90 128.56 92.25 130.81 95.03 130.81Z" fill="url(#paint0_linear)"/>
<mask id="path-2-outside-1" maskUnits="userSpaceOnUse" x="6.21487" y="27.0415" width="174.655" height="174.655" fill="black">
<rect fill="white" x="6.21487" y="27.0415" width="174.655" height="174.655"/>
<path fill-rule="evenodd" clip-rule="evenodd" d="M115.538 92.374C117.004 84.3661 116.705 68.942 107.245 59.4819C104.764 57.0009 101.652 54.9302 97.7779 53.5109C79.1288 46.6796 67.6899 59.2982 64.3016 66.4614C63.2529 69.6333 61.2294 77.036 61.5247 81.2705C61.82 85.5051 62.0155 126.078 62.0763 145.835C81.8336 145.896 122.407 146.092 126.641 146.387C130.876 146.682 138.278 144.659 141.45 143.61C148.614 140.222 161.232 128.783 154.401 110.134C152.982 106.259 150.911 103.148 148.43 100.667C138.97 91.2067 123.546 90.908 115.538 92.374Z"/>
</mask>
<path d="M107.245 59.4819L113.608 53.1178L113.608 53.1178L107.245 59.4819ZM115.538 92.374L106.685 90.7533L104.338 103.574L117.158 101.227L115.538 92.374ZM97.7779 53.5109L94.6823 61.9618L94.6823 61.9618L97.7779 53.5109ZM64.3016 66.4614L56.1658 62.613L55.9298 63.1121L55.7565 63.6363L64.3016 66.4614ZM62.0763 145.835L53.0763 145.863L53.1039 154.808L62.0486 154.835L62.0763 145.835ZM126.641 146.387L126.015 155.365L126.015 155.365L126.641 146.387ZM141.45 143.61L144.275 152.155L144.8 151.982L145.299 151.746L141.45 143.61ZM154.401 110.134L145.95 113.229L145.95 113.229L154.401 110.134ZM148.43 100.667L154.794 94.3034L154.794 94.3034L148.43 100.667ZM100.881 65.8459C103.904 68.8689 105.759 73.1642 106.628 78.0483C107.496 82.9294 107.244 87.7 106.685 90.7533L124.391 93.9948C125.298 89.0401 125.63 82.0947 124.35 74.8968C123.07 67.7018 120.046 59.555 113.608 53.1178L100.881 65.8459ZM94.6823 61.9618C97.3218 62.9286 99.3193 64.2846 100.881 65.8459L113.608 53.1178C110.208 49.7173 105.983 46.9317 100.873 45.06L94.6823 61.9618ZM72.4373 70.3097C73.4755 68.115 76.015 64.697 79.7695 62.5597C83.1495 60.6355 87.9149 59.4829 94.6823 61.9618L100.873 45.06C88.9917 40.7077 78.7132 42.4487 70.8644 46.9168C63.3901 51.1717 58.516 57.6446 56.1658 62.613L72.4373 70.3097ZM70.5029 80.6445C70.4494 79.8772 70.6325 78.0225 71.206 75.3687C71.7313 72.9381 72.4112 70.6037 72.8467 69.2864L55.7565 63.6363C55.1433 65.491 54.2871 68.4439 53.6122 71.5663C52.9857 74.4654 52.3047 78.4293 52.5465 81.8966L70.5029 80.6445ZM71.0763 145.808C71.0164 126.356 70.8257 85.2745 70.5029 80.6445L52.5465 81.8966C52.8142 85.7356 53.0146 125.8 53.0763 145.863L71.0763 145.808ZM62.0486 154.835C82.1115 154.897 122.176 155.098 126.015 155.365L127.267 137.409C122.637 137.086 81.5556 136.895 62.104 136.836L62.0486 154.835ZM126.015 155.365C129.483 155.607 133.446 154.926 136.346 154.3C139.468 153.625 142.421 152.768 144.275 152.155L138.625 135.065C137.308 135.501 134.974 136.18 132.543 136.706C129.889 137.279 128.035 137.462 127.267 137.409L126.015 155.365ZM145.299 151.746C150.267 149.396 156.74 144.522 160.995 137.047C165.463 129.199 167.204 118.92 162.852 107.038L145.95 113.229C148.429 119.997 147.276 124.762 145.352 128.142C143.215 131.897 139.797 134.436 137.602 135.474L145.299 151.746ZM162.852 107.038C160.98 101.929 158.194 97.7039 154.794 94.3034L142.066 107.031C143.627 108.593 144.983 110.59 145.95 113.229L162.852 107.038ZM154.794 94.3034C148.357 87.866 140.21 84.8417 133.015 83.5622C125.817 82.2822 118.872 82.6141 113.917 83.5212L117.158 101.227C120.212 100.668 124.982 100.416 129.864 101.284C134.748 102.153 139.043 104.008 142.066 107.031L154.794 94.3034Z" fill="url(#paint1_linear)" mask="url(#path-2-outside-1)"/>
<defs>
<linearGradient id="paint0_linear" x1="82.5" y1="131" x2="110.5" y2="86" gradientUnits="userSpaceOnUse">
<stop stop-color="#EB4935"/>
<stop offset="1" stop-color="#EE6B35"/>
</linearGradient>
<linearGradient id="paint1_linear" x1="114.988" y1="93.5176" x2="76.8804" y2="131.625" gradientUnits="userSpaceOnUse">
<stop stop-color="#EF6C35"/>
<stop offset="1" stop-color="#EA3E36"/>
</linearGradient>
</defs>
</svg>
