<svg width="401" height="42" viewBox="0 0 401 42" fill="none" xmlns="http://www.w3.org/2000/svg">
<mask id="path-1-inside-1" fill="white">
<path fill-rule="evenodd" clip-rule="evenodd" d="M7.22813 26.4924L0 21L7.22813 15.5076C9.64258 6.5734 17.8049 0 27.5026 0H380C391.598 0 401 9.40202 401 21C401 32.598 391.598 42 380 42H27.5026C17.8049 42 9.64258 35.4266 7.22813 26.4924Z"/>
</mask>
<path fill-rule="evenodd" clip-rule="evenodd" d="M7.22813 26.4924L0 21L7.22813 15.5076C9.64258 6.5734 17.8049 0 27.5026 0H380C391.598 0 401 9.40202 401 21C401 32.598 391.598 42 380 42H27.5026C17.8049 42 9.64258 35.4266 7.22813 26.4924Z" fill="white"/>
<path d="M7.22813 26.4924L8.1935 26.2315L8.10457 25.9024L7.83315 25.6962L7.22813 26.4924ZM0 21L-0.605015 20.2038L-1.65285 21L-0.605015 21.7962L0 21ZM7.22813 15.5076L7.83315 16.3038L8.10457 16.0976L8.1935 15.7685L7.22813 15.5076ZM7.83315 25.6962L0.605015 20.2038L-0.605015 21.7962L6.62312 27.2886L7.83315 25.6962ZM0.605015 21.7962L7.83315 16.3038L6.62312 14.7114L-0.605015 20.2038L0.605015 21.7962ZM8.1935 15.7685C10.4931 7.25935 18.2681 1 27.5026 1V-1C17.3417 -1 8.79208 5.88745 6.26277 15.2467L8.1935 15.7685ZM27.5026 1H380V-1H27.5026V1ZM380 1C391.045 1 400 9.9543 400 21H402C402 8.84974 392.15 -1 380 -1V1ZM400 21C400 32.0457 391.045 41 380 41V43C392.15 43 402 33.1503 402 21H400ZM380 41H27.5026V43H380V41ZM27.5026 41C18.2681 41 10.4931 34.7406 8.1935 26.2315L6.26277 26.7533C8.79208 36.1126 17.3417 43 27.5026 43V41Z" fill="#CCCCCC" mask="url(#path-1-inside-1)"/>
</svg>
