<svg width="382" height="42" viewBox="0 0 382 42" fill="none" xmlns="http://www.w3.org/2000/svg">
<mask id="path-1-inside-1" fill="white">
<path fill-rule="evenodd" clip-rule="evenodd" d="M6.74146 26.5518L0 21L6.74146 15.4482C9.17596 6.54429 17.3236 0 26.9998 0H361C372.598 0 382 9.40202 382 21C382 32.598 372.598 42 361 42H26.9998C17.3236 42 9.17596 35.4557 6.74146 26.5518Z"/>
</mask>
<path fill-rule="evenodd" clip-rule="evenodd" d="M6.74146 26.5518L0 21L6.74146 15.4482C9.17596 6.54429 17.3236 0 26.9998 0H361C372.598 0 382 9.40202 382 21C382 32.598 372.598 42 361 42H26.9998C17.3236 42 9.17596 35.4557 6.74146 26.5518Z" fill="white"/>
<path d="M6.74146 26.5518L7.70605 26.288L7.6223 25.9817L7.37717 25.7799L6.74146 26.5518ZM0 21L-0.635707 20.2281L-1.57305 21L-0.635707 21.7719L0 21ZM6.74146 15.4482L7.37717 16.2201L7.6223 16.0183L7.70605 15.7119L6.74146 15.4482ZM7.37717 25.7799L0.635707 20.2281L-0.635707 21.7719L6.10575 27.3237L7.37717 25.7799ZM0.635707 21.7719L7.37717 16.2201L6.10575 14.6763L-0.635707 20.2281L0.635707 21.7719ZM7.70605 15.7119C10.0247 7.23161 17.7858 1 26.9998 1V-1C16.8614 -1 8.32718 5.85697 5.77686 15.1845L7.70605 15.7119ZM26.9998 1H361V-1H26.9998V1ZM361 1C372.046 1 381 9.9543 381 21H383C383 8.84974 373.15 -1 361 -1V1ZM381 21C381 32.0457 372.045 41 361 41V43C373.15 43 383 33.1503 383 21H381ZM361 41H26.9998V43H361V41ZM26.9998 41C17.7858 41 10.0247 34.7684 7.70605 26.288L5.77686 26.8155C8.32718 36.143 16.8614 43 26.9998 43V41Z" fill="#CCCCCC" mask="url(#path-1-inside-1)"/>
</svg>
