<svg width="241" height="42" viewBox="0 0 241 42" fill="none" xmlns="http://www.w3.org/2000/svg">
<mask id="path-1-inside-1" fill="white">
<path fill-rule="evenodd" clip-rule="evenodd" d="M4.69267 27.1256L0 21L4.69267 14.8744C7.3142 6.26456 15.3181 0 24.7852 0H220C231.598 0 241 9.40202 241 21C241 32.598 231.598 42 220 42H24.7852C15.3181 42 7.31419 35.7354 4.69267 27.1256Z"/>
</mask>
<path fill-rule="evenodd" clip-rule="evenodd" d="M4.69267 27.1256L0 21L4.69267 14.8744C7.3142 6.26456 15.3181 0 24.7852 0H220C231.598 0 241 9.40202 241 21C241 32.598 231.598 42 220 42H24.7852C15.3181 42 7.31419 35.7354 4.69267 27.1256Z" fill="white"/>
<path d="M4.69267 27.1256L5.64931 26.8343L5.59658 26.6611L5.4865 26.5174L4.69267 27.1256ZM0 21L-0.793831 20.3919L-1.25971 21L-0.793831 21.6081L0 21ZM4.69267 14.8744L5.4865 15.4826L5.59658 15.3389L5.64931 15.1657L4.69267 14.8744ZM5.4865 26.5174L0.793831 20.3919L-0.793831 21.6081L3.89884 27.7337L5.4865 26.5174ZM0.793831 21.6081L5.4865 15.4826L3.89884 14.2663L-0.793831 20.3919L0.793831 21.6081ZM5.64931 15.1657C8.14624 6.96504 15.7704 1 24.7852 1V-1C14.8658 -1 6.48215 5.56408 3.73603 14.5832L5.64931 15.1657ZM24.7852 1H220V-1H24.7852V1ZM220 1C231.046 1 240 9.9543 240 21H242C242 8.84974 232.15 -1 220 -1V1ZM240 21C240 32.0457 231.046 41 220 41V43C232.15 43 242 33.1503 242 21H240ZM220 41H24.7852V43H220V41ZM24.7852 41C15.7704 41 8.14624 35.035 5.64931 26.8343L3.73603 27.4168C6.48214 36.4359 14.8658 43 24.7852 43V41Z" fill="#CCCCCC" mask="url(#path-1-inside-1)"/>
</svg>
