<svg width="30" height="30" viewBox="0 0 30 30" fill="none" xmlns="http://www.w3.org/2000/svg">
<rect width="30" height="30" fill="#D8D8D8" fill-opacity="0.01"/>
<path fill-rule="evenodd" clip-rule="evenodd" d="M23.3033 6.28432L24.7051 7.63613C25.0983 8.01436 25.0983 8.62866 24.7051 9.00862L17.9733 15.5L24.7051 21.9914C25.0983 22.3713 25.0983 22.9856 24.7051 23.3639L23.3033 24.7157C22.9092 25.0948 22.2731 25.0948 21.8808 24.7157L15 18.0807L8.12009 24.7157C7.72695 25.0948 7.09078 25.0948 6.69675 24.7157L5.29485 23.3639C4.90172 22.9856 4.90172 22.3713 5.29485 21.9914L12.0275 15.5L5.29485 9.00862C4.90172 8.62866 4.90172 8.01436 5.29485 7.63613L6.69675 6.28432C7.09078 5.90523 7.72695 5.90523 8.12009 6.28432L15 12.9193L21.8808 6.28432C22.2731 5.90523 22.9092 5.90523 23.3033 6.28432Z" fill="#6F6F6F"/>
</svg>
