<svg width="42" height="42" viewBox="0 0 42 42" fill="none" xmlns="http://www.w3.org/2000/svg">
<path d="M10.5 26.25C13.3995 26.25 15.75 23.8995 15.75 21C15.75 18.1005 13.3995 15.75 10.5 15.75C7.6005 15.75 5.25 18.1005 5.25 21C5.25 23.8995 7.6005 26.25 10.5 26.25Z" stroke="#3D3D3D" stroke-width="2.5" stroke-linecap="round" stroke-linejoin="round"/>
<path d="M28.875 38.0625C31.7745 38.0625 34.125 35.712 34.125 32.8125C34.125 29.913 31.7745 27.5625 28.875 27.5625C25.9755 27.5625 23.625 29.913 23.625 32.8125C23.625 35.712 25.9755 38.0625 28.875 38.0625Z" stroke="#3D3D3D" stroke-width="2.5" stroke-linecap="round" stroke-linejoin="round"/>
<path d="M28.875 14.4375C31.7745 14.4375 34.125 12.087 34.125 9.1875C34.125 6.288 31.7745 3.9375 28.875 3.9375C25.9755 3.9375 23.625 6.288 23.625 9.1875C23.625 12.087 25.9755 14.4375 28.875 14.4375Z" stroke="#3D3D3D" stroke-width="2.5" stroke-linecap="round" stroke-linejoin="round"/>
<path d="M24.4592 12.0264L14.9155 18.1616" stroke="#3D3D3D" stroke-width="2.5" stroke-linecap="round" stroke-linejoin="round"/>
<path d="M14.9154 23.8384L24.4591 29.9736" stroke="#3D3D3D" stroke-width="2.5" stroke-linecap="round" stroke-linejoin="round"/>
</svg>
