<svg width="39" height="35" viewBox="0 0 39 35" fill="none" xmlns="http://www.w3.org/2000/svg">
<path fill-rule="evenodd" clip-rule="evenodd" d="M10.536 17.6073C10.536 22.4453 14.472 26.3823 19.31 26.3823C24.148 26.3823 28.084 22.4453 28.084 17.6073C28.084 12.7693 24.148 8.83228 19.31 8.83228C14.472 8.83228 10.536 12.7693 10.536 17.6073ZM0 17.6073C0 12.3823 8.645 4.68828 19.31 4.68828C29.975 4.68828 38.621 11.8523 38.621 17.6073C38.621 22.8323 29.975 30.5263 19.31 30.5263C8.645 30.5263 0 23.3623 0 17.6073ZM14.536 17.6065C14.536 14.9745 16.677 12.8325 19.31 12.8325C21.943 12.8325 24.084 14.9745 24.084 17.6065C24.084 20.2395 21.943 22.3825 19.31 22.3825C16.677 22.3825 14.536 20.2395 14.536 17.6065Z" fill="#D8D8D8"/>
</svg>
