<svg width="80" height="80" viewBox="0 0 80 80" fill="none" xmlns="http://www.w3.org/2000/svg">
<rect opacity="0.6" x="0.5" y="0.5" width="79" height="79" rx="3.5" fill="white" stroke="#DADADA"/>
<path d="M26.0027 59.1722H28.0627V47.1922H32.0427V45.4722H21.9827V47.1922H26.0027V59.1722ZM39.4192 59.3922C43.1792 59.3922 45.5592 56.8522 45.5592 52.5322V52.1322C45.5592 47.6122 43.2192 45.2322 39.4992 45.2322C35.7392 45.2322 33.3392 47.7922 33.3392 52.1122V52.5122C33.3392 57.0122 35.6992 59.3922 39.4192 59.3922ZM39.4792 57.7522C36.6192 57.7522 35.5592 55.6322 35.5592 52.4922V51.7922C35.5592 48.9722 36.7792 46.8922 39.3992 46.8922C42.3192 46.9122 43.3392 48.9922 43.3392 52.1522V52.8122C43.3392 55.6722 42.0992 57.7522 39.4792 57.7522ZM48.025 59.1722H50.085V53.8922H52.725C55.425 53.8922 57.225 52.4122 57.225 49.5922C57.225 46.9522 55.685 45.4722 52.545 45.4722H48.025V59.1722ZM50.085 52.2722V47.1522H52.365C54.325 47.1522 55.045 47.8922 55.045 49.7522C55.045 51.4322 54.305 52.2722 52.325 52.2722H50.085Z" fill="#555555"/>
<path fill-rule="evenodd" clip-rule="evenodd" d="M50.32 32.6408C50.8106 32.1603 50.8087 31.3807 50.3159 30.9024L40.4769 21.3552C40.1598 21.0474 39.7167 20.9398 39.3115 21.0318C38.9459 21.0002 38.5692 21.1255 38.2953 21.4064L29.033 30.906C28.5633 31.3878 28.5723 32.1487 29.0532 32.6197C29.55 33.1064 30.3584 33.0972 30.8437 32.5995L39.4306 23.7926L48.5533 32.6448C49.0429 33.12 49.8326 33.1182 50.32 32.6408Z" fill="#555555"/>
</svg>
