<svg width="39" height="35" viewBox="0 0 39 35" fill="none" xmlns="http://www.w3.org/2000/svg">
<path fill-rule="evenodd" clip-rule="evenodd" d="M9.683 34.2134C9.198 34.2134 8.707 34.0724 8.276 33.7784C7.136 33.0004 6.842 31.4444 7.62 30.3044L9.04439 28.2168C3.61094 25.6346 0 21.3267 0 17.6073C0 12.3823 8.645 4.68828 19.31 4.68828C21.1739 4.68828 22.9762 4.90711 24.6814 5.29899L26.87 2.09138C27.648 0.951382 29.203 0.656382 30.344 1.43538C31.484 2.21338 31.778 3.76938 31 4.90938L29.5753 6.99749C35.0094 9.57963 38.621 13.8877 38.621 17.6073C38.621 22.8323 29.975 30.5263 19.31 30.5263C17.4459 30.5263 15.6434 30.3074 13.9381 29.9154L11.75 33.1224C11.266 33.8314 10.482 34.2134 9.683 34.2134ZM16.6336 25.9649C17.4777 26.2359 18.3771 26.3823 19.31 26.3823C24.148 26.3823 28.084 22.4453 28.084 17.6073C28.084 15.5105 27.3447 13.5829 26.113 12.0718L23.6673 15.6562C23.935 16.252 24.084 16.9122 24.084 17.6065C24.084 20.2395 21.943 22.3825 19.31 22.3825C19.2334 22.3825 19.1573 22.3807 19.0816 22.3771L16.6336 25.9649ZM21.9859 9.24954C21.142 8.97862 20.2427 8.83228 19.31 8.83228C14.472 8.83228 10.536 12.7693 10.536 17.6073C10.536 19.7039 11.2752 21.6313 12.5067 23.1424L14.9527 19.5575C14.685 18.9615 14.536 18.301 14.536 17.6065C14.536 14.9745 16.677 12.8325 19.31 12.8325C19.3863 12.8325 19.4622 12.8343 19.5376 12.8378L21.9859 9.24954Z" fill="#D8D8D8"/>
</svg>
