<svg width="48" height="48" viewBox="0 0 48 48" fill="none" xmlns="http://www.w3.org/2000/svg">
<path d="M28.5009 38.9996V29.9994C28.5009 29.6016 28.3428 29.22 28.0615 28.9387C27.7802 28.6574 27.3987 28.4994 27.0009 28.4994H21.0009C20.603 28.4994 20.2215 28.6574 19.9402 28.9387C19.6589 29.22 19.5009 29.6016 19.5009 29.9994V38.9996C19.5009 39.3974 19.3428 39.7789 19.0616 40.0602C18.7803 40.3415 18.3988 40.4995 18.001 40.4996L9.00214 40.5008C8.80514 40.5008 8.61007 40.462 8.42806 40.3866C8.24605 40.3113 8.08067 40.2008 7.94136 40.0615C7.80205 39.9222 7.69155 39.7568 7.61615 39.5748C7.54076 39.3928 7.50195 39.1978 7.50195 39.0008V21.6644C7.50195 21.4555 7.54562 21.2488 7.63016 21.0577C7.71469 20.8666 7.83823 20.6952 7.99285 20.5546L22.9918 6.91685C23.2679 6.6658 23.6277 6.52668 24.0009 6.52667C24.374 6.52666 24.7338 6.66575 25.01 6.91678L40.011 20.5546C40.1656 20.6952 40.2892 20.8666 40.3737 21.0577C40.4583 21.2488 40.502 21.4555 40.502 21.6645V39.0008C40.502 39.1978 40.4631 39.3928 40.3878 39.5748C40.3124 39.7568 40.2019 39.9222 40.0625 40.0615C39.9232 40.2008 39.7579 40.3113 39.5758 40.3866C39.3938 40.462 39.1988 40.5008 39.0018 40.5008L30.0007 40.4996C29.6029 40.4995 29.2214 40.3415 28.9401 40.0602C28.6589 39.7789 28.5009 39.3974 28.5009 38.9996V38.9996Z" stroke="#3D3D3D" stroke-width="3" stroke-linecap="round" stroke-linejoin="round"/>
</svg>
