<svg width="24" height="24" viewBox="0 0 24 24" fill="none" xmlns="http://www.w3.org/2000/svg">
<path fill-rule="evenodd" clip-rule="evenodd" d="M14.6922 11.9998L23.7187 2.97328C24.0935 2.59846 24.0935 1.99202 23.7187 1.6172L22.3823 0.280763C22.0075 -0.0933538 21.401 -0.0933538 21.0262 0.280763L11.9996 9.3073L2.97311 0.280763C2.59899 -0.0933538 1.99184 -0.0933538 1.61772 0.280763L0.280588 1.6172C-0.0935293 1.99202 -0.0935293 2.59846 0.280588 2.97328L9.30713 11.9998L0.280588 21.0264C-0.0935293 21.4012 -0.0935293 22.0083 0.280588 22.3825L1.61772 23.7189C1.99184 24.0937 2.59899 24.0937 2.97311 23.7189L11.9996 14.6923L21.0262 23.7189C21.401 24.0937 22.0075 24.0937 22.3823 23.7189L23.7187 22.3825C24.0935 22.0083 24.0935 21.4012 23.7187 21.0264L14.6922 11.9998Z" fill="white"/>
</svg>
