<svg width="150" height="150" viewBox="0 0 150 150" fill="none" xmlns="http://www.w3.org/2000/svg">
<g filter="url(#filter0_d)">
<rect x="10" y="5" width="130" height="130" rx="65" fill="#FF4B3B"/>
<rect x="10.5" y="5.5" width="129" height="129" rx="64.5" stroke="#F63F2F"/>
</g>
<path d="M75.912 90.888V88.2H72.356V82.264H69.052V96.852H72.356V90.888H75.912ZM67.512 93.156C64.572 92.204 61.688 89.404 61.688 85.54V83.384H58.328V85.736C58.328 89.488 55.92 92.456 52.28 93.744L54.268 96.348C56.592 95.536 59.28 93.212 60.036 90.664C61.128 92.96 63.704 94.976 65.636 95.704L67.512 93.156ZM72.636 102.172C72.636 99.036 69.5 97.104 64.068 97.104C58.692 97.104 55.556 99.036 55.556 102.172C55.556 105.224 58.692 107.212 64.068 107.212C69.5 107.212 72.636 105.224 72.636 102.172ZM64.068 99.708C67.372 99.708 69.304 100.66 69.304 102.172C69.304 103.656 67.372 104.58 64.068 104.58C60.82 104.58 58.916 103.656 58.916 102.172C58.916 100.66 60.82 99.708 64.068 99.708ZM100.111 90.72V88.06H96.5546V82.264H93.2506V96.096H96.5546V90.72H100.111ZM96.5546 106.904V97.412H80.3986V106.904H96.5546ZM93.2786 104.328H83.6746V99.904H93.2786V104.328ZM81.1266 92.512V86.492H88.9946V83.888H77.8786V95.144H80.3146C84.9066 95.144 88.9946 94.836 91.3466 94.304L90.9266 91.784C88.3786 92.344 84.7666 92.512 81.1266 92.512Z" fill="white"/>
<path fill-rule="evenodd" clip-rule="evenodd" d="M62.039 28.9994H87.621C94.269 28.9994 99.661 34.3894 99.661 41.0394V54.9354C99.661 61.5854 94.269 66.9754 87.621 66.9754H80.181L75.315 75.4234C75.215 75.5974 75.029 75.7054 74.829 75.7054C74.629 75.7054 74.443 75.5974 74.343 75.4234L69.477 66.9754H62.039C55.391 66.9754 49.999 61.5854 49.999 54.9354V41.0394C49.999 34.3894 55.391 28.9994 62.039 28.9994ZM77.9998 48C77.9998 49.6568 76.6567 51 74.9998 51C73.343 51 71.9998 49.6568 71.9998 48C71.9998 46.3431 73.343 45 74.9998 45C76.6567 45 77.9998 46.3431 77.9998 48ZM84.9998 51C86.6567 51 87.9998 49.6568 87.9998 48C87.9998 46.3431 86.6567 45 84.9998 45C83.343 45 81.9998 46.3431 81.9998 48C81.9998 49.6568 83.343 51 84.9998 51ZM67.9998 48C67.9998 49.6568 66.6567 51 64.9998 51C63.343 51 61.9998 49.6568 61.9998 48C61.9998 46.3431 63.343 45 64.9998 45C66.6567 45 67.9998 46.3431 67.9998 48Z" fill="white"/>
<defs>
<filter id="filter0_d" x="0" y="0" width="150" height="150" filterUnits="userSpaceOnUse" color-interpolation-filters="sRGB">
<feFlood flood-opacity="0" result="BackgroundImageFix"/>
<feColorMatrix in="SourceAlpha" type="matrix" values="0 0 0 0 0 0 0 0 0 0 0 0 0 0 0 0 0 0 127 0"/>
<feOffset dy="5"/>
<feGaussianBlur stdDeviation="5"/>
<feColorMatrix type="matrix" values="0 0 0 0 0 0 0 0 0 0 0 0 0 0 0 0 0 0 0.1 0"/>
<feBlend mode="normal" in2="BackgroundImageFix" result="effect1_dropShadow"/>
<feBlend mode="normal" in="SourceGraphic" in2="effect1_dropShadow" result="shape"/>
</filter>
</defs>
</svg>
