<svg width="148" height="58" viewBox="0 0 148 58" fill="none" xmlns="http://www.w3.org/2000/svg">
<path d="M70.4323 28.5215C62.9559 28.5215 56.873 34.6044 56.873 42.0808C56.873 49.5572 62.9559 55.6361 70.4323 55.6361C77.9087 55.6361 83.9877 49.5533 83.9877 42.0808C83.9877 34.6083 77.9087 28.5215 70.4323 28.5215ZM70.4323 48.9465C66.6472 48.9465 63.5666 45.8659 63.5666 42.0808C63.5666 38.2956 66.6472 35.215 70.4323 35.215C74.2175 35.215 77.2981 38.2956 77.2981 42.0808C77.2942 45.8659 74.2136 48.9465 70.4323 48.9465Z" fill="#E73536"/>
<path d="M100.679 48.7627C100.652 48.6375 100.566 48.5279 100.445 48.477C100.327 48.4261 100.19 48.4417 100.081 48.5083C99.5482 48.8488 99.0002 49.0015 98.2956 49.0015C95.994 49.0015 95.1798 47.9955 95.1798 45.1459V40.296H100.3C100.519 40.296 100.691 40.1198 100.691 39.9046V34.0526C100.691 33.8334 100.515 33.6612 100.3 33.6612H95.1798V28.7174C95.1798 28.4982 95.0037 28.3259 94.7884 28.3259H88.8973C88.6781 28.3259 88.5059 28.5021 88.5059 28.7174V33.6573V40.2921V45.1419C88.5059 51.401 92.0757 54.9904 98.2995 54.9904C99.6891 54.9904 100.985 54.7477 102.378 54.2271C102.484 54.188 102.57 54.098 102.613 53.9884C102.648 53.8788 102.637 53.7574 102.578 53.6556C101.654 52.1291 101.016 50.4811 100.679 48.7627Z" fill="#E73536"/>
<path d="M53.9116 51.0251C53.892 51.0095 51.7626 48.9466 51.7626 43.1299V22.0277C51.7626 21.8085 51.5865 21.6362 51.3712 21.6362H45.253C45.0338 21.6362 44.8577 21.8124 44.8577 22.0277V34.2365H29.901V22.0277C29.901 21.8085 29.7248 21.6362 29.5096 21.6362H23.3914C23.1722 21.6362 23 21.8124 23 22.0277V43.5526C23 45.3063 23.0313 49.021 25.0746 52.7983C25.5639 53.7025 26.1706 54.4541 26.9183 54.9277C26.9887 54.9708 27.067 54.9943 27.1453 54.9943C27.2275 54.9943 27.3136 54.9708 27.388 54.9199L32.0421 51.714C32.1557 51.6358 32.2183 51.5105 32.2222 51.3735C32.2261 51.2365 32.1635 51.1073 32.0578 51.0251C32.0382 51.0095 29.9049 48.9466 29.9049 42.9459V40.8674H44.8616V43.5331C44.8616 43.537 44.8577 43.5448 44.8577 43.5487C44.8577 43.584 44.8616 43.6896 44.8616 43.8501C44.8616 46.0891 45.1043 49.4124 46.9323 52.7944C47.4216 53.6986 48.0283 54.4502 48.776 54.9238C48.8464 54.9669 48.9247 54.9904 49.003 54.9904C49.0852 54.9904 49.1713 54.9669 49.2418 54.916L53.8959 51.7101C54.0094 51.6318 54.0721 51.5066 54.076 51.3696C54.0799 51.2365 54.0173 51.1073 53.9116 51.0251Z" fill="#E73536"/>
<path d="M119.328 53.6596C118.408 52.1251 117.766 50.4772 117.433 48.7627C117.406 48.6375 117.32 48.5279 117.199 48.477C117.081 48.4261 116.944 48.4417 116.834 48.5083C116.302 48.8488 115.754 49.0015 115.05 49.0015C112.748 49.0015 111.934 47.9955 111.934 45.1459V40.296H117.054C117.273 40.296 117.445 40.1198 117.445 39.9046V34.0526C117.445 33.8334 117.269 33.6612 117.054 33.6612H111.934V28.7174C111.934 28.4982 111.758 28.3259 111.542 28.3259H105.651C105.432 28.3259 105.26 28.5021 105.26 28.7174V33.6573V40.2921V45.1419C105.26 51.401 108.83 54.9904 115.053 54.9904C116.443 54.9904 117.739 54.7477 119.132 54.2271C119.238 54.188 119.324 54.098 119.367 53.9884C119.398 53.8827 119.387 53.7613 119.328 53.6596Z" fill="#E73536"/>
<path d="M139.406 8.09788C137.78 3.58791 133.522 0.5 128.565 0.5C122.186 0.5 117 5.68961 117 12.0686V17.2286L116.996 17.2249V30.5037H135.439C141.81 30.5 146.996 25.3104 146.996 18.9388C146.996 13.9819 143.912 9.72679 139.406 8.09788ZM139.428 21.8236C138.53 23.0609 137.086 23.8772 135.446 23.8809C135.442 23.8809 135.439 23.8809 135.435 23.8809H134.441H133.041H123.623V14.4842V12.9477V12.0797V12.0723C123.623 10.7425 124.158 9.53841 125.015 8.64824C125.868 7.83563 127.017 7.3259 128.291 7.3259C130.918 7.3259 133.045 9.45346 133.045 12.0797V14.4879H135.45C138.076 14.4879 140.203 16.6155 140.203 19.2417C140.2 20.191 139.912 21.0774 139.428 21.8236Z" fill="url(#paint0_linear)"/>
<defs>
<linearGradient id="paint0_linear" x1="123.767" y1="23.5679" x2="139.229" y2="8.41524" gradientUnits="userSpaceOnUse">
<stop stop-color="#E73536"/>
<stop offset="1" stop-color="#EE6F38"/>
</linearGradient>
</defs>
</svg>
