<svg width="302" height="150" viewBox="0 0 302 150" fill="none" xmlns="http://www.w3.org/2000/svg">
<path d="M66.2061 140.417H59.0028V134.319H56.2323V149.762H59.0028V142.872H66.2061V149.762H68.9766V134.319H66.2061V140.417Z" fill="#202120"/>
<path d="M86.1537 134.161C81.6417 134.161 77.8422 137.408 77.8422 142.08C77.8422 146.674 81.6417 150 86.1537 150C90.7448 150 94.5443 146.753 94.5443 142.08C94.5443 137.408 90.7448 134.161 86.1537 134.161ZM86.1537 147.466C83.1457 147.466 80.6918 145.169 80.6918 142.08C80.6918 138.912 83.1457 136.616 86.1537 136.616C89.1616 136.616 91.6155 138.912 91.6155 142.08C91.6155 145.248 89.1616 147.466 86.1537 147.466Z" fill="#202120"/>
<path d="M101.193 136.774H106.101V149.762H108.951V136.774H113.859V134.319H101.193V136.774Z" fill="#202120"/>
<path d="M131.036 136.774H135.943V149.762H138.793V136.774H143.701V134.319H131.036V136.774Z" fill="#202120"/>
<path d="M165.152 138.912C165.152 135.665 162.699 134.319 159.849 134.319H153.595V149.762H156.366V143.585H159.374L162.936 149.762H166.102L162.224 143.189C163.807 142.635 165.152 141.288 165.152 138.912ZM159.611 141.209H156.445V136.774H159.77C161.432 136.774 162.303 137.408 162.303 138.992C162.303 140.655 161.353 141.209 159.611 141.209Z" fill="#202120"/>
<path d="M176.076 149.762H186.525V147.387H178.926V142.872H186.208V140.417H178.926V136.774H186.525V134.319H176.076V149.762Z" fill="#202120"/>
<path d="M207.897 145.248L199.586 134.319H197.132V149.762H199.823V138.675L208.293 149.762H210.509V134.319H207.897V145.248Z" fill="#202120"/>
<path d="M226.499 134.319H221.591V149.762H226.42C231.169 149.762 234.652 146.674 234.652 141.922C234.652 137.17 231.248 134.319 226.499 134.319ZM226.42 147.387H224.362V136.774H226.42C229.665 136.774 231.723 138.754 231.723 142.001C231.803 145.248 229.744 147.387 226.42 147.387Z" fill="#202120"/>
<path d="M143.938 62.3282C128.819 62.3282 116.55 74.6038 116.55 89.7305C116.55 104.857 128.819 117.133 143.938 117.133C159.057 117.133 171.327 104.857 171.327 89.7305C171.327 74.683 159.057 62.3282 143.938 62.3282ZM143.938 103.669C136.26 103.669 130.086 97.4126 130.086 89.8097C130.086 82.1275 136.339 75.9501 143.938 75.9501C151.617 75.9501 157.791 82.2067 157.791 89.8097C157.791 97.4126 151.537 103.669 143.938 103.669Z" fill="#EF4241"/>
<path d="M205.127 103.273C205.048 103.036 204.889 102.798 204.652 102.719C204.414 102.64 204.098 102.64 203.939 102.798C202.831 103.511 201.723 103.828 200.298 103.828C195.628 103.828 193.966 101.768 193.966 96.0663V86.2458H204.335C204.81 86.2458 205.127 85.929 205.127 85.4538V73.5742C205.127 73.099 204.81 72.7822 204.335 72.7822H193.966V62.7242C193.966 62.249 193.649 61.9322 193.174 61.9322H181.3C180.826 61.9322 180.509 62.249 180.509 62.7242V72.703V86.0874V95.9079C180.509 108.579 187.712 115.866 200.298 115.866C203.069 115.866 205.76 115.39 208.531 114.361C208.768 114.282 208.926 114.123 209.005 113.886C209.085 113.648 209.085 113.411 208.926 113.252C207.027 110.084 205.76 106.758 205.127 103.273Z" fill="#EF4241"/>
<path d="M110.534 107.867C110.455 107.867 106.18 103.669 106.18 91.8689V49.1815C106.18 48.7063 105.864 48.3895 105.389 48.3895H92.9612C92.4863 48.3895 92.1696 48.7063 92.1696 49.1815V73.8911H61.9316V49.1815C61.9316 48.7063 61.615 48.3895 61.1401 48.3895H48.7916C48.3166 48.3895 48 48.7063 48 49.1815V92.7401C48 96.304 48.0792 103.828 52.1953 111.431C53.2244 113.252 54.4117 114.757 55.9157 115.707C56.074 115.787 56.2323 115.866 56.3906 115.866C56.549 115.866 56.7073 115.787 56.8656 115.707L66.2853 109.213C66.5227 109.055 66.6811 108.817 66.6811 108.5C66.6811 108.263 66.5228 107.946 66.3644 107.788C66.2853 107.788 62.0108 103.59 62.0108 91.4729V87.2755H92.2488V92.6609C92.2488 92.7401 92.2488 92.9777 92.2488 93.2945C92.2488 97.8087 92.7237 104.54 96.4441 111.431C97.4732 113.252 98.6605 114.757 100.164 115.707C100.323 115.787 100.481 115.866 100.639 115.866C100.798 115.866 100.956 115.787 101.114 115.707L110.534 109.213C110.772 109.055 110.93 108.817 110.93 108.5C110.851 108.342 110.692 108.025 110.534 107.867Z" fill="#EF4241"/>
<path d="M242.805 113.252C240.906 110.163 239.639 106.837 239.006 103.352C238.927 103.115 238.768 102.877 238.531 102.798C238.293 102.719 237.977 102.719 237.819 102.877C236.71 103.59 235.602 103.907 234.177 103.907C229.507 103.907 227.845 101.848 227.845 96.1455V86.325H238.214C238.689 86.325 239.006 86.0082 239.006 85.533V73.5742C239.006 73.099 238.689 72.7822 238.214 72.7822H227.845V62.7242C227.845 62.249 227.528 61.9322 227.053 61.9322H215.18C214.705 61.9322 214.388 62.249 214.388 62.7242V72.703V86.0874V95.9079C214.388 108.579 221.591 115.866 234.177 115.866C236.948 115.866 239.639 115.39 242.41 114.361C242.647 114.282 242.805 114.123 242.885 113.886C242.964 113.648 242.885 113.411 242.805 113.252Z" fill="#EF4241"/>
<path d="M284.6 16.3147C281.118 6.65258 272.014 0 261.328 0C247.634 0 236.552 11.1668 236.552 24.7888V35.8764V64.3083H276.051C289.746 64.3083 300.828 53.1415 300.828 39.5195C300.907 28.9071 294.258 19.7994 284.6 16.3147ZM284.68 45.6969C282.78 48.3896 279.693 50.132 276.131 50.132H273.993H270.985H250.8V30.0158V26.6895V24.7888C250.8 21.9377 251.909 19.3242 253.808 17.4234C255.629 15.6811 258.083 14.5723 260.853 14.5723C266.473 14.5723 271.065 19.1658 271.065 24.7888V29.9366H276.21C281.83 29.9366 286.421 34.5301 286.421 40.1531C286.263 42.2122 285.709 44.113 284.68 45.6969Z" fill="url(#paint0_linear)"/>
<defs>
<linearGradient id="paint0_linear" x1="251.086" y1="49.4607" x2="284.238" y2="16.9883" gradientUnits="userSpaceOnUse">
<stop stop-color="#EF4241"/>
<stop offset="1" stop-color="#F47641"/>
</linearGradient>
</defs>
</svg>
