<svg width="64" height="64" viewBox="0 0 64 64" fill="none" xmlns="http://www.w3.org/2000/svg">
<mask id="mask0" mask-type="alpha" maskUnits="userSpaceOnUse" x="0" y="0" width="64" height="64">
<path d="M0 0H64V64H0V0Z" fill="#FFF5F5"/>
</mask>
<g mask="url(#mask0)">
<rect width="64" height="64" fill="#FFEAE5"/>
<circle cx="32" cy="32" r="32" fill="#FFEAE6"/>
<path opacity="0.9" fill-rule="evenodd" clip-rule="evenodd" d="M41.3774 17.0039C44.0937 17.0217 46.803 18.0611 48.871 20.1291C53.0427 24.3 53.0427 31.0874 48.8726 35.2583L36.7781 47.3721C36.7781 47.3729 36.7774 47.3728 36.7774 47.3728C36.7766 47.3736 36.7766 47.3736 36.7766 47.3744C35.4599 48.6903 33.7288 49.3479 32 49.3456C30.2697 49.3479 28.5401 48.6903 27.2234 47.3744C27.2234 47.3736 27.2226 47.3736 27.2226 47.3728C27.2221 47.3728 27.2219 47.3729 27.2219 47.3726C27.2219 47.3725 27.2219 47.3723 27.2219 47.3721L15.1274 35.2583C10.9573 31.0874 10.9573 24.3 15.129 20.1291C17.1954 18.0611 19.9063 17.0217 22.6211 17.0039C22.6264 17.0035 22.6313 17.0027 22.6361 17.0019C22.6419 17.0009 22.6474 17 22.6528 17C22.6552 17 22.6571 17.0004 22.659 17.0008C22.661 17.0012 22.6629 17.0015 22.6652 17.0015C24.1981 17.0077 25.4381 18.2509 25.4381 19.7852C25.4381 21.3126 24.2081 22.5504 22.6838 22.5666C22.6789 22.5666 22.6739 22.5674 22.6689 22.5681C22.6637 22.5689 22.6584 22.5697 22.6528 22.5697C22.6514 22.5697 22.6499 22.5696 22.6484 22.5694C22.6466 22.5692 22.6448 22.5689 22.6428 22.5689C21.3462 22.5821 20.0535 23.0809 19.0667 24.0669C17.0661 26.0668 17.0669 29.3214 19.0675 31.3213L31.1619 43.4359C31.3928 43.6667 31.6964 43.779 32 43.7767C32.3028 43.779 32.6072 43.6667 32.8381 43.4359L44.9317 31.3213C46.9316 29.3214 46.9324 26.0668 44.9325 24.0669C43.9457 23.0809 42.653 22.5821 41.3572 22.5689C41.3552 22.5689 41.3532 22.5692 41.3511 22.5694C41.3493 22.5696 41.3474 22.5697 41.3456 22.5697C41.3407 22.5697 41.3357 22.569 41.3307 22.5682C41.3255 22.5674 41.3202 22.5666 41.3146 22.5666C39.7911 22.5504 38.5604 21.3126 38.5604 19.7852C38.5604 18.2509 39.8019 17.0077 41.3348 17.0015C41.3362 17.0015 41.3379 17.0012 41.3396 17.0008C41.3415 17.0004 41.3436 17 41.3456 17C41.3525 17 41.3588 17.0011 41.3649 17.0021C41.3691 17.0029 41.3733 17.0036 41.3774 17.0039ZM24.8731 27.2177C24.3294 26.8234 24.1024 26.124 24.31 25.4858C24.5176 24.8476 25.1124 24.4154 25.7832 24.4154H29.4065L30.5257 20.9702C30.7333 20.332 31.3289 19.8998 31.9996 19.8998C32.6704 19.8998 33.266 20.332 33.4728 20.9702L34.592 24.4154H38.2153C38.8861 24.4154 39.4817 24.8476 39.6885 25.4858C39.8961 26.124 39.6692 26.8234 39.1262 27.2177L36.1953 29.3476L37.3145 32.7936C37.5221 33.4318 37.2952 34.1304 36.7515 34.5254C36.4804 34.723 36.1605 34.8213 35.8414 34.8213C35.5223 34.8213 35.2024 34.723 34.9305 34.5254L31.9996 32.3955L29.0688 34.5254C28.5251 34.9205 27.79 34.9205 27.2471 34.5254C26.7041 34.1304 26.4772 33.4318 26.684 32.7936L27.804 29.3476L24.8731 27.2177Z" fill="white"/>
</g>
</svg>
