<svg width="48" height="48" viewBox="0 0 48 48" fill="none" xmlns="http://www.w3.org/2000/svg">
<path d="M24.0039 40.5C24.0039 40.5 5.25391 30 5.25391 17.25C5.25429 14.9965 6.03513 12.8127 7.46368 11.0699C8.89223 9.32701 10.8803 8.13272 13.0899 7.69003C15.2995 7.24734 17.5942 7.58358 19.5839 8.64158C21.5736 9.69958 23.1354 11.414 24.0039 13.4935L24.0039 13.4935C24.8724 11.414 26.4342 9.69959 28.4239 8.64159C30.4136 7.58358 32.7083 7.24734 34.9179 7.69003C37.1275 8.13272 39.1156 9.32701 40.5441 11.0699C41.9727 12.8127 42.7535 14.9965 42.7539 17.25C42.7539 30 24.0039 40.5 24.0039 40.5Z" stroke="#3D3D3D" stroke-width="3" stroke-linecap="round" stroke-linejoin="round"/>
</svg>
