<svg width="22" height="24" viewBox="0 0 22 24" fill="none" xmlns="http://www.w3.org/2000/svg">
<path d="M7.33301 8.57141H9.16634V18.8571H7.33301V8.57141Z" fill="#A5A5A5"/>
<path d="M12.834 8.57141H14.6673V18.8571H12.834V8.57141Z" fill="#A5A5A5"/>
<path d="M0 3.42859V5.14287H1.83333V22.2857C1.83333 22.7404 2.02649 23.1764 2.3703 23.4979C2.71412 23.8194 3.18044 24 3.66667 24H18.3333C18.8196 24 19.2859 23.8194 19.6297 23.4979C19.9735 23.1764 20.1667 22.7404 20.1667 22.2857V5.14287H22V3.42859H0ZM3.66667 22.2857V5.14287H18.3333V22.2857H3.66667Z" fill="#A5A5A5"/>
<path d="M7.33301 0H14.6663V1.71429H7.33301V0Z" fill="#A5A5A5"/>
</svg>
