<svg width="32" height="32" viewBox="0 0 32 32" fill="none" xmlns="http://www.w3.org/2000/svg">
<rect width="32" height="32" fill="white"/>
<path d="M26.105 27H5.89509C5.64899 27 5.41154 26.9093 5.22817 26.7451C5.04479 26.581 4.92838 26.355 4.9012 26.1104L3.12343 10.1104C3.10789 9.97065 3.12202 9.82917 3.16489 9.69522C3.20775 9.56127 3.27839 9.43787 3.37218 9.33308C3.46598 9.22828 3.58082 9.14445 3.70922 9.08706C3.83761 9.02967 3.97667 9 4.11731 9H27.8828C28.0234 9 28.1625 9.02967 28.2909 9.08706C28.4193 9.14445 28.5341 9.22828 28.6279 9.33308C28.7217 9.43787 28.7923 9.56127 28.8352 9.69522C28.8781 9.82917 28.8922 9.97065 28.8767 10.1104L27.0989 26.1104C27.0717 26.355 26.9553 26.581 26.7719 26.7451C26.5886 26.9093 26.3511 27 26.105 27Z" stroke="#666666" stroke-width="1.5" stroke-linecap="round" stroke-linejoin="round"/>
<path d="M11 9C11 7.67392 11.5268 6.40215 12.4645 5.46447C13.4021 4.52678 14.6739 4 16 4C17.3261 4 18.5979 4.52678 19.5355 5.46447C20.4732 6.40215 21 7.67392 21 9" stroke="#666666" stroke-width="1.5" stroke-linecap="round" stroke-linejoin="round"/>
<path d="M11 14C11 15.3261 11.5268 16.5979 12.4645 17.5355C13.4021 18.4732 14.6739 19 16 19C17.3261 19 18.5979 18.4732 19.5355 17.5355C20.4732 16.5979 21 15.3261 21 14" stroke="#666666" stroke-width="1.5" stroke-linecap="round" stroke-linejoin="round"/>
</svg>
