<svg width="40" height="36" viewBox="0 0 40 36" fill="none" xmlns="http://www.w3.org/2000/svg">
<rect width="40" height="36" fill="#D8D8D8" fill-opacity="0.01"/>
<path fill-rule="evenodd" clip-rule="evenodd" d="M24.25 5C24.113 5 24 5.112 24 5.25V18.228L15.389 5.113C15.343 5.042 15.264 5 15.18 5H6.25C6.113 5 6 5.112 6 5.25V31.343C6 31.481 6.113 31.593 6.25 31.593H15.18C15.318 31.593 15.43 31.481 15.43 31.343V18.998L24.044 31.485C24.091 31.552 24.168 31.593 24.25 31.593H33.18C33.318 31.593 33.43 31.481 33.43 31.343V5.25C33.43 5.112 33.318 5 33.18 5H24.25Z" fill="white"/>
</svg>
