<svg width="48" height="48" viewBox="0 0 48 48" fill="none" xmlns="http://www.w3.org/2000/svg">
<rect width="48" height="48" fill="white" fill-opacity="0.01"/>
<path d="M6.55172e-09 10.7498C6.55172e-09 9.55628 0.474106 8.41169 1.31802 7.56778C2.16193 6.72386 3.30653 6.24976 4.5 6.24976H31.5C32.6935 6.24976 33.8381 6.72386 34.682 7.56778C35.5259 8.41169 36 9.55628 36 10.7498V15.2498H39.06C39.7342 15.2504 40.3997 15.4024 41.0072 15.6948C41.6148 15.9871 42.1488 16.4123 42.57 16.9388L47.013 22.4888C47.6523 23.2873 48.0004 24.2798 48 25.3028V31.7498C48 32.9432 47.5259 34.0878 46.682 34.9317C45.8381 35.7756 44.6935 36.2498 43.5 36.2498H42C42 37.8411 41.3679 39.3672 40.2426 40.4924C39.1174 41.6176 37.5913 42.2498 36 42.2498C34.4087 42.2498 32.8826 41.6176 31.7574 40.4924C30.6321 39.3672 30 37.8411 30 36.2498H15C15.0017 37.0495 14.8435 37.8415 14.5348 38.5793C14.226 39.317 13.7728 39.9856 13.2019 40.5457C12.6311 41.1058 11.954 41.5461 11.2105 41.8407C10.467 42.1353 9.67205 42.2783 8.87248 42.2613C8.07291 42.2443 7.2848 42.0677 6.55449 41.7417C5.82418 41.4157 5.16641 40.947 4.61984 40.3632C4.07328 39.7794 3.64895 39.0921 3.3718 38.3419C3.09466 37.5917 2.97028 36.7937 3.006 35.9948C2.12714 35.6854 1.36597 35.1109 0.827533 34.3506C0.289097 33.5902 -5.02559e-05 32.6815 6.55172e-09 31.7498L6.55172e-09 10.7498ZM3.882 33.1178C4.4244 32.2297 5.18854 31.4981 6.0993 30.9948C7.01006 30.4916 8.0361 30.2339 9.07658 30.2472C10.1171 30.2605 11.1362 30.5444 12.0338 31.0708C12.9313 31.5972 13.6765 32.3481 14.196 33.2498H30.804C31.3317 32.3386 32.0888 31.5815 33 31.0538V10.7498C33 10.3519 32.842 9.9704 32.5607 9.6891C32.2794 9.40779 31.8978 9.24976 31.5 9.24976H4.5C4.10218 9.24976 3.72064 9.40779 3.43934 9.6891C3.15804 9.9704 3 10.3519 3 10.7498V31.7498C2.99976 32.0385 3.08286 32.3211 3.23931 32.5638C3.39576 32.8064 3.61892 32.9988 3.882 33.1178ZM36 30.2498C37.0532 30.2498 38.0878 30.527 38.9999 31.0536C39.912 31.5802 40.6694 32.3377 41.196 33.2498H43.5C43.8978 33.2498 44.2794 33.0917 44.5607 32.8104C44.842 32.5291 45 32.1476 45 31.7498V25.2998C44.9994 24.9593 44.883 24.6293 44.67 24.3638L40.23 18.8138C40.0897 18.6381 39.9117 18.4962 39.7092 18.3986C39.5067 18.3009 39.2848 18.2501 39.06 18.2498H36V30.2498ZM9 33.2498C8.20435 33.2498 7.44129 33.5658 6.87868 34.1284C6.31607 34.691 6 35.4541 6 36.2498C6 37.0454 6.31607 37.8085 6.87868 38.3711C7.44129 38.9337 8.20435 39.2498 9 39.2498C9.79565 39.2498 10.5587 38.9337 11.1213 38.3711C11.6839 37.8085 12 37.0454 12 36.2498C12 35.4541 11.6839 34.691 11.1213 34.1284C10.5587 33.5658 9.79565 33.2498 9 33.2498ZM36 33.2498C35.2043 33.2498 34.4413 33.5658 33.8787 34.1284C33.3161 34.691 33 35.4541 33 36.2498C33 37.0454 33.3161 37.8085 33.8787 38.3711C34.4413 38.9337 35.2043 39.2498 36 39.2498C36.7957 39.2498 37.5587 38.9337 38.1213 38.3711C38.6839 37.8085 39 37.0454 39 36.2498C39 35.4541 38.6839 34.691 38.1213 34.1284C37.5587 33.5658 36.7957 33.2498 36 33.2498Z" fill="#3D3D3D"/>
</svg>
