<svg width="32" height="32" viewBox="0 0 32 32" fill="none" xmlns="http://www.w3.org/2000/svg">
<path d="M17.6892 26.8949C24.3782 26.8949 29.8007 21.4724 29.8007 14.7834C29.8007 8.09438 24.3782 2.67188 17.6892 2.67188C11.0002 2.67188 5.57766 8.09438 5.57766 14.7834C5.57766 21.4724 11.0002 26.8949 17.6892 26.8949Z" fill="#A6EADC" stroke="#666666" stroke-width="1.5" stroke-linecap="round" stroke-linejoin="round"/>
<path d="M13.1115 27.0199C19.8005 27.0199 25.223 21.5974 25.223 14.9084C25.223 8.21938 19.8005 2.79688 13.1115 2.79688C6.42251 2.79688 1 8.21938 1 14.9084C1 21.5974 6.42251 27.0199 13.1115 27.0199Z" fill="white" stroke="#666666" stroke-width="1.5" stroke-linecap="round" stroke-linejoin="round"/>
<path d="M7.61225 10.6212C7.11952 10.7513 6.82609 11.2606 6.95897 11.7589L7.35758 13.2316H6.50499C5.99288 13.2316 5.57766 13.6523 5.57766 14.1617C5.57766 14.6738 5.99288 15.089 6.50499 15.089H7.85861L9.20393 19.2966C9.4503 19.7339 9.66621 19.9692 10.0759 19.9803C10.0842 19.9831 10.0897 19.9831 10.1008 19.9831C10.4994 19.9831 10.7513 19.7339 10.9783 19.3436L12.6364 15.089H12.9548L14.4856 19.3242C14.7956 19.8613 14.97 19.9831 15.3741 19.9831C15.3797 19.9831 15.3852 19.9831 15.3907 19.9831C15.8004 19.9748 16.0302 19.7672 16.2738 19.2966L17.6246 15.089H19.1222C19.6343 15.089 20.0468 14.6738 20.0468 14.1617C20.0468 13.6523 19.6343 13.2316 19.1222 13.2316H18.1174L18.516 11.7589C18.6516 11.2606 18.361 10.7513 17.8627 10.6212C17.3672 10.4856 16.8606 10.779 16.7277 11.2745L16.1963 13.2316H14.3278L13.7188 11.2468C13.6053 10.8593 13.2537 10.5935 12.8468 10.588C12.4427 10.5824 12.08 10.8426 11.9555 11.2247L11.2994 13.2316H9.2759L8.74996 11.2745C8.61432 10.779 8.10775 10.4856 7.61225 10.6212ZM15.7008 15.0862L15.3215 16.4952L14.8952 15.0862H15.7008ZM10.6877 15.0862L10.1866 16.617L9.77694 15.0862H10.6877Z" fill="#1ABC9C"/>
</svg>
