<svg width="48" height="48" viewBox="0 0 48 48" fill="none" xmlns="http://www.w3.org/2000/svg">
<path d="M24 15V24" stroke="#3D3D3D" stroke-width="3" stroke-linecap="round" stroke-linejoin="round"/>
<path d="M31.7942 28.5L24 24" stroke="#3D3D3D" stroke-width="3" stroke-linecap="round" stroke-linejoin="round"/>
<path d="M34.5313 18.6968H42.0313V11.1968" stroke="#3D3D3D" stroke-width="3" stroke-linecap="round" stroke-linejoin="round"/>
<path d="M35.6673 35.6673C33.3597 37.9748 30.4197 39.5463 27.219 40.183C24.0183 40.8196 20.7007 40.4929 17.6857 39.244C14.6707 37.9952 12.0938 35.8803 10.2808 33.1669C8.46771 30.4535 7.5 27.2634 7.5 24C7.5 20.7366 8.46771 17.5465 10.2808 14.8331C12.0938 12.1197 14.6707 10.0048 17.6857 8.756C20.7007 7.50715 24.0183 7.18039 27.219 7.81705C30.4197 8.45371 33.3597 10.0252 35.6673 12.3327L42.0312 18.6967" stroke="#3D3D3D" stroke-width="3" stroke-linecap="round" stroke-linejoin="round"/>
</svg>
