<svg width="50" height="42" viewBox="0 0 50 42" fill="none" xmlns="http://www.w3.org/2000/svg">
<rect width="50" height="41.4286" fill="#D8D8D8" fill-opacity="0.01"/>
<path fill-rule="evenodd" clip-rule="evenodd" d="M14.8077 10.8593C9.70437 15.99 9.25121 24.0337 13.4145 29.7038C12.5795 30.6914 11.9109 31.7966 11.433 32.9984C5.26482 25.8924 5.52743 15.0659 12.2592 8.29632C19.284 1.23456 30.7164 1.23456 37.7404 8.29632C44.473 15.0659 44.7356 25.8932 38.5651 33C38.0879 31.7998 37.4202 30.6922 36.5843 29.7038C40.7492 24.0354 40.2953 15.9908 35.1928 10.8593C29.5715 5.21017 20.4266 5.21017 14.8077 10.8593ZM18.4707 26.1489C15.9314 22.8774 16.1244 18.1533 19.1186 15.1494C20.6896 13.5734 22.7788 12.7063 24.9994 12.7063C27.2216 12.7063 29.3108 13.5734 30.8818 15.1494C33.876 18.1533 34.0681 22.8774 31.5306 26.1481C32.723 26.6389 33.8185 27.2597 34.7957 28C38.1143 23.3006 37.6897 16.737 33.4949 12.5284C31.2259 10.2533 28.2095 9 24.9994 9C21.79 9 18.7737 10.2533 16.5047 12.5284C12.3107 16.737 11.8853 23.3006 15.2047 28C16.1811 27.2597 17.2766 26.6389 18.4707 26.1489ZM23.0003 20.9996C23.0003 19.8985 23.8971 19 25 19C26.1029 19 26.9997 19.8985 26.9997 20.9996C26.9997 22.1024 26.1029 23 25 23C23.8971 23 23.0003 22.1024 23.0003 20.9996ZM22.2108 26.3116C20.3032 25.306 19 23.3025 19 20.9996C19 17.691 21.6912 15 25 15C28.3088 15 31 17.691 31 20.9996C31 23.3023 29.6972 25.3055 27.7899 26.3112C32.0468 27.2963 35 30.5213 35 34.5715V38H15V34.5715C15 30.5217 17.9535 27.2971 22.2108 26.3116ZM25.0015 29.4285C28.8636 29.4285 31.6667 31.5917 31.6667 34.5715H18.3333C18.3333 31.5917 21.1379 29.4285 25.0015 29.4285Z" fill="#333333"/>
</svg>
