<svg width="36" height="36" viewBox="0 0 36 36" fill="none" xmlns="http://www.w3.org/2000/svg">
<circle cx="18" cy="18" r="18" fill="url(#paint0_linear)"/>
<path d="M12.4455 16.3784L10.1257 18.6982C9.17436 19.6496 8.63989 20.9399 8.63989 22.2853C8.63989 23.6307 9.17436 24.9211 10.1257 25.8724C11.0771 26.8238 12.3674 27.3582 13.7128 27.3582C15.0582 27.3582 16.3485 26.8238 17.2999 25.8724L20.3907 22.7799C20.9644 22.2061 21.3921 21.5031 21.6379 20.7298C21.8836 19.9566 21.9403 19.1356 21.8032 18.3359C21.666 17.5362 21.339 16.7811 20.8497 16.1339C20.3603 15.4868 19.7228 14.9664 18.9907 14.6166L17.9999 15.6074C17.8993 15.7082 17.8118 15.8212 17.7395 15.9439C18.3051 16.1065 18.8185 16.4139 19.2289 16.8357C19.6394 17.2575 19.9326 17.7792 20.0796 18.349C20.2266 18.9189 20.2224 19.5173 20.0673 20.085C19.9122 20.6528 19.6117 21.1702 19.1953 21.5862L16.1062 24.677C15.4716 25.3115 14.611 25.668 13.7136 25.668C12.8163 25.668 11.9557 25.3115 11.3211 24.677C10.6866 24.0425 10.3301 23.1818 10.3301 22.2845C10.3301 21.3871 10.6866 20.5265 11.3211 19.892L12.662 18.5528C12.4728 17.8439 12.3997 17.109 12.4455 16.3767V16.3784Z" fill="white"/>
<path d="M14.1313 17.0852L14.4137 16.8028C14.8326 16.3823 15.3553 16.0802 15.9287 15.9269C16.0819 15.3535 16.384 14.8309 16.8045 14.412L17.0869 14.1296C16.2363 14.0818 15.3874 14.2486 14.6183 14.6149C14.2463 15.3926 14.084 16.2431 14.1313 17.0835V17.0852Z" fill="white"/>
<path d="M15.6092 13.2167C15.0355 13.7904 14.6079 14.4935 14.3621 15.2667C14.1163 16.04 14.0596 16.8609 14.1968 17.6606C14.3339 18.4603 14.6609 19.2154 15.1503 19.8626C15.6397 20.5098 16.2771 21.0301 17.0092 21.38L18.3196 20.0679C17.7463 19.9141 17.2236 19.6122 16.804 19.1924C16.3844 18.7726 16.0827 18.2498 15.9291 17.6764C15.7756 17.1031 15.7757 16.4994 15.9294 15.9261C16.083 15.3528 16.3849 14.8301 16.8046 14.4104L19.8938 11.3196C20.5283 10.685 21.3889 10.3285 22.2863 10.3285C23.1837 10.3285 24.0443 10.685 24.6788 11.3196C25.3133 11.9541 25.6698 12.8147 25.6698 13.7121C25.6698 14.6094 25.3133 15.4701 24.6788 16.1046L23.338 17.4437C23.5274 18.1539 23.6001 18.8894 23.5544 19.6198L25.8742 17.3C26.8256 16.3487 27.36 15.0583 27.36 13.7129C27.36 12.3675 26.8256 11.0772 25.8742 10.1258C24.9229 9.17448 23.6326 8.64001 22.2871 8.64001C20.9417 8.64001 19.6514 9.17448 18.7 10.1258L15.6092 13.2167Z" fill="white"/>
<path d="M21.3817 21.3799C21.7495 20.6112 21.917 19.762 21.8687 18.9113L21.5863 19.1936C21.1674 19.6141 20.6447 19.9162 20.0713 20.0695C19.9181 20.6429 19.6159 21.1655 19.1955 21.5845L18.9131 21.8668C19.7636 21.9146 20.6125 21.7478 21.3817 21.3816V21.3799Z" fill="white"/>
<defs>
<linearGradient id="paint0_linear" x1="0" y1="0" x2="36" y2="36" gradientUnits="userSpaceOnUse">
<stop stop-color="#EB3349"/>
<stop offset="1" stop-color="#FF6D3F"/>
</linearGradient>
</defs>
</svg>
