<svg width="70" height="58" viewBox="0 0 70 58" fill="none" xmlns="http://www.w3.org/2000/svg">
<rect width="70" height="58" fill="#D8D8D8" fill-opacity="0.01"/>
<path fill-rule="evenodd" clip-rule="evenodd" d="M30.1324 5.27271C20.2731 5.27271 12.254 13.3293 12.254 23.231V31.2417L12.25 31.2366V51.8485H40.7591C50.5665 51.8404 58.5531 43.8601 58.625 34.0278V33.7634C58.5713 26.1266 53.8164 19.5814 46.8907 17.0695C44.379 10.0667 37.7976 5.27271 30.1324 5.27271ZM22.4936 26.9792V24.5934V23.2436V23.231C22.4936 21.1651 23.3186 19.2953 24.6438 17.9146C25.9622 16.6509 27.739 15.8642 29.7054 15.8642C33.7637 15.8642 37.0536 19.168 37.0536 23.2436V26.9792H40.7694C44.8272 26.9792 48.1176 30.283 48.1176 34.358C48.1176 35.8402 47.6729 37.2146 46.9238 38.3717C45.5392 40.2937 43.3045 41.5597 40.7694 41.5649C40.7643 41.5649 40.7603 41.566 40.7551 41.566H39.2198H37.0536H22.4936V26.9792Z" fill="url(#paint0_linear)"/>
<defs>
<linearGradient id="paint0_linear" x1="34.4269" y1="53.0834" x2="58.4285" y2="29.6651" gradientUnits="userSpaceOnUse">
<stop stop-color="#FF3B3B"/>
<stop offset="1" stop-color="#FF773B"/>
</linearGradient>
</defs>
</svg>
