<svg width="70" height="58" viewBox="0 0 70 58" fill="none" xmlns="http://www.w3.org/2000/svg">
<rect width="70" height="58" fill="#D8D8D8" fill-opacity="0.01"/>
<path fill-rule="evenodd" clip-rule="evenodd" d="M23.5308 20.4592C23.5308 23.1562 21.3538 25.3435 18.6676 25.3435C15.9822 25.3435 13.8044 23.1562 13.8044 20.4592C13.8044 17.7613 15.9822 15.5757 18.6676 15.5757C19.3702 15.5757 20.0335 15.7313 20.6363 16.0011L30.5326 8.30729C30.4906 8.04893 30.453 7.78881 30.453 7.5199C30.453 4.82378 32.6308 2.63647 35.3162 2.63647C37.9377 2.63647 40.0596 4.72447 40.1602 7.33184L48.7081 11.5535C49.4912 11.0104 50.4371 10.6914 51.46 10.6914C54.1453 10.6914 56.3232 12.877 56.3232 15.5757C56.3232 18.2719 54.1453 20.4592 51.46 20.4592C48.8096 20.4592 46.6641 18.3264 46.6081 15.6794L38.1294 11.492C37.3349 12.0624 36.368 12.4042 35.3162 12.4042C34.6145 12.4042 33.9503 12.2478 33.3475 11.9789L23.4512 19.67C23.4932 19.9275 23.5308 20.1885 23.5308 20.4592ZM53.7661 50.8245H44.5401V37.5882H53.7661V50.8245ZM39.9271 50.8245H30.702V29.9761H39.9271V50.8245ZM26.089 50.8245H16.863V42.7168H26.089V50.8245ZM44.5401 32.9561H56.0726C57.3466 32.9561 58.3791 33.9939 58.3791 35.2725V53.1409C58.3791 54.4187 57.3466 55.4574 56.0726 55.4574H42.2345H28.3955H14.5565C13.2834 55.4574 12.25 54.4187 12.25 53.1409V40.4003C12.25 39.1216 13.2834 38.0838 14.5565 38.0838H26.089V27.6605C26.089 26.381 27.1224 25.3431 28.3955 25.3431H42.2345C43.5076 25.3431 44.5401 26.381 44.5401 27.6605V32.9561Z" fill="#333333"/>
</svg>
