<svg width="50" height="42" viewBox="0 0 50 42" fill="none" xmlns="http://www.w3.org/2000/svg">
<rect width="50" height="41.4286" fill="#D8D8D8" fill-opacity="0.01"/>
<path d="M25 5C20.405 5 16.6667 8.73833 16.6667 13.3333C16.6667 17.9283 20.405 21.6667 25 21.6667C29.595 21.6667 33.3333 17.9283 33.3333 13.3333C33.3333 8.73833 29.595 5 25 5ZM25 18.3333C22.2433 18.3333 20 16.09 20 13.3333C20 10.5767 22.2433 8.33333 25 8.33333C27.7567 8.33333 30 10.5767 30 13.3333C30 16.09 27.7567 18.3333 25 18.3333ZM40 36.6667V35C40 28.5683 34.765 23.3333 28.3333 23.3333H21.6667C15.2333 23.3333 10 28.5683 10 35V36.6667H13.3333V35C13.3333 30.405 17.0717 26.6667 21.6667 26.6667H28.3333C32.9283 26.6667 36.6667 30.405 36.6667 35V36.6667H40Z" fill="#333333"/>
</svg>
