<svg width="33" height="33" viewBox="0 0 33 33" fill="none" xmlns="http://www.w3.org/2000/svg">
<circle cx="16.5" cy="16.5" r="13" stroke="#8B8B8B" stroke-width="2"/>
<path d="M19.9875 10.3969C19.05 9.575 17.8125 9.125 16.5 9.125C15.1875 9.125 13.95 9.57813 13.0125 10.3969C12.0375 11.25 11.5 12.3969 11.5 13.625V13.8625C11.5 14 11.6125 14.1125 11.75 14.1125H13.25C13.3875 14.1125 13.5 14 13.5 13.8625V13.625C13.5 12.2469 14.8469 11.125 16.5 11.125C18.1531 11.125 19.5 12.2469 19.5 13.625C19.5 14.5969 18.8125 15.4875 17.7469 15.8969C17.0844 16.15 16.5219 16.5937 16.1187 17.175C15.7094 17.7687 15.4969 18.4812 15.4969 19.2031V19.875C15.4969 20.0125 15.6094 20.125 15.7469 20.125H17.2469C17.3844 20.125 17.4969 20.0125 17.4969 19.875V19.1656C17.4985 18.8623 17.5915 18.5664 17.7637 18.3167C17.936 18.0669 18.1795 17.8749 18.4625 17.7656C20.3062 17.0563 21.4969 15.4313 21.4969 13.625C21.5 12.3969 20.9625 11.25 19.9875 10.3969ZM15.25 23.375C15.25 23.7065 15.3817 24.0245 15.6161 24.2589C15.8505 24.4933 16.1685 24.625 16.5 24.625C16.8315 24.625 17.1495 24.4933 17.3839 24.2589C17.6183 24.0245 17.75 23.7065 17.75 23.375C17.75 23.0435 17.6183 22.7255 17.3839 22.4911C17.1495 22.2567 16.8315 22.125 16.5 22.125C16.1685 22.125 15.8505 22.2567 15.6161 22.4911C15.3817 22.7255 15.25 23.0435 15.25 23.375Z" fill="#8B8B8B"/>
</svg>
