<svg width="35" height="35" viewBox="0 0 35 35" fill="none" xmlns="http://www.w3.org/2000/svg">
<path d="M5.08696 14.8672H11.6087V28.9976H5.08696C4.79868 28.9976 4.52221 28.8831 4.31836 28.6793C4.11452 28.4754 4 28.1989 4 27.9107V15.9541C4 15.6659 4.11452 15.3894 4.31836 15.1855C4.52221 14.9817 4.79868 14.8672 5.08696 14.8672V14.8672Z" stroke="#3D3D3D" stroke-width="3" stroke-linecap="round" stroke-linejoin="round"/>
<path d="M11.6074 14.8676L17.0422 3.99805C17.6132 3.99805 18.1785 4.11051 18.706 4.32901C19.2335 4.5475 19.7128 4.86776 20.1166 5.2715C20.5203 5.67523 20.8406 6.15453 21.0591 6.68203C21.2776 7.20954 21.39 7.77491 21.39 8.34587V11.6067H29.797C30.1053 11.6067 30.41 11.6723 30.691 11.7991C30.972 11.9258 31.2228 12.1109 31.4268 12.342C31.6308 12.573 31.7833 12.8449 31.8742 13.1394C31.9651 13.4339 31.9924 13.7444 31.9542 14.0503L30.3237 27.0938C30.258 27.6195 30.0025 28.1032 29.6053 28.4539C29.2081 28.8045 28.6965 28.9981 28.1666 28.9981H11.6074" stroke="#3D3D3D" stroke-width="3" stroke-linecap="round" stroke-linejoin="round"/>
</svg>
