<svg width="26" height="26" viewBox="0 0 26 26" fill="none" xmlns="http://www.w3.org/2000/svg">
<path fill-rule="evenodd" clip-rule="evenodd" d="M0 13C0 5.81953 5.81953 0 13 0C20.1805 0 26 5.81953 26 13C26 20.1805 20.1805 26 13 26C5.81953 26 0 20.1805 0 13ZM17.3469 2.7041C15.9707 2.12266 14.5082 1.82812 13 1.82812C11.4918 1.82812 10.0293 2.12266 8.65059 2.70664C7.32012 3.26777 6.12422 4.0752 5.09844 5.10098C4.07266 6.1293 3.26777 7.32266 2.7041 8.65313C2.12266 10.0293 1.82812 11.4918 1.82812 13C1.82812 14.5082 2.12266 15.9707 2.70664 17.3494C3.26777 18.6799 4.0752 19.8758 5.10098 20.9016C6.1293 21.9273 7.32266 22.7322 8.65313 23.2959C10.0293 23.8773 11.4918 24.1719 13 24.1719C14.5082 24.1719 15.9707 23.8773 17.3494 23.2934C18.6799 22.7322 19.8758 21.9248 20.9016 20.899C21.9273 19.8707 22.7322 18.6773 23.2959 17.3469C23.8773 15.9707 24.1719 14.5082 24.1719 13C24.1719 11.4918 23.8773 10.0293 23.2934 8.65059C22.7322 7.32012 21.9248 6.12422 20.899 5.09844C19.8707 4.07266 18.6773 3.26777 17.3469 2.7041ZM13 16.25C12.4389 16.25 11.9844 15.7955 11.9844 15.2344V5.86523C11.9844 5.3041 12.4389 4.84961 13 4.84961C13.5611 4.84961 14.0156 5.3041 14.0156 5.86523V15.2344C14.0156 15.7955 13.5611 16.25 13 16.25ZM13 20.1602C12.369 20.1602 11.8574 19.6486 11.8574 19.0176C11.8574 18.3865 12.369 17.875 13 17.875C13.631 17.875 14.1426 18.3865 14.1426 19.0176C14.1426 19.6486 13.631 20.1602 13 20.1602Z" fill="#FF4B3B"/>
</svg>
