<svg width="50" height="42" viewBox="0 0 50 42" fill="none" xmlns="http://www.w3.org/2000/svg">
<rect width="50" height="41.4286" fill="#D8D8D8" fill-opacity="0.01"/>
<path fill-rule="evenodd" clip-rule="evenodd" d="M12.0556 22.1718V18.1966L38.4994 12.2936V28.0742L12.0556 22.1718ZM21.3081 31.5855L17.0138 30.5065V26.6788L23.8344 28.201L21.3081 31.5855ZM38.4994 6.90479V8.89461L12.0556 14.7957V13.544H8.75V26.8231H12.0556V25.5728L13.7087 25.9412V31.8027C13.7087 32.5648 14.225 33.2282 14.96 33.414L21.5712 35.0737C21.7044 35.107 21.8387 35.1227 21.9719 35.1227C22.4844 35.1227 22.9775 34.8835 23.2937 34.4586L27.3762 28.9919L38.4994 31.4738V33.4624H41.8044V6.90479H38.4994Z" fill="#333333"/>
</svg>
