<svg width="40" height="40" viewBox="0 0 40 40" fill="none" xmlns="http://www.w3.org/2000/svg">
<rect width="40" height="40" fill="#D8D8D8" fill-opacity="0.01"/>
<path d="M29.6279 21.1235C29.5866 16.5685 33.3699 14.3816 33.5369 14.2802C31.411 11.1853 28.0963 10.754 26.9206 10.7022C24.0984 10.4197 21.4128 12.3564 19.9854 12.3564C18.5537 12.3564 16.3454 10.7497 14.0112 10.795C10.9309 10.8359 8.10213 12.5743 6.51639 15.3025C3.32321 20.8107 5.6964 28.976 8.81365 33.4426C10.3321 35.6295 12.1435 38.086 14.5232 37.9976C16.8204 37.9091 17.6882 36.5245 20.4605 36.5245C23.2285 36.5245 24.0116 37.9976 26.439 37.9609C28.9055 37.9092 30.4695 35.7222 31.975 33.5353C33.7191 30.9969 34.4436 28.5404 34.4849 28.411C34.4328 28.3937 29.6734 26.5756 29.6279 21.1235Z" fill="#3D3D3D"/>
<path d="M25.0662 7.74548C26.3331 6.225 27.1856 4.10711 26.9513 2C25.1313 2.06901 22.923 3.20992 21.6214 4.72393C20.4478 6.07619 19.4174 8.23721 19.6972 10.299C21.7233 10.4522 23.8037 9.27028 25.0662 7.74548Z" fill="#3D3D3D"/>
</svg>
