<svg width="26" height="22" viewBox="0 0 26 22" fill="none" xmlns="http://www.w3.org/2000/svg">
<path d="M20.75 17.4678V4.21246C22.6227 5.26049 24.4627 6.91159 25.0522 8.95765C25.6628 11.0769 25.0074 13.9649 20.75 17.4678Z" stroke="white" stroke-width="1.5"/>
<path fill-rule="evenodd" clip-rule="evenodd" d="M2.27642 7.70676H0.878355C0.392815 7.70676 -9.53674e-06 8.10229 -9.53674e-06 8.59118V11.9888C-9.53674e-06 12.4777 0.392815 12.8733 0.878355 12.8733H2.27398V13.4285C2.27398 13.5587 2.27398 13.8314 2.73024 14.5365C2.81076 14.6593 2.89371 14.7821 2.98155 14.8951C2.96447 15.2833 2.97667 15.8705 3.12307 16.5657C3.3573 17.6786 3.98923 19.3025 5.67764 20.7151C5.96555 20.9534 6.31446 21.0763 6.6658 21.0763C6.95859 21.0763 7.25382 20.9903 7.51245 20.8208C8.08339 20.4449 8.34202 19.7496 8.15658 19.0888C7.83696 17.9513 7.49293 16.3741 7.52709 14.8927H7.62713C7.78816 15.2096 8.02971 15.4381 8.36642 15.4381C14.9444 15.4381 20.0316 21.8354 20.0316 21.8354C20.2195 21.9484 20.422 22 20.6172 22C21.2174 22 21.7688 21.5185 21.7688 20.8404V1.15958C21.7688 0.486432 21.2198 0 20.6172 0C20.4366 0 20.2512 0.0442211 20.0731 0.140033C20.0731 0.140033 14.5662 5.48587 8.43717 5.48587C8.07607 5.48587 7.81256 5.73155 7.63689 6.07057H3.43293C2.79612 6.07057 2.27642 6.61105 2.27642 7.27437V7.70676ZM13.6502 14.8093C12.135 14.1632 10.6149 13.7898 9.11926 13.694C9.11926 13.6841 9.11926 13.6768 9.1217 13.6669V7.43912C9.13146 7.38753 9.13633 7.33348 9.13633 7.27698V7.23521C10.5271 7.1566 11.9715 6.84705 13.4403 6.31394C14.7749 5.82996 16.134 5.15682 17.4808 4.31662C18.5056 3.67787 19.3693 3.03666 20.0134 2.52075V19.2167C19.4156 18.6271 18.6446 17.9269 17.7272 17.2267C16.395 16.2096 15.0238 15.3965 13.6502 14.8093ZM4.03393 13.2815C4.10956 13.4314 4.26816 13.677 4.36331 13.7999C4.44139 13.849 4.51215 13.9104 4.57071 13.9817C4.73662 14.1831 4.80738 14.4484 4.76102 14.7064L4.76044 14.7109C4.75253 14.7688 4.66916 15.3792 4.84154 16.2001C5.05137 17.2024 5.53447 18.0967 6.27864 18.8681C5.92485 17.4309 5.62718 15.5835 5.83702 13.8981C5.89313 13.4559 6.26644 13.1243 6.70806 13.1243H7.33268V12.3897C7.33268 12.3086 7.34488 12.23 7.3644 12.1563V7.83984H4.03393V13.2815ZM2.27709 11.1046H1.75815V9.47583H2.27709V11.1046Z" fill="white"/>
</svg>
