<svg width="32" height="32" viewBox="0 0 32 32" fill="none" xmlns="http://www.w3.org/2000/svg">
<path fill-rule="evenodd" clip-rule="evenodd" d="M2 16C2 8.26719 8.26719 2 16 2C23.7328 2 30 8.26719 30 16C30 23.7328 23.7328 30 16 30C8.26719 30 2 23.7328 2 16ZM20.6812 4.91211C19.1992 4.28594 17.6242 3.96875 16 3.96875C14.3758 3.96875 12.8008 4.28594 11.316 4.91484C9.8832 5.51914 8.59531 6.38867 7.49062 7.49336C6.38594 8.60078 5.51914 9.88594 4.91211 11.3188C4.28594 12.8008 3.96875 14.3758 3.96875 16C3.96875 17.6242 4.28594 19.1992 4.91484 20.684C5.51914 22.1168 6.38867 23.4047 7.49336 24.5094C8.60078 25.6141 9.88594 26.4809 11.3188 27.0879C12.8008 27.7141 14.3758 28.0312 16 28.0312C17.6242 28.0312 19.1992 27.7141 20.684 27.0852C22.1168 26.4809 23.4047 25.6113 24.5094 24.5066C25.6141 23.3992 26.4809 22.1141 27.0879 20.6812C27.7141 19.1992 28.0312 17.6242 28.0312 16C28.0312 14.3758 27.7141 12.8008 27.0852 11.316C26.4809 9.8832 25.6113 8.59531 24.5066 7.49062C23.3992 6.38594 22.1141 5.51914 20.6812 4.91211ZM16 19.5C15.3957 19.5 14.9062 19.0105 14.9062 18.4062V8.31641C14.9062 7.71211 15.3957 7.22266 16 7.22266C16.6043 7.22266 17.0938 7.71211 17.0938 8.31641V18.4062C17.0938 19.0105 16.6043 19.5 16 19.5ZM16 23.7109C15.3204 23.7109 14.7695 23.16 14.7695 22.4805C14.7695 21.8009 15.3204 21.25 16 21.25C16.6796 21.25 17.2305 21.8009 17.2305 22.4805C17.2305 23.16 16.6796 23.7109 16 23.7109Z" fill="#A5A5A5"/>
</svg>
