<svg width="28" height="28" viewBox="0 0 28 28" fill="none" xmlns="http://www.w3.org/2000/svg">
<path fill-rule="evenodd" clip-rule="evenodd" d="M0 14C0 6.26719 6.26719 0 14 0C21.7328 0 28 6.26719 28 14C28 21.7328 21.7328 28 14 28C6.26719 28 0 21.7328 0 14ZM18.6812 2.91211C17.1992 2.28594 15.6242 1.96875 14 1.96875C12.3758 1.96875 10.8008 2.28594 9.31602 2.91484C7.8832 3.51914 6.59531 4.38867 5.49062 5.49336C4.38594 6.60078 3.51914 7.88594 2.91211 9.31875C2.28594 10.8008 1.96875 12.3758 1.96875 14C1.96875 15.6242 2.28594 17.1992 2.91484 18.684C3.51914 20.1168 4.38867 21.4047 5.49336 22.5094C6.60078 23.6141 7.88594 24.4809 9.31875 25.0879C10.8008 25.7141 12.3758 26.0312 14 26.0312C15.6242 26.0312 17.1992 25.7141 18.684 25.0852C20.1168 24.4809 21.4047 23.6113 22.5094 22.5066C23.6141 21.3992 24.4809 20.1141 25.0879 18.6812C25.7141 17.1992 26.0312 15.6242 26.0312 14C26.0312 12.3758 25.7141 10.8008 25.0852 9.31602C24.4809 7.8832 23.6113 6.59531 22.5066 5.49062C21.3992 4.38594 20.1141 3.51914 18.6812 2.91211ZM14 17.5C13.3957 17.5 12.9062 17.0105 12.9062 16.4062V6.31641C12.9062 5.71211 13.3957 5.22266 14 5.22266C14.6043 5.22266 15.0938 5.71211 15.0938 6.31641V16.4062C15.0938 17.0105 14.6043 17.5 14 17.5ZM14 21.7109C13.3204 21.7109 12.7695 21.16 12.7695 20.4805C12.7695 19.8009 13.3204 19.25 14 19.25C14.6796 19.25 15.2305 19.8009 15.2305 20.4805C15.2305 21.16 14.6796 21.7109 14 21.7109Z" fill="#FF4B3B"/>
</svg>
