<svg width="60" height="26" viewBox="0 0 60 26" fill="none" xmlns="http://www.w3.org/2000/svg">
<rect width="60" height="26" rx="6" fill="#19DBD8"/>
<path d="M12.9644 19.244H14.6384V9.47H14.7104L20.3984 19.244H22.2704V6.914H20.5964V16.148H20.5424L15.1064 6.914H12.9644V19.244ZM25.1461 19.244H32.7061V17.696H27.0001V13.664H31.3741V12.134H27.0001V8.462H32.6341V6.914H25.1461V19.244ZM37.1996 19.244H38.9996L41.6276 9.902H41.6816L44.2376 19.244H46.0376L49.0976 6.914H47.4056L45.1556 16.436H45.1196L42.4916 6.914H40.9436L38.2616 16.436H38.2076L35.9936 6.914H34.1036L37.1996 19.244Z" fill="white"/>
</svg>
