<svg width="50" height="42" viewBox="0 0 50 42" fill="none" xmlns="http://www.w3.org/2000/svg">
<rect width="50" height="41.4286" fill="#D8D8D8" fill-opacity="0.01"/>
<path fill-rule="evenodd" clip-rule="evenodd" d="M20.6634 32.6749H12.0002V31.9399V30.9791V27.5862V10.6244V7.2315V6.34666V5.53505H22.2847H32.5692V6.34666V7.2315V10.6244V12.5338C33.7553 12.5453 34.9014 12.7159 35.9972 13.0109V5.53505C35.9972 3.66459 34.4601 2.14282 32.5692 2.14282H22.2847H12.0002C10.1101 2.14282 8.57227 3.66459 8.57227 5.53505V32.6749C8.57227 34.5454 10.1101 36.0671 12.0002 36.0671H22.2847H23.4729C22.3601 35.097 21.4089 33.9541 20.6634 32.6749ZM28.5372 13.0987V10.6236H16.0325V14.0165H26.2526C26.9797 13.6463 27.7415 13.3352 28.5372 13.0987ZM16.0319 17.4088H21.9706C21.1192 18.4253 20.4179 19.5668 19.8951 20.8017H16.0319V17.4088ZM16.0322 24.1937V27.5866H18.9503C18.8871 27.0591 18.8444 26.525 18.8444 25.9815C18.8444 25.3734 18.8993 24.7802 18.9788 24.1937H16.0322ZM32.4399 32.7162C33.7448 32.7162 34.9608 32.3447 35.9975 31.7118C37.942 30.5246 39.2455 28.4035 39.2455 25.9815C39.2455 23.5587 37.942 21.4377 35.9975 20.2505C34.9954 19.6391 33.8249 19.2763 32.5689 19.2528C32.5484 19.2525 32.5283 19.251 32.5081 19.2495C32.4855 19.2478 32.4629 19.2461 32.4399 19.2461C30.9877 19.2461 29.6434 19.7023 28.5374 20.4722C28.3867 20.577 28.2373 20.6845 28.0961 20.8014C27.041 21.6695 26.2596 22.8493 25.8848 24.1937C25.7259 24.7641 25.6336 25.3613 25.6336 25.9815C25.6336 26.5351 25.7096 27.0706 25.8373 27.5866C26.5108 30.2968 28.8395 32.3682 31.7019 32.6752C31.9443 32.7008 32.1907 32.7162 32.4399 32.7162ZM40.6706 31.9187L45.2181 36.4182C45.8808 37.0739 45.8808 38.1375 45.2181 38.7939C44.8868 39.1217 44.4523 39.2857 44.0178 39.2857C43.5833 39.2857 43.1487 39.1217 42.8174 38.7939L38.2468 34.2702C36.5963 35.405 34.5969 36.0755 32.4399 36.0755C32.4107 36.0755 32.3822 36.0735 32.3538 36.0715C32.3281 36.0696 32.3024 36.0678 32.2763 36.0675C29.3141 36.0204 26.6608 34.7177 24.825 32.6752C23.5642 31.271 22.6951 29.5215 22.3808 27.5866C22.2952 27.0625 22.2389 26.529 22.2389 25.9815C22.2389 25.3708 22.3034 24.7748 22.4086 24.1937C22.6313 22.9722 23.076 21.8294 23.7006 20.8014C24.5391 19.4214 25.6981 18.2578 27.0797 17.4085C28.6399 16.4504 30.4723 15.8868 32.4399 15.8868C32.4629 15.8868 32.4855 15.8884 32.5081 15.8901C32.5283 15.8917 32.5484 15.8932 32.5689 15.8935C33.7747 15.9089 34.9262 16.1367 35.9975 16.5331C39.8702 17.9662 42.6402 21.6547 42.6402 25.9815C42.6402 28.202 41.9036 30.2505 40.6706 31.9187Z" fill="#333333"/>
</svg>
