<svg width="66" height="62" viewBox="0 0 66 62" fill="none" xmlns="http://www.w3.org/2000/svg">
<path d="M34.3997 51.6881L50.4032 61.5938C52.4489 62.86 54.9887 60.9768 54.3817 58.6439L49.7579 40.8739C49.6277 40.379 49.6431 39.8582 49.8024 39.3715C49.9617 38.8847 50.2583 38.4518 50.6583 38.1224L65.0092 26.4529C66.8949 24.9196 65.9216 21.8622 63.499 21.7086L44.7576 20.5203C44.2528 20.4851 43.7686 20.3105 43.3614 20.0168C42.9543 19.7232 42.6409 19.3225 42.4577 18.8616L35.468 1.66499C35.278 1.17576 34.9401 0.754575 34.4993 0.457363C34.0585 0.160151 33.5356 0.000976562 33 0.000976562C32.4644 0.000976562 31.9415 0.160151 31.5007 0.457363C31.0599 0.754575 30.722 1.17576 30.532 1.66499L23.5423 18.8616C23.3591 19.3225 23.0457 19.7232 22.6386 20.0168C22.2314 20.3105 21.7473 20.4851 21.2425 20.5203L2.50103 21.7086C0.0783623 21.8622 -0.894903 24.9196 0.990755 26.4529L15.3417 38.1224C15.7417 38.4518 16.0383 38.8847 16.1976 39.3715C16.3569 39.8582 16.3723 40.379 16.2421 40.8739L11.9541 57.3536C11.2256 60.1531 14.2734 62.4129 16.7282 60.8935L31.6003 51.6881C32.0186 51.428 32.5042 51.2898 33 51.2898C33.4958 51.2898 33.9814 51.428 34.3997 51.6881Z" fill="#DBDBDB"/>
</svg>
