<svg width="162" height="162" viewBox="0 0 162 162" fill="none" xmlns="http://www.w3.org/2000/svg">
<path fill-rule="evenodd" clip-rule="evenodd" d="M81 161C125.183 161 161 125.183 161 81C161 36.8172 125.183 1 81 1C36.8172 1 1 36.8172 1 81C1 125.183 36.8172 161 81 161Z" stroke="#FF3C3B" stroke-opacity="0.2"/>
<path fill-rule="evenodd" clip-rule="evenodd" d="M81 145C116.346 145 145 116.346 145 81C145 45.6538 116.346 17 81 17C45.6538 17 17 45.6538 17 81C17 116.346 45.6538 145 81 145Z" stroke="#FF3C3B" stroke-opacity="0.501202"/>
<path fill-rule="evenodd" clip-rule="evenodd" d="M81 129C107.51 129 129 107.51 129 81C129 54.4903 107.51 33 81 33C54.4903 33 33 54.4903 33 81C33 107.51 54.4903 129 81 129Z" stroke="#FF3C3B"/>
<path fill-rule="evenodd" clip-rule="evenodd" d="M102.445 68.236C103.185 68.976 103.185 70.1763 102.445 70.9163C97.5331 75.8282 80.5502 92.8111 75.639 97.7224C75.2835 98.0778 74.8013 98.278 74.2985 98.278C73.7957 98.278 73.3134 98.0778 72.958 97.7224C69.9295 94.6938 62.5841 87.3485 59.555 84.3199C58.815 83.5793 58.815 82.379 59.555 81.639C60.3738 80.8207 61.4171 79.7769 62.236 78.958C62.976 78.218 64.1763 78.218 64.9163 78.9586C67.7926 81.8349 74.2985 88.3408 74.2985 88.3408C74.2985 88.3408 92.0141 70.6246 97.0837 65.5556C97.4391 65.2002 97.9213 65.0006 98.4242 65C98.927 65 99.4092 65.2002 99.7646 65.5556L102.445 68.236Z" fill="#FF3C3B"/>
</svg>
