<svg width="62" height="62" viewBox="0 0 62 62" fill="none" xmlns="http://www.w3.org/2000/svg">
<rect width="62" height="62" rx="12.9167" fill="url(#paint0_linear_8264_425522)"/>
<path d="M25.9622 28.5229C22.9768 28.5229 20.5479 30.9519 20.5479 33.9372C20.5479 36.9226 22.9768 39.35 25.9622 39.35C28.9475 39.35 31.3749 36.9211 31.3749 33.9372C31.3749 30.9534 28.9475 28.5229 25.9622 28.5229ZM25.9622 36.6788C24.4507 36.6788 23.2206 35.4487 23.2206 33.9372C23.2206 32.4258 24.4507 31.1957 25.9622 31.1957C27.4736 31.1957 28.7037 32.4258 28.7037 33.9372C28.7021 35.4487 27.472 36.6788 25.9622 36.6788Z" fill="white"/>
<path d="M38.0397 36.6051C38.0288 36.5551 37.9944 36.5113 37.9459 36.491C37.899 36.4707 37.8443 36.4769 37.8006 36.5035C37.588 36.6395 37.3692 36.7004 37.0878 36.7004C36.1688 36.7004 35.8437 36.2987 35.8437 35.1609V33.2243H37.8881C37.9756 33.2243 38.0444 33.154 38.0444 33.068V30.7313C38.0444 30.6437 37.9741 30.575 37.8881 30.575H35.8437V28.6009C35.8437 28.5134 35.7733 28.4446 35.6874 28.4446H33.335C33.2475 28.4446 33.1787 28.5149 33.1787 28.6009V30.5734V33.2227V35.1593C33.1787 37.6586 34.6042 39.0919 37.0894 39.0919C37.6443 39.0919 38.1616 38.995 38.718 38.7871C38.7603 38.7714 38.7946 38.7355 38.8118 38.6917C38.8259 38.648 38.8212 38.5995 38.7978 38.5589C38.4289 37.9493 38.1741 37.2913 38.0397 36.6051Z" fill="white"/>
<path d="M19.3651 37.5087C19.3573 37.5025 18.507 36.6787 18.507 34.3561V25.9299C18.507 25.8423 18.4367 25.7736 18.3507 25.7736H15.9077C15.8202 25.7736 15.7499 25.8439 15.7499 25.9299V30.8049H9.77758V25.9299C9.77758 25.8423 9.70724 25.7736 9.62127 25.7736H7.17827C7.09075 25.7736 7.02197 25.8439 7.02197 25.9299V34.5249C7.02197 35.2251 7.03448 36.7084 7.85037 38.2168C8.04575 38.5778 8.28802 38.8779 8.58656 39.067C8.61469 39.0842 8.64595 39.0936 8.67721 39.0936C8.71003 39.0936 8.74442 39.0842 8.77412 39.0639L10.6325 37.7838C10.6779 37.7525 10.7029 37.7025 10.7044 37.6478C10.706 37.5931 10.681 37.5415 10.6388 37.5087C10.631 37.5025 9.77914 36.6787 9.77914 34.2826V33.4527H15.7514V34.5171C15.7514 34.5187 15.7499 34.5218 15.7499 34.5233C15.7499 34.5374 15.7514 34.5796 15.7514 34.6437C15.7514 35.5377 15.8483 36.8647 16.5783 38.2152C16.7737 38.5763 17.0159 38.8763 17.3145 39.0655C17.3426 39.0827 17.3738 39.092 17.4051 39.092C17.4379 39.092 17.4723 39.0827 17.5005 39.0624L19.3589 37.7822C19.4042 37.751 19.4292 37.701 19.4308 37.6463C19.4323 37.5931 19.4073 37.5415 19.3651 37.5087Z" fill="white"/>
<path d="M45.4866 38.5604C45.1193 37.9477 44.863 37.2897 44.7301 36.6051C44.7192 36.5551 44.6848 36.5113 44.6363 36.491C44.5895 36.4707 44.5348 36.4769 44.491 36.5035C44.2784 36.6395 44.0596 36.7004 43.7783 36.7004C42.8592 36.7004 42.5341 36.2987 42.5341 35.1609V33.2243H44.5785C44.666 33.2243 44.7348 33.154 44.7348 33.068V30.7313C44.7348 30.6437 44.6645 30.575 44.5785 30.575H42.5341V28.6009C42.5341 28.5134 42.4638 28.4446 42.3778 28.4446H40.0254C39.9379 28.4446 39.8691 28.5149 39.8691 28.6009V30.5734V33.2227V35.1593C39.8691 37.6586 41.2946 39.0919 43.7798 39.0919C44.3347 39.0919 44.852 38.995 45.4085 38.7871C45.4507 38.7714 45.4851 38.7355 45.5023 38.6917C45.5148 38.6495 45.5101 38.6011 45.4866 38.5604Z" fill="white"/>
<path d="M52.9614 19.4766C52.3125 17.6757 50.6119 16.4427 48.6326 16.4427C46.0854 16.4427 44.0147 18.515 44.0147 21.0621V23.1226L44.0132 23.1211V28.4234H51.3774C53.9216 28.4219 55.9924 26.3496 55.9924 23.8054C55.9924 21.8261 54.7608 20.127 52.9614 19.4766ZM52.9703 24.9573C52.6119 25.4514 52.0352 25.7774 51.3803 25.7789C51.3789 25.7789 51.3774 25.7789 51.3759 25.7789H50.9792H50.4202H46.6592V22.0267V21.4131V21.0665V21.0636C46.6592 20.5326 46.873 20.0518 47.2152 19.6964C47.5559 19.3719 48.0146 19.1683 48.5234 19.1683C49.5721 19.1683 50.4216 20.0179 50.4216 21.0665V22.0282H51.3818C52.4305 22.0282 53.28 22.8777 53.28 23.9264C53.2785 24.3054 53.1635 24.6594 52.9703 24.9573Z" fill="white"/>
<defs>
<linearGradient id="paint0_linear_8264_425522" x1="4.30555" y1="57.8667" x2="57.8667" y2="4.30555" gradientUnits="userSpaceOnUse">
<stop stop-color="#FF4943"/>
<stop offset="1" stop-color="#FF783E"/>
</linearGradient>
</defs>
</svg>
