<svg width="48" height="48" viewBox="0 0 48 48" fill="none" xmlns="http://www.w3.org/2000/svg">
<path d="M24 33C28.9706 33 33 28.9706 33 24C33 19.0294 28.9706 15 24 15C19.0294 15 15 19.0294 15 24C15 28.9706 19.0294 33 24 33Z" stroke="#3D3D3D" stroke-width="3" stroke-linecap="round" stroke-linejoin="round"/>
<path d="M40.5003 22.5002L42.4328 19.6014C42.5588 19.4147 42.6421 19.2025 42.6768 18.9799C42.7115 18.7574 42.6967 18.5299 42.6336 18.3137C42.269 17.1131 41.7885 15.9509 41.1989 14.8434C41.0909 14.6462 40.9407 14.4753 40.759 14.3429C40.5773 14.2106 40.3687 14.1199 40.1479 14.0775L36.7283 13.3935L34.607 11.2722L33.923 7.85246C33.8806 7.63169 33.7899 7.423 33.6575 7.24131C33.5251 7.05963 33.3542 6.90941 33.1571 6.8014C32.0495 6.21185 30.8872 5.73142 29.6866 5.36687C29.4704 5.30376 29.2429 5.28904 29.0204 5.32373C28.7978 5.35843 28.5856 5.4417 28.3989 5.56763L25.5003 7.50005H22.5003L19.6016 5.56763C19.4149 5.4417 19.2027 5.35843 18.9801 5.32373C18.7576 5.28904 18.5301 5.30376 18.3139 5.36687C17.1133 5.73141 15.951 6.21185 14.8435 6.80139C14.6463 6.9094 14.4754 7.05962 14.343 7.24132C14.2106 7.42302 14.1199 7.63171 14.0775 7.8525L13.3937 11.272L11.2722 13.3935L7.85267 14.0773C7.6319 14.1197 7.42322 14.2104 7.24152 14.3428C7.05983 14.4752 6.90962 14.646 6.8016 14.8432C6.21196 15.9508 5.73145 17.1131 5.36685 18.3137C5.30376 18.5299 5.28904 18.7574 5.32374 18.9799C5.35844 19.2025 5.44172 19.4147 5.56765 19.6014L7.50007 22.5V25.5L5.56764 28.3987C5.44172 28.5854 5.35845 28.7976 5.32375 29.0202C5.28906 29.2427 5.30378 29.4702 5.36688 29.6864C5.73137 30.887 6.21181 32.0493 6.8014 33.1569C6.90941 33.3541 7.05963 33.5249 7.24132 33.6573C7.423 33.7897 7.63168 33.8804 7.85245 33.9228L11.2722 34.6068L13.3935 36.7281L14.0773 40.1478C14.1198 40.3686 14.2104 40.5773 14.3428 40.759C14.4752 40.9407 14.6461 41.0909 14.8432 41.1989C15.9507 41.7885 17.113 42.269 18.3136 42.6335C18.5298 42.6966 18.7572 42.7113 18.9798 42.6766C19.2023 42.6419 19.4145 42.5586 19.6012 42.4327L22.5001 40.5002H25.5001L28.3989 42.4328C28.5856 42.5588 28.7978 42.642 29.0204 42.6767C29.2429 42.7114 29.4704 42.6967 29.6866 42.6336C30.8872 42.2691 32.0494 41.7886 33.1569 41.1991C33.3541 41.0911 33.525 40.9409 33.6573 40.7592C33.7897 40.5775 33.8804 40.3688 33.9228 40.148L34.6068 36.7283L36.7281 34.6068L40.1478 33.923C40.3686 33.8805 40.5773 33.7899 40.759 33.6575C40.9407 33.5251 41.0909 33.3542 41.1989 33.1571C41.7885 32.0496 42.269 30.8873 42.6336 29.6868C42.6967 29.4706 42.7115 29.2431 42.6768 29.0205C42.6421 28.798 42.5588 28.5858 42.4328 28.399L40.5003 25.5002V22.5002Z" stroke="#3D3D3D" stroke-width="3" stroke-linecap="round" stroke-linejoin="round"/>
</svg>
