<svg width="50" height="42" viewBox="0 0 50 42" fill="none" xmlns="http://www.w3.org/2000/svg">
<rect width="50" height="41.4286" fill="#D8D8D8" fill-opacity="0.01"/>
<path fill-rule="evenodd" clip-rule="evenodd" d="M10.7504 33.6543H39.2496C39.3927 33.6543 39.6461 33.454 39.6815 33.3155L40.3876 30.4701H30.4051L29.2859 31.5974C28.989 31.8965 28.5866 32.0639 28.1667 32.0639H21.8333C21.4134 32.0639 21.011 31.8965 20.7141 31.5974L19.5942 30.4701H9.61178L10.3191 33.3155C10.3532 33.454 10.6073 33.6543 10.7504 33.6543ZM39.2496 8.18351H10.7504V27.2886H20.2501C20.6693 27.2886 21.0725 27.4567 21.3693 27.7551L22.4892 28.8804H27.5108L28.6307 27.7551C28.9275 27.4567 29.33 27.2886 29.7499 27.2886H39.2496V8.18351ZM42.5076 27.3166C42.6051 27.3139 42.7021 27.3112 42.8011 27.3364C43.6489 27.5494 44.1643 28.4139 43.9524 29.2676L42.7536 34.0879C42.3639 35.6554 40.8569 36.8378 39.2496 36.8378H10.7504C9.14311 36.8378 7.63614 35.6554 7.24636 34.0879L6.04761 29.2676C5.83567 28.4139 6.35114 27.5494 7.19956 27.3364C7.29939 27.312 7.39684 27.3144 7.49496 27.3168C7.52432 27.3175 7.55375 27.3182 7.58332 27.3182V27.2886V6.59176C7.58332 5.71253 8.29268 5 9.16651 5H40.8328C41.7073 5 42.4167 5.71253 42.4167 6.59176V27.2886V27.3182C42.4471 27.3182 42.4774 27.3174 42.5076 27.3166ZM25.7705 16.811C26.1953 16.811 26.5408 16.4656 26.5408 16.0408C26.5408 15.616 26.1953 15.2706 25.7705 15.2706H23.4599V16.811H25.7705ZM23.4599 21.4328H25.7705C26.1953 21.4328 26.5408 21.0873 26.5408 20.6619C26.5408 20.2378 26.1953 19.8917 25.7705 19.8917H23.4599V21.4328ZM26.5408 24.4361L23.4599 24.5135H20.3784V12.1892H23.4599L26.5408 12.2685C28.2965 12.6263 29.6216 14.1817 29.6216 16.0408C29.6216 16.9111 29.3211 17.7061 28.8319 18.3514C29.3211 18.9973 29.6216 19.7916 29.6216 20.6619C29.6216 22.5217 28.2965 24.0777 26.5408 24.4361Z" fill="#333333"/>
</svg>
