<svg width="42" height="42" viewBox="0 0 42 42" fill="none" xmlns="http://www.w3.org/2000/svg">
<path d="M13 9.1875V32.8125" stroke="#3D3D3D" stroke-width="2.5" stroke-linecap="round" stroke-linejoin="round" stroke-dasharray="2 4"/>
<path d="M3.31126 26.6889C3.10991 26.9268 2.99994 27.2245 3 27.5317V31.6667C3 32.0203 3.14552 32.3594 3.40454 32.6095C3.66356 32.8595 4.01486 33 4.38117 33H37.5293C37.8956 33 38.2469 32.8595 38.506 32.6095C38.765 32.3594 38.9105 32.0203 38.9105 31.6667C39.1119 31.4288 38.9106 14.7755 38.9105 14.4683V10.3333C38.9105 9.97971 38.765 9.64057 38.506 9.39052C38.2469 9.14048 37.8956 9 37.5293 9H4.38117C4.01486 9 3.66356 9.14048 3.40454 9.39052C3.14552 9.64057 3 9.97971 3 10.3333V14.4683C2.99994 14.7755 3.10991 15.0732 3.31126 15.3111C3.51261 15.5489 3.79296 15.7122 4.1048 15.7733C5.35258 16.0194 6.47402 16.674 7.27941 17.6264C8.0848 18.5788 8.52469 19.7705 8.52469 21C8.52469 22.2295 8.0848 23.4212 7.27941 24.3736C6.47402 25.326 5.35258 25.9806 4.1048 26.2267C3.79296 26.2878 3.51261 26.4511 3.31126 26.6889Z" stroke="#3D3D3D" stroke-width="3.3" stroke-linecap="round" stroke-linejoin="round"/>
<circle cx="21.2857" cy="18.6429" r="2.35714" stroke="#3D3D3D" stroke-width="2.14286"/>
<circle cx="30.7143" cy="23.7857" r="2.35714" stroke="#3D3D3D" stroke-width="2.14286"/>
<path d="M22.488 25.4155C22.2046 25.935 22.3961 26.5858 22.9155 26.8692C23.435 27.1525 24.0858 26.9611 24.3692 26.4416L22.488 25.4155ZM29.512 17.0131C29.7954 16.4936 29.604 15.8428 29.0845 15.5594C28.565 15.276 27.9142 15.4675 27.6308 15.9869L29.512 17.0131ZM24.3692 26.4416L29.512 17.0131L27.6308 15.9869L22.488 25.4155L24.3692 26.4416Z" fill="#3D3D3D"/>
</svg>
