<svg width="30" height="30" viewBox="0 0 30 30" fill="none" xmlns="http://www.w3.org/2000/svg">
<path fill-rule="evenodd" clip-rule="evenodd" d="M15 0C6.7155 0 0 6.717 0 15C0 23.283 6.7155 30 15 30C23.283 30 30 23.283 30 15C30 6.717 23.283 0 15 0Z" fill="#FF887D"/>
<path fill-rule="evenodd" clip-rule="evenodd" d="M16.6377 7.14062L16.2777 17.8386H13.7112L13.3722 7.14062H16.6377ZM14.9937 19.5606C15.9402 19.5606 16.7067 20.2131 16.7067 21.1491C16.7067 22.0836 15.9402 22.7361 14.9937 22.7361C14.0592 22.7361 13.2942 22.0836 13.2942 21.1491C13.2942 20.2131 14.0592 19.5606 14.9937 19.5606Z" fill="white"/>
</svg>
