<svg width="42" height="42" viewBox="0 0 42 42" fill="none" xmlns="http://www.w3.org/2000/svg">
<path d="M17.1508 36.3829C18.5522 36.3829 19.6883 35.2468 19.6883 33.8454C19.6883 32.4439 18.5522 31.3079 17.1508 31.3079C15.7494 31.3079 14.6133 32.4439 14.6133 33.8454C14.6133 35.2468 15.7494 36.3829 17.1508 36.3829Z" stroke="#333333" stroke-width="3" stroke-linecap="round" stroke-linejoin="round"/>
<path d="M31.8305 36.3829C33.2319 36.3829 34.368 35.2468 34.368 33.8454C34.368 32.4439 33.2319 31.3079 31.8305 31.3079C30.429 31.3079 29.293 32.4439 29.293 33.8454C29.293 35.2468 30.429 36.3829 31.8305 36.3829Z" stroke="#333333" stroke-width="3" stroke-linecap="round" stroke-linejoin="round"/>
<path d="M4.8125 5.25H10.6989L14.6427 23.5764C14.7773 24.2066 15.1459 24.7726 15.6839 25.1754C16.222 25.5783 16.8953 25.7923 17.5859 25.78H31.8898C32.5804 25.7923 33.2537 25.5783 33.7917 25.1754C34.3298 24.7726 34.6984 24.2066 34.833 23.5764L37.1875 12.0933H12.1705" stroke="#333333" stroke-width="3" stroke-linecap="round" stroke-linejoin="round"/>
</svg>
