<svg width="22" height="22" viewBox="0 0 22 22" fill="none" xmlns="http://www.w3.org/2000/svg">
<path fill-rule="evenodd" clip-rule="evenodd" d="M2.53059 10.9996C2.53059 6.32997 6.33004 2.53056 11.0002 2.53056C15.67 2.53056 19.4694 6.32997 19.4694 10.9996C19.4694 15.67 15.67 19.4694 11.0002 19.4694C6.33004 19.4694 2.53059 15.67 2.53059 10.9996ZM0 10.9996C0 17.0654 4.93463 22 11.0002 22C17.0654 22 22 17.0654 22 10.9996C22 4.93458 17.0654 0 11.0002 0C4.93463 0 0 4.93458 0 10.9996ZM11.3441 12.6923H16.0769V10.1373H12.5341V5.07692H10.1538V11.4149C10.1538 12.1205 10.6865 12.6923 11.3441 12.6923Z" fill="#BBBBBB"/>
</svg>
