<svg width="50" height="42" viewBox="0 0 50 42" fill="none" xmlns="http://www.w3.org/2000/svg">
<rect width="50" height="41.4286" fill="#D8D8D8" fill-opacity="0.01"/>
<path fill-rule="evenodd" clip-rule="evenodd" d="M11.2806 9.77597H30.2156V8.19101H11.2806V9.77597ZM26.7275 33.5472H11.2806V31.9622H26.7275V28.7929H11.2806V12.9453H30.2162V14.5302H33.3719V8.19101C33.3719 6.44285 31.9563 5.02173 30.2156 5.02173H11.2806C9.54063 5.02173 8.125 6.44285 8.125 8.19101V33.5472C8.125 35.2941 9.54063 36.7165 11.2806 36.7165H26.7275V33.5472ZM33.3731 33.5466H39.6875V31.9622H33.3731V33.5466ZM39.685 20.8688L39.6863 28.7929H33.3731V20.8688H39.685ZM39.685 17.6995H33.3731C31.6325 17.6995 30.2175 19.1213 30.2175 20.8688V33.5472C30.2175 35.2941 31.6325 36.7165 33.3731 36.7165H39.685C41.425 36.7165 42.8406 35.2941 42.8406 33.5472V20.8688C42.8406 19.1213 41.425 17.6995 39.685 17.6995ZM14.0009 20.6571L19.3147 25.9951L27.4959 17.7778L25.4691 15.7428L19.3147 21.9232L16.0278 18.6221L14.0009 20.6571Z" fill="#333333"/>
</svg>
