<svg width="70" height="58" viewBox="0 0 70 58" fill="none" xmlns="http://www.w3.org/2000/svg">
<rect width="70" height="58" fill="#D8D8D8" fill-opacity="0.01"/>
<path fill-rule="evenodd" clip-rule="evenodd" d="M53.129 13.1011V17.734H57.742V13.1011C57.742 11.8224 56.7069 10.7846 55.4355 10.7846C54.1641 10.7846 53.129 11.8224 53.129 13.1011ZM46.2095 45.531C47.4809 45.531 48.516 44.494 48.516 43.2154V13.1011C48.516 12.2856 48.6831 11.5131 48.9404 10.7846H34.6779C33.4065 10.7846 32.3705 11.8224 32.3705 13.1011V36.2659H36.9835C40.5404 36.2659 43.903 39.6431 43.903 43.2154C43.903 44.2646 44.9329 45.531 46.2095 45.531ZM39.2909 43.2154C39.2909 42.1775 38.0186 40.898 36.9835 40.898C33.4931 40.898 31.7668 43.2136 30.9101 45.531H39.7459C39.4685 44.7972 39.2909 44.0212 39.2909 43.2154ZM12.3645 47.8483H25.6164C25.92 45.6232 26.6821 43.0554 28.1355 40.898H18.5324C15.5329 40.898 13.4565 44.7849 12.3645 47.8483ZM34.6779 6.15161H55.4355C59.2514 6.15161 62.355 9.26867 62.355 13.1011V20.0505C62.355 21.3292 61.3225 22.367 60.0485 22.367H53.129V43.2154C53.129 47.0469 50.0254 50.1639 46.2095 50.1639H30.0649C30.0649 51.4435 29.0315 52.4813 27.7575 52.4813H9.30638C8.61426 52.4813 7.96063 52.1702 7.52226 51.6324C7.08388 51.0963 6.90888 50.3907 7.04538 49.7096C7.15476 49.1612 9.82176 36.2659 18.5324 36.2659H27.7575V13.1011C27.7575 9.26867 30.862 6.15161 34.6779 6.15161ZM46.2101 20.05H34.6776V15.4179H46.2101V20.05ZM46.2101 27.0003H34.6776V22.3674H46.2101V27.0003ZM34.6776 33.9489H46.2101V29.3159H34.6776V33.9489Z" fill="#333333"/>
</svg>
