<svg width="49" height="42" viewBox="0 0 49 42" fill="none" xmlns="http://www.w3.org/2000/svg">
<rect x="-1" width="50" height="41.4286" fill="#D8D8D8" fill-opacity="0.01"/>
<path fill-rule="evenodd" clip-rule="evenodd" d="M40.1607 17.8575C40.1607 10.9688 34.5564 5.36366 27.6669 5.36366H20.1309C13.2415 5.36366 7.63636 10.9688 7.63636 17.8575V18.3411C7.63636 25.2306 13.2415 30.8349 20.1309 30.8349H22.9796C23.5564 30.8349 24.0996 31.1091 24.4422 31.5738L25.9287 33.5877V32.6495C25.9287 31.6488 26.7367 30.8364 27.7367 30.8313C34.5876 30.7935 40.1607 25.1906 40.1607 18.3411V17.8575ZM28.3149 40.84C28.128 40.9018 27.9367 40.9309 27.7469 40.9309C27.1811 40.9309 26.6335 40.6662 26.2836 40.1927L22.0611 34.4713H20.1309C11.2364 34.4713 4 27.2357 4 18.3411V17.8575C4 8.96366 11.2364 1.72729 20.1309 1.72729H27.6669C36.5607 1.72729 43.7971 8.96366 43.7971 17.8575V18.3411C43.7971 26.5731 37.5615 33.4109 29.5651 34.3564V39.1128C29.5651 39.8982 29.0611 40.5942 28.3149 40.84ZM24.894 26.6101C25.318 26.261 25.5304 25.7716 25.5304 25.1396C25.5304 24.5076 25.318 24.0181 24.894 23.6698C24.4715 23.3207 23.9435 23.1461 23.3129 23.1461C22.6809 23.1461 22.1537 23.3207 21.7297 23.6698C21.3057 24.0181 21.094 24.5076 21.094 25.1396C21.094 25.7716 21.3057 26.261 21.7297 26.6101C22.1537 26.9585 22.6809 27.133 23.3129 27.133C23.9435 27.133 24.4715 26.9585 24.894 26.6101ZM21.742 19.781C21.6089 20.2138 21.5435 20.7032 21.5435 21.2516H25.0569C25.0904 20.853 25.1733 20.4909 25.3064 20.1679C25.4395 19.8436 25.6017 19.549 25.7922 19.2829C25.9828 19.0167 26.1988 18.7723 26.4395 18.5476C26.6802 18.3229 26.9253 18.1032 27.1755 17.8872C27.4744 17.6378 27.7646 17.3803 28.0468 17.1141C28.3304 16.8487 28.5835 16.5578 28.8075 16.2429C29.0315 15.9272 29.2104 15.5781 29.3435 15.1963C29.4759 14.8138 29.5428 14.3738 29.5428 13.8749C29.5428 13.1607 29.3966 12.5047 29.1064 11.9061C28.8162 11.3083 28.4177 10.797 27.91 10.373C27.4031 9.95049 26.7966 9.6174 26.0911 9.37668C25.3842 9.13595 24.6082 9.01522 23.7609 9.01522C22.5639 9.01522 21.5057 9.23922 20.5835 9.68868C19.6613 10.1367 18.8846 10.677 18.2533 11.3083L19.7239 13.6007C20.3879 13.0858 21.0322 12.6952 21.6548 12.4298C22.278 12.1643 22.9049 12.0312 23.5369 12.0312C24.3006 12.0312 24.8744 12.2094 25.2569 12.5665C25.638 12.9243 25.8293 13.3687 25.8293 13.8996C25.8293 14.3978 25.6715 14.8472 25.3559 15.2458C25.0409 15.6443 24.5333 16.1592 23.8359 16.7912C23.5529 17.0567 23.2751 17.3359 23.0009 17.6254C22.7268 17.9163 22.4809 18.24 22.2664 18.597C22.0489 18.9549 21.8751 19.3498 21.742 19.781Z" fill="#333333"/>
</svg>
