<svg width="30" height="30" viewBox="0 0 30 30" fill="none" xmlns="http://www.w3.org/2000/svg">
<path fill-rule="evenodd" clip-rule="evenodd" d="M24.7051 19.3639L23.3033 20.7157C22.9092 21.0948 22.2731 21.0948 21.8808 20.7157L15 14.0807L8.12009 20.7157C7.72695 21.0948 7.09078 21.0948 6.69675 20.7157L5.29485 19.3639C4.90172 18.9856 4.90172 18.3713 5.29485 17.9914L12.9182 10.6413C12.9217 10.637 12.9226 10.6318 12.9271 10.6284L14.329 9.2757C14.5148 9.0965 14.7561 9.00862 15 9C15.2439 9.00862 15.4852 9.0965 15.671 9.2757L17.0729 10.6284C17.0774 10.6318 17.0783 10.637 17.0827 10.6413L24.7051 17.9914C25.0983 18.3713 25.0983 18.9856 24.7051 19.3639Z" fill="#666666"/>
<rect width="30" height="30" fill="#D8D8D8" fill-opacity="0.01"/>
</svg>
