<svg width="48" height="48" viewBox="0 0 48 48" fill="none" xmlns="http://www.w3.org/2000/svg">
<path d="M19.5992 41.5805C21.2008 41.5805 22.4992 40.2821 22.4992 38.6805C22.4992 37.0789 21.2008 35.7805 19.5992 35.7805C17.9976 35.7805 16.6992 37.0789 16.6992 38.6805C16.6992 40.2821 17.9976 41.5805 19.5992 41.5805Z" stroke="#3D3D3D" stroke-width="3" stroke-linecap="round" stroke-linejoin="round"/>
<path d="M36.3766 41.5805C37.9782 41.5805 39.2766 40.2821 39.2766 38.6805C39.2766 37.0789 37.9782 35.7805 36.3766 35.7805C34.7749 35.7805 33.4766 37.0789 33.4766 38.6805C33.4766 40.2821 34.7749 41.5805 36.3766 41.5805Z" stroke="#3D3D3D" stroke-width="3" stroke-linecap="round" stroke-linejoin="round"/>
<path d="M5.5 6H12.2273L16.7345 26.9445C16.8883 27.6646 17.3096 28.3115 17.9245 28.7719C18.5394 29.2323 19.3089 29.4769 20.0982 29.4628H36.4455C37.2347 29.4769 38.0042 29.2323 38.6191 28.7719C39.2341 28.3115 39.6553 27.6646 39.8091 26.9445L42.5 13.8209H13.9091" stroke="#3D3D3D" stroke-width="3" stroke-linecap="round" stroke-linejoin="round"/>
</svg>
