<svg width="750" height="750" viewBox="0 0 750 750" fill="none" xmlns="http://www.w3.org/2000/svg">
<rect width="750" height="750" fill="#F8F8F8"/>
<path d="M326.729 373.086C296.824 373.086 272.492 397.417 272.492 427.323C272.492 457.229 296.824 481.545 326.729 481.545C356.635 481.545 380.951 457.213 380.951 427.323C380.951 397.433 356.635 373.086 326.729 373.086ZM326.729 454.786C311.589 454.786 299.266 442.464 299.266 427.323C299.266 412.182 311.589 399.86 326.729 399.86C341.87 399.86 354.192 412.182 354.192 427.323C354.177 442.464 341.854 454.786 326.729 454.786Z" fill="#EDEDED"/>
<path d="M447.714 454.051C447.604 453.55 447.26 453.111 446.775 452.908C446.305 452.704 445.757 452.767 445.318 453.033C443.189 454.395 440.997 455.006 438.179 455.006C428.972 455.006 425.715 450.982 425.715 439.583V420.184H446.195C447.072 420.184 447.761 419.479 447.761 418.618V395.21C447.761 394.334 447.056 393.645 446.195 393.645H425.715V373.869C425.715 372.993 425.011 372.304 424.15 372.304H400.585C399.708 372.304 399.02 373.008 399.02 373.869V393.629V420.168V439.568C399.02 464.604 413.299 478.962 438.194 478.962C443.753 478.962 448.935 477.991 454.509 475.909C454.932 475.752 455.276 475.392 455.449 474.953C455.59 474.515 455.543 474.03 455.308 473.623C451.613 467.516 449.06 460.924 447.714 454.051Z" fill="#EDEDED"/>
<path d="M260.646 463.1C260.568 463.038 252.05 454.786 252.05 431.52V347.111C252.05 346.234 251.346 345.545 250.485 345.545H226.012C225.135 345.545 224.431 346.25 224.431 347.111V395.946H164.604V347.111C164.604 346.234 163.899 345.545 163.038 345.545H138.566C137.689 345.545 137 346.25 137 347.111V433.211C137 440.225 137.125 455.084 145.298 470.193C147.256 473.81 149.682 476.816 152.673 478.711C152.955 478.883 153.268 478.977 153.581 478.977C153.91 478.977 154.254 478.883 154.552 478.68L173.169 465.856C173.623 465.543 173.873 465.042 173.889 464.494C173.904 463.946 173.654 463.429 173.231 463.1C173.153 463.038 164.62 454.786 164.62 430.784V422.47H224.446V433.132C224.446 433.148 224.431 433.179 224.431 433.195C224.431 433.336 224.446 433.759 224.446 434.401C224.446 443.357 225.417 456.65 232.729 470.178C234.686 473.794 237.113 476.801 240.104 478.695C240.386 478.867 240.699 478.961 241.012 478.961C241.341 478.961 241.685 478.867 241.967 478.664L260.584 465.841C261.038 465.527 261.288 465.026 261.304 464.478C261.32 463.946 261.069 463.429 260.646 463.1Z" fill="#EDEDED"/>
<path d="M522.316 473.638C518.636 467.501 516.068 460.909 514.737 454.051C514.628 453.55 514.283 453.111 513.798 452.908C513.328 452.704 512.78 452.767 512.342 453.033C510.212 454.395 508.02 455.006 505.202 455.006C495.996 455.006 492.739 450.982 492.739 439.583V420.184H513.219C514.095 420.184 514.784 419.479 514.784 418.618V395.21C514.784 394.334 514.08 393.645 513.219 393.645H492.739V373.869C492.739 372.993 492.034 372.304 491.173 372.304H467.609C466.732 372.304 466.043 373.008 466.043 373.869V393.629V420.168V439.568C466.043 464.604 480.323 478.962 505.218 478.962C510.776 478.962 515.959 477.991 521.533 475.909C521.955 475.752 522.3 475.392 522.472 474.953C522.597 474.531 522.55 474.045 522.316 473.638Z" fill="#EDEDED"/>
<path d="M602.622 291.392C596.122 273.352 579.086 261 559.259 261C533.743 261 512.999 281.758 512.999 307.274V327.915L512.984 327.9V381.015H586.754C612.241 381 632.984 360.242 632.984 334.755C632.984 314.928 620.647 297.907 602.622 291.392ZM602.711 346.294C599.121 351.244 593.344 354.509 586.784 354.524C586.769 354.524 586.754 354.524 586.74 354.524H582.765H577.166H539.49V316.937V310.791V307.319V307.289C539.49 301.97 541.632 297.154 545.06 293.593C548.473 290.343 553.068 288.304 558.165 288.304C568.67 288.304 577.18 296.814 577.18 307.319V316.952H586.799C597.303 316.952 605.814 325.462 605.814 335.967C605.799 339.764 604.646 343.31 602.711 346.294Z" fill="#EDEDED"/>
</svg>
