<svg width="212" height="23" viewBox="0 0 212 23" fill="none" xmlns="http://www.w3.org/2000/svg">
<g clip-path="url(#clip0)">
<path d="M17.5702 11.8098C14.9902 10.1798 13.3502 8.04981 13.0302 4.87981C12.6602 1.19981 9.86024 -0.340194 6.25024 0.0698059C3.06024 0.429806 0.880239 3.16981 0.190239 6.53981C-1.01976 12.3898 3.84024 20.2398 9.64024 21.7198C13.2102 22.6298 17.1402 21.7198 18.7802 18.8198C20.2102 16.2898 19.7702 13.1898 17.5702 11.8098ZM13.3002 11.9198C12.4302 11.6498 11.8402 10.9698 11.3502 10.1198C10.9002 9.33981 10.5902 8.53981 10.8502 7.70981C11.0802 6.96981 12.1102 6.89981 12.4202 7.60981C12.8902 8.69981 13.4502 9.68981 14.1802 10.5898C14.6602 11.2198 14.0602 12.1498 13.3002 11.9198Z" fill="#487EC0"/>
<path d="M35.7305 21.8298C31.0905 21.8298 28.1705 19.4198 28.0205 15.5298H33.0805C33.2305 16.9898 34.4805 17.6398 35.7105 17.6398C36.9705 17.6398 38.2605 16.9498 38.2605 15.6398C38.2605 14.1698 36.5905 13.7598 34.6505 13.2898L34.5305 13.2598C31.6005 12.5298 28.2805 11.6998 28.2805 7.44984C28.2805 3.72984 30.9305 1.58984 35.5405 1.58984C40.0005 1.58984 42.6005 3.72984 42.7305 7.47984H37.8305C37.7005 6.34984 36.8005 5.62984 35.4705 5.62984C34.1505 5.62984 33.2605 6.28984 33.2605 7.27984C33.2605 8.63984 34.9205 9.05984 36.8505 9.53984C39.7805 10.2998 43.3905 11.2298 43.3905 15.5198C43.3805 19.4698 40.5205 21.8298 35.7305 21.8298Z" fill="#487EC0"/>
<path d="M56.4703 21.8396C50.3003 21.8396 45.8203 17.5696 45.8203 11.6996C45.8203 5.82957 50.3003 1.55957 56.4703 1.55957C62.7203 1.55957 67.0903 5.72957 67.0903 11.6996C67.0903 17.6696 62.7203 21.8396 56.4703 21.8396ZM56.4703 6.04957C53.2503 6.04957 50.9203 8.41957 50.9203 11.6996C50.9203 14.9796 53.2603 17.3496 56.4703 17.3496C58.0203 17.3496 59.4203 16.7796 60.4303 15.7496C61.4403 14.7196 61.9903 13.2796 61.9903 11.6996C61.9903 8.42957 59.6703 6.04957 56.4703 6.04957Z" fill="#487EC0"/>
<path d="M79.73 21.8398C73.88 21.8398 69.46 17.4898 69.46 11.7098C69.46 5.9198 73.88 1.5498 79.73 1.5498C84.66 1.5498 88.51 4.6998 89.43 9.4298H84.45C83.67 7.3498 81.89 6.06981 79.74 6.06981C76.74 6.06981 74.56 8.43981 74.56 11.7198C74.56 14.9598 76.74 17.3198 79.74 17.3198C81.98 17.3198 83.81 15.8998 84.47 13.6698H89.49C88.63 18.5698 84.75 21.8398 79.73 21.8398Z" fill="#487EC0"/>
<path d="M97.7205 2.05957H92.7705V21.3396H97.7205V2.05957Z" fill="#487EC0"/>
<path d="M115.281 21.3396L114.181 18.1096H106.701L105.601 21.3396H100.391L107.961 2.05957H112.901L120.641 21.3396H115.281ZM107.821 14.4296H113.051L110.421 7.06957L107.821 14.4296Z" fill="#487EC0"/>
<path d="M123.311 21.3396V2.05957H128.261V16.9296H135.341V21.3396H123.311Z" fill="#487EC0"/>
<path d="M138.4 21.3396V2.05957H147.08C150.44 2.05957 152.88 4.06957 152.88 6.84957C152.88 8.47957 151.99 9.98957 150.51 10.8896L150.03 11.1796L150.54 11.4196C152.34 12.2696 153.42 13.9796 153.42 15.9896C153.42 19.0496 150.78 21.3496 147.27 21.3496H138.4V21.3396ZM143.06 17.4496H146.34C147.67 17.4496 148.6 16.5796 148.6 15.3296C148.6 14.0896 147.67 13.2296 146.34 13.2296H143.06V17.4496ZM143.06 9.78957H146.13C147.42 9.78957 148.28 8.96957 148.28 7.75957C148.28 6.53957 147.41 5.72957 146.13 5.72957H143.06V9.78957Z" fill="#487EC0"/>
<path d="M156.891 21.3396V2.05957H169.011V6.18957H161.751V9.71957H168.281V13.6096H161.751V17.1896H169.251V21.3396H156.891Z" fill="#487EC0"/>
<path d="M186.111 21.3396L185.011 18.1096H177.531L176.431 21.3396H171.221L178.791 2.05957H183.731L191.471 21.3396H186.111ZM178.651 14.4296H183.881L181.251 7.06957L178.651 14.4296Z" fill="#487EC0"/>
<path d="M207.201 21.3396L198.851 9.92957V21.3396H194.141V2.05957H198.481L206.571 13.1096V2.05957H211.281V21.3396H207.201Z" fill="#487EC0"/>
</g>
<defs>
<clipPath id="clip0">
<rect width="211.28" height="22.06" fill="white"/>
</clipPath>
</defs>
</svg>
