<svg width="46" height="46" viewBox="0 0 46 46" fill="none" xmlns="http://www.w3.org/2000/svg">
<path d="M10.2065 33.6414C9.6177 34.2242 9.61288 35.1739 10.1957 35.7627C10.7785 36.3514 11.7282 36.3562 12.317 35.7734L10.2065 33.6414ZM35.2561 13.066C35.8449 12.4832 35.8497 11.5335 35.2669 10.9447C34.6841 10.356 33.7343 10.3512 33.1456 10.934L35.2561 13.066ZM12.317 35.7734L35.2561 13.066L33.1456 10.934L10.2065 33.6414L12.317 35.7734Z" fill="#3D3D3D"/>
<path d="M34.9947 33.8885C35.5835 34.4713 35.5883 35.421 35.0055 36.0097C34.4227 36.5985 33.4729 36.6033 32.8842 36.0205L34.9947 33.8885ZM9.94507 13.3131C9.35632 12.7303 9.3515 11.7806 9.93431 11.1918C10.5171 10.6031 11.4668 10.5982 12.0556 11.181L9.94507 13.3131ZM32.8842 36.0205L9.94507 13.3131L12.0556 11.181L34.9947 33.8885L32.8842 36.0205Z" fill="#3D3D3D"/>
</svg>
