<svg width="130" height="130" viewBox="0 0 130 130" fill="none" xmlns="http://www.w3.org/2000/svg">
<path d="M97.3257 36.5649L101.801 28.813" stroke="#FA4131" stroke-width="5" stroke-linecap="round" stroke-linejoin="round"/>
<path d="M113.631 72.9662L105.879 68.4907" stroke="#FA4131" stroke-width="5" stroke-linecap="round" stroke-linejoin="round"/>
<path d="M104.229 51.4609C104.772 51.3153 110.795 49.7014 113.739 48.9127" stroke="#FA4131" stroke-width="5" stroke-linecap="round" stroke-linejoin="round"/>
<path d="M36.9053 85.5195L39.4535 95.0297C40.6598 99.5317 45.2873 102.203 49.7893 100.997V100.997C54.2913 99.7908 56.963 95.1633 55.7567 90.6613L53.2085 81.1511" stroke="#3D3D3D" stroke-width="5" stroke-linejoin="round"/>
<path d="M45.2007 51.2607L27.5074 56.0016C23.7731 57.0022 21.557 60.8406 22.5576 64.5748L26.943 80.941C27.9435 84.6753 31.7819 86.8914 35.5162 85.8908L53.2095 81.1499L87.576 87.9307C91.9338 88.7905 95.6826 84.7817 94.533 80.4912L81.3172 31.1693C80.1676 26.8788 74.9166 25.2815 71.5726 28.2051L45.2007 51.2607Z" stroke="#3D3D3D" stroke-width="5" stroke-linejoin="round"/>
</svg>
