<svg width="46" height="46" viewBox="0 0 46 46" fill="none" xmlns="http://www.w3.org/2000/svg">
<g filter="url(#filter0_d)">
<path fill-rule="evenodd" clip-rule="evenodd" d="M23 43C34.0457 43 43 34.0457 43 23C43 11.9543 34.0457 3 23 3C11.9543 3 3 11.9543 3 23C3 34.0457 11.9543 43 23 43ZM21.394 13.9393C20.8082 13.3536 19.8585 13.3536 19.2727 13.9393C18.6869 14.5251 18.6869 15.4749 19.2727 16.0607L26.212 23L19.2727 29.9393C18.6869 30.5251 18.6869 31.4749 19.2727 32.0607C19.8585 32.6464 20.8082 32.6464 21.394 32.0607L29.394 24.0607C29.9798 23.4749 29.9798 22.5251 29.394 21.9393L21.394 13.9393Z" fill="white" fill-opacity="0.8"/>
</g>
<path d="M20.333 15L28.333 23L20.333 31" stroke="black" stroke-opacity="0.3" stroke-width="3" stroke-linecap="round" stroke-linejoin="round"/>
<defs>
<filter id="filter0_d" x="0" y="0" width="46" height="46" filterUnits="userSpaceOnUse" color-interpolation-filters="sRGB">
<feFlood flood-opacity="0" result="BackgroundImageFix"/>
<feColorMatrix in="SourceAlpha" type="matrix" values="0 0 0 0 0 0 0 0 0 0 0 0 0 0 0 0 0 0 127 0"/>
<feOffset/>
<feGaussianBlur stdDeviation="1.5"/>
<feColorMatrix type="matrix" values="0 0 0 0 0 0 0 0 0 0 0 0 0 0 0 0 0 0 0.15 0"/>
<feBlend mode="normal" in2="BackgroundImageFix" result="effect1_dropShadow"/>
<feBlend mode="normal" in="SourceGraphic" in2="effect1_dropShadow" result="shape"/>
</filter>
</defs>
</svg>
