<svg width="40" height="40" viewBox="0 0 40 40" fill="none" xmlns="http://www.w3.org/2000/svg">
<path d="M8.7819 16.2499C8.77983 14.7674 9.0712 13.2992 9.63921 11.9298C10.2072 10.5605 11.0407 9.31709 12.0915 8.27133C13.1423 7.22558 14.3896 6.39815 15.7617 5.83673C17.1338 5.27531 18.6034 4.99101 20.0859 5.00022C26.2717 5.0462 31.2197 10.1879 31.2197 16.3911V17.4999C31.2197 23.0961 32.3905 26.3435 33.4217 28.1184C33.5328 28.308 33.5919 28.5236 33.5931 28.7434C33.5943 28.9632 33.5375 29.1794 33.4284 29.3702C33.3194 29.561 33.1619 29.7197 32.972 29.8303C32.782 29.9408 32.5663 29.9993 32.3465 29.9999H7.65387C7.43405 29.9993 7.21828 29.9408 7.02831 29.8302C6.83834 29.7196 6.68089 29.5609 6.57185 29.3701C6.46281 29.1792 6.40603 28.963 6.40725 28.7431C6.40846 28.5233 6.46762 28.3077 6.57877 28.1181C7.61053 26.3432 8.78189 23.0958 8.78189 17.4999L8.7819 16.2499Z" stroke="#FF725F" stroke-width="3" stroke-linecap="round" stroke-linejoin="round"/>
<path d="M15 30V31.25C15 32.5761 15.5268 33.8479 16.4645 34.7855C17.4021 35.7232 18.6739 36.25 20 36.25C21.3261 36.25 22.5979 35.7232 23.5355 34.7855C24.4732 33.8479 25 32.5761 25 31.25V30" stroke="#FF725F" stroke-width="3" stroke-linecap="round" stroke-linejoin="round"/>
</svg>
