<svg width="48" height="36" viewBox="0 0 48 36" fill="none" xmlns="http://www.w3.org/2000/svg">
<path d="M37.9216 1.78198L3.89628 10.969C2.29671 11.4009 1.34516 13.049 1.77094 14.6502L3.09395 19.6256C5.35469 19.0152 7.67844 20.3671 8.2842 22.6452C8.88997 24.9233 7.54835 27.2649 5.28761 27.8753L6.4112 32.1007C6.83697 33.7019 8.47884 34.6499 10.0784 34.218L44.1037 25.031C45.7033 24.5991 46.6548 22.9509 46.2291 21.3497L45.0058 16.7493C42.745 17.3597 40.4213 16.0078 39.8155 13.7297C39.2097 11.4516 40.5514 9.11006 42.8121 8.49965L41.5888 3.89923C41.163 2.29801 39.5212 1.35009 37.9216 1.78198Z" stroke="white" stroke-width="3" stroke-linejoin="round"/>
<ellipse rx="1.92728" ry="1.94007" transform="matrix(0.965428 -0.26067 0.25698 0.966417 18.8593 15.1684)" stroke="white" stroke-width="3"/>
<ellipse rx="1.92728" ry="1.94007" transform="matrix(0.965428 -0.26067 0.25698 0.966417 29.5117 20.7309)" stroke="white" stroke-width="3"/>
<path d="M21.7237 24.4429C21.7586 24.0324 25.0203 15.6155 26.6468 11.4583" stroke="white" stroke-width="3" stroke-linecap="round"/>
</svg>
