<svg width="40" height="40" viewBox="0 0 40 40" fill="none" xmlns="http://www.w3.org/2000/svg">
<path d="M16.4557 34.3568C17.7904 34.3568 18.8724 33.2748 18.8724 31.9401C18.8724 30.6054 17.7904 29.5234 16.4557 29.5234C15.121 29.5234 14.0391 30.6054 14.0391 31.9401C14.0391 33.2748 15.121 34.3568 16.4557 34.3568Z" stroke="#D9DADC" stroke-width="2.6" stroke-linecap="round" stroke-linejoin="round"/>
<path d="M30.4362 34.3568C31.7709 34.3568 32.8529 33.2748 32.8529 31.9401C32.8529 30.6054 31.7709 29.5234 30.4362 29.5234C29.1015 29.5234 28.0195 30.6054 28.0195 31.9401C28.0195 33.2748 29.1015 34.3568 30.4362 34.3568Z" stroke="#D9DADC" stroke-width="2.6" stroke-linecap="round" stroke-linejoin="round"/>
<path d="M4.70654 4.70801H10.3126L14.0687 22.1618C14.1968 22.7619 14.5479 23.301 15.0603 23.6846C15.5727 24.0683 16.214 24.2721 16.8717 24.2604H30.4944C31.1522 24.2721 31.7934 24.0683 32.3058 23.6846C32.8183 23.301 33.1693 22.7619 33.2975 22.1618L35.5399 11.2255H11.7141" stroke="#D9DADC" stroke-width="2.6" stroke-linecap="round" stroke-linejoin="round"/>
</svg>
