<svg width="32" height="32" viewBox="0 0 32 32" fill="none" xmlns="http://www.w3.org/2000/svg">
<g clip-path="url(#clip0)">
<path d="M10.6671 16.0006C10.6671 14.9458 10.9799 13.9146 11.5659 13.0375C12.152 12.1604 12.985 11.4768 13.9596 11.0731C14.9341 10.6694 16.0065 10.5638 17.0411 10.7696C18.0758 10.9754 19.0261 11.4833 19.772 12.2292C20.5179 12.9752 21.0259 13.9255 21.2317 14.9601C21.4375 15.9947 21.3319 17.0671 20.9282 18.0417C20.5245 19.0163 19.8409 19.8493 18.9638 20.4353C18.0867 21.0214 17.0555 21.3342 16.0006 21.3342C14.5861 21.3342 13.2295 20.7722 12.2292 19.772C11.229 18.7718 10.6671 17.4152 10.6671 16.0006ZM7.78352 16.0006C7.78352 17.6256 8.26537 19.2141 9.16813 20.5652C10.0709 21.9163 11.354 22.9694 12.8553 23.5913C14.3565 24.2132 16.0085 24.3759 17.6022 24.059C19.196 23.742 20.66 22.9596 21.8091 21.8107C22.9581 20.6617 23.7407 19.1978 24.0579 17.6041C24.375 16.0104 24.2124 14.3584 23.5907 12.8571C22.969 11.3558 21.916 10.0725 20.565 9.16959C19.214 8.26668 17.6256 7.78465 16.0006 7.78446C14.9217 7.78442 13.8532 7.99691 12.8564 8.4098C11.8595 8.82268 10.9538 9.42788 10.1908 10.1908C9.42788 10.9538 8.82268 11.8595 8.4098 12.8564C7.99691 13.8532 7.78442 14.9217 7.78446 16.0006H7.78352ZM22.6205 7.4588C22.6204 7.83856 22.7329 8.20982 22.9437 8.52565C23.1546 8.84147 23.4544 9.08767 23.8052 9.23311C24.156 9.37855 24.5421 9.4167 24.9145 9.34273C25.287 9.26877 25.6292 9.08601 25.8978 8.81757C26.1664 8.54913 26.3494 8.20707 26.4236 7.83463C26.4978 7.4622 26.4599 7.07612 26.3147 6.72523C26.1695 6.37433 25.9235 6.07438 25.6078 5.86329C25.2921 5.65221 24.921 5.53948 24.5412 5.53935C24.0321 5.5396 23.544 5.74189 23.184 6.10179C22.824 6.46168 22.6215 6.94975 22.6211 7.4588H22.6205ZM9.53763 29.0248C8.52292 29.0132 7.51778 28.8271 6.56622 28.4745C5.87125 28.2176 5.24247 27.8087 4.72583 27.2776C4.19394 26.7621 3.78487 26.1336 3.52892 25.4385C3.17578 24.487 2.9892 23.4819 2.97737 22.4671C2.89988 20.7804 2.88325 20.2737 2.88325 16.0009C2.88325 11.7281 2.89988 11.2227 2.97737 9.53481C2.99012 8.52021 3.17623 7.51526 3.52767 6.5634C3.78455 5.86843 4.19348 5.23964 4.72458 4.72301C5.24031 4.19082 5.86936 3.78171 6.56496 3.5261C7.51686 3.17314 8.52246 2.98687 9.53763 2.97549C11.2243 2.898 11.731 2.88137 16.0006 2.88137C20.2703 2.88137 20.7789 2.898 22.4668 2.97549C23.4814 2.98823 24.4863 3.17434 25.4382 3.52579C26.1334 3.78219 26.7623 4.19119 27.2786 4.7227C27.8101 5.23899 28.2191 5.86787 28.4755 6.56308C28.8282 7.5146 29.0143 8.51977 29.0258 9.53449C29.1033 11.2224 29.1199 11.7278 29.1199 16.0006C29.1199 20.2734 29.1045 20.7789 29.0258 22.4668C29.0135 23.4814 28.8274 24.4864 28.4755 25.4382C28.2092 26.1282 27.8014 26.7549 27.2782 27.2778C26.7551 27.8007 26.1283 28.2082 25.4382 28.4742C24.4867 28.8269 23.4815 29.0131 22.4668 29.0245C20.7801 29.102 20.2734 29.1186 16.0006 29.1186C11.7278 29.1186 11.2224 29.1033 9.53763 29.0245V29.0248ZM9.40398 0.096945C8.07667 0.123204 6.76344 0.37452 5.52022 0.84019C4.45244 1.24198 3.48511 1.87174 2.6856 2.6856C1.8709 3.48436 1.24092 4.45177 0.839876 5.5199C0.374319 6.76325 0.12311 8.07658 0.096945 9.40398C0.0181968 11.1101 0 11.6554 0 16.0006C0 20.3459 0.0181968 20.8912 0.096945 22.5973C0.123234 23.9246 0.374549 25.2378 0.84019 26.481C1.24122 27.5492 1.87108 28.5167 2.6856 29.3157C3.48537 30.1291 4.45249 30.7589 5.5199 31.1614C6.76317 31.6269 8.07637 31.8782 9.40366 31.9046C11.1107 31.9821 11.655 32.0016 16.0003 32.0016C20.3456 32.0016 20.8909 31.9834 22.597 31.9046C23.9243 31.8783 25.2375 31.627 26.4807 31.1614C27.5439 30.7504 28.5094 30.1217 29.3154 29.3157C30.1214 28.5097 30.75 27.5442 31.1611 26.481C31.6273 25.238 31.8787 23.9247 31.9043 22.5973C31.9818 20.8899 31.9984 20.3459 31.9984 16.0006C31.9984 11.6554 31.9802 11.1101 31.9043 9.40398C31.8781 8.07666 31.6268 6.76343 31.1611 5.52022C30.7587 4.45274 30.129 3.48552 29.3157 2.6856C28.517 1.87135 27.5501 1.24142 26.4826 0.839876C25.2394 0.373967 23.926 0.122746 22.5985 0.096945C20.8927 0.0194517 20.3472 0 16.0006 0C11.6541 0 11.1095 0.0181968 9.40272 0.096945" fill="url(#paint0_radial)"/>
<path d="M10.6671 16.0006C10.6671 14.9458 10.9799 13.9146 11.5659 13.0375C12.152 12.1604 12.985 11.4768 13.9596 11.0731C14.9341 10.6694 16.0065 10.5638 17.0411 10.7696C18.0758 10.9754 19.0261 11.4833 19.772 12.2292C20.5179 12.9752 21.0259 13.9255 21.2317 14.9601C21.4375 15.9947 21.3319 17.0671 20.9282 18.0417C20.5245 19.0163 19.8409 19.8493 18.9638 20.4353C18.0867 21.0214 17.0555 21.3342 16.0006 21.3342C14.5861 21.3342 13.2295 20.7722 12.2292 19.772C11.229 18.7718 10.6671 17.4152 10.6671 16.0006ZM7.78352 16.0006C7.78352 17.6256 8.26537 19.2141 9.16813 20.5652C10.0709 21.9163 11.354 22.9694 12.8553 23.5913C14.3565 24.2132 16.0085 24.3759 17.6022 24.059C19.196 23.742 20.66 22.9596 21.8091 21.8107C22.9581 20.6617 23.7407 19.1978 24.0579 17.6041C24.375 16.0104 24.2124 14.3584 23.5907 12.8571C22.969 11.3558 21.916 10.0725 20.565 9.16959C19.214 8.26668 17.6256 7.78465 16.0006 7.78446C14.9217 7.78442 13.8532 7.99691 12.8564 8.4098C11.8595 8.82268 10.9538 9.42788 10.1908 10.1908C9.42788 10.9538 8.82268 11.8595 8.4098 12.8564C7.99691 13.8532 7.78442 14.9217 7.78446 16.0006H7.78352ZM22.6205 7.4588C22.6204 7.83856 22.7329 8.20982 22.9437 8.52565C23.1546 8.84147 23.4544 9.08767 23.8052 9.23311C24.156 9.37855 24.5421 9.4167 24.9145 9.34273C25.287 9.26877 25.6292 9.08601 25.8978 8.81757C26.1664 8.54913 26.3494 8.20707 26.4236 7.83463C26.4978 7.4622 26.4599 7.07612 26.3147 6.72523C26.1695 6.37433 25.9235 6.07438 25.6078 5.86329C25.2921 5.65221 24.921 5.53948 24.5412 5.53935C24.0321 5.5396 23.544 5.74189 23.184 6.10179C22.824 6.46168 22.6215 6.94975 22.6211 7.4588H22.6205ZM9.53763 29.0248C8.52292 29.0132 7.51778 28.8271 6.56622 28.4745C5.87125 28.2176 5.24247 27.8087 4.72583 27.2776C4.19394 26.7621 3.78487 26.1336 3.52892 25.4385C3.17578 24.487 2.9892 23.4819 2.97737 22.4671C2.89988 20.7804 2.88325 20.2737 2.88325 16.0009C2.88325 11.7281 2.89988 11.2227 2.97737 9.53481C2.99012 8.52021 3.17623 7.51526 3.52767 6.5634C3.78455 5.86843 4.19348 5.23964 4.72458 4.72301C5.24031 4.19082 5.86936 3.78171 6.56496 3.5261C7.51686 3.17314 8.52246 2.98687 9.53763 2.97549C11.2243 2.898 11.731 2.88137 16.0006 2.88137C20.2703 2.88137 20.7789 2.898 22.4668 2.97549C23.4814 2.98823 24.4863 3.17434 25.4382 3.52579C26.1334 3.78219 26.7623 4.19119 27.2786 4.7227C27.8101 5.23899 28.2191 5.86787 28.4755 6.56308C28.8282 7.5146 29.0143 8.51977 29.0258 9.53449C29.1033 11.2224 29.1199 11.7278 29.1199 16.0006C29.1199 20.2734 29.1045 20.7789 29.0258 22.4668C29.0135 23.4814 28.8274 24.4864 28.4755 25.4382C28.2092 26.1282 27.8014 26.7549 27.2782 27.2778C26.7551 27.8007 26.1283 28.2082 25.4382 28.4742C24.4867 28.8269 23.4815 29.0131 22.4668 29.0245C20.7801 29.102 20.2734 29.1186 16.0006 29.1186C11.7278 29.1186 11.2224 29.1033 9.53763 29.0245V29.0248ZM9.40398 0.096945C8.07667 0.123204 6.76344 0.37452 5.52022 0.84019C4.45244 1.24198 3.48511 1.87174 2.6856 2.6856C1.8709 3.48436 1.24092 4.45177 0.839876 5.5199C0.374319 6.76325 0.12311 8.07658 0.096945 9.40398C0.0181968 11.1101 0 11.6554 0 16.0006C0 20.3459 0.0181968 20.8912 0.096945 22.5973C0.123234 23.9246 0.374549 25.2378 0.84019 26.481C1.24122 27.5492 1.87108 28.5167 2.6856 29.3157C3.48537 30.1291 4.45249 30.7589 5.5199 31.1614C6.76317 31.6269 8.07637 31.8782 9.40366 31.9046C11.1107 31.9821 11.655 32.0016 16.0003 32.0016C20.3456 32.0016 20.8909 31.9834 22.597 31.9046C23.9243 31.8783 25.2375 31.627 26.4807 31.1614C27.5439 30.7504 28.5094 30.1217 29.3154 29.3157C30.1214 28.5097 30.75 27.5442 31.1611 26.481C31.6273 25.238 31.8787 23.9247 31.9043 22.5973C31.9818 20.8899 31.9984 20.3459 31.9984 16.0006C31.9984 11.6554 31.9802 11.1101 31.9043 9.40398C31.8781 8.07666 31.6268 6.76343 31.1611 5.52022C30.7587 4.45274 30.129 3.48552 29.3157 2.6856C28.517 1.87135 27.5501 1.24142 26.4826 0.839876C25.2394 0.373967 23.926 0.122746 22.5985 0.096945C20.8927 0.0194517 20.3472 0 16.0006 0C11.6541 0 11.1095 0.0181968 9.40272 0.096945" fill="url(#paint1_radial)"/>
</g>
<defs>
<radialGradient id="paint0_radial" cx="0" cy="0" r="1" gradientUnits="userSpaceOnUse" gradientTransform="translate(4.25146 32.1525) scale(41.7732)">
<stop offset="0.09" stop-color="#FA8F21"/>
<stop offset="0.78" stop-color="#D82D7E"/>
</radialGradient>
<radialGradient id="paint1_radial" cx="0" cy="0" r="1" gradientUnits="userSpaceOnUse" gradientTransform="translate(19.4075 33.5859) scale(32.923)">
<stop offset="0.64" stop-color="#8C3AAA" stop-opacity="0"/>
<stop offset="1" stop-color="#8C3AAA"/>
</radialGradient>
<clipPath id="clip0">
<rect width="32" height="32.0013" fill="white"/>
</clipPath>
</defs>
</svg>
