<svg width="42" height="42" viewBox="0 0 42 42" fill="none" xmlns="http://www.w3.org/2000/svg">
<path d="M34.5337 29.0383C36.4905 25.7395 37.1758 21.8399 36.4609 18.0716C35.746 14.3033 33.68 10.9257 30.6509 8.57285C27.6219 6.22003 23.8381 5.0539 20.0101 5.29345C16.1821 5.53299 12.5732 7.16173 9.86114 9.87382C7.14904 12.5859 5.52028 16.1948 5.28072 20.0228C5.04115 23.8508 6.20726 27.6346 8.56007 30.6636C10.9129 33.6927 14.2905 35.7587 18.0588 36.4736C21.8271 37.1885 25.7267 36.5033 29.0255 34.5464L29.0254 34.5463L34.4652 36.1005C34.6902 36.1648 34.9284 36.1677 35.155 36.109C35.3816 36.0503 35.5883 35.9321 35.7538 35.7666C35.9193 35.6011 36.0376 35.3943 36.0963 35.1677C36.155 34.9411 36.1521 34.703 36.0878 34.4779L34.5335 29.0382L34.5337 29.0383Z" stroke="#6F6F6F" stroke-width="2" stroke-linecap="round" stroke-linejoin="round"/>
</svg>
