<svg width="61" height="66" viewBox="0 0 61 66" fill="none" xmlns="http://www.w3.org/2000/svg">
<path d="M24.0832 31.0684C21.1271 30.4853 18.9026 28.4001 18.2826 25.1668C17.475 20.9553 20.1182 16.9086 24.1861 16.1286C28.254 15.3486 32.2066 18.1304 33.0142 22.3419C33.6342 25.5753 33.0142 27.498 31.0659 29.498" stroke="#FA4131" stroke-width="2" stroke-linecap="round" stroke-linejoin="round"/>
<path d="M15.7246 9.01658L17.3304 11.5499M15.4741 15.094L12.4763 15.2168M22.719 8.72802L21.3266 11.3864" stroke="white" stroke-width="2" stroke-linecap="round" stroke-linejoin="round"/>
<path d="M23.8789 33.3245V24.6162C23.8789 23.9863 24.1291 23.3822 24.5745 22.9368C25.0199 22.4914 25.624 22.2412 26.2539 22.2412C26.8838 22.2412 27.4879 22.4914 27.9333 22.9368C28.3787 23.3822 28.6289 23.9863 28.6289 24.6162V33.3245" stroke="white" stroke-width="1.7" stroke-linecap="round" stroke-linejoin="round"/>
<path d="M42.8789 32.5332V37.679C42.8789 42.7069 38.8026 46.7832 33.7747 46.7832H32.9831C27.9552 46.7832 23.8789 42.7069 23.8789 37.679V32.5332" stroke="white" stroke-width="1.7" stroke-linecap="round" stroke-linejoin="round"/>
<path d="M28.6289 35.6995V31.7412C28.6289 31.1113 28.8791 30.5072 29.3245 30.0618C29.7699 29.6164 30.374 29.3662 31.0039 29.3662C31.6338 29.3662 32.2379 29.6164 32.6833 30.0618C33.1287 30.5072 33.3789 31.1113 33.3789 31.7412V35.6995" stroke="white" stroke-width="1.7" stroke-linecap="round" stroke-linejoin="round"/>
<path d="M33.3789 35.6995V31.7412C33.3789 31.1113 33.6291 30.5072 34.0745 30.0618C34.5199 29.6164 35.124 29.3662 35.7539 29.3662C36.3838 29.3662 36.9879 29.6164 37.4333 30.0618C37.8787 30.5072 38.1289 31.1113 38.1289 31.7412V35.6995" stroke="white" stroke-width="1.7" stroke-linecap="round" stroke-linejoin="round"/>
<path d="M38.1289 35.6995V31.7412C38.1289 31.1113 38.3791 30.5072 38.8245 30.0618C39.2699 29.6164 39.874 29.3662 40.5039 29.3662C41.1338 29.3662 41.7379 29.6164 42.1833 30.0618C42.6287 30.5072 42.8789 31.1113 42.8789 31.7412V35.6995" stroke="white" stroke-width="1.7" stroke-linecap="round" stroke-linejoin="round"/>
</svg>
