<svg width="40" height="40" viewBox="0 0 40 40" fill="none" xmlns="http://www.w3.org/2000/svg">
<path d="M16.3332 34.6507C17.6679 34.6507 18.7498 33.5687 18.7498 32.234C18.7498 30.8994 17.6679 29.8174 16.3332 29.8174C14.9985 29.8174 13.9165 30.8994 13.9165 32.234C13.9165 33.5687 14.9985 34.6507 16.3332 34.6507Z" stroke="#FF725F" stroke-width="2.6" stroke-linecap="round" stroke-linejoin="round"/>
<path d="M30.3136 34.6507C31.6483 34.6507 32.7303 33.5687 32.7303 32.234C32.7303 30.8994 31.6483 29.8174 30.3136 29.8174C28.979 29.8174 27.897 30.8994 27.897 32.234C27.897 33.5687 28.979 34.6507 30.3136 34.6507Z" stroke="#FF725F" stroke-width="2.6" stroke-linecap="round" stroke-linejoin="round"/>
<path d="M4.5835 5H10.1896L13.9456 22.4537C14.0738 23.0539 14.4248 23.5929 14.9373 23.9766C15.4497 24.3603 16.0909 24.5641 16.7486 24.5524H30.3714C31.0291 24.5641 31.6703 24.3603 32.1828 23.9766C32.6952 23.5929 33.0462 23.0539 33.1744 22.4537L35.4168 11.5175H11.5911" stroke="#FF725F" stroke-width="2.6" stroke-linecap="round" stroke-linejoin="round"/>
</svg>
