<svg width="42" height="42" viewBox="0 0 42 42" fill="none" xmlns="http://www.w3.org/2000/svg">
<path d="M21.0039 35.4375C21.0039 35.4375 4.59766 26.25 4.59766 15.0938C4.59799 13.122 5.28123 11.2111 6.53121 9.68613C7.78119 8.16114 9.52075 7.11613 11.4541 6.72878C13.3875 6.34142 15.3954 6.63563 17.1364 7.56138C18.8774 8.48713 20.244 9.98728 21.0039 11.8068L21.0039 11.8068C21.7638 9.98729 23.1304 8.48714 24.8714 7.56139C26.6124 6.63564 28.6203 6.34143 30.5537 6.72878C32.4871 7.11613 34.2266 8.16114 35.4766 9.68612C36.7266 11.2111 37.4098 13.122 37.4102 15.0938C37.4102 26.25 21.0039 35.4375 21.0039 35.4375Z" stroke="#6F6F6F" stroke-width="2" stroke-linecap="round" stroke-linejoin="round"/>
</svg>
