<svg width="102" height="102" viewBox="0 0 102 102" fill="none" xmlns="http://www.w3.org/2000/svg">
<path d="M96 45.9534C82.6826 22.9729 53.1877 15.0992 30.1213 28.367C8.85947 40.5968 0.481164 66.5207 9.73035 88.5" stroke="#C1C1C1" stroke-width="9" stroke-linecap="round"/>
<path d="M41.5708 8.00359L68.5708 8.00368" stroke="#C1C1C1" stroke-width="9" stroke-linecap="round"/>
<path d="M57.1021 42.0762C57.1021 40.6955 55.9828 39.5762 54.6021 39.5762C53.2213 39.5762 52.1021 40.6955 52.1021 42.0762L57.1021 42.0762ZM52.102 54.0762L52.102 56.5762L57.102 56.5762L57.102 54.0762L52.102 54.0762ZM52.1021 42.0762L52.102 54.0762L57.102 54.0762L57.1021 42.0762L52.1021 42.0762Z" fill="#C1C1C1"/>
<path d="M90.5918 36.5586L95.8518 31.8225" stroke="#C1C1C1" stroke-width="8" stroke-linecap="round"/>
<circle cx="16.1335" cy="70.6328" r="2.5" fill="#C1C1C1"/>
<circle cx="54.3113" cy="31.5469" r="2.5" fill="#C1C1C1"/>
</svg>
