<svg width="290" height="290" viewBox="0 0 290 290" fill="none" xmlns="http://www.w3.org/2000/svg">
<rect width="290" height="290" rx="145" fill="white" fill-opacity="0.7"/>
<path fill-rule="evenodd" clip-rule="evenodd" d="M146.953 69.8569C151.44 67.7345 154.544 63.1664 154.544 57.8733C154.544 50.5559 148.612 44.624 141.294 44.624C133.977 44.624 128.045 50.5559 128.045 57.8733C128.045 63.7807 131.911 68.7851 137.251 70.4944V59.3442H146.953V69.8569ZM143.202 70.9863H139.386C140.009 71.0761 140.646 71.1226 141.294 71.1226C141.942 71.1226 142.579 71.0761 143.202 70.9863Z" fill="#FF4B3D"/>
<path fill-rule="evenodd" clip-rule="evenodd" d="M147.554 73.9525C154.009 71.4662 158.589 65.2049 158.589 57.8739C158.589 48.3613 150.877 40.6499 141.365 40.6499C131.852 40.6499 124.141 48.3613 124.141 57.8739C124.141 66.3334 130.239 73.3685 138.28 74.8225V77.5099C128.769 76.0276 121.491 67.8007 121.491 57.8739C121.491 46.8979 130.389 38 141.365 38C152.341 38 161.239 46.8979 161.239 57.8739C161.239 66.689 155.5 74.1636 147.554 76.7652V73.9525Z" fill="#FF4B3D"/>
<path d="M136.749 88.5171C136.749 93.1001 136.749 84.3925 136.749 83.1704M136.749 88.5171V83.1704M136.749 88.5171L136.772 103.03L125.466 90.9927C123.414 88.8075 119.956 88.7667 117.853 90.9028V90.9028C116.142 92.6402 115.843 95.323 117.129 97.3946L129.372 117.116C133.959 124.505 142.039 129 150.737 129V129C164.625 129 175.884 117.741 175.884 103.852V90.3683C175.884 88.2913 174.2 86.6076 172.123 86.6076V86.6076C170.046 86.6076 168.362 88.2913 168.362 90.3683V93.8639V86.9078C168.362 84 166.005 81.6428 163.097 81.6428V81.6428C160.19 81.6428 157.832 84 157.832 86.9078V90.0448L157.819 82.3156C157.813 79.4114 155.458 77.0599 152.554 77.0599V77.0599C149.642 77.0599 147.283 79.4228 147.289 82.3342L147.302 90.0448V77.0599V62.8783C147.302 59.9705 144.945 57.6133 142.037 57.6133V57.6133C139.129 57.6133 136.772 59.9764 136.771 62.8842C136.767 75.8363 136.749 82.0862 136.749 83.1704" stroke="black" stroke-width="3.58696" stroke-linecap="round" stroke-linejoin="round"/>
<path d="M80.3812 171.68H78.2452V150.704H80.3812V171.68ZM63.8212 159.68C63.8212 157.488 64.2772 155.712 65.1892 154.352C66.1012 152.976 67.4452 152.288 69.2212 152.288C70.9972 152.288 72.3332 152.976 73.2292 154.352C74.1412 155.712 74.5972 157.496 74.5972 159.704C74.5972 161.912 74.1412 163.704 73.2292 165.08C72.3332 166.44 70.9972 167.12 69.2212 167.12C67.4452 167.12 66.1012 166.432 65.1892 165.056C64.2772 163.68 63.8212 161.888 63.8212 159.68ZM71.6452 163.76C72.2052 162.736 72.4852 161.384 72.4852 159.704C72.4852 158.024 72.2052 156.672 71.6452 155.648C71.0852 154.624 70.2772 154.112 69.2212 154.112C68.1812 154.112 67.3812 154.624 66.8212 155.648C66.2612 156.672 65.9812 158.024 65.9812 159.704C65.9812 161.384 66.2612 162.736 66.8212 163.76C67.3812 164.768 68.1812 165.272 69.2212 165.272C70.2772 165.272 71.0852 164.768 71.6452 163.76ZM100.283 171.68H98.1708V150.704H100.283V171.68ZM94.2828 166.328H84.2268V152.816H94.2828V166.328ZM92.1708 164.576V154.544H86.3388V164.576H92.1708ZM116.08 165.104L114.832 166.688C113.76 166.064 112.712 165.168 111.688 164C110.664 162.816 109.992 161.664 109.672 160.544C109.368 161.776 108.728 163.008 107.752 164.24C106.776 165.456 105.664 166.432 104.416 167.168L103.072 165.632C104.72 164.656 106.048 163.344 107.056 161.696C108.064 160.032 108.568 158.208 108.568 156.224V154.544H103.816V152.816H115.456V154.544H110.752V156.224C110.752 158.176 111.248 159.936 112.24 161.504C113.232 163.056 114.512 164.256 116.08 165.104ZM118.336 150.704H120.472V171.68H118.336V150.704ZM142.15 162.032H123.214V160.4H142.15V162.032ZM140.638 171.296H125.374V166.664H137.854V165.104H125.374V163.496H139.966V168.152H127.486V169.688H140.638V171.296ZM140.278 158.912H125.59V154.472H137.734V153.008H125.614V151.424H139.846V155.912H127.726V157.328H140.278V158.912ZM151.628 165.008H152.156C155.996 165.008 158.916 164.784 160.916 164.336L161.228 166.064C159.116 166.496 155.924 166.728 151.652 166.76H149.54V152.648H159.524V154.352H151.628V158.408H158.588V160.112H151.628V165.008ZM166.028 171.68H163.916V160.376H159.836V158.576H163.916V150.704H166.028V171.68ZM182.21 165.992L181.01 167.648C179.874 167.104 178.754 166.288 177.65 165.2C176.546 164.096 175.826 163.032 175.49 162.008C175.218 163.096 174.57 164.232 173.546 165.416C172.522 166.6 171.426 167.504 170.258 168.128L168.914 166.544C170.498 165.744 171.802 164.592 172.826 163.088C173.866 161.584 174.386 159.88 174.386 157.976V157.64H169.634V155.888H181.322V157.64H176.57V157.952C176.57 161.44 178.45 164.12 182.21 165.992ZM186.242 171.68H184.13V150.704H186.242V171.68ZM178.658 153.776H172.394V152.024H178.658V153.776ZM208.472 161.216H205.136V171.68H203V150.704H205.136V159.44H208.472V161.216ZM198.2 153.8H191.936V152.072H198.2V153.8ZM201.248 157.4H188.816V155.696H201.248V157.4ZM200.072 163.016C200.072 164.28 199.616 165.328 198.704 166.16C197.792 166.992 196.6 167.408 195.128 167.408C193.656 167.408 192.456 167 191.528 166.184C190.616 165.352 190.16 164.296 190.16 163.016C190.16 161.752 190.624 160.696 191.552 159.848C192.48 159 193.672 158.576 195.128 158.576C196.6 158.576 197.792 159 198.704 159.848C199.616 160.68 200.072 161.736 200.072 163.016ZM197.192 164.912C197.72 164.416 197.984 163.784 197.984 163.016C197.984 162.248 197.712 161.616 197.168 161.12C196.624 160.608 195.944 160.352 195.128 160.352C194.312 160.352 193.632 160.6 193.088 161.096C192.56 161.592 192.296 162.232 192.296 163.016C192.296 163.784 192.56 164.416 193.088 164.912C193.616 165.392 194.296 165.632 195.128 165.632C195.992 165.632 196.68 165.392 197.192 164.912ZM219.637 162.44H209.941V152.552H219.637V162.44ZM224.053 155.912H220.669V154.208H224.053V150.704H226.189V165.944H224.053V160.544H220.669V158.84H224.053V155.912ZM226.645 171.032H212.581V164.576H214.693V169.304H226.645V171.032ZM217.549 160.76V154.256H212.029V160.76H217.549ZM100.835 203.68H98.7948V182.704H100.835V203.68ZM96.6828 202.648H94.6668V192.928H91.5948V191.2H94.6668V183.184H96.6828V202.648ZM91.9308 185.224C91.8988 188.328 91.2508 191.032 89.9868 193.336C88.7228 195.624 86.7948 197.632 84.2028 199.36L82.7628 197.8C84.8748 196.568 86.5308 195.008 87.7308 193.12C88.9308 191.216 89.6268 189.168 89.8188 186.976H83.6748V185.224H91.9308ZM120.52 203.68H118.408V182.704H120.52V203.68ZM115.912 197.056L114.64 198.64C113.584 197.904 112.56 196.968 111.568 195.832C110.592 194.68 109.928 193.536 109.576 192.4C109.208 193.68 108.552 194.936 107.608 196.168C106.664 197.4 105.592 198.408 104.392 199.192L103.072 197.632C104.672 196.608 105.968 195.248 106.96 193.552C107.952 191.84 108.448 190.032 108.448 188.128V184.552H110.656V188.032C110.656 189.92 111.152 191.68 112.144 193.312C113.136 194.928 114.392 196.176 115.912 197.056ZM140.71 203.392H125.542V198.04H137.566V196.072H125.398V194.344H139.702V199.6H127.678V201.688H140.71V203.392ZM139.942 183.784C139.942 186.376 139.718 188.632 139.27 190.552H142.15V192.28H123.214V190.552H137.158C137.574 189.064 137.782 187.384 137.782 185.512H125.47V183.784H139.942ZM149.42 186.256V184.504H160.724V186.256H156.212V187.24C156.212 188.648 156.708 189.944 157.7 191.128C158.692 192.296 159.828 193.072 161.108 193.456L159.932 195.16C158.988 194.776 158.06 194.16 157.148 193.312C156.252 192.448 155.588 191.544 155.156 190.6C154.82 191.608 154.156 192.608 153.164 193.6C152.188 194.592 151.148 195.312 150.044 195.76L148.796 194.08C150.204 193.568 151.428 192.664 152.468 191.368C153.524 190.072 154.052 188.712 154.052 187.288V186.256H149.42ZM166.052 198.016H163.916V190.144H159.884V188.416H163.916V182.704H166.052V198.016ZM166.508 203.032H152.252V196.528H154.364V201.304H166.508V203.032ZM179.33 197.704L178.082 199.24C177.25 198.728 176.434 198 175.634 197.056C174.85 196.112 174.322 195.16 174.05 194.2C173.794 195.224 173.266 196.264 172.466 197.32C171.682 198.36 170.818 199.168 169.874 199.744L168.53 198.328C171.506 196.472 172.994 193.712 172.994 190.048V189.688H169.034V187.96H178.922V189.688H175.082V189.976C175.082 191.864 175.474 193.456 176.258 194.752C177.058 196.032 178.082 197.016 179.33 197.704ZM180.506 193.528H177.506V191.8H180.506V183.184H182.498V202.648H180.506V193.528ZM186.602 203.68H184.562V182.704H186.602V203.68ZM171.29 186.112V184.36H176.81V186.112H171.29ZM207.872 194.032H188.936V192.4H207.872V194.032ZM206.36 203.296H191.096V198.664H203.576V197.104H191.096V195.496H205.688V200.152H193.208V201.688H206.36V203.296ZM206 190.912H191.312V186.472H203.456V185.008H191.336V183.424H205.568V187.912H193.448V189.328H206V190.912ZM77.6969 227.904C75.9049 228.16 73.6889 228.352 71.0489 228.48C67.8809 228.64 65.6969 228.72 64.4969 228.72L64.1849 226.968C65.8169 226.968 67.7369 226.928 69.9449 226.848V225.528C68.8249 225.416 67.9209 225.128 67.2329 224.664C66.5609 224.184 66.2249 223.552 66.2249 222.768C66.2249 221.84 66.6729 221.128 67.5689 220.632C68.4809 220.12 69.6409 219.864 71.0489 219.864C72.4569 219.864 73.6169 220.12 74.5289 220.632C75.4409 221.128 75.8969 221.832 75.8969 222.744C75.8969 223.528 75.5449 224.16 74.8409 224.64C74.1369 225.12 73.2169 225.416 72.0809 225.528V226.728C74.7049 226.6 76.5049 226.448 77.4809 226.272L77.6969 227.904ZM84.0569 223.32H80.9369V228.696H78.8489V214.704H80.9369V221.568H84.0569V223.32ZM67.0649 229.776H80.9369V235.776H78.8489V231.504H67.0649V229.776ZM77.0249 219.312H64.9529V217.656H77.0249V219.312ZM73.8329 222.744C73.8329 222.328 73.5769 222.008 73.0649 221.784C72.5529 221.56 71.8809 221.448 71.0489 221.448C70.2169 221.448 69.5449 221.56 69.0329 221.784C68.5369 222.008 68.2889 222.328 68.2889 222.744C68.2889 223.144 68.5449 223.464 69.0569 223.704C69.5689 223.928 70.2329 224.04 71.0489 224.04C71.8649 224.04 72.5289 223.928 73.0409 223.704C73.5689 223.464 73.8329 223.144 73.8329 222.744ZM73.9289 216.624H68.0729V214.968H73.9289V216.624ZM101.895 229.944H99.7585V214.704H101.895V229.944ZM102.375 235.032H88.0945V228.504H90.2305V233.328H102.375V235.032ZM86.7505 217.632C87.8065 216.624 89.1425 216.12 90.7585 216.12C92.3745 216.12 93.7105 216.616 94.7665 217.608C95.8385 218.6 96.3745 219.848 96.3745 221.352C96.3745 222.856 95.8465 224.088 94.7905 225.048C93.7345 225.992 92.3905 226.464 90.7585 226.464C89.1425 226.464 87.8065 225.992 86.7505 225.048C85.6945 224.088 85.1665 222.864 85.1665 221.376C85.1665 219.872 85.6945 218.624 86.7505 217.632ZM90.7585 217.944C89.7825 217.944 88.9745 218.264 88.3345 218.904C87.7105 219.544 87.3985 220.352 87.3985 221.328C87.3985 222.288 87.7105 223.088 88.3345 223.728C88.9745 224.368 89.7825 224.688 90.7585 224.688C91.7825 224.688 92.5985 224.376 93.2065 223.752C93.8145 223.128 94.1185 222.328 94.1185 221.352C94.1185 220.344 93.8145 219.528 93.2065 218.904C92.5985 218.264 91.7825 217.944 90.7585 217.944ZM129.637 222.072H126.517V226.608H124.405V214.704H126.517V220.296H129.637V222.072ZM127.261 235.608H113.101V230.76H124.405V229.32H113.053V227.688H126.517V232.32H115.237V233.928H127.261V235.608ZM119.461 216.72H113.365V215.016H119.461V216.72ZM122.533 219.504H110.197V217.848H122.533V219.504ZM119.869 221.112C120.797 221.688 121.261 222.472 121.261 223.464C121.261 224.456 120.797 225.24 119.869 225.816C118.957 226.392 117.773 226.68 116.317 226.68C114.877 226.68 113.685 226.392 112.741 225.816C111.797 225.24 111.325 224.456 111.325 223.464C111.325 222.472 111.789 221.688 112.717 221.112C113.661 220.52 114.861 220.224 116.317 220.224C117.757 220.224 118.941 220.52 119.869 221.112ZM119.149 223.464C119.149 222.952 118.877 222.552 118.333 222.264C117.789 221.976 117.117 221.832 116.317 221.832C115.517 221.832 114.837 221.976 114.277 222.264C113.733 222.552 113.461 222.952 113.461 223.464C113.461 223.96 113.741 224.36 114.301 224.664C114.861 224.952 115.533 225.096 116.317 225.096C117.101 225.096 117.765 224.952 118.309 224.664C118.869 224.36 119.149 223.96 119.149 223.464ZM146.435 235.704H144.299V228.168H135.947V226.464H154.883V228.168H146.435V235.704ZM154.163 222.648L153.155 224.376C151.555 224.072 149.995 223.448 148.475 222.504C146.971 221.56 145.947 220.52 145.403 219.384C144.955 220.504 143.971 221.544 142.451 222.504C140.931 223.448 139.339 224.08 137.675 224.4L136.715 222.672C138.683 222.416 140.435 221.704 141.971 220.536C143.523 219.368 144.299 218.08 144.299 216.672V215.352H146.531V216.672C146.531 217.6 146.931 218.52 147.731 219.432C148.531 220.328 149.515 221.064 150.683 221.64C151.851 222.2 153.011 222.536 154.163 222.648ZM178.785 226.704H176.649V214.704H178.785V226.704ZM163.665 217.296C164.721 216.336 166.017 215.856 167.553 215.856C169.089 215.856 170.377 216.336 171.417 217.296C172.473 218.24 173.001 219.456 173.001 220.944C173.001 222.416 172.481 223.608 171.441 224.52C170.401 225.432 169.105 225.888 167.553 225.888C166.017 225.888 164.721 225.432 163.665 224.52C162.625 223.608 162.105 222.416 162.105 220.944C162.105 219.472 162.625 218.256 163.665 217.296ZM167.553 217.68C166.593 217.68 165.801 217.992 165.177 218.616C164.553 219.224 164.241 219.984 164.241 220.896C164.241 221.84 164.553 222.616 165.177 223.224C165.801 223.832 166.593 224.136 167.553 224.136C168.529 224.136 169.321 223.84 169.929 223.248C170.553 222.64 170.865 221.872 170.865 220.944C170.865 219.984 170.561 219.2 169.953 218.592C169.361 217.984 168.561 217.68 167.553 217.68ZM179.433 235.776C178.713 235.424 177.969 234.856 177.201 234.072C176.449 233.288 175.945 232.536 175.689 231.816C175.449 232.6 174.969 233.4 174.249 234.216C173.529 235.048 172.745 235.656 171.897 236.04L170.529 234.624C171.745 234.048 172.729 233.224 173.481 232.152C174.249 231.08 174.633 229.92 174.633 228.672V227.616H176.721V228.6C176.721 229.848 177.121 231.008 177.921 232.08C178.737 233.152 179.681 233.88 180.753 234.264L179.433 235.776ZM171.921 232.488L170.481 233.904C170.017 233.664 169.553 233.312 169.089 232.848C168.625 232.384 168.281 231.904 168.057 231.408C167.817 232.208 167.297 233.04 166.497 233.904C165.697 234.768 164.857 235.4 163.977 235.8L162.729 234.312C163.897 233.784 164.881 232.992 165.681 231.936C166.481 230.88 166.881 229.736 166.881 228.504V227.616H168.969V228.384C168.969 229.36 169.249 230.208 169.809 230.928C170.369 231.648 171.073 232.168 171.921 232.488ZM183.087 228.96C182.175 227.584 181.719 225.8 181.719 223.608C181.719 221.416 182.175 219.632 183.087 218.256C183.999 216.88 185.343 216.192 187.119 216.192C188.751 216.192 190.007 216.784 190.887 217.968C191.783 219.136 192.303 220.696 192.447 222.648H196.695V214.704H198.831V235.68H196.695V224.448H192.447C192.319 226.432 191.807 228.024 190.911 229.224C190.031 230.424 188.767 231.024 187.119 231.024C185.343 231.024 183.999 230.336 183.087 228.96ZM190.359 223.632C190.359 221.952 190.071 220.6 189.495 219.576C188.935 218.536 188.143 218.016 187.119 218.016C186.079 218.016 185.279 218.528 184.719 219.552C184.175 220.576 183.903 221.936 183.903 223.632C183.903 225.296 184.175 226.64 184.719 227.664C185.279 228.688 186.079 229.2 187.119 229.2C188.143 229.2 188.935 228.688 189.495 227.664C190.071 226.64 190.359 225.296 190.359 223.632ZM216.789 217.608C218.229 218.6 218.949 219.912 218.949 221.544C218.949 223.176 218.229 224.488 216.789 225.48C215.365 226.472 213.477 226.968 211.125 226.968C208.789 226.968 206.901 226.472 205.461 225.48C204.037 224.488 203.325 223.176 203.325 221.544C203.325 219.912 204.037 218.6 205.461 217.608C206.901 216.6 208.789 216.096 211.125 216.096C213.477 216.096 215.365 216.6 216.789 217.608ZM216.765 221.544C216.765 220.44 216.245 219.552 215.205 218.88C214.181 218.192 212.821 217.848 211.125 217.848C209.429 217.848 208.069 218.192 207.045 218.88C206.021 219.552 205.509 220.44 205.509 221.544C205.509 222.632 206.021 223.52 207.045 224.208C208.085 224.88 209.445 225.216 211.125 225.216C212.821 225.216 214.181 224.88 215.205 224.208C216.245 223.52 216.765 222.632 216.765 221.544ZM220.605 233.016H201.669V231.288H206.205V227.568L208.341 227.496V231.288H213.885V227.496L215.997 227.568V231.288H220.605V233.016ZM223.13 229.176L222.866 216.096H225.194L224.93 229.176H223.13ZM222.89 233.4V231.072H225.218V233.4H222.89Z" fill="black"/>
</svg>
