<svg width="175" height="169" viewBox="0 0 175 169" fill="none" xmlns="http://www.w3.org/2000/svg">
<mask id="mask0_5394_64220" style="mask-type:alpha" maskUnits="userSpaceOnUse" x="0" y="0" width="175" height="166">
<path d="M0 0H156.5C166.717 0 175 8.28273 175 18.5V147.5C175 157.717 166.717 166 156.5 166H0V0Z" fill="#FF6355"/>
</mask>
<g mask="url(#mask0_5394_64220)">
<path d="M36.8944 140.535C36.8944 138.602 38.4615 137.035 40.3944 137.035H51.3099C53.2429 137.035 54.8099 138.602 54.8099 140.535V167.5H36.8944V140.535Z" fill="#FFBFB8" fill-opacity="0.3"/>
<path d="M36.8944 140.535C36.8944 138.602 38.4615 137.035 40.3944 137.035H51.3099C53.2429 137.035 54.8099 138.602 54.8099 140.535V167.5H36.8944V140.535Z" stroke="#FF6464" stroke-width="3"/>
<path d="M36.8944 140.535C36.8944 138.602 38.4615 137.035 40.3944 137.035H51.3099C53.2429 137.035 54.8099 138.602 54.8099 140.535V167.5H36.8944V140.535Z" stroke="#FFBFB8" stroke-width="3"/>
<path d="M61.993 122.408C61.993 120.475 63.56 118.908 65.493 118.908H76.4085C78.3415 118.908 79.9085 120.475 79.9085 122.408V167.5H61.993V122.408Z" stroke="#FF6464" stroke-width="3"/>
<path d="M61.993 122.408C61.993 120.475 63.56 118.908 65.493 118.908H76.4085C78.3415 118.908 79.9085 120.475 79.9085 122.408V167.5H61.993V122.408Z" stroke="#FFBFB8" stroke-width="3"/>
<path d="M87.0916 130.774C87.0916 128.841 88.6586 127.274 90.5916 127.274H101.507C103.44 127.274 105.007 128.841 105.007 130.774V167.5H87.0916V130.774Z" fill="#FFBFB8" fill-opacity="0.3"/>
<path d="M87.0916 130.774C87.0916 128.841 88.6586 127.274 90.5916 127.274H101.507C103.44 127.274 105.007 128.841 105.007 130.774V167.5H87.0916V130.774Z" stroke="#FF6464" stroke-width="3"/>
<path d="M87.0916 130.774C87.0916 128.841 88.6586 127.274 90.5916 127.274H101.507C103.44 127.274 105.007 128.841 105.007 130.774V167.5H87.0916V130.774Z" stroke="#FFBFB8" stroke-width="3"/>
<path d="M112.19 120.225C112.19 118.292 113.757 116.725 115.69 116.725H126.606C128.539 116.725 130.106 118.292 130.106 120.225V167.5H112.19V120.225Z" stroke="#FF6464" stroke-width="3"/>
<path d="M112.19 120.225C112.19 118.292 113.757 116.725 115.69 116.725H126.606C128.539 116.725 130.106 118.292 130.106 120.225V167.5H112.19V120.225Z" stroke="#FFBFB8" stroke-width="3"/>
<path d="M137.106 108C137.106 106.067 138.673 104.5 140.606 104.5H151.521C153.454 104.5 155.021 106.067 155.021 108V167.5H137.106V108Z" fill="#FFBFB8" fill-opacity="0.3"/>
<path d="M137.106 108C137.106 106.067 138.673 104.5 140.606 104.5H151.521C153.454 104.5 155.021 106.067 155.021 108V167.5H137.106V108Z" stroke="#FF6464" stroke-width="3"/>
<path d="M137.106 108C137.106 106.067 138.673 104.5 140.606 104.5H151.521C153.454 104.5 155.021 106.067 155.021 108V167.5H137.106V108Z" stroke="#FFBFB8" stroke-width="3"/>
<path d="M33.5539 122.474C32.829 122.875 32.5664 123.788 32.9674 124.513C33.3683 125.237 34.281 125.5 35.006 125.099L33.5539 122.474ZM84.5622 95.9743L85.819 95.1554C85.3897 94.4965 84.5243 94.281 83.8362 94.6617L84.5622 95.9743ZM95.6439 112.983L94.3871 113.802C94.8179 114.463 95.6874 114.677 96.3762 114.292L95.6439 112.983ZM155.664 80.6217C155.889 79.8245 155.425 78.9956 154.628 78.7704L141.637 75.1C140.839 74.8747 140.01 75.3384 139.785 76.1356C139.56 76.9329 140.024 77.7617 140.821 77.987L152.369 81.2495L149.106 92.7975C148.881 93.5947 149.345 94.4236 150.142 94.6488C150.939 94.8741 151.768 94.4104 151.993 93.6132L155.664 80.6217ZM35.006 125.099L85.2882 97.2869L83.8362 94.6617L33.5539 122.474L35.006 125.099ZM83.3054 96.7931L94.3871 113.802L96.9007 112.164L85.819 95.1554L83.3054 96.7931ZM96.3762 114.292L154.953 81.5229L153.488 78.9048L94.9115 111.674L96.3762 114.292Z" fill="#FFBFB8"/>
<path d="M103.8 51.5L109.2 65L113.25 52.2105L117.3 65L122.7 51.5" stroke="#FFBFB8" stroke-width="2.5" stroke-linecap="round" stroke-linejoin="round"/>
<path d="M101.1 56.4739H125.4" stroke="#FFBFB8" stroke-width="2.5" stroke-linecap="round" stroke-linejoin="round"/>
<path d="M113.251 75.4986C103.448 75.4986 95.5014 67.552 95.5014 57.7493C95.5014 47.9466 103.448 40 113.251 40C123.053 40 131 47.9466 131 57.7493C131 67.552 123.053 75.4986 113.251 75.4986Z" stroke="#FFBFB8" stroke-width="3" stroke-miterlimit="10" stroke-linecap="round" stroke-linejoin="round"/>
<path d="M89.0964 55.6167C89.0322 56.3315 89.0001 57.0623 89.0001 57.7932" stroke="#FFBFB8" stroke-width="3" stroke-miterlimit="10" stroke-linecap="round" stroke-linejoin="round"/>
<path d="M100.718 37C96.0194 39.8511 92.3652 44.2523 90.4537 49.4888" stroke="#FFBFB8" stroke-width="3" stroke-miterlimit="10" stroke-linecap="round" stroke-linejoin="round"/>
</g>
</svg>
