<svg width="48" height="48" viewBox="0 0 48 48" fill="none" xmlns="http://www.w3.org/2000/svg">
<path d="M10.5381 19.4999C10.5356 17.7209 10.8852 15.959 11.5669 14.3158C12.2485 12.6726 13.2486 11.1805 14.5095 9.9256C15.7705 8.6707 17.2674 7.67778 18.9139 7.00408C20.5603 6.33038 22.3239 5.98921 24.1028 6.00026C31.5259 6.05544 37.4634 12.2255 37.4634 19.6694V20.9999C37.4634 27.7153 38.8684 31.6122 40.1059 33.742C40.2392 33.9696 40.3101 34.2283 40.3115 34.4921C40.3129 34.7558 40.2448 35.0153 40.1139 35.2442C39.983 35.4732 39.7941 35.6637 39.5662 35.7963C39.3382 35.929 39.0793 35.9992 38.8156 35.9999H9.18444C8.92067 35.9992 8.66174 35.929 8.43378 35.7963C8.20581 35.6636 8.01687 35.4731 7.88602 35.2441C7.75517 35.015 7.68704 34.7555 7.6885 34.4918C7.68996 34.228 7.76095 33.9693 7.89432 33.7417C9.13244 31.6118 10.5381 27.715 10.5381 20.9999L10.5381 19.4999Z" stroke="#3D3D3D" stroke-width="3" stroke-linecap="round" stroke-linejoin="round"/>
<path d="M18 36V37.5C18 39.0913 18.6321 40.6174 19.7574 41.7426C20.8826 42.8679 22.4087 43.5 24 43.5C25.5913 43.5 27.1174 42.8679 28.2426 41.7426C29.3679 40.6174 30 39.0913 30 37.5V36" stroke="#3D3D3D" stroke-width="3" stroke-linecap="round" stroke-linejoin="round"/>
</svg>
