<svg width="82" height="137" viewBox="0 0 82 137" fill="none" xmlns="http://www.w3.org/2000/svg">
<path opacity="0.4" d="M29.2205 49.5027V42.9267C29.2205 40.7347 29.3422 38.5427 29.5857 36.3507C29.8292 34.1587 30.2554 32.0884 30.8641 30.14C31.5947 28.1916 32.6904 26.5476 34.1514 25.208C35.6125 23.7467 37.4996 22.9551 39.8129 22.8333C43.8307 22.8333 46.7528 24.1729 48.5791 26.852C50.4053 29.4093 51.3185 32.5756 51.3185 36.3507C51.3185 41.3436 50.6488 45.5449 49.3096 48.9547C48.092 52.3644 45.8396 55.896 42.5523 59.5493L28.6726 74.1627C20.0282 83.6613 13.0883 93.16 7.853 102.659C2.61767 112.157 0 122.082 0 132.433V137H82V112.34H34.6993C35.0646 110.513 35.9168 108.504 37.2561 106.312C38.7171 104.12 40.3608 101.928 42.1871 99.736C44.1351 97.4222 45.9614 95.352 47.6659 93.5253C49.4922 91.6987 51.1967 89.9938 52.7795 88.4107L64.6503 76.9027C70.7379 70.4484 75.121 64.3596 77.7995 58.636C80.4781 52.9125 81.8174 45.9102 81.8174 37.6293C81.8174 25.208 78.3474 15.8311 71.4076 9.49867C64.4677 3.16622 54.7275 0 42.1871 0C28.5509 0 18.1411 3.65333 10.9577 10.96C3.77431 18.2667 0.182628 28.7396 0.182628 42.3787V49.5027H29.2205Z" fill="#8CB3E3"/>
</svg>
