<svg width="82" height="137" viewBox="0 0 82 137" fill="none" xmlns="http://www.w3.org/2000/svg">
<path opacity="0.4" d="M25.1467 77.8759C26.3615 77.9972 28.2444 78.0579 30.7956 78.0579C33.9541 78.0579 36.5659 78.1792 38.6311 78.4218C40.8178 78.6644 42.8222 79.3316 44.6444 80.4233C47.317 82.0002 49.1393 84.6082 50.1111 88.2473C51.083 91.765 51.5689 95.5254 51.5689 99.5284C51.5689 101.833 51.4474 104.017 51.2044 106.079C50.9615 108.02 50.4148 109.839 49.5644 111.537C48.8356 113.114 47.6815 114.449 46.1022 115.54C44.6444 116.511 42.7615 116.996 40.4533 116.996C37.7807 116.996 35.6548 116.389 34.0756 115.176C32.6178 113.963 31.5244 112.386 30.7956 110.446C30.0667 108.505 29.5807 106.564 29.3378 104.623C29.2163 102.682 29.0948 100.074 28.9733 96.7991C28.8519 94.8582 28.7911 93.4632 28.7911 92.6141H0L0.182222 101.894C0.911111 114.145 4.55556 123.546 11.1156 130.096C17.797 136.525 22.7778 137 39.7244 137C57.8859 137 63.7778 136.404 71.0667 129.733C78.3556 123.061 82 112.993 82 99.5284C82 91.2798 80.2993 84.123 76.8978 78.0579C73.6178 71.8715 68.0904 67.8079 60.3156 65.867V65.5031C66.7541 62.4706 71.4311 58.5283 74.3467 53.6762C77.2622 48.7028 78.72 42.5164 78.72 35.117C78.72 23.108 75.2578 14.253 68.3333 8.5518C61.5304 2.8506 51.9941 0 39.7244 0C34.9867 0 30.2489 0.788464 25.5111 2.36539C20.8948 3.82102 16.7037 6.00446 12.9378 8.91571C9.17185 11.827 6.13482 15.3447 3.82667 19.469C1.51852 23.472 0.303704 27.9601 0.182222 32.9335L0 42.9409H29.1556C29.1556 41.8492 29.2163 40.9395 29.3378 40.2116C29.3378 37.7856 29.3985 35.6628 29.52 33.8433C29.763 32.0238 30.1882 30.3255 30.7956 28.7486C31.403 27.0504 32.3748 25.716 33.7111 24.7456C35.0474 23.6539 36.8089 23.108 38.9956 23.108C43.0044 23.108 45.7985 24.3817 47.3778 26.9291C48.957 29.3551 49.7467 32.7516 49.7467 37.1184C49.7467 39.9084 49.2607 42.8196 48.2889 45.8522C47.317 48.8847 45.8593 51.0682 43.9156 52.4025C41.9719 53.7368 39.8459 54.6466 37.5378 55.1318C35.2296 55.4957 32.1926 55.7383 28.4267 55.8596C26.6044 55.9809 25.5111 56.0416 25.1467 56.0416V77.8759Z" fill="#92CCDC"/>
</svg>
