<svg width="42" height="42" viewBox="0 0 42 42" fill="none" xmlns="http://www.w3.org/2000/svg">
<path d="M27.5122 16.8825H34.5001V9.89453" stroke="#3D3D3D" stroke-width="3.2" stroke-linecap="round" stroke-linejoin="round"/>
<path d="M11.4414 11.9413C12.631 10.7516 14.0433 9.80798 15.5977 9.16416C17.152 8.52034 18.8179 8.18896 20.5003 8.18896C22.1827 8.18896 23.8486 8.52034 25.4029 9.16416C26.9572 9.80798 28.3695 10.7516 29.5592 11.9413L34.3791 16.7297" stroke="#3D3D3D" stroke-width="3.2" stroke-linecap="round" stroke-linejoin="round"/>
<path d="M14.4879 25.1177H7.5V32.1056" stroke="#3D3D3D" stroke-width="3.2" stroke-linecap="round" stroke-linejoin="round"/>
<path d="M30.5591 30.059C29.3695 31.2486 27.9572 32.1923 26.4028 32.8361C24.8485 33.4799 23.1826 33.8113 21.5002 33.8113C19.8178 33.8113 18.1519 33.4799 16.5976 32.8361C15.0433 32.1923 13.631 31.2486 12.4413 30.059L7.62158 25.2705" stroke="#3D3D3D" stroke-width="3.2" stroke-linecap="round" stroke-linejoin="round"/>
</svg>
