<svg width="81" height="137" viewBox="0 0 81 137" fill="none" xmlns="http://www.w3.org/2000/svg">
<path opacity="0.4" d="M28.8641 49.5027V42.9267C28.8641 40.7347 28.9844 38.5427 29.2249 36.3507C29.4655 34.1587 29.8864 32.0884 30.4878 30.14C31.2094 28.1916 32.2918 26.5476 33.735 25.208C35.1782 23.7467 37.0423 22.9551 39.3274 22.8333C43.2962 22.8333 46.1826 24.1729 47.9866 26.852C49.7906 29.4093 50.6926 32.5756 50.6926 36.3507C50.6926 41.3436 50.0312 45.5449 48.7082 48.9547C47.5056 52.3644 45.2806 55.896 42.0334 59.5493L28.3229 74.1627C19.784 83.6613 12.9287 93.16 7.75724 102.659C2.58575 112.157 0 122.082 0 132.433V137H81V112.34H34.2762C34.637 110.513 35.4788 108.504 36.8018 106.312C38.245 104.12 39.8686 101.928 41.6726 99.736C43.5969 97.4222 45.4009 95.352 47.0846 93.5253C48.8886 91.6987 50.5724 89.9938 52.1359 88.4107L63.8619 76.9027C69.8753 70.4484 74.2049 64.3596 76.8508 58.636C79.4967 52.9125 80.8196 45.9102 80.8196 37.6293C80.8196 25.208 77.392 15.8311 70.5367 9.49867C63.6815 3.16622 54.0601 0 41.6726 0C28.2027 0 17.9198 3.65333 10.8241 10.96C3.72828 18.2667 0.180401 28.7396 0.180401 42.3787V49.5027H28.8641Z" fill="#92CCDC"/>
</svg>
