<svg width="42" height="42" viewBox="0 0 42 42" fill="none" xmlns="http://www.w3.org/2000/svg">
<path d="M21 27.5C24.5899 27.5 27.5 24.5899 27.5 21C27.5 17.4101 24.5899 14.5 21 14.5C17.4101 14.5 14.5 17.4101 14.5 21C14.5 24.5899 17.4101 27.5 21 27.5Z" stroke="#3D3D3D" stroke-width="3.2" stroke-linecap="round" stroke-linejoin="round"/>
<path d="M34.239 19.7965L35.7896 17.4706C35.8906 17.3207 35.9575 17.1505 35.9853 16.9719C36.0131 16.7933 36.0013 16.6108 35.9507 16.4373C35.6582 15.474 35.2726 14.5415 34.7995 13.6529C34.7129 13.4947 34.5923 13.3576 34.4466 13.2514C34.3008 13.1451 34.1334 13.0724 33.9562 13.0384L31.2125 12.4896L29.5104 10.7875L28.9616 8.04365C28.9276 7.86651 28.8549 7.69907 28.7486 7.55329C28.6424 7.40751 28.5053 7.28698 28.3471 7.20032C27.4584 6.72729 26.5258 6.3418 25.5625 6.0493C25.389 5.99867 25.2065 5.98686 25.028 6.01469C24.8494 6.04253 24.6791 6.10934 24.5293 6.21039L22.2035 7.76089H19.7965L17.4707 6.21039C17.3209 6.10934 17.1506 6.04253 16.972 6.01469C16.7935 5.98686 16.611 5.99867 16.4375 6.0493C15.4742 6.3418 14.5416 6.72728 13.653 7.20031C13.4948 7.28697 13.3576 7.40751 13.2514 7.55329C13.1452 7.69908 13.0724 7.86653 13.0384 8.04368L12.4897 10.7874L10.7875 12.4896L8.04381 13.0382C7.86667 13.0723 7.69924 13.145 7.55345 13.2512C7.40767 13.3575 7.28715 13.4946 7.20048 13.6528C6.72737 14.5414 6.34183 15.474 6.04929 16.4373C5.99867 16.6108 5.98686 16.7933 6.0147 16.9719C6.04254 17.1505 6.10936 17.3207 6.2104 17.4706L7.7609 19.7963V22.2034L6.21039 24.5292C6.10936 24.679 6.04255 24.8493 6.01471 25.0278C5.98687 25.2064 5.99868 25.3889 6.04931 25.5624C6.34177 26.5257 6.72725 27.4583 7.20031 28.347C7.28698 28.5052 7.40751 28.6423 7.55329 28.7485C7.69907 28.8547 7.8665 28.9275 8.04363 28.9615L10.7875 29.5103L12.4896 31.2123L13.0382 33.9562C13.0723 34.1334 13.145 34.3008 13.2512 34.4466C13.3575 34.5924 13.4946 34.7129 13.6528 34.7996C14.5414 35.2727 15.4739 35.6582 16.4372 35.9506C16.6107 36.0012 16.7932 36.013 16.9718 35.9852C17.1503 35.9574 17.3206 35.8905 17.4704 35.7895L19.7963 34.239H22.2034L24.5293 35.7896C24.6791 35.8907 24.8494 35.9575 25.028 35.9853C25.2065 36.0131 25.389 36.0013 25.5625 35.9507C26.5258 35.6582 27.4583 35.2727 28.3469 34.7997C28.5051 34.713 28.6422 34.5925 28.7485 34.4467C28.8547 34.301 28.9274 34.1335 28.9615 33.9564L29.5103 31.2125L31.2123 29.5103L33.9562 28.9616C34.1333 28.9276 34.3008 28.8549 34.4465 28.7486C34.5923 28.6424 34.7129 28.5053 34.7995 28.3471C35.2726 27.4585 35.6582 26.526 35.9507 25.5627C36.0013 25.3892 36.0131 25.2067 35.9853 25.0281C35.9574 24.8495 35.8906 24.6793 35.7896 24.5294L34.239 22.2035V19.7965Z" stroke="#3D3D3D" stroke-width="3.2" stroke-linecap="round" stroke-linejoin="round"/>
</svg>
