<svg width="80" height="80" viewBox="0 0 80 80" fill="none" xmlns="http://www.w3.org/2000/svg">
<rect opacity="0.6" width="80" height="80" rx="40" fill="white"/>
<path fill-rule="evenodd" clip-rule="evenodd" d="M25.263 37.822C25.263 30.346 31.346 24.263 38.822 24.263C46.298 24.263 52.381 30.346 52.381 37.822C52.381 45.299 46.298 51.381 38.822 51.381C31.346 51.381 25.263 45.299 25.263 37.822ZM52.44 49.295C55.058 46.192 56.644 42.191 56.644 37.822C56.644 27.995 48.649 20 38.822 20C28.995 20 21 27.995 21 37.822C21 47.649 28.995 55.644 38.822 55.644C42.746 55.644 46.366 54.354 49.313 52.197L55.955 58.896C56.372 59.317 56.92 59.527 57.469 59.527C58.012 59.527 58.554 59.321 58.97 58.909C59.805 58.08 59.811 56.731 58.983 55.894L52.44 49.295Z" fill="#FF3B3B"/>
</svg>
