<svg width="44" height="44" viewBox="0 0 44 44" fill="none" xmlns="http://www.w3.org/2000/svg">
<path fill-rule="evenodd" clip-rule="evenodd" d="M7.263 19.822C7.263 12.346 13.346 6.263 20.822 6.263C28.298 6.263 34.381 12.346 34.381 19.822C34.381 27.299 28.298 33.381 20.822 33.381C13.346 33.381 7.263 27.299 7.263 19.822ZM34.44 31.295C37.058 28.192 38.644 24.191 38.644 19.822C38.644 9.995 30.649 2 20.822 2C10.995 2 3 9.995 3 19.822C3 29.649 10.995 37.644 20.822 37.644C24.746 37.644 28.366 36.354 31.313 34.197L37.955 40.896C38.372 41.317 38.92 41.527 39.469 41.527C40.012 41.527 40.554 41.321 40.97 40.909C41.805 40.08 41.811 38.731 40.983 37.894L34.44 31.295Z" fill="#FF3B3B"/>
<rect width="44" height="44" fill="#D8D8D8" fill-opacity="0.01"/>
</svg>
