<svg width="170" height="69" viewBox="0 0 170 69" fill="none" xmlns="http://www.w3.org/2000/svg">
<rect width="170" height="69" fill="#D8D8D8" fill-opacity="0.01"/>
<path fill-rule="evenodd" clip-rule="evenodd" d="M59.3425 61.982C59.3184 61.9621 56.8845 59.586 56.8845 52.8829V28.5596C56.8845 28.3083 56.6844 28.1067 56.4347 28.1067H49.4431C49.1929 28.1067 48.9929 28.3083 48.9929 28.5596V42.6307H31.8907V28.5596C31.8907 28.3083 31.6906 28.1067 31.4413 28.1067H24.4494C24.2001 28.1067 24 28.3083 24 28.5596V53.3701C24 55.3922 24.0349 59.6735 26.3735 64.0279C26.9338 65.0723 27.6258 65.9385 28.4829 66.4808C28.5617 66.5308 28.6512 66.5561 28.7407 66.5561C28.8365 66.5561 28.9331 66.5272 29.0159 66.4695L34.3367 62.7737C34.4642 62.6853 34.5394 62.5387 34.543 62.383C34.5479 62.2274 34.4754 62.0772 34.3532 61.982C34.3286 61.9621 31.8907 59.586 31.8907 52.6727V50.2789H48.9929V53.3503C48.9927 53.3535 48.9918 53.3565 48.9909 53.3596C48.9903 53.3615 48.9898 53.3634 48.9894 53.3653C48.9891 53.3669 48.9889 53.3685 48.9889 53.3701C48.9889 53.3833 48.9893 53.4049 48.9898 53.4342C48.991 53.4964 48.9929 53.5935 48.9929 53.7189C48.9929 56.299 49.2681 60.1282 51.3623 64.0279C51.9231 65.0723 52.6151 65.9385 53.4717 66.4808C53.551 66.5308 53.6405 66.5561 53.7304 66.5561C53.8262 66.5561 53.9229 66.5272 54.0052 66.4695L59.3264 62.7737C59.454 62.6853 59.5287 62.5387 59.5328 62.383C59.5372 62.2274 59.4647 62.0772 59.3425 61.982ZM112.555 59.045C112.692 59.105 112.79 59.2286 112.822 59.3738C113.204 61.3525 113.935 63.2537 114.989 65.0199C115.056 65.1363 115.069 65.2748 115.028 65.402C114.982 65.5297 114.883 65.6321 114.761 65.6785C113.167 66.2768 111.684 66.556 110.097 66.556C102.979 66.556 98.8982 62.4181 98.8982 55.2039V49.6148V41.9688V36.2732C98.8982 36.0219 99.0983 35.8202 99.348 35.8202H106.083C106.332 35.8202 106.532 36.0219 106.532 36.2732V41.9688H112.388C112.638 41.9688 112.838 42.1705 112.838 42.4218V49.1618C112.838 49.4131 112.638 49.6148 112.388 49.6148H106.532V55.2039C106.532 58.4855 107.467 59.6463 110.097 59.6463C110.902 59.6463 111.53 59.4735 112.138 59.0801C112.264 59.0021 112.422 58.9881 112.555 59.045ZM70.3832 51.675C70.3832 56.0357 73.9056 59.5862 78.2359 59.5862C82.5625 59.5862 86.0849 56.0357 86.0849 51.675C86.0849 47.3102 82.5625 43.7597 78.2359 43.7597C73.9056 43.7597 70.3832 47.3102 70.3832 51.675ZM62.7311 51.675C62.7311 43.0591 69.6877 36.0465 78.2359 36.0465C86.7836 36.0465 93.7371 43.0591 93.7371 51.675C93.7371 60.2909 86.7836 67.2994 78.2359 67.2994C69.6877 67.2994 62.7311 60.2909 62.7311 51.675ZM131.977 59.3737C132.36 61.3524 133.09 63.2535 134.144 65.0197C134.21 65.1365 134.224 65.2746 134.182 65.4023C134.137 65.5295 134.038 65.6319 133.916 65.6784C132.321 66.2766 130.839 66.5558 129.252 66.5558C122.133 66.5558 118.053 62.418 118.053 55.2038V49.615V41.9686V36.273C118.053 36.0221 118.253 35.82 118.503 35.82H125.238C125.487 35.82 125.687 36.0221 125.687 36.273V41.9686H131.543C131.792 41.9686 131.992 42.1707 131.992 42.422V49.1616C131.992 49.4129 131.792 49.615 131.543 49.615H125.687V55.2038C125.687 58.4858 126.622 59.6466 129.252 59.6466C130.056 59.6466 130.685 59.4734 131.292 59.08C131.419 59.0019 131.577 58.9879 131.71 59.0448C131.847 59.1052 131.945 59.2284 131.977 59.3737Z" fill="white"/>
<path fill-rule="evenodd" clip-rule="evenodd" d="M143.617 2C135.991 2 129.788 8.2127 129.788 15.8473V22.0246L129.785 22.0206V37.914H151.837C159.457 37.9074 165.657 31.6982 165.657 24.0694C165.657 18.1379 161.967 13.0446 156.58 11.0962C154.637 5.69658 149.546 2 143.617 2ZM137.708 18.7379V16.8977V15.8574V15.8473C137.708 14.2547 138.346 12.8134 139.371 11.7483C140.392 10.7735 141.766 10.1673 143.287 10.1673C146.426 10.1673 148.971 12.7148 148.971 15.8574V18.7379H151.845C154.984 18.7379 157.529 21.2854 157.529 24.4275C157.529 25.5704 157.185 26.6302 156.606 27.5219C155.534 29.0044 153.806 29.9806 151.845 29.9841C151.841 29.9841 151.838 29.985 151.834 29.985H150.646H148.971H137.708V18.7379Z" fill="white"/>
</svg>
