<svg width="182" height="58" viewBox="0 0 182 58" fill="none" xmlns="http://www.w3.org/2000/svg">
<path d="M47.4323 28.522C39.9559 28.522 33.873 34.6049 33.873 42.0813C33.873 49.5577 39.9559 55.6366 47.4323 55.6366C54.9087 55.6366 60.9877 49.5537 60.9877 42.0813C60.9877 34.6088 54.9087 28.522 47.4323 28.522ZM47.4323 48.947C43.6472 48.947 40.5666 45.8664 40.5666 42.0813C40.5666 38.2961 43.6472 35.2155 47.4323 35.2155C51.2175 35.2155 54.2981 38.2961 54.2981 42.0813C54.2942 45.8664 51.2136 48.947 47.4323 48.947Z" fill="white"/>
<path d="M77.6785 48.763C77.6511 48.6377 77.565 48.5281 77.4436 48.4772C77.3262 48.4263 77.1892 48.442 77.0796 48.5085C76.5472 48.8491 75.9992 49.0017 75.2947 49.0017C72.993 49.0017 72.1788 47.9957 72.1788 45.1461V40.2962H77.2988C77.518 40.2962 77.6902 40.1201 77.6902 39.9048V34.0529C77.6902 33.8337 77.5141 33.6614 77.2988 33.6614H72.1788V28.7176C72.1788 28.4984 72.0027 28.3262 71.7874 28.3262H65.8963C65.6771 28.3262 65.5049 28.5023 65.5049 28.7176V33.6575V40.2923V45.1422C65.5049 51.4012 69.0748 54.9907 75.2986 54.9907C76.6882 54.9907 77.9838 54.748 79.3773 54.2274C79.483 54.1882 79.5691 54.0982 79.6122 53.9886C79.6474 53.879 79.6357 53.7577 79.5769 53.6559C78.6532 52.1293 78.0151 50.4814 77.6785 48.763Z" fill="white"/>
<path d="M30.9116 51.0256C30.892 51.01 28.7626 48.9471 28.7626 43.1304V22.0282C28.7626 21.8089 28.5865 21.6367 28.3712 21.6367H22.253C22.0338 21.6367 21.8577 21.8129 21.8577 22.0282V34.237H6.90099V22.0282C6.90099 21.8089 6.72484 21.6367 6.50955 21.6367H0.391434C0.172231 21.6367 0 21.8129 0 22.0282V43.5531C0 45.3068 0.0313149 49.0215 2.0746 52.7988C2.5639 53.703 3.17062 54.4546 3.91826 54.9282C3.98872 54.9713 4.067 54.9948 4.14529 54.9948C4.22749 54.9948 4.31361 54.9713 4.38798 54.9204L9.04214 51.7145C9.15565 51.6362 9.21828 51.511 9.22219 51.374C9.22611 51.237 9.16348 51.1078 9.05779 51.0256C9.03822 51.01 6.9049 48.9471 6.9049 42.9464V40.8679H21.8616V43.5336C21.8616 43.5375 21.8577 43.5453 21.8577 43.5492C21.8577 43.5844 21.8616 43.6901 21.8616 43.8506C21.8616 46.0896 22.1043 49.4129 23.9323 52.7949C24.4216 53.6991 25.0283 54.4507 25.776 54.9243C25.8464 54.9674 25.9247 54.9908 26.003 54.9908C26.0852 54.9908 26.1713 54.9674 26.2418 54.9165L30.8959 51.7106C31.0094 51.6323 31.0721 51.5071 31.076 51.3701C31.0799 51.237 31.0173 51.1078 30.9116 51.0256Z" fill="white"/>
<path d="M96.3289 53.6598C95.409 52.1254 94.7671 50.4774 94.4344 48.763C94.407 48.6377 94.3208 48.5281 94.1995 48.4772C94.0821 48.4263 93.9451 48.442 93.8355 48.5085C93.3031 48.8491 92.7551 49.0017 92.0505 49.0017C89.7489 49.0017 88.9347 47.9957 88.9347 45.1461V40.2962H94.0547C94.2739 40.2962 94.4461 40.1201 94.4461 39.9048V34.0529C94.4461 33.8337 94.27 33.6614 94.0547 33.6614H88.9347V28.7176C88.9347 28.4984 88.7586 28.3262 88.5433 28.3262H82.6522C82.433 28.3262 82.2607 28.5023 82.2607 28.7176V33.6575V40.2923V45.1422C82.2607 51.4012 85.8306 54.9907 92.0544 54.9907C93.444 54.9907 94.7397 54.748 96.1332 54.2274C96.2389 54.1882 96.325 54.0982 96.368 53.9886C96.3994 53.8829 96.3876 53.7616 96.3289 53.6598Z" fill="white"/>
<path d="M116.406 8.09788C114.78 3.58791 110.522 0.5 105.565 0.5C99.1857 0.5 93.9998 5.68961 93.9998 12.0686V17.2286L93.9961 17.2249V30.5037H112.439C118.81 30.5 123.996 25.3104 123.996 18.9388C123.996 13.9819 120.912 9.72679 116.406 8.09788ZM116.428 21.8236C115.53 23.0609 114.086 23.8772 112.446 23.8809C112.442 23.8809 112.439 23.8809 112.435 23.8809H111.441H110.041H100.623V14.4842V12.9477V12.0797V12.0723C100.623 10.7425 101.158 9.53841 102.015 8.64824C102.868 7.83563 104.017 7.3259 105.291 7.3259C107.918 7.3259 110.045 9.45346 110.045 12.0797V14.4879H112.45C115.076 14.4879 117.203 16.6155 117.203 19.2417C117.2 20.191 116.912 21.0774 116.428 21.8236Z" fill="white"/>
<path d="M115.397 41.453H103.529V39.636H115.397V41.453ZM106.496 38.463V36.577H112.499V38.463H106.496ZM114.224 45.685C114.224 46.6357 113.764 47.456 112.844 48.146C111.939 48.8207 110.82 49.158 109.486 49.158C108.137 49.158 107.002 48.8207 106.082 48.146C105.162 47.4713 104.702 46.651 104.702 45.685C104.702 44.7037 105.154 43.8833 106.059 43.224C106.979 42.5493 108.121 42.212 109.486 42.212C110.835 42.212 111.962 42.5493 112.867 43.224C113.772 43.8833 114.224 44.7037 114.224 45.685ZM111.993 45.685C111.993 45.179 111.748 44.7727 111.257 44.466C110.766 44.144 110.176 43.983 109.486 43.983C108.781 43.983 108.175 44.144 107.669 44.466C107.178 44.7727 106.933 45.179 106.933 45.685C106.933 46.2063 107.178 46.628 107.669 46.95C108.175 47.2567 108.781 47.41 109.486 47.41C110.176 47.41 110.766 47.2567 111.257 46.95C111.748 46.628 111.993 46.2063 111.993 45.685ZM122.619 44.167H119.606V50.078H117.237V36.324H119.606V42.189H122.619V44.167ZM121.101 55.161L119.951 57.024C118.51 56.748 117.145 56.2037 115.857 55.391C114.569 54.5783 113.687 53.7043 113.212 52.769C112.813 53.7503 111.962 54.6397 110.659 55.437C109.356 56.2497 107.953 56.771 106.45 57.001L105.346 55.138C106.481 55.0153 107.546 54.747 108.543 54.333C109.54 53.919 110.368 53.344 111.027 52.608C111.702 51.8567 112.039 51.0133 112.039 50.078V49.641H114.477V50.078C114.477 50.7833 114.669 51.435 115.052 52.033C115.451 52.631 115.972 53.137 116.616 53.551C117.26 53.9497 117.958 54.287 118.709 54.563C119.476 54.8237 120.273 55.023 121.101 55.161ZM140.093 46.743H137.747V36.324H140.093V46.743ZM135.953 45.34C133.699 45.7847 130.563 46.0223 126.546 46.053H124.384V37.497H133.929V39.406H126.707V44.144C130.694 44.144 133.668 43.9217 135.631 43.477L135.953 45.34ZM140.737 56.656H126.73V51.32H137.724V49.618H126.638V47.732H140.07V53.068H129.099V54.793H140.737V56.656ZM160.649 56.242H146.458V49.733H148.804V54.356H160.649V56.242ZM160.051 51.55H157.797V36.324H160.051V51.55ZM156.141 50.952H153.91V43.362H151.334V41.43H153.91V36.692H156.141V50.952ZM153.082 46.513L151.886 48.261C151.135 47.9083 150.368 47.341 149.586 46.559C148.819 45.7617 148.298 45.0027 148.022 44.282C147.746 45.1407 147.232 46.007 146.481 46.881C145.73 47.755 144.902 48.4297 143.997 48.905C143.844 48.6903 143.606 48.399 143.284 48.031C142.977 47.663 142.763 47.4023 142.64 47.249C143.913 46.559 144.925 45.6237 145.676 44.443C146.443 43.247 146.826 41.936 146.826 40.51V37.934H149.103V40.441C149.103 41.8057 149.486 43.0247 150.253 44.098C151.02 45.1713 151.963 45.9763 153.082 46.513ZM171.545 43.776V45.685H165.496V50.193C168.992 50.193 171.775 49.986 173.845 49.572L174.19 51.435C172.166 51.8643 169.207 52.0943 165.312 52.125H163.173V38.164H172.557V40.027H165.496V43.776H171.545ZM179.181 56.817H176.835V45.777H173.132V43.822H176.835V36.324H179.181V56.817Z" fill="white"/>
</svg>
