<svg width="48" height="48" viewBox="0 0 48 48" fill="none" xmlns="http://www.w3.org/2000/svg">
<path d="M19.6002 41.5803C21.2018 41.5803 22.5002 40.2819 22.5002 38.6803C22.5002 37.0786 21.2018 35.7803 19.6002 35.7803C17.9986 35.7803 16.7002 37.0786 16.7002 38.6803C16.7002 40.2819 17.9986 41.5803 19.6002 41.5803Z" stroke="white" stroke-width="3" stroke-linecap="round" stroke-linejoin="round"/>
<path d="M36.3766 41.5803C37.9782 41.5803 39.2766 40.2819 39.2766 38.6803C39.2766 37.0786 37.9782 35.7803 36.3766 35.7803C34.7749 35.7803 33.4766 37.0786 33.4766 38.6803C33.4766 40.2819 34.7749 41.5803 36.3766 41.5803Z" stroke="white" stroke-width="3" stroke-linecap="round" stroke-linejoin="round"/>
<path d="M5.5 6H12.2273L16.7345 26.9445C16.8883 27.6646 17.3096 28.3115 17.9245 28.7719C18.5394 29.2323 19.3089 29.4769 20.0982 29.4628H36.4455C37.2347 29.4769 38.0042 29.2323 38.6191 28.7719C39.2341 28.3115 39.6553 27.6646 39.8091 26.9445L42.5 13.8209H13.9091" stroke="white" stroke-width="3" stroke-linecap="round" stroke-linejoin="round"/>
</svg>
