<svg width="113" height="113" viewBox="0 0 113 113" fill="none" xmlns="http://www.w3.org/2000/svg">
<g clip-path="url(#clip0)">
<path fill-rule="evenodd" clip-rule="evenodd" d="M103.7 81.16H105.84C109.77 81.16 112.96 84.35 112.96 88.28V105.64C112.96 109.57 109.77 112.76 105.84 112.76H7.12C3.19 112.76 0 109.57 0 105.64V88.28C0 84.35 3.19 81.16 7.12 81.16H9.27V47.21C9.27 21.18 30.45 0 56.48 0C82.51 0 103.7 21.18 103.7 47.21V81.16ZM95.7 81.16V47.21C95.7 25.59 78.1 8 56.48 8C34.86 8 17.27 25.59 17.27 47.21V81.16H95.7ZM104.96 89.16V104.76H8V89.16H104.96ZM61.51 50.4099C61.51 53.1899 59.26 55.4399 56.48 55.4399C53.7 55.4399 51.45 53.1899 51.45 50.4099V30.9499C51.45 28.1699 53.7 25.9199 56.48 25.9199C59.26 25.9199 61.51 28.1699 61.51 30.9499V50.4099ZM56.48 70.7299C59.26 70.7299 61.51 68.4799 61.51 65.6999C61.51 62.9199 59.26 60.6699 56.48 60.6699C53.7 60.6699 51.45 62.9199 51.45 65.6999C51.45 68.4799 53.7 70.7299 56.48 70.7299Z" fill="url(#paint0_linear)"/>
</g>
<defs>
<linearGradient id="paint0_linear" x1="9.96891e-07" y1="113" x2="113" y2="-3.96051e-06" gradientUnits="userSpaceOnUse">
<stop stop-color="#E93B35"/>
<stop offset="1" stop-color="#EF7534"/>
</linearGradient>
<clipPath id="clip0">
<rect width="112.96" height="112.76" fill="white"/>
</clipPath>
</defs>
</svg>
