<svg width="124" height="56" viewBox="0 0 124 56" fill="none" xmlns="http://www.w3.org/2000/svg">
<path d="M116.406 7.59788C114.78 3.08791 110.522 0 105.565 0C99.1857 0 93.9998 5.18961 93.9998 11.5686V16.7286L93.9961 16.7249V30.0037H112.439C118.81 30 123.996 24.8104 123.996 18.4388C123.996 13.4819 120.912 9.22679 116.406 7.59788ZM116.428 21.3236C115.53 22.5609 114.086 23.3772 112.446 23.3809C112.442 23.3809 112.439 23.3809 112.435 23.3809H111.441H110.041H100.623V13.9842V12.4477V11.5797V11.5723C100.623 10.2425 101.158 9.03841 102.015 8.14824C102.868 7.33563 104.017 6.8259 105.291 6.8259C107.918 6.8259 110.045 8.95346 110.045 11.5797V13.9879H112.45C115.076 13.9879 117.203 16.1155 117.203 18.7417C117.2 19.691 116.912 20.5774 116.428 21.3236Z" fill="url(#paint0_linear)"/>
<path d="M47.4323 28.0215C39.9559 28.0215 33.873 34.1044 33.873 41.5808C33.873 49.0572 39.9559 55.1361 47.4323 55.1361C54.9087 55.1361 60.9877 49.0533 60.9877 41.5808C60.9877 34.1083 54.9087 28.0215 47.4323 28.0215ZM47.4323 48.4465C43.6472 48.4465 40.5666 45.3659 40.5666 41.5808C40.5666 37.7956 43.6472 34.715 47.4323 34.715C51.2175 34.715 54.2981 37.7956 54.2981 41.5808C54.2942 45.3659 51.2136 48.4465 47.4323 48.4465Z" fill="#E73536"/>
<path d="M77.6785 48.2625C77.6511 48.1372 77.565 48.0276 77.4436 47.9767C77.3262 47.9258 77.1892 47.9415 77.0796 48.008C76.5472 48.3486 75.9992 48.5012 75.2947 48.5012C72.993 48.5012 72.1788 47.4953 72.1788 44.6456V39.7957H77.2988C77.518 39.7957 77.6902 39.6196 77.6902 39.4043V33.5524C77.6902 33.3332 77.5141 33.1609 77.2988 33.1609H72.1788V28.2171C72.1788 27.9979 72.0027 27.8257 71.7874 27.8257H65.8963C65.6771 27.8257 65.5049 28.0018 65.5049 28.2171V33.157V39.7918V44.6417C65.5049 50.9007 69.0748 54.4902 75.2986 54.4902C76.6882 54.4902 77.9838 54.2475 79.3773 53.7269C79.483 53.6877 79.5691 53.5977 79.6122 53.4881C79.6474 53.3785 79.6357 53.2572 79.5769 53.1554C78.6532 51.6288 78.0151 49.9809 77.6785 48.2625Z" fill="#E73536"/>
<path d="M30.9116 50.5251C30.892 50.5095 28.7626 48.4466 28.7626 42.6299V21.5277C28.7626 21.3085 28.5865 21.1362 28.3712 21.1362H22.253C22.0338 21.1362 21.8577 21.3124 21.8577 21.5277V33.7365H6.90099V21.5277C6.90099 21.3085 6.72484 21.1362 6.50955 21.1362H0.391434C0.172231 21.1362 0 21.3124 0 21.5277V43.0526C0 44.8063 0.0313149 48.521 2.0746 52.2983C2.5639 53.2025 3.17062 53.9541 3.91826 54.4277C3.98872 54.4708 4.067 54.4943 4.14529 54.4943C4.22749 54.4943 4.31361 54.4708 4.38798 54.4199L9.04213 51.214C9.15565 51.1358 9.21828 51.0105 9.22219 50.8735C9.22611 50.7365 9.16348 50.6073 9.05779 50.5251C9.03822 50.5095 6.9049 48.4466 6.9049 42.4459V40.3674H21.8616V43.0331C21.8616 43.037 21.8577 43.0448 21.8577 43.0487C21.8577 43.084 21.8616 43.1896 21.8616 43.3501C21.8616 45.5891 22.1043 48.9124 23.9323 52.2944C24.4216 53.1986 25.0283 53.9502 25.776 54.4238C25.8464 54.4669 25.9247 54.4904 26.003 54.4904C26.0852 54.4904 26.1713 54.4669 26.2418 54.416L30.8959 51.2101C31.0094 51.1318 31.0721 51.0066 31.076 50.8696C31.0799 50.7365 31.0173 50.6073 30.9116 50.5251Z" fill="#E73536"/>
<path d="M96.3289 53.1593C95.409 51.6249 94.7671 49.977 94.4344 48.2625C94.407 48.1372 94.3208 48.0276 94.1995 47.9767C94.0821 47.9258 93.9451 47.9415 93.8355 48.008C93.3031 48.3486 92.7551 48.5012 92.0505 48.5012C89.7489 48.5012 88.9347 47.4953 88.9347 44.6456V39.7957H94.0547C94.2739 39.7957 94.4461 39.6196 94.4461 39.4043V33.5524C94.4461 33.3332 94.27 33.1609 94.0547 33.1609H88.9347V28.2171C88.9347 27.9979 88.7586 27.8257 88.5433 27.8257H82.6522C82.433 27.8257 82.2607 28.0018 82.2607 28.2171V33.157V39.7918V44.6417C82.2607 50.9007 85.8306 54.4902 92.0544 54.4902C93.444 54.4902 94.7397 54.2475 96.1332 53.7269C96.2389 53.6877 96.325 53.5977 96.368 53.4881C96.3994 53.3824 96.3876 53.2611 96.3289 53.1593Z" fill="#E73536"/>
<defs>
<linearGradient id="paint0_linear" x1="100.767" y1="23.0679" x2="116.229" y2="7.91524" gradientUnits="userSpaceOnUse">
<stop stop-color="#E73536"/>
<stop offset="1" stop-color="#EE6F38"/>
</linearGradient>
</defs>
</svg>
