<svg width="34" height="34" viewBox="0 0 34 34" fill="none" xmlns="http://www.w3.org/2000/svg">
<path fill-rule="evenodd" clip-rule="evenodd" d="M20.1234 17L23.8499 20.7264C24.2832 21.1598 24.2832 21.864 23.8499 22.2984L22.2984 23.8489C21.865 24.2832 21.1608 24.2832 20.7264 23.8489L17 20.1224L13.2725 23.8499C12.8392 24.2843 12.135 24.2843 11.7006 23.8499L10.1501 22.2994C9.71575 21.865 9.71575 21.1618 10.1501 20.7275L13.8776 17H13.8766L10.1501 13.2736C9.71575 12.8402 9.71575 12.136 10.1501 11.7016L11.7006 10.1511C12.135 9.71677 12.8392 9.71677 13.2736 10.1511L16.999 13.8776L20.7264 10.1501C21.1608 9.71575 21.865 9.71575 22.2984 10.1501L23.8499 11.7006C24.2832 12.135 24.2832 12.8382 23.8499 13.2725L20.1224 17H20.1234ZM17 0C7.61029 0 0 7.61131 0 17C0 26.3897 7.61029 34 17 34C26.3887 34 34 26.3897 34 17C34 7.61131 26.3887 0 17 0Z" fill="#D8D8D8"/>
</svg>
