<svg width="48" height="48" viewBox="0 0 48 48" fill="none" xmlns="http://www.w3.org/2000/svg">
<path d="M14.3403 21.5174C14.3403 21.5174 11.0703 19.6967 11.0703 17.4858C11.0704 17.095 11.2066 16.7163 11.4557 16.4141C11.7048 16.1119 12.0515 15.9048 12.4369 15.828C12.8222 15.7512 13.2224 15.8095 13.5694 15.993C13.9164 16.1765 14.1888 16.4738 14.3403 16.8343L14.3402 16.8343C14.4917 16.4738 14.7641 16.1765 15.1111 15.993C15.4581 15.8095 15.8583 15.7512 16.2436 15.828C16.629 15.9048 16.9757 16.1119 17.2248 16.4141C17.4739 16.7163 17.6101 17.095 17.6102 17.4858C17.6102 19.6967 14.3403 21.5174 14.3403 21.5174Z" fill="#FF4B3B"/>
<path d="M24.0356 21.5174C24.0356 21.5174 20.7656 19.6967 20.7656 17.4858C20.7657 17.095 20.9019 16.7163 21.151 16.4141C21.4001 16.1119 21.7468 15.9048 22.1322 15.828C22.5175 15.7512 22.9177 15.8095 23.2647 15.993C23.6117 16.1765 23.8841 16.4738 24.0356 16.8343L24.0356 16.8343C24.187 16.4738 24.4594 16.1765 24.8064 15.993C25.1534 15.8095 25.5536 15.7512 25.9389 15.828C26.3243 15.9048 26.671 16.1119 26.9201 16.4141C27.1693 16.7163 27.3054 17.095 27.3055 17.4858C27.3055 19.6967 24.0356 21.5174 24.0356 21.5174Z" fill="#FF4B3B"/>
<path d="M33.7309 21.5174C33.7309 21.5174 30.4609 19.6967 30.4609 17.4858C30.461 17.095 30.5972 16.7163 30.8463 16.4141C31.0954 16.1119 31.4422 15.9048 31.8275 15.828C32.2129 15.7512 32.613 15.8095 32.96 15.993C33.307 16.1765 33.5794 16.4738 33.7309 16.8343L33.7309 16.8343C33.8823 16.4738 34.1547 16.1765 34.5017 15.993C34.8487 15.8095 35.2489 15.7512 35.6342 15.828C36.0196 15.9048 36.3663 16.1119 36.6154 16.4141C36.8646 16.7163 37.0007 17.095 37.0008 17.4858C37.0008 19.6967 33.7309 21.5174 33.7309 21.5174Z" fill="#FF4B3B"/>
<path d="M19.4322 32.7092L20.6977 31.904L20.2557 31.2092H19.4322V32.7092ZM23.1551 38.5605L24.4206 37.7553L23.1551 38.5605ZM24.8425 38.5605L23.5769 37.7553L24.8425 38.5605ZM28.5653 32.7092V31.2092H27.7418L27.2998 31.904L28.5653 32.7092ZM4.94922 9C4.94922 7.067 6.51622 5.5 8.44922 5.5V2.5C4.85937 2.5 1.94922 5.41015 1.94922 9H4.94922ZM4.94922 27.7092V9H1.94922V27.7092H4.94922ZM8.44921 31.2092C6.51622 31.2092 4.94922 29.6422 4.94922 27.7092H1.94922C1.94922 31.2991 4.85936 34.2092 8.44921 34.2092V31.2092ZM19.4322 31.2092H8.44921V34.2092H19.4322V31.2092ZM24.4206 37.7553L20.6977 31.904L18.1666 33.5145L21.8895 39.3657L24.4206 37.7553ZM23.5769 37.7553C23.7734 37.4465 24.2241 37.4465 24.4206 37.7553L21.8895 39.3657C22.8719 40.9097 25.1257 40.9097 26.108 39.3657L23.5769 37.7553ZM27.2998 31.904L23.5769 37.7553L26.108 39.3657L29.8309 33.5145L27.2998 31.904ZM39.5483 31.2092H28.5653V34.2092H39.5483V31.2092ZM43.0483 27.7092C43.0483 29.6422 41.4813 31.2092 39.5483 31.2092V34.2092C43.1382 34.2092 46.0483 31.2991 46.0483 27.7092H43.0483ZM43.0483 9V27.7092H46.0483V9H43.0483ZM39.5483 5.5C41.4813 5.5 43.0483 7.067 43.0483 9H46.0483C46.0483 5.41015 43.1382 2.5 39.5483 2.5V5.5ZM8.44922 5.5H39.5483V2.5H8.44922V5.5Z" fill="#FF4B3B"/>
</svg>
