<svg width="636" height="100" viewBox="0 0 636 100" fill="none" xmlns="http://www.w3.org/2000/svg">
<circle cx="50" cy="50" r="50" fill="white"/>
<mask id="path-2-inside-1" fill="white">
<path fill-rule="evenodd" clip-rule="evenodd" d="M64.1455 75.5382C53.5716 75.5382 44.9999 67.5827 44.9999 57.7691C44.9999 47.9555 53.5716 40 64.1455 40C74.7193 40 83.291 47.9555 83.291 57.7691C83.291 63.5004 80.3674 68.5979 75.8288 71.8472C75.8725 71.9661 75.896 72.0962 75.8945 72.2347L75.8273 78.5995C75.8183 79.4487 74.8806 79.9582 74.1632 79.5037L67.4812 75.2694C66.3979 75.446 65.2833 75.5382 64.1455 75.5382Z"/>
</mask>
<path d="M75.8288 71.8472L72.0734 73.2244C71.4542 71.5359 72.038 69.6417 73.5004 68.5947L75.8288 71.8472ZM75.8945 72.2347L71.8948 72.1924H71.8948L75.8945 72.2347ZM75.8273 78.5995L79.8271 78.6418L75.8273 78.5995ZM74.1632 79.5037L72.0222 82.8824L72.0222 82.8824L74.1632 79.5037ZM67.4812 75.2694L66.8375 71.3215C67.8041 71.1639 68.795 71.3664 69.6223 71.8907L67.4812 75.2694ZM48.9999 57.7691C48.9999 65.0977 55.4945 71.5382 64.1455 71.5382V79.5382C51.6488 79.5382 40.9999 70.0676 40.9999 57.7691H48.9999ZM64.1455 44C55.4945 44 48.9999 50.4404 48.9999 57.7691H40.9999C40.9999 45.4705 51.6488 36 64.1455 36V44ZM79.291 57.7691C79.291 50.4404 72.7964 44 64.1455 44V36C76.6421 36 87.291 45.4705 87.291 57.7691H79.291ZM73.5004 68.5947C77.0976 66.0194 79.291 62.083 79.291 57.7691H87.291C87.291 64.9177 83.6372 71.1764 78.1573 75.0996L73.5004 68.5947ZM71.8948 72.1924C71.8911 72.5393 71.9508 72.89 72.0734 73.2244L79.5842 70.4699C79.7941 71.0422 79.9009 71.6532 79.8943 72.2769L71.8948 72.1924ZM71.8275 78.5573L71.8948 72.1924L79.8943 72.2769L79.8271 78.6418L71.8275 78.5573ZM76.3043 76.1249C74.3744 74.902 71.8517 76.2727 71.8275 78.5573L79.8271 78.6418C79.785 82.6247 75.3868 85.0144 72.0222 82.8824L76.3043 76.1249ZM69.6223 71.8907L76.3043 76.1249L72.0222 82.8824L65.3402 78.6482L69.6223 71.8907ZM64.1455 71.5382C65.0671 71.5382 65.9665 71.4636 66.8375 71.3215L68.125 79.2173C66.8294 79.4285 65.4994 79.5382 64.1455 79.5382V71.5382Z" fill="#231815" mask="url(#path-2-inside-1)"/>
<path fill-rule="evenodd" clip-rule="evenodd" d="M47.3755 73.9584C61.9422 73.9584 73.7509 62.9987 73.7509 49.4792C73.7509 35.9597 61.9422 25 47.3755 25C32.8087 25 21 35.9597 21 49.4792C21 57.334 24.9861 64.3247 31.1833 68.8039L31.2901 78.9111C31.2991 79.7603 32.2368 80.2698 32.9542 79.8153L42.7809 73.5883C44.273 73.8315 45.8083 73.9584 47.3755 73.9584Z" fill="#231815"/>
<path d="M38.7196 43.723C35.5712 43.723 33.0189 46.3913 33.0189 49.6829C33.0189 52.9744 35.5712 55.6428 38.7196 55.6428C41.0817 55.6428 43.1082 54.1409 43.9731 52.0006H47.6346C46.6429 56.184 43.0276 59.285 38.7196 59.285C33.6472 59.285 29.5352 54.986 29.5352 49.6829C29.5352 44.3798 33.6472 40.0808 38.7196 40.0808C43.0843 40.0808 46.7378 43.2638 47.6724 47.5307H44.0372C43.2117 45.3028 41.1421 43.723 38.7196 43.723Z" fill="white"/>
<path fill-rule="evenodd" clip-rule="evenodd" d="M54.0737 40.0801L54.0737 59.2842L50.873 59.2842L50.873 40.0801L54.0737 40.0801Z" fill="white"/>
<path d="M53.0922 47.7827C54.1699 46.6408 55.9942 45.4147 57.7012 45.4147C58.8709 45.4147 59.9171 45.6654 60.807 46.1851C61.6992 46.7061 62.3226 47.4323 62.7461 48.2095C63.5548 49.6933 63.6758 51.4401 63.6758 52.6878V59.2843H59.9203V52.6878C59.9203 51.5674 59.7852 50.608 59.4416 49.9776C59.2891 49.6977 59.1122 49.5147 58.9002 49.3909C58.6858 49.2657 58.3237 49.1358 57.7011 49.1358C56.5864 49.1358 55.5084 49.5963 55.0031 50.1317C54.5282 50.6348 54.329 51.1281 54.2784 51.2534C54.1788 51.6238 53.9796 52.5153 53.9796 53.1182L50.873 52.6878L51.2361 50.8272C51.3597 50.0314 52.0872 48.8475 53.0922 47.7827Z" fill="white"/>
<mask id="path-8-outside-2" maskUnits="userSpaceOnUse" x="19.2441" y="13" width="25" height="25" fill="black">
<rect fill="white" x="19.2441" y="13" width="25" height="25"/>
<path fill-rule="evenodd" clip-rule="evenodd" d="M34.7165 18.062C34.7165 16.3709 33.3456 15 31.6545 15C29.9634 15 28.5925 16.3709 28.5925 18.062L28.5925 22.3489H24.3061C22.615 22.3489 21.2441 23.7198 21.2441 25.4109C21.2441 27.102 22.6151 28.4729 24.3061 28.4729H28.5925L28.5925 32.7596C28.5925 34.4507 29.9634 35.8216 31.6545 35.8216C33.3456 35.8216 34.7165 34.4507 34.7165 32.7596V28.4729H39.0038C40.6949 28.4729 42.0658 27.102 42.0658 25.4109C42.0658 23.7198 40.6949 22.3489 39.0038 22.3489H34.7165V18.062Z"/>
</mask>
<path fill-rule="evenodd" clip-rule="evenodd" d="M34.7165 18.062C34.7165 16.3709 33.3456 15 31.6545 15C29.9634 15 28.5925 16.3709 28.5925 18.062L28.5925 22.3489H24.3061C22.615 22.3489 21.2441 23.7198 21.2441 25.4109C21.2441 27.102 22.6151 28.4729 24.3061 28.4729H28.5925L28.5925 32.7596C28.5925 34.4507 29.9634 35.8216 31.6545 35.8216C33.3456 35.8216 34.7165 34.4507 34.7165 32.7596V28.4729H39.0038C40.6949 28.4729 42.0658 27.102 42.0658 25.4109C42.0658 23.7198 40.6949 22.3489 39.0038 22.3489H34.7165V18.062Z" fill="#FE5C47"/>
<path d="M28.5925 18.062L30.5925 18.062V18.062H28.5925ZM28.5925 22.3489V24.3489H30.5925V22.3489H28.5925ZM28.5925 28.4729H30.5925L30.5925 26.4729H28.5925V28.4729ZM28.5925 32.7596H26.5925H28.5925ZM34.7165 28.4729V26.4729H32.7165V28.4729H34.7165ZM34.7165 22.3489H32.7165V24.3489H34.7165V22.3489ZM31.6545 17C32.241 17 32.7165 17.4755 32.7165 18.062H36.7165C36.7165 15.2663 34.4502 13 31.6545 13V17ZM30.5925 18.062C30.5925 17.4755 31.068 17 31.6545 17V13C28.8588 13 26.5925 15.2663 26.5925 18.062H30.5925ZM30.5925 22.3489L30.5925 18.062L26.5925 18.062L26.5925 22.3489H30.5925ZM24.3061 24.3489H28.5925V20.3489H24.3061V24.3489ZM23.2441 25.4109C23.2441 24.8243 23.7196 24.3489 24.3061 24.3489V20.3489C21.5105 20.3489 19.2441 22.6152 19.2441 25.4109H23.2441ZM24.3061 26.4729C23.7196 26.4729 23.2441 25.9974 23.2441 25.4109H19.2441C19.2441 28.2065 21.5105 30.4729 24.3061 30.4729V26.4729ZM28.5925 26.4729H24.3061V30.4729H28.5925V26.4729ZM30.5925 32.7596V28.4729H26.5925L26.5925 32.7596H30.5925ZM31.6545 33.8216C31.068 33.8216 30.5925 33.3461 30.5925 32.7596H26.5925C26.5925 35.5553 28.8588 37.8216 31.6545 37.8216V33.8216ZM32.7165 32.7596C32.7165 33.3461 32.241 33.8216 31.6545 33.8216V37.8216C34.4502 37.8216 36.7165 35.5553 36.7165 32.7596H32.7165ZM32.7165 28.4729V32.7596H36.7165V28.4729H32.7165ZM39.0038 26.4729H34.7165V30.4729H39.0038V26.4729ZM40.0658 25.4109C40.0658 25.9974 39.5903 26.4729 39.0038 26.4729V30.4729C41.7994 30.4729 44.0658 28.2065 44.0658 25.4109H40.0658ZM39.0038 24.3489C39.5903 24.3489 40.0658 24.8244 40.0658 25.4109H44.0658C44.0658 22.6152 41.7994 20.3489 39.0038 20.3489V24.3489ZM34.7165 24.3489H39.0038V20.3489H34.7165V24.3489ZM32.7165 18.062V22.3489H36.7165V18.062H32.7165Z" fill="white" mask="url(#path-8-outside-2)"/>
<path d="M265.992 83.528H262.856V69.096H260.04V82.184H256.936V55.592H260.04V66.344H262.856V55.016H265.992V83.528ZM256.072 75.112L254.184 77.448C253.096 76.7653 252.029 75.8053 250.984 74.568C249.96 73.3307 249.277 72.0827 248.936 70.824C248.616 72.2107 247.923 73.5867 246.856 74.952C245.811 76.3173 244.669 77.3733 243.432 78.12L241.384 75.912C245.288 73.4373 247.283 69.7573 247.368 64.872H242.408V62.216H255.336V64.872H250.568C250.696 69.6933 252.531 73.1067 256.072 75.112ZM252.712 60.008H245.256V57.352H252.712V60.008ZM294.032 83.272H274.576V75.912H289.84V73.672H274.448V71.016H293.104V78.344H277.872V80.68H294.032V83.272ZM289.84 59.56V55.016H293.104V69.576H289.84V62.28H282.48V59.56H289.84ZM285.776 64.872L286.256 67.56C283.376 68.3067 279.301 68.7013 274.032 68.744L271.12 68.776V56.36H274.384V65.992C278.757 65.992 282.554 65.6187 285.776 64.872ZM328.973 62.248H320.493C320.963 63.656 322.125 64.84 323.981 65.8C325.859 66.76 327.939 67.3467 330.221 67.56L328.781 70.184C326.776 69.9493 324.781 69.32 322.797 68.296C320.835 67.2507 319.448 66.0667 318.637 64.744C317.912 66.1093 316.589 67.304 314.669 68.328C312.749 69.352 310.68 70.0027 308.461 70.28L306.989 67.656C309.379 67.3787 311.501 66.7707 313.357 65.832C315.213 64.872 316.365 63.6773 316.813 62.248H308.269V59.656H328.973V62.248ZM320.205 83.528H316.941V74.664H305.741V72.072H331.501V74.664H320.205V83.528ZM313.965 57.8V55.176H323.245V57.8H313.965ZM359.797 68.872H355.573V83.528H352.277V55.016H355.573V66.152H359.797V68.872ZM348.085 58.024C347.85 66.92 343.594 73.64 335.317 78.184L333.269 75.688C336.49 74.216 339.103 72.1147 341.109 69.384C343.135 66.6533 344.287 63.7627 344.565 60.712H334.933V58.024H348.085ZM376.028 71.784C376.028 73.512 375.399 74.9627 374.14 76.136C372.882 77.288 371.25 77.864 369.244 77.864C367.218 77.864 365.564 77.2987 364.284 76.168C363.026 75.016 362.396 73.5547 362.396 71.784C362.396 70.056 363.026 68.616 364.284 67.464C365.564 66.2907 367.218 65.704 369.244 65.704C371.25 65.704 372.882 66.28 374.14 67.432C375.399 68.5627 376.028 70.0133 376.028 71.784ZM371.836 74.248C372.476 73.608 372.796 72.7867 372.796 71.784C372.796 70.7813 372.455 69.9707 371.772 69.352C371.111 68.712 370.268 68.392 369.244 68.392C368.199 68.392 367.346 68.712 366.684 69.352C366.023 69.9707 365.692 70.7813 365.692 71.784C365.692 72.7867 366.023 73.608 366.684 74.248C367.346 74.8667 368.199 75.176 369.244 75.176C370.332 75.176 371.196 74.8667 371.836 74.248ZM377.468 64.328H360.892V61.672H377.468V64.328ZM364.924 59.368V56.68H373.564V59.368H364.924ZM383.26 55.016V66.728H387.676V69.48H383.26V83.528H379.964V55.016H383.26ZM414.564 79.368H388.804V76.712H398.436V66.952H401.7V76.712H414.564V79.368ZM411.364 57.736C411.364 64.9893 410.948 70.3227 410.116 73.736L406.98 73.256C407.705 70.0133 408.068 65.7253 408.068 60.392H391.78V57.736H411.364ZM439.746 62.568C439.746 64.424 439.052 65.9387 437.666 67.112C436.279 68.264 434.53 68.84 432.418 68.84C430.37 68.84 428.652 68.264 427.266 67.112C425.879 65.96 425.186 64.4453 425.186 62.568C425.186 60.6693 425.868 59.112 427.234 57.896C428.62 56.6587 430.348 56.04 432.418 56.04C434.53 56.04 436.279 56.648 437.666 57.864C439.052 59.08 439.746 60.648 439.746 62.568ZM436.482 62.536C436.482 61.448 436.108 60.552 435.362 59.848C434.615 59.1227 433.634 58.76 432.418 58.76C431.308 58.76 430.359 59.1333 429.57 59.88C428.78 60.6053 428.386 61.4907 428.386 62.536C428.386 63.5813 428.77 64.4453 429.538 65.128C430.306 65.7893 431.266 66.12 432.418 66.12C433.612 66.12 434.583 65.7787 435.33 65.096C436.098 64.392 436.482 63.5387 436.482 62.536ZM447.97 83.208H428.706V75.848H443.746V73.672H428.641V71.048H447.042V78.28H431.97V80.552H447.97V83.208ZM451.202 63.688H447.042V69.352H443.746V55.016H447.042V61H451.202V63.688ZM476.041 71.752H472.777V55.016H476.041V71.752ZM476.041 83.144H456.873V73.224H476.041V83.144ZM472.777 80.552V75.784H460.137V80.552H472.777ZM469.289 67.176L469.705 69.736C466.932 70.3333 462.9 70.6533 457.609 70.696H454.025V62.152H463.497V59.24H453.897V56.616H466.793V64.68H457.321V68.04C462.91 68.04 466.9 67.752 469.289 67.176ZM502.929 67.336H494.737V69.864H506.033V72.52H480.273V69.864H491.473V67.336H483.697V55.752H502.737V58.376H486.993V60.264H501.745V62.792H486.993V64.776H502.929V67.336ZM483.281 74.6H502.673V83.624H499.409V77.224H483.281V74.6ZM542.67 64.552H538.51V70.888H535.214V55.016H538.51V61.8H542.67V64.552ZM538.894 83.176H520.334V72.52H538.638V75.176H523.63V80.52H538.894V83.176ZM530.478 69.736H517.166V56.424H520.462V60.648H527.182V56.36H530.478V69.736ZM527.182 67.144V63.208H520.462V67.144H527.182ZM569.814 79.72H544.054V77.128H569.814V79.72ZM564.406 59.272C566.326 60.616 567.286 62.344 567.286 64.456C567.286 66.568 566.336 68.296 564.438 69.64C562.539 70.984 560.032 71.656 556.918 71.656C553.846 71.656 551.36 70.984 549.462 69.64C547.563 68.296 546.614 66.568 546.614 64.456C546.614 62.3653 547.563 60.648 549.462 59.304C551.36 57.9387 553.846 57.256 556.918 57.256C560.011 57.256 562.507 57.928 564.406 59.272ZM563.926 64.488C563.926 63.1227 563.286 62.024 562.006 61.192C560.726 60.36 559.03 59.944 556.918 59.944C554.827 59.944 553.142 60.36 551.862 61.192C550.582 62.024 549.942 63.1227 549.942 64.488C549.942 65.832 550.582 66.92 551.862 67.752C553.142 68.5627 554.827 68.968 556.918 68.968C559.03 68.968 560.726 68.5627 562.006 67.752C563.286 66.92 563.926 65.832 563.926 64.488ZM595.773 83.528H592.637V55.016H595.773V83.528ZM590.141 82.184H587.069V67.688H582.973V64.968H587.069V55.592H590.141V82.184ZM586.173 74.184L584.285 76.456C583.197 75.7733 582.12 74.7493 581.053 73.384C580.008 71.9973 579.283 70.6 578.877 69.192C578.536 70.7493 577.843 72.2533 576.797 73.704C575.752 75.1547 574.536 76.3173 573.149 77.192L571.165 74.952C572.979 73.7573 574.451 72.0613 575.581 69.864C576.712 67.6453 577.277 65.128 577.277 62.312V57.832H580.445V62.28C580.445 64.9253 580.968 67.3147 582.013 69.448C583.08 71.56 584.467 73.1387 586.173 74.184ZM622.661 64.264C622.661 66.44 621.711 68.2107 619.813 69.576C617.914 70.92 615.407 71.592 612.293 71.592C609.221 71.592 606.735 70.92 604.837 69.576C602.938 68.2107 601.989 66.44 601.989 64.264C601.989 62.1093 602.938 60.3493 604.837 58.984C606.735 57.6187 609.221 56.936 612.293 56.936C615.407 56.936 617.914 57.6187 619.813 58.984C621.711 60.3493 622.661 62.1093 622.661 64.264ZM617.381 67.624C618.661 66.7707 619.301 65.6507 619.301 64.264C619.301 62.8773 618.661 61.768 617.381 60.936C616.101 60.0827 614.405 59.656 612.293 59.656C610.202 59.656 608.517 60.0827 607.237 60.936C605.957 61.768 605.317 62.8773 605.317 64.264C605.317 65.6507 605.957 66.7707 607.237 67.624C608.517 68.456 610.202 68.872 612.293 68.872C614.405 68.872 616.101 68.456 617.381 67.624ZM625.189 79.912H599.429V77.288H605.381V72.328L608.709 72.296V77.288H615.813V72.296L619.109 72.328V77.288H625.189V79.912ZM629.164 73.32L628.748 57H632.428L632.012 73.32H629.164ZM628.844 80.008V76.552H632.364V80.008H628.844Z" fill="#3B1E1E"/>
<path d="M144.856 22.16C144.856 23.696 144.344 24.944 143.32 25.904C142.312 26.848 140.992 27.32 139.36 27.32C137.728 27.32 136.408 26.84 135.4 25.88C134.392 24.92 133.888 23.68 133.888 22.16C133.888 20.64 134.392 19.376 135.4 18.368C136.424 17.344 137.744 16.832 139.36 16.832C140.976 16.832 142.296 17.344 143.32 18.368C144.344 19.376 144.856 20.64 144.856 22.16ZM142.384 22.136C142.384 21.176 142.112 20.4 141.568 19.808C141.024 19.2 140.288 18.896 139.36 18.896C138.48 18.896 137.76 19.208 137.2 19.832C136.64 20.44 136.36 21.208 136.36 22.136C136.36 23.048 136.64 23.8 137.2 24.392C137.76 24.984 138.48 25.28 139.36 25.28C140.288 25.28 141.024 24.992 141.568 24.416C142.112 23.824 142.384 23.064 142.384 22.136ZM153.448 23.264H150.328V29.504H147.856V15.512H150.328V21.224H153.448V23.264ZM151.888 35.192L150.688 37.136C149.264 36.864 147.856 36.264 146.464 35.336C145.088 34.408 144.152 33.456 143.656 32.48C143.24 33.488 142.336 34.448 140.944 35.36C139.568 36.288 138.12 36.872 136.6 37.112L135.448 35.168C137.256 34.96 138.872 34.304 140.296 33.2C141.72 32.08 142.432 30.792 142.432 29.336V28.472H144.976V29.336C144.976 30.776 145.68 32.04 147.088 33.128C148.496 34.216 150.096 34.904 151.888 35.192ZM156.022 29.24L155.71 17H158.47L158.158 29.24H156.022ZM155.782 34.256V31.664H158.422V34.256H155.782ZM185.039 36.896H182.591V15.512H185.039V36.896ZM169.535 30.104C168.559 28.744 168.071 26.928 168.071 24.656C168.071 22.384 168.559 20.568 169.535 19.208C170.511 17.848 171.847 17.168 173.543 17.168C175.239 17.168 176.567 17.848 177.527 19.208C178.487 20.568 178.967 22.392 178.967 24.68C178.967 26.952 178.487 28.768 177.527 30.128C176.567 31.472 175.239 32.144 173.543 32.144C171.847 32.144 170.511 31.464 169.535 30.104ZM175.775 28.688C176.351 27.696 176.639 26.352 176.639 24.656C176.639 22.96 176.351 21.624 175.775 20.648C175.215 19.672 174.471 19.184 173.543 19.184C172.631 19.184 171.895 19.672 171.335 20.648C170.775 21.624 170.495 22.96 170.495 24.656C170.495 26.352 170.775 27.696 171.335 28.688C171.895 29.664 172.631 30.152 173.543 30.152C174.471 30.152 175.215 29.664 175.775 28.688ZM198.796 30.152L197.356 31.928C196.588 31.448 195.812 30.704 195.028 29.696C194.26 28.672 193.74 27.672 193.468 26.696C193.228 27.736 192.708 28.808 191.908 29.912C191.108 31 190.236 31.832 189.292 32.408L187.756 30.752C190.78 28.752 192.292 25.68 192.292 21.536V19.952H188.524V17.96H198.196V19.952H194.692V21.464C194.692 23.528 195.06 25.312 195.796 26.816C196.548 28.32 197.548 29.432 198.796 30.152ZM201.988 35.888H199.684V25.16H196.756V23.12H199.684V15.944H201.988V35.888ZM206.236 36.896H203.884V15.512H206.236V36.896ZM225.802 36.632H211.45V29.6H217.378V27.656H208.978V25.688H228.298V27.656H219.826V29.6H225.802V36.632ZM226.306 24.08H210.874V22.088H214.09L213.514 18.8L215.938 18.656L216.394 22.088H220.786L221.314 18.632L223.738 18.896L223.114 22.088H226.306V24.08ZM226.33 17.984H210.826V15.992H226.33V17.984ZM223.354 34.664V31.52H213.898V34.664H223.354ZM252.8 16.736C252.8 20.496 252.56 23.536 252.08 25.856H255.368V27.848H246.896V36.896H244.448V27.848H236.048V25.856H249.728C250.096 24.128 250.296 21.76 250.328 18.752H238.496V16.736H252.8ZM266.054 18.104V31.232H257.51V18.104H266.054ZM274.838 36.896H272.462V26.072H270.446V35.888H268.118V15.944H270.446V24.008H272.462V15.512H274.838V36.896ZM263.75 29.312V20.048H259.838V29.312H263.75ZM296.899 27.176H277.579V25.328H296.899V27.176ZM295.003 36.728H280.051V31.784H291.979V30.344H279.979V28.568H294.427V33.512H282.499V34.976H295.003V36.728ZM294.763 24.032H280.123V19.232H291.835V17.864H280.075V16.064H294.307V20.888H282.595V22.232H294.763V24.032ZM321.594 21.824H315.498V23.672H323.97V25.544H304.65V23.672H313.05V21.824H307.266V15.728H309.738V19.856H321.594V21.824ZM314.322 31.76C318.498 31.76 320.586 32.64 320.586 34.4C320.586 36.16 318.498 37.04 314.322 37.04C310.146 37.04 308.058 36.16 308.058 34.4C308.058 32.64 310.146 31.76 314.322 31.76ZM322.17 31.064H306.498V29.288H322.17V31.064ZM318.09 34.4C318.09 33.728 316.834 33.392 314.322 33.392C311.794 33.392 310.53 33.728 310.53 34.4C310.53 35.088 311.794 35.432 314.322 35.432C316.834 35.432 318.09 35.088 318.09 34.4ZM317.778 28.4H310.89V26.6H317.778V28.4ZM337.871 26.696L336.599 28.64C335.687 28.336 334.759 27.816 333.815 27.08C332.887 26.344 332.199 25.536 331.751 24.656C331.383 25.632 330.711 26.552 329.735 27.416C328.775 28.264 327.743 28.872 326.639 29.24L325.247 27.344C328.543 26.24 330.287 24.192 330.479 21.2H326.111V19.232H337.103V21.2H332.999C333.063 22.56 333.527 23.712 334.391 24.656C335.271 25.6 336.431 26.28 337.871 26.696ZM337.655 22.496V20.552H340.559V15.512H343.007V28.184H340.559V26.12H337.655V24.176H340.559V22.496H337.655ZM334.775 17.888H328.703V15.92H334.775V17.888ZM344.975 35.072L343.631 36.848C342.847 36.528 342.079 36 341.327 35.264C340.575 34.528 340.055 33.776 339.767 33.008C339.575 33.792 339.087 34.576 338.303 35.36C337.535 36.144 336.711 36.76 335.831 37.208L334.415 35.552C337.167 34.304 338.543 32.36 338.543 29.72V28.904H340.943V29.696C340.943 31.008 341.303 32.128 342.023 33.056C342.743 33.968 343.727 34.64 344.975 35.072ZM334.199 35.096C333.095 34.488 332.343 33.752 331.943 32.888C331.671 33.736 331.159 34.536 330.407 35.288C329.655 36.04 328.783 36.632 327.791 37.064L326.423 35.408C327.655 34.88 328.663 34.144 329.447 33.2C330.231 32.256 330.623 31.152 330.623 29.888V29.024H333.023V29.768C333.023 30.744 333.295 31.536 333.839 32.144C334.399 32.736 335.047 33.144 335.783 33.368L334.199 35.096ZM365.981 25.76H362.765V36.896H360.317V15.512H362.765V23.696H365.981V25.76ZM358.325 28.928L358.637 30.944C356.317 31.424 353.205 31.664 349.301 31.664H347.045V17.504H356.765V19.52H349.469V29.6C352.941 29.664 355.893 29.44 358.325 28.928ZM378.755 20.912V18.92H382.091V15.512H384.539V31.016H382.091V25.64H378.755V23.624H382.091V20.912H378.755ZM384.995 36.272H370.595V29.672H373.067V34.304H384.995V36.272ZM377.651 27.248H367.883V17.36H377.651V27.248ZM375.179 25.352V19.28H370.331V25.352H375.179ZM390.184 29.24V28.088C390.184 27.336 390.352 26.736 390.688 26.288C391.04 25.84 391.688 25.24 392.632 24.488C393.576 23.704 394.048 22.632 394.048 21.272C394.048 19.784 393.104 19.04 391.216 19.04C390.288 19.04 389.224 19.24 388.024 19.64V17.792C389.096 17.312 390.368 17.072 391.84 17.072C393.248 17.072 394.392 17.408 395.272 18.08C396.168 18.736 396.616 19.76 396.616 21.152C396.616 22.144 396.432 22.976 396.064 23.648C395.712 24.304 395.088 25.008 394.192 25.76C393.712 26.128 393.368 26.408 393.16 26.6C392.968 26.776 392.792 27.008 392.632 27.296C392.472 27.584 392.392 27.912 392.392 28.28V29.24H390.184ZM389.992 34.256V31.664H392.632V34.256H389.992Z" fill="#3B1E1E"/>
<path d="M177.34 59.9857C170.826 59.9857 165.521 65.2898 165.521 71.8047C165.521 78.3196 170.826 83.6196 177.34 83.6196C183.855 83.6196 189.155 78.3196 189.155 71.8047C189.155 65.2898 183.855 59.9857 177.34 59.9857ZM177.34 77.7876C174.039 77.7876 171.353 75.102 171.353 71.8047C171.353 68.5033 174.039 65.8177 177.34 65.8177C180.638 65.8177 183.323 68.5033 183.323 71.8047C183.323 75.102 180.638 77.7876 177.34 77.7876Z" fill="#FF403B"/>
<path d="M203.7 77.6239C203.675 77.515 203.6 77.4186 203.495 77.3768C203.394 77.3349 203.273 77.3432 203.177 77.4019C202.712 77.6994 202.234 77.8292 201.622 77.8292C199.62 77.8292 198.907 76.9494 198.907 74.4691V70.246H203.369C203.558 70.246 203.713 70.0951 203.713 69.9024V64.8078C203.713 64.6193 203.562 64.4642 203.369 64.4642H198.907V60.1573C198.907 59.9687 198.756 59.8137 198.564 59.8137H193.431C193.243 59.8137 193.088 59.9645 193.088 60.1573V64.4642V70.246V74.4733C193.088 79.9282 196.197 83.0579 201.622 83.0579C202.833 83.0579 203.96 82.8484 205.179 82.396C205.271 82.3624 205.347 82.2828 205.38 82.1865C205.414 82.0901 205.401 81.9854 205.351 81.8974C204.551 80.5567 203.994 79.1196 203.7 77.6239Z" fill="#FF403B"/>
<path d="M162.939 79.5974C162.923 79.5806 161.067 77.7874 161.067 72.7179V54.3254C161.067 54.1368 160.916 53.9818 160.723 53.9818H155.394C155.205 53.9818 155.05 54.1326 155.05 54.3254V64.9671H142.016V54.3254C142.016 54.1368 141.866 53.9818 141.673 53.9818H136.344C136.151 53.9818 136 54.1326 136 54.3254V73.0866C136 74.6159 136.025 77.8545 137.81 81.1475C138.237 81.9352 138.765 82.593 139.419 83.0035C139.477 83.0413 139.549 83.0622 139.616 83.0622C139.687 83.0622 139.762 83.0413 139.825 82.9952L143.881 80.2007C143.977 80.1336 144.036 80.0247 144.04 79.9032C144.044 79.7859 143.99 79.6728 143.893 79.6015C143.877 79.5848 142.016 77.7916 142.016 72.5629V70.753H155.05V73.0741C155.05 73.0783 155.046 73.0824 155.046 73.0908C155.046 73.1202 155.05 73.2165 155.05 73.3548C155.05 75.3072 155.26 78.2022 156.856 81.1517C157.283 81.9394 157.811 82.5972 158.465 83.0077C158.524 83.0454 158.595 83.0664 158.662 83.0664C158.733 83.0664 158.808 83.0454 158.871 82.9994L162.927 80.2049C163.023 80.1378 163.082 80.0289 163.086 79.9074C163.086 79.7817 163.032 79.6686 162.939 79.5974Z" fill="#FF403B"/>
<path d="M219.951 81.8932C219.146 80.5567 218.589 79.1196 218.3 77.6239C218.275 77.515 218.199 77.4186 218.095 77.3768C217.994 77.3349 217.873 77.3432 217.776 77.4019C217.311 77.6994 216.834 77.8292 216.222 77.8292C214.219 77.8292 213.507 76.9494 213.507 74.4691V70.246H217.969C218.157 70.246 218.312 70.0951 218.312 69.9024V64.8078C218.312 64.6193 218.162 64.4642 217.969 64.4642H213.507V60.1573C213.507 59.9687 213.356 59.8137 213.163 59.8137H208.031C207.843 59.8137 207.688 59.9645 207.688 60.1573V64.4642V70.246V74.4733C207.688 79.9282 210.796 83.0579 216.222 83.0579C217.433 83.0579 218.56 82.8484 219.779 82.396C219.871 82.3624 219.946 82.2828 219.98 82.1865C220.013 82.0859 220.001 81.9812 219.951 81.8932Z" fill="#FF403B"/>
<path d="M231.192 46.8118C230.161 43.9574 227.466 42 224.327 42C220.286 42 217 45.2861 217 49.3267V52.5961V52.5919V61H228.682C232.718 60.9958 236 57.7097 236 53.6733C236 50.5381 234.047 47.8429 231.192 46.8118ZM230.744 55.2828C230.22 56.0037 229.377 56.4816 228.422 56.4816H228.418H227.839H227.018H221.523V50.9991V50.1021V49.595V49.5908C221.523 48.8154 221.833 48.1112 222.336 47.5914C222.835 47.1178 223.505 46.8202 224.247 46.8202C225.777 46.8202 227.022 48.0609 227.022 49.595V50.9991H228.426C229.956 50.9991 231.201 52.2398 231.201 53.7739C231.192 54.3313 231.025 54.8469 230.744 55.2828Z" fill="#FF403B"/>
</svg>
