<svg width="50" height="50" viewBox="0 0 130 130" fill="none" xmlns="http://www.w3.org/2000/svg">
<circle cx="65" cy="65" r="60.4359" fill="white" fill-opacity="0.8" stroke="#F20000" stroke-width="9.12815"/>
<path d="M43.0015 40.0867H24.2127V49.2209H32.5376V87.2032H43.0015V40.0867ZM55.3719 87.2032H67.2811L79.4216 67.9519C82.1965 63.5582 83.6996 60.0317 83.6996 55.4646C83.6996 45.4053 75.6638 38.9883 65.8358 38.9883C56.0079 38.9883 47.972 45.4632 47.972 55.5224C47.972 65.0613 55.5454 71.4784 64.7374 71.4784C65.2577 71.4784 65.778 71.3628 66.0671 71.2472L55.3719 87.2032ZM65.8358 62.9223C61.1531 62.9223 58.2047 59.627 58.2047 55.4068C58.2047 51.1865 61.1531 47.8912 65.8358 47.8912C70.5186 47.8912 73.467 51.1865 73.467 55.4068C73.467 59.627 70.5186 62.9223 65.8358 62.9223Z" fill="#222222"/>
<path fill-rule="evenodd" clip-rule="evenodd" d="M103.69 52.6194H95.9521V61.905H86.6665L86.6665 69.6431H95.9521V78.9289H103.69V69.6431H112.976V61.905H103.69V52.6194Z" fill="#222222"/>
</svg>
