<svg width="30" height="30" viewBox="0 0 30 30" fill="none" xmlns="http://www.w3.org/2000/svg">
<path fill-rule="evenodd" clip-rule="evenodd" d="M24.7051 10.6361L23.3033 9.28432C22.9092 8.90523 22.2731 8.90523 21.8808 9.28432L15 15.9193L8.12009 9.28432C7.72695 8.90523 7.09078 8.90523 6.69675 9.28432L5.29485 10.6361C4.90172 11.0144 4.90172 11.6287 5.29485 12.0086L12.9182 19.3587C12.9217 19.363 12.9226 19.3682 12.9271 19.3716L14.329 20.7243C14.5148 20.9035 14.7561 20.9914 15 21C15.2439 20.9914 15.4852 20.9035 15.671 20.7243L17.0729 19.3716C17.0774 19.3682 17.0783 19.363 17.0827 19.3587L24.7051 12.0086C25.0983 11.6287 25.0983 11.0144 24.7051 10.6361Z" fill="#666666"/>
<rect width="30" height="30" fill="#D8D8D8" fill-opacity="0.01"/>
</svg>
