<svg width="42" height="42" viewBox="0 0 42 42" fill="none" xmlns="http://www.w3.org/2000/svg">
<path d="M21.0032 35.4375C21.0032 35.4375 4.59695 26.25 4.59695 15.0938C4.59729 13.122 5.28053 11.2111 6.53051 9.68613C7.78048 8.16114 9.52005 7.11613 11.4534 6.72878C13.3868 6.34142 15.3947 6.63563 17.1357 7.56138C18.8767 8.48713 20.2433 9.98728 21.0032 11.8068L21.0032 11.8068C21.7631 9.98729 23.1297 8.48714 24.8707 7.56139C26.6117 6.63564 28.6196 6.34143 30.553 6.72878C32.4864 7.11613 34.2259 8.16114 35.4759 9.68612C36.7259 11.2111 37.4091 13.122 37.4095 15.0938C37.4095 26.25 21.0032 35.4375 21.0032 35.4375Z" stroke="#6F6F6F" stroke-width="2" stroke-linecap="round" stroke-linejoin="round"/>
</svg>
