<svg width="80" height="80" viewBox="0 0 80 80" fill="none" xmlns="http://www.w3.org/2000/svg">
<path fill-rule="evenodd" clip-rule="evenodd" d="M40 80C62.0914 80 80 62.0914 80 40C80 17.9086 62.0914 0 40 0C17.9086 0 0 17.9086 0 40C0 62.0914 17.9086 80 40 80Z" fill="white"/>
<path fill-rule="evenodd" clip-rule="evenodd" d="M38.076 20.2896C38.076 19.0251 39.1278 18 40.4253 18C52.8729 18 63 27.8689 63 40C63 52.1311 52.8729 62 40.4253 62C28.8672 62 19.3167 53.4898 18.0091 42.5618H14.6354C14.0299 42.5618 13.4728 42.2353 13.1902 41.7126C12.9063 41.1899 12.9425 40.558 13.2835 40.07L18.8488 32.1047C19.1536 31.6684 19.6597 31.4074 20.2014 31.4074C20.7424 31.4074 21.2492 31.6684 21.5533 32.1047L27.1186 40.07C27.4596 40.558 27.4951 41.1899 27.2119 41.7126C26.9286 42.2353 26.3721 42.5618 25.766 42.5618H22.7447C24.0208 50.9568 31.4615 57.4208 40.4253 57.4208C50.2826 57.4208 58.3013 49.6053 58.3013 40C58.3013 30.3941 50.2826 22.5792 40.4253 22.5792C39.1278 22.5792 38.076 21.5541 38.076 20.2896ZM48.3877 48.25L39.0339 42.0062C38.388 41.5758 38 40.8491 38 40.072V27.1667H42.6424V38.8279L50.963 44.3815L48.3877 48.25Z" fill="#BBBBBB"/>
</svg>
