<svg width="48" height="48" viewBox="0 0 48 48" fill="none" xmlns="http://www.w3.org/2000/svg">
<path fill-rule="evenodd" clip-rule="evenodd" d="M10.4924 9.78931H37.5076C38.0975 9.78931 38.6817 9.89352 39.2268 10.096C39.7718 10.2985 40.267 10.5952 40.6842 10.9693C41.1014 11.3434 41.4323 11.7876 41.658 12.2764C41.8838 12.7652 42 13.2891 42 13.8181V37.971C42 38.5017 41.8831 39.0273 41.6559 39.5174C41.4287 40.0075 41.0958 40.4525 40.6763 40.8269C40.2567 41.2013 39.7588 41.4976 39.2112 41.6989C38.6636 41.9002 38.077 42.0024 37.4851 41.9998L10.47 41.887C9.28239 41.8817 8.14549 41.4548 7.30785 40.6999C6.47021 39.9449 5.99999 38.9232 6 37.8581V13.8181C6 12.7496 6.47331 11.7249 7.3158 10.9693C8.15829 10.2138 9.30096 9.78931 10.4924 9.78931V9.78931Z" stroke="#3D3D3D" stroke-width="3" stroke-linecap="round" stroke-linejoin="round"/>
<path d="M16.7969 6V13.2" stroke="#3D3D3D" stroke-width="3" stroke-linecap="round" stroke-linejoin="round"/>
<path d="M31.2031 6V13.2" stroke="#3D3D3D" stroke-width="3" stroke-linecap="round" stroke-linejoin="round"/>
<path d="M6 20.3988H42" stroke="#3D3D3D" stroke-width="3" stroke-linecap="round" stroke-linejoin="round"/>
<path d="M31.5777 25.8956L22.104 35.3693L17.3672 30.6327" stroke="#3D3D3D" stroke-width="3" stroke-linecap="round" stroke-linejoin="round"/>
</svg>
