<svg width="120" height="120" viewBox="0 0 120 120" fill="none" xmlns="http://www.w3.org/2000/svg">
<path fill-rule="evenodd" clip-rule="evenodd" d="M46.2726 0C20.7606 0 0.00886448 20.7586 0.00886448 46.268V46.268V66.9084L0 66.8952V120H73.7688C99.2615 119.978 120 99.2311 120 73.7408V73.7408C120 53.9218 107.658 36.9036 89.6362 30.3933V30.3933C83.1356 12.3514 66.1054 0 46.2726 0ZM26.4807 55.932V49.7836V46.3076V46.2736C26.4807 40.9525 28.6156 36.1366 32.0447 32.5779V32.5779C35.459 29.3205 40.0552 27.2952 45.1434 27.2952V27.2952C55.6449 27.2952 64.1577 35.8072 64.1577 46.3076V46.3076V55.932H73.7727C84.2727 55.932 92.787 64.444 92.787 74.9429V74.9429C92.787 78.7617 91.6361 82.3027 89.6978 85.2823V85.2823C86.1136 90.2356 80.331 93.4974 73.7727 93.5092V93.5092C73.7594 93.5092 73.7476 93.5122 73.7358 93.5122V93.5122H69.7615H64.1577H26.4807V55.932Z" fill="#EEEEEE"/>
</svg>
