<svg width="42" height="42" viewBox="0 0 42 42" fill="none" xmlns="http://www.w3.org/2000/svg">
<path d="M7.45313 29.0388C5.4963 25.74 4.811 21.8404 5.52591 18.0721C6.24083 14.3038 8.30679 10.9262 11.3358 8.57334C14.3649 6.22052 18.1487 5.05439 21.9767 5.29394C25.8047 5.53348 29.4135 7.16222 32.1256 9.87431C34.8378 12.5864 36.4665 16.1953 36.7061 20.0233C36.9456 23.8513 35.7795 27.6351 33.4267 30.6641C31.0739 33.6932 27.6962 35.7591 23.928 36.4741C20.1597 37.189 16.2601 36.5037 12.9613 34.5469L12.9614 34.5468L7.52161 36.101C7.29655 36.1653 7.05839 36.1682 6.8318 36.1095C6.60522 36.0508 6.39846 35.9326 6.23295 35.7671C6.06744 35.6015 5.9492 35.3948 5.89049 35.1682C5.83178 34.9416 5.83473 34.7035 5.89903 34.4784L7.45325 29.0386L7.45313 29.0388Z" stroke="#6F6F6F" stroke-width="2" stroke-linecap="round" stroke-linejoin="round"/>
</svg>
