<svg width="30" height="30" viewBox="0 0 30 30" fill="none" xmlns="http://www.w3.org/2000/svg">
<path fill-rule="evenodd" clip-rule="evenodd" d="M9.90882 3.35382L8.33171 5.0361C7.88943 5.50893 7.88943 6.27234 8.33171 6.74303L16.0725 15L8.33171 23.2559C7.88943 23.7277 7.88943 24.4911 8.33171 24.9639L9.90882 26.6462C10.3501 27.1179 11.0668 27.1179 11.5101 26.6462L20.0852 17.4982C20.0902 17.4939 20.0962 17.4929 20.1002 17.4875L21.6783 15.8052C21.8874 15.5822 21.9899 15.2927 22 15C21.9899 14.7073 21.8874 14.4178 21.6783 14.1948L20.1002 12.5125C20.0962 12.5071 20.0902 12.5061 20.0852 12.5007L11.5101 3.35382C11.0668 2.88206 10.3501 2.88206 9.90882 3.35382Z" fill="#D8D8D8"/>
<rect width="30" height="30" fill="#D8D8D8" fill-opacity="0.01"/>
</svg>
