<svg width="24" height="24" viewBox="0 0 24 24" fill="none" xmlns="http://www.w3.org/2000/svg">
<path d="M7.34761 8.70039L8.29681 2.40039H3.36001L1.29721 7.80039C1.23361 7.99239 1.20001 8.19159 1.20001 8.40039C1.20001 9.72519 2.58001 10.8004 4.28521 10.8004C5.85721 10.8004 7.15681 9.88359 7.34761 8.70039ZM12 10.8004C13.704 10.8004 15.0852 9.72519 15.0852 8.40039C15.0852 8.35119 15.0816 8.30199 15.0792 8.25519L14.4684 2.40039H9.53161L8.91961 8.25039C8.91721 8.29959 8.91481 8.34879 8.91481 8.40039C8.91481 9.72519 10.296 10.8004 12 10.8004ZM18 12.0556V14.897H6.00001V12.0628C5.47441 12.2524 4.89601 12.3604 4.28521 12.3604C4.05121 12.3604 3.82441 12.3328 3.60001 12.3016V19.9204C3.60001 20.8444 4.35481 21.6004 5.27761 21.6004H18.72C19.644 21.6004 20.4 20.8432 20.4 19.9204V12.3028C20.1732 12.3376 19.9443 12.3573 19.7148 12.3616C19.1297 12.361 18.5492 12.2574 18 12.0556ZM22.704 7.80039L20.6388 2.40039H15.7032L16.6512 8.69079C16.836 9.87879 18.1356 10.8004 19.7148 10.8004C21.4188 10.8004 22.8 9.72519 22.8 8.40039C22.8 8.19159 22.7664 7.99239 22.704 7.80039Z" fill="#FF6D60"/>
</svg>
