<svg width="32" height="32" viewBox="0 0 32 32" fill="none" xmlns="http://www.w3.org/2000/svg">
<path d="M17.7402 15.9968L25.7027 8.04053C26.184 7.55928 26.184 6.78115 25.7027 6.30303C25.2215 5.82178 24.4434 5.82178 23.9652 6.30303L15.9996 14.2562L8.03398 6.2999C7.55273 5.81865 6.77461 5.81865 6.29648 6.2999C5.81523 6.78115 5.81523 7.55928 6.29648 8.0374L14.259 15.9937L6.29648 23.953C5.81523 24.4343 5.81523 25.2124 6.29648 25.6905C6.53711 25.9312 6.85273 26.0499 7.16523 26.0499C7.48086 26.0499 7.79336 25.9312 8.03398 25.6905L15.9996 17.7343L23.9652 25.6937C24.2059 25.9343 24.5184 26.053 24.834 26.053C25.1496 26.053 25.4621 25.9343 25.7027 25.6937C26.184 25.2124 26.184 24.4343 25.7027 23.9562L17.7402 15.9968Z" fill="white" fill-opacity="0.9"/>
</svg>
