<svg width="40" height="27" viewBox="0 0 40 27" fill="none" xmlns="http://www.w3.org/2000/svg">
<path fill-rule="evenodd" clip-rule="evenodd" d="M39.7476 4.18167L35.6603 0.235C35.3358 -0.0783333 34.7628 -0.0783333 34.44 0.235L17.3298 16.7583L5.55826 5.39333C5.2355 5.08 4.66245 5.08 4.33796 5.39333L0.252433 9.34C-0.0841442 9.665 -0.0841442 10.1917 0.252433 10.5183L12.5677 22.41C12.5867 22.4317 12.6057 22.4533 12.6281 22.475L16.7154 26.4217C16.8379 26.5383 16.9863 26.6133 17.1434 26.6467C17.1607 26.6483 17.1762 26.6517 17.1935 26.6533C17.2383 26.6617 17.2849 26.665 17.3316 26.665C17.5594 26.665 17.7769 26.5783 17.9408 26.4217L22.0281 22.475C22.0471 22.4567 22.0643 22.4383 22.0816 22.4183L39.7476 5.36C40.0841 5.035 40.0841 4.50667 39.7476 4.18167Z" fill="#FFEC3B"/>
</svg>
