<svg width="32" height="32" viewBox="0 0 32 32" fill="none" xmlns="http://www.w3.org/2000/svg">
<g clip-path="url(#clip0)">
<path d="M10.6671 16C10.6671 14.9452 10.9799 13.914 11.5659 13.037C12.152 12.1599 12.985 11.4763 13.9596 11.0726C14.9341 10.669 16.0065 10.5634 17.0411 10.7691C18.0758 10.9749 19.0261 11.4829 19.772 12.2288C20.5179 12.9746 21.0259 13.925 21.2317 14.9595C21.4375 15.9941 21.3319 17.0664 20.9282 18.041C20.5245 19.0155 19.8409 19.8485 18.9638 20.4345C18.0867 21.0205 17.0555 21.3333 16.0006 21.3333C14.5861 21.3333 13.2295 20.7714 12.2292 19.7712C11.229 18.771 10.6671 17.4145 10.6671 16ZM7.78352 16C7.78352 17.6249 8.26537 19.2133 9.16813 20.5644C10.0709 21.9154 11.354 22.9685 12.8553 23.5904C14.3565 24.2122 16.0085 24.375 17.6022 24.058C19.196 23.7411 20.66 22.9587 21.8091 21.8098C22.9581 20.6609 23.7407 19.1971 24.0579 17.6034C24.375 16.0098 24.2124 14.3578 23.5907 12.8566C22.969 11.3553 21.916 10.0721 20.565 9.16923C19.214 8.26635 17.6256 7.78434 16.0006 7.78416C14.9217 7.78412 13.8532 7.9966 12.8564 8.40947C11.8595 8.82234 10.9538 9.42751 10.1908 10.1904C9.42788 10.9533 8.82268 11.8591 8.4098 12.8559C7.99691 13.8527 7.78442 14.9211 7.78446 16H7.78352ZM22.6205 7.45851C22.6204 7.83825 22.7329 8.2095 22.9437 8.52531C23.1546 8.84112 23.4544 9.08731 23.8052 9.23275C24.156 9.37818 24.5421 9.41633 24.9145 9.34237C25.287 9.2684 25.6292 9.08565 25.8978 8.81723C26.1664 8.5488 26.3494 8.20674 26.4236 7.83433C26.4978 7.46191 26.4599 7.07585 26.3147 6.72496C26.1695 6.37408 25.9235 6.07414 25.6078 5.86306C25.2921 5.65199 24.921 5.53926 24.5412 5.53914C24.0321 5.53939 23.544 5.74167 23.184 6.10155C22.824 6.46143 22.6215 6.94948 22.6211 7.45851H22.6205ZM9.53763 29.0237C8.52292 29.0121 7.51778 28.826 6.56622 28.4734C5.87125 28.2165 5.24247 27.8076 4.72583 27.2765C4.19394 26.7611 3.78487 26.1325 3.52892 25.4375C3.17578 24.4861 2.9892 23.481 2.97737 22.4662C2.89988 20.7796 2.88325 20.2729 2.88325 16.0003C2.88325 11.7277 2.89988 11.2223 2.97737 9.53443C2.99012 8.51988 3.17623 7.51497 3.52767 6.56314C3.78455 5.86819 4.19348 5.23944 4.72458 4.72282C5.24031 4.19066 5.86936 3.78156 6.56496 3.52596C7.51686 3.17301 8.52246 2.98675 9.53763 2.97537C11.2243 2.89788 11.731 2.88125 16.0006 2.88125C20.2703 2.88125 20.7789 2.89788 22.4668 2.97537C23.4814 2.98811 24.4863 3.17422 25.4382 3.52565C26.1334 3.78204 26.7623 4.19102 27.2786 4.72251C27.8101 5.23878 28.2191 5.86764 28.4755 6.56282C28.8282 7.51431 29.0143 8.51943 29.0258 9.53412C29.1033 11.222 29.1199 11.7274 29.1199 16C29.1199 20.2726 29.1045 20.778 29.0258 22.4659C29.0135 23.4805 28.8274 24.4855 28.4755 25.4372C28.2092 26.1272 27.8014 26.7538 27.2782 27.2767C26.7551 27.7996 26.1283 28.2071 25.4382 28.4731C24.4867 28.8258 23.4815 29.0119 22.4668 29.0234C20.7801 29.1009 20.2734 29.1175 16.0006 29.1175C11.7278 29.1175 11.2224 29.1021 9.53763 29.0234V29.0237ZM9.40398 0.0969412C8.07667 0.123199 6.76344 0.374505 5.52022 0.840157C4.45244 1.24193 3.48511 1.87167 2.6856 2.68549C1.8709 3.48422 1.24092 4.45159 0.839876 5.51969C0.374319 6.76299 0.12311 8.07627 0.096945 9.40361C0.0181968 11.1096 0 11.6549 0 16C0 20.3451 0.0181968 20.8904 0.096945 22.5964C0.123234 23.9236 0.374549 25.2368 0.84019 26.48C1.24122 27.5481 1.87108 28.5156 2.6856 29.3145C3.48537 30.1279 4.45249 30.7577 5.5199 31.1602C6.76317 31.6256 8.07637 31.8769 9.40366 31.9034C11.1107 31.9809 11.655 32.0003 16.0003 32.0003C20.3456 32.0003 20.8909 31.9821 22.597 31.9034C23.9243 31.8771 25.2375 31.6258 26.4807 31.1602C27.5439 30.7491 28.5094 30.1205 29.3154 29.3145C30.1214 28.5086 30.75 27.5431 31.1611 26.48C31.6273 25.237 31.8787 23.9237 31.9043 22.5964C31.9818 20.8891 31.9984 20.3451 31.9984 16C31.9984 11.6549 31.9802 11.1096 31.9043 9.40361C31.8781 8.07635 31.6268 6.76316 31.1611 5.52C30.7587 4.45256 30.129 3.48539 29.3157 2.68549C28.517 1.87127 27.5501 1.24137 26.4826 0.839843C25.2394 0.373952 23.926 0.122741 22.5985 0.0969412C20.8927 0.019451 20.3472 0 16.0006 0C11.6541 0 11.1095 0.0181961 9.40272 0.0969412" fill="url(#paint0_radial)"/>
<path d="M10.6671 16C10.6671 14.9452 10.9799 13.914 11.5659 13.037C12.152 12.1599 12.985 11.4763 13.9596 11.0726C14.9341 10.669 16.0065 10.5634 17.0411 10.7691C18.0758 10.9749 19.0261 11.4829 19.772 12.2288C20.5179 12.9746 21.0259 13.925 21.2317 14.9595C21.4375 15.9941 21.3319 17.0664 20.9282 18.041C20.5245 19.0155 19.8409 19.8485 18.9638 20.4345C18.0867 21.0205 17.0555 21.3333 16.0006 21.3333C14.5861 21.3333 13.2295 20.7714 12.2292 19.7712C11.229 18.771 10.6671 17.4145 10.6671 16ZM7.78352 16C7.78352 17.6249 8.26537 19.2133 9.16813 20.5644C10.0709 21.9154 11.354 22.9685 12.8553 23.5904C14.3565 24.2122 16.0085 24.375 17.6022 24.058C19.196 23.7411 20.66 22.9587 21.8091 21.8098C22.9581 20.6609 23.7407 19.1971 24.0579 17.6034C24.375 16.0098 24.2124 14.3578 23.5907 12.8566C22.969 11.3553 21.916 10.0721 20.565 9.16923C19.214 8.26635 17.6256 7.78434 16.0006 7.78416C14.9217 7.78412 13.8532 7.9966 12.8564 8.40947C11.8595 8.82234 10.9538 9.42751 10.1908 10.1904C9.42788 10.9533 8.82268 11.8591 8.4098 12.8559C7.99691 13.8527 7.78442 14.9211 7.78446 16H7.78352ZM22.6205 7.45851C22.6204 7.83825 22.7329 8.2095 22.9437 8.52531C23.1546 8.84112 23.4544 9.08731 23.8052 9.23275C24.156 9.37818 24.5421 9.41633 24.9145 9.34237C25.287 9.2684 25.6292 9.08565 25.8978 8.81723C26.1664 8.5488 26.3494 8.20674 26.4236 7.83433C26.4978 7.46191 26.4599 7.07585 26.3147 6.72496C26.1695 6.37408 25.9235 6.07414 25.6078 5.86306C25.2921 5.65199 24.921 5.53926 24.5412 5.53914C24.0321 5.53939 23.544 5.74167 23.184 6.10155C22.824 6.46143 22.6215 6.94948 22.6211 7.45851H22.6205ZM9.53763 29.0237C8.52292 29.0121 7.51778 28.826 6.56622 28.4734C5.87125 28.2165 5.24247 27.8076 4.72583 27.2765C4.19394 26.7611 3.78487 26.1325 3.52892 25.4375C3.17578 24.4861 2.9892 23.481 2.97737 22.4662C2.89988 20.7796 2.88325 20.2729 2.88325 16.0003C2.88325 11.7277 2.89988 11.2223 2.97737 9.53443C2.99012 8.51988 3.17623 7.51497 3.52767 6.56314C3.78455 5.86819 4.19348 5.23944 4.72458 4.72282C5.24031 4.19066 5.86936 3.78156 6.56496 3.52596C7.51686 3.17301 8.52246 2.98675 9.53763 2.97537C11.2243 2.89788 11.731 2.88125 16.0006 2.88125C20.2703 2.88125 20.7789 2.89788 22.4668 2.97537C23.4814 2.98811 24.4863 3.17422 25.4382 3.52565C26.1334 3.78204 26.7623 4.19102 27.2786 4.72251C27.8101 5.23878 28.2191 5.86764 28.4755 6.56282C28.8282 7.51431 29.0143 8.51943 29.0258 9.53412C29.1033 11.222 29.1199 11.7274 29.1199 16C29.1199 20.2726 29.1045 20.778 29.0258 22.4659C29.0135 23.4805 28.8274 24.4855 28.4755 25.4372C28.2092 26.1272 27.8014 26.7538 27.2782 27.2767C26.7551 27.7996 26.1283 28.2071 25.4382 28.4731C24.4867 28.8258 23.4815 29.0119 22.4668 29.0234C20.7801 29.1009 20.2734 29.1175 16.0006 29.1175C11.7278 29.1175 11.2224 29.1021 9.53763 29.0234V29.0237ZM9.40398 0.0969412C8.07667 0.123199 6.76344 0.374505 5.52022 0.840157C4.45244 1.24193 3.48511 1.87167 2.6856 2.68549C1.8709 3.48422 1.24092 4.45159 0.839876 5.51969C0.374319 6.76299 0.12311 8.07627 0.096945 9.40361C0.0181968 11.1096 0 11.6549 0 16C0 20.3451 0.0181968 20.8904 0.096945 22.5964C0.123234 23.9236 0.374549 25.2368 0.84019 26.48C1.24122 27.5481 1.87108 28.5156 2.6856 29.3145C3.48537 30.1279 4.45249 30.7577 5.5199 31.1602C6.76317 31.6256 8.07637 31.8769 9.40366 31.9034C11.1107 31.9809 11.655 32.0003 16.0003 32.0003C20.3456 32.0003 20.8909 31.9821 22.597 31.9034C23.9243 31.8771 25.2375 31.6258 26.4807 31.1602C27.5439 30.7491 28.5094 30.1205 29.3154 29.3145C30.1214 28.5086 30.75 27.5431 31.1611 26.48C31.6273 25.237 31.8787 23.9237 31.9043 22.5964C31.9818 20.8891 31.9984 20.3451 31.9984 16C31.9984 11.6549 31.9802 11.1096 31.9043 9.40361C31.8781 8.07635 31.6268 6.76316 31.1611 5.52C30.7587 4.45256 30.129 3.48539 29.3157 2.68549C28.517 1.87127 27.5501 1.24137 26.4826 0.839843C25.2394 0.373952 23.926 0.122741 22.5985 0.0969412C20.8927 0.019451 20.3472 0 16.0006 0C11.6541 0 11.1095 0.0181961 9.40272 0.0969412" fill="url(#paint1_radial)"/>
</g>
<defs>
<radialGradient id="paint0_radial" cx="0" cy="0" r="1" gradientUnits="userSpaceOnUse" gradientTransform="translate(4.25146 32.1512) scale(41.7732 41.7716)">
<stop offset="0.09" stop-color="#FA8F21"/>
<stop offset="0.78" stop-color="#D82D7E"/>
</radialGradient>
<radialGradient id="paint1_radial" cx="0" cy="0" r="1" gradientUnits="userSpaceOnUse" gradientTransform="translate(19.4075 33.5846) scale(32.923 32.9217)">
<stop offset="0.64" stop-color="#8C3AAA" stop-opacity="0"/>
<stop offset="1" stop-color="#8C3AAA"/>
</radialGradient>
<clipPath id="clip0">
<rect width="32" height="32" fill="white"/>
</clipPath>
</defs>
</svg>
