<svg width="26" height="26" viewBox="0 0 26 26" fill="none" xmlns="http://www.w3.org/2000/svg">
<path fill-rule="evenodd" clip-rule="evenodd" d="M2.99069 12.9996C2.99069 7.48088 7.48096 2.99066 13.0003 2.99066C18.519 2.99066 23.0093 7.48088 23.0093 12.9996C23.0093 18.5191 18.519 23.0093 13.0003 23.0093C7.48096 23.0093 2.99069 18.5191 2.99069 12.9996ZM0 12.9996C0 20.1682 5.83184 26 13.0003 26C20.1682 26 26 20.1682 26 12.9996C26 5.83177 20.1682 0 13.0003 0C5.83184 0 0 5.83177 0 12.9996ZM13.4066 15H19V11.9805H14.813V6H12V13.4904C12 14.3242 12.6296 15 13.4066 15Z" fill="#333333"/>
</svg>
