<svg width="48" height="48" viewBox="0 0 48 48" fill="none" xmlns="http://www.w3.org/2000/svg">
<path d="M6.55172e-09 10.75C6.55172e-09 9.55653 0.474106 8.41193 1.31802 7.56802C2.16193 6.72411 3.30653 6.25 4.5 6.25H31.5C32.6935 6.25 33.8381 6.72411 34.682 7.56802C35.5259 8.41193 36 9.55653 36 10.75V15.25H39.06C39.7342 15.2506 40.3997 15.4027 41.0072 15.695C41.6148 15.9874 42.1488 16.4125 42.57 16.939L47.013 22.489C47.6523 23.2876 48.0004 24.2801 48 25.303V31.75C48 32.9435 47.5259 34.0881 46.682 34.932C45.8381 35.7759 44.6935 36.25 43.5 36.25H42C42 37.8413 41.3679 39.3674 40.2426 40.4926C39.1174 41.6179 37.5913 42.25 36 42.25C34.4087 42.25 32.8826 41.6179 31.7574 40.4926C30.6321 39.3674 30 37.8413 30 36.25H15C15.0017 37.0498 14.8435 37.8418 14.5348 38.5795C14.226 39.3173 13.7728 39.9858 13.2019 40.5459C12.6311 41.106 11.954 41.5463 11.2105 41.8409C10.467 42.1356 9.67205 42.2786 8.87248 42.2616C8.07291 42.2446 7.2848 42.0679 6.55449 41.7419C5.82418 41.416 5.16641 40.9473 4.61984 40.3634C4.07328 39.7796 3.64895 39.0924 3.3718 38.3422C3.09466 37.592 2.97028 36.794 3.006 35.995C2.12714 35.6857 1.36597 35.1112 0.827533 34.3508C0.289097 33.5904 -5.02559e-05 32.6817 6.55172e-09 31.75L6.55172e-09 10.75ZM3.882 33.118C4.4244 32.23 5.18854 31.4984 6.0993 30.9951C7.01006 30.4918 8.0361 30.2342 9.07658 30.2475C10.1171 30.2608 11.1362 30.5446 12.0338 31.071C12.9313 31.5975 13.6765 32.3484 14.196 33.25H30.804C31.3317 32.3388 32.0888 31.5817 33 31.054V10.75C33 10.3522 32.842 9.97064 32.5607 9.68934C32.2794 9.40804 31.8978 9.25 31.5 9.25H4.5C4.10218 9.25 3.72064 9.40804 3.43934 9.68934C3.15804 9.97064 3 10.3522 3 10.75V31.75C2.99976 32.0387 3.08286 32.3214 3.23931 32.564C3.39576 32.8067 3.61892 32.999 3.882 33.118ZM36 30.25C37.0532 30.25 38.0878 30.5273 38.9999 31.0539C39.912 31.5805 40.6694 32.3379 41.196 33.25H43.5C43.8978 33.25 44.2794 33.092 44.5607 32.8107C44.842 32.5294 45 32.1478 45 31.75V25.3C44.9994 24.9596 44.883 24.6295 44.67 24.364L40.23 18.814C40.0897 18.6383 39.9117 18.4964 39.7092 18.3988C39.5067 18.3012 39.2848 18.2503 39.06 18.25H36V30.25ZM9 33.25C8.20435 33.25 7.44129 33.5661 6.87868 34.1287C6.31607 34.6913 6 35.4543 6 36.25C6 37.0456 6.31607 37.8087 6.87868 38.3713C7.44129 38.9339 8.20435 39.25 9 39.25C9.79565 39.25 10.5587 38.9339 11.1213 38.3713C11.6839 37.8087 12 37.0456 12 36.25C12 35.4543 11.6839 34.6913 11.1213 34.1287C10.5587 33.5661 9.79565 33.25 9 33.25ZM36 33.25C35.2043 33.25 34.4413 33.5661 33.8787 34.1287C33.3161 34.6913 33 35.4543 33 36.25C33 37.0456 33.3161 37.8087 33.8787 38.3713C34.4413 38.9339 35.2043 39.25 36 39.25C36.7957 39.25 37.5587 38.9339 38.1213 38.3713C38.6839 37.8087 39 37.0456 39 36.25C39 35.4543 38.6839 34.6913 38.1213 34.1287C37.5587 33.5661 36.7957 33.25 36 33.25Z" fill="white"/>
</svg>
