<svg width="33" height="32" viewBox="0 0 33 32" fill="none" xmlns="http://www.w3.org/2000/svg">
<path d="M3.20705 23.3637L2.24805 22.3077L8.64713 16.5137H12.5916L14.7779 18.2262H19.7841L19.8926 18.2604C20.0011 18.2947 20.9372 18.6201 21.354 19.5676C21.6451 20.2298 21.6051 20.9833 21.2284 21.8167H19.6553C19.8551 21.3715 20.1666 20.4182 20.0467 20.1442C19.9269 19.8759 19.6643 19.7161 19.533 19.6533H14.287L12.1007 17.9408H9.19513L3.20705 23.3637Z" fill="#666666" stroke="#666666" stroke-width="0.4"/>
<path d="M21.2797 27.6846H10.5879V26.2575H20.7317L28.7519 18.9679C28.9403 18.2315 28.6663 17.9632 28.6606 17.9632C28.261 17.6949 27.5303 17.8776 27.2106 17.9917L20.2978 23.2606H14.0186V21.8335H19.8183L26.5827 16.7074C26.754 16.6332 28.3009 16.0052 29.4483 16.7702C29.9107 17.067 30.5729 18.0032 30.0648 19.5787L30.0077 19.7613L21.2797 27.6846Z" fill="#666666" stroke="#666666" stroke-width="0.4"/>
<path d="M27.5704 14H26.1433V5.5873H10.3939V14H8.9668V4H27.5704V14Z" fill="#FF4B3B" stroke="#FF4B3B" stroke-width="0.5"/>
<path d="M20.248 10H16.248V5H18.248H20.248V10Z" fill="#FF4B3B" stroke="#FF4B3B" stroke-width="0.5"/>
</svg>
