<svg width="100" height="100" viewBox="0 0 100 100" fill="none" xmlns="http://www.w3.org/2000/svg">
<circle cx="50" cy="50" r="50" fill="white"/>
<path d="M77.8804 57.6812C79.4133 54.3928 80.2644 50.7224 80.2548 46.8537C80.2064 33.2262 69.2292 21.9199 55.6068 21.4992C40.906 21.0398 28.8939 33.0521 29.3484 47.7532C29.7643 61.2404 40.8576 72.1744 54.3543 72.4016C58.6485 72.4742 62.696 71.4828 66.2697 69.6742C67.9332 68.8328 69.8627 68.6877 71.6471 69.2245L76.1057 70.5543C77.9336 71.3571 79.7905 69.4953 78.9878 67.6722L77.5419 62.8314C77.0341 61.1292 77.1309 59.2916 77.8804 57.6812Z" fill="#3C1E20"/>
<path d="M23.7906 63.5335L23.7911 63.5345C24.6348 65.3471 24.7307 67.3844 24.1766 69.242L24.1763 69.2428L23.0084 73.1528L26.5962 72.0827C26.597 72.0824 26.5979 72.0822 26.5987 72.0819C28.5576 71.4933 30.6955 71.6468 32.5563 72.588L32.5567 72.5882C35.2521 73.9523 38.3043 74.7006 41.5492 74.6458L41.5493 74.6458C51.73 74.4744 60.1085 66.2151 60.4222 56.0435L60.4222 56.0433C60.7654 44.9449 51.6991 35.879 40.6018 36.2258L40.601 36.2259C30.3287 36.5431 22.0357 45.0817 21.9993 55.3627C21.9923 58.2866 22.6351 61.0548 23.7906 63.5335Z" stroke="#3C1E20" stroke-width="4"/>
<mask id="path-4-outside-1" maskUnits="userSpaceOnUse" x="21.3945" y="11" width="25" height="28" fill="black">
<rect fill="white" x="21.3945" y="11" width="25" height="28"/>
<path fill-rule="evenodd" clip-rule="evenodd" d="M33.8798 13C34.604 13 35.191 13.5871 35.191 14.3112V15.7853C38.8798 16.4089 41.6893 19.6189 41.6893 23.4852V30.5836H43.0539C43.778 30.5836 44.3651 31.1706 44.3651 31.8948C44.3651 32.6189 43.778 33.206 43.0539 33.206H37.0312V33.5719C37.0312 35.2453 35.6223 36.6018 33.8843 36.6018C32.1463 36.6018 30.7374 35.2453 30.7374 33.5719V33.206H24.7057C23.9816 33.206 23.3945 32.6189 23.3945 31.8948C23.3945 31.1706 23.9816 30.5836 24.7057 30.5836H26.0703V23.4852C26.0703 19.6189 28.8798 16.4088 32.5686 15.7852V14.3112C32.5686 13.5871 33.1557 13 33.8798 13Z"/>
</mask>
<path fill-rule="evenodd" clip-rule="evenodd" d="M33.8798 13C34.604 13 35.191 13.5871 35.191 14.3112V15.7853C38.8798 16.4089 41.6893 19.6189 41.6893 23.4852V30.5836H43.0539C43.778 30.5836 44.3651 31.1706 44.3651 31.8948C44.3651 32.6189 43.778 33.206 43.0539 33.206H37.0312V33.5719C37.0312 35.2453 35.6223 36.6018 33.8843 36.6018C32.1463 36.6018 30.7374 35.2453 30.7374 33.5719V33.206H24.7057C23.9816 33.206 23.3945 32.6189 23.3945 31.8948C23.3945 31.1706 23.9816 30.5836 24.7057 30.5836H26.0703V23.4852C26.0703 19.6189 28.8798 16.4088 32.5686 15.7852V14.3112C32.5686 13.5871 33.1557 13 33.8798 13Z" fill="#FE5C47"/>
<path d="M35.191 15.7853H33.191C33.191 16.7612 33.8954 17.5946 34.8576 17.7573L35.191 15.7853ZM41.6893 30.5836H39.6893C39.6893 31.6881 40.5847 32.5836 41.6893 32.5836V30.5836ZM37.0312 33.206V31.206C35.9266 31.206 35.0312 32.1014 35.0312 33.206H37.0312ZM30.7374 33.5719H32.7374H30.7374ZM30.7374 33.206H32.7374C32.7374 32.1014 31.8419 31.206 30.7374 31.206V33.206ZM26.0703 30.5836V32.5836C27.1748 32.5836 28.0703 31.6881 28.0703 30.5836H26.0703ZM32.5686 15.7852L32.902 17.7573C33.8642 17.5946 34.5686 16.7612 34.5686 15.7852H32.5686ZM37.191 14.3112C37.191 12.4825 35.7086 11 33.8798 11V15C33.4994 15 33.191 14.6916 33.191 14.3112H37.191ZM37.191 15.7853V14.3112H33.191V15.7853H37.191ZM43.6893 23.4852C43.6893 18.6268 40.1594 14.5968 35.5244 13.8132L34.8576 17.7573C37.6002 18.2209 39.6893 20.6111 39.6893 23.4852H43.6893ZM43.6893 30.5836V23.4852H39.6893V30.5836H43.6893ZM41.6893 32.5836H43.0539V28.5836H41.6893V32.5836ZM43.0539 32.5836C42.6735 32.5836 42.3651 32.2752 42.3651 31.8948H46.3651C46.3651 30.066 44.8826 28.5836 43.0539 28.5836V32.5836ZM42.3651 31.8948C42.3651 31.5144 42.6735 31.206 43.0539 31.206V35.206C44.8826 35.206 46.3651 33.7235 46.3651 31.8948H42.3651ZM43.0539 31.206H37.0312V35.206H43.0539V31.206ZM39.0312 33.5719V33.206H35.0312V33.5719H39.0312ZM33.8843 38.6018C36.6547 38.6018 39.0312 36.4206 39.0312 33.5719H35.0312C35.0312 34.0699 34.5898 34.6018 33.8843 34.6018V38.6018ZM28.7374 33.5719C28.7374 36.4206 31.1138 38.6018 33.8843 38.6018V34.6018C33.1788 34.6018 32.7374 34.0699 32.7374 33.5719H28.7374ZM28.7374 33.206V33.5719H32.7374V33.206H28.7374ZM30.7374 31.206H24.7057V35.206H30.7374V31.206ZM24.7057 31.206C25.0862 31.206 25.3945 31.5144 25.3945 31.8948H21.3945C21.3945 33.7235 22.877 35.206 24.7057 35.206V31.206ZM25.3945 31.8948C25.3945 32.2752 25.0862 32.5836 24.7057 32.5836V28.5836C22.877 28.5836 21.3945 30.066 21.3945 31.8948H25.3945ZM24.7057 32.5836H26.0703V28.5836H24.7057V32.5836ZM24.0703 23.4852V30.5836H28.0703V23.4852H24.0703ZM32.2352 13.8132C27.6002 14.5968 24.0703 18.6268 24.0703 23.4852H28.0703C28.0703 20.611 30.1594 18.2209 32.902 17.7573L32.2352 13.8132ZM30.5686 14.3112V15.7852H34.5686V14.3112H30.5686ZM33.8798 11C32.0511 11 30.5686 12.4825 30.5686 14.3112H34.5686C34.5686 14.6916 34.2602 15 33.8798 15V11Z" fill="white" mask="url(#path-4-outside-1)"/>
<path d="M46.0907 42.0194C44.445 42.0194 38.868 42.0194 38.868 42.0194C37.4509 42.0194 37.4966 44.4447 38.868 44.4447H41.2451C41.2451 44.4447 41.2451 51.1977 41.2451 52.767C41.2451 53.9083 43.7136 53.9083 43.7136 52.767V44.4447C43.7136 44.4447 44.4908 44.4447 46.0907 44.4447C47.5993 44.4447 47.5993 42.0194 46.0907 42.0194Z" fill="#B2C7D9"/>
<path d="M46.0907 42.0194C44.445 42.0194 38.868 42.0194 38.868 42.0194C37.4509 42.0194 37.4966 44.4447 38.868 44.4447H41.2451C41.2451 44.4447 41.2451 51.1977 41.2451 52.767C41.2451 53.9083 43.7136 53.9083 43.7136 52.767V44.4447C43.7136 44.4447 44.4908 44.4447 46.0907 44.4447C47.5993 44.4447 47.5993 42.0194 46.0907 42.0194Z" fill="white"/>
<path d="M51.6668 42.7792C51.3011 41.9708 49.2897 41.5903 48.7411 42.7792C48.1469 44.1108 46.044 50.4832 45.3126 52.1477C44.8098 53.3841 47.004 54.3352 47.5069 53.1463L47.964 51.4344H52.3068C52.3068 51.4344 52.1696 51.5295 52.7182 53.0988C53.1753 54.3828 55.461 53.4792 55.0039 52.1952C54.4096 50.3406 52.1239 43.7303 51.6668 42.7792ZM48.8326 49.1041L50.2497 44.7766L51.5754 49.1041H48.8326Z" fill="#B2C7D9"/>
<path d="M51.6668 42.7792C51.3011 41.9708 49.2897 41.5903 48.7411 42.7792C48.1469 44.1108 46.044 50.4832 45.3126 52.1477C44.8098 53.3841 47.004 54.3352 47.5069 53.1463L47.964 51.4344H52.3068C52.3068 51.4344 52.1696 51.5295 52.7182 53.0988C53.1753 54.3828 55.461 53.4792 55.0039 52.1952C54.4096 50.3406 52.1239 43.7303 51.6668 42.7792ZM48.8326 49.1041L50.2497 44.7766L51.5754 49.1041H48.8326Z" fill="white"/>
<path d="M61.678 51.1483C60.5809 51.1483 58.5238 51.1483 58.5238 51.1483C58.5238 51.1483 58.5238 44.7282 58.5238 43.1589C58.5238 41.6371 55.9639 41.6371 55.9639 43.1589C55.9639 45.2989 55.9639 52.242 55.9639 52.242C55.9639 52.242 55.781 53.6211 56.9238 53.6211C58.0667 53.6211 60.5809 53.6211 61.7237 53.6211C62.7751 53.6211 62.7751 51.1483 61.678 51.1483Z" fill="#B2C7D9"/>
<path d="M61.678 51.1483C60.5809 51.1483 58.5238 51.1483 58.5238 51.1483C58.5238 51.1483 58.5238 44.7282 58.5238 43.1589C58.5238 41.6371 55.9639 41.6371 55.9639 43.1589C55.9639 45.2989 55.9639 52.242 55.9639 52.242C55.9639 52.242 55.781 53.6211 56.9238 53.6211C58.0667 53.6211 60.5809 53.6211 61.7237 53.6211C62.7751 53.6211 62.7751 51.1483 61.678 51.1483Z" fill="white"/>
<path d="M71.3706 51.8621L68.0335 47.2967C68.0335 47.2967 70.3192 44.7287 71.1877 43.8252C71.6906 43.3021 70.0906 41.5901 69.5878 42.1132C69.0849 42.6363 65.5193 46.3456 65.5193 46.3456C65.5193 46.3456 65.565 44.0154 65.5193 42.7314C65.4736 41.7327 63.0508 41.7803 63.0965 42.7789C63.1422 43.7301 63.0508 52.2901 63.0508 52.9083C63.0508 53.9069 65.5193 53.9069 65.5193 52.9083C65.5193 51.7669 65.5193 49.5318 65.5193 49.5318L66.2507 48.9136L69.4049 53.3838C69.9992 54.3349 72.0106 52.7656 71.3706 51.8621Z" fill="#B2C7D9"/>
<path d="M71.3706 51.8621L68.0335 47.2967C68.0335 47.2967 70.3192 44.7287 71.1877 43.8252C71.6906 43.3021 70.0906 41.5901 69.5878 42.1132C69.0849 42.6363 65.5193 46.3456 65.5193 46.3456C65.5193 46.3456 65.565 44.0154 65.5193 42.7314C65.4736 41.7327 63.0508 41.7803 63.0965 42.7789C63.1422 43.7301 63.0508 52.2901 63.0508 52.9083C63.0508 53.9069 65.5193 53.9069 65.5193 52.9083C65.5193 51.7669 65.5193 49.5318 65.5193 49.5318L66.2507 48.9136L69.4049 53.3838C69.9992 54.3349 72.0106 52.7656 71.3706 51.8621Z" fill="white"/>
</svg>
