<svg width="436" height="182" viewBox="0 0 436 182" fill="none" xmlns="http://www.w3.org/2000/svg">
<rect width="436" height="182" rx="20" fill="#FFEA00"/>
<path d="M101.929 107.768V105.992H98.8089V99.704H96.6969V113.72H98.8089V107.768H101.929ZM100.465 119.192C97.2489 118.76 93.5289 116.816 93.5289 113.84V113.288H91.2969V113.84C91.2969 116.792 87.6489 118.832 84.2409 119.216L85.2729 120.896C88.6569 120.32 91.6089 118.376 92.3769 116.672C93.2169 118.328 96.1929 120.296 99.4329 120.92L100.465 119.192ZM91.5849 101.816V100.088H85.4889V101.816H91.5849ZM94.5609 104.84V103.112H82.4889V104.84H94.5609ZM93.3609 109.232C93.3609 107.12 91.2729 105.728 88.5129 105.728C85.7049 105.728 83.6649 107.12 83.6649 109.232C83.6649 111.32 85.7289 112.76 88.5129 112.76C91.2729 112.76 93.3609 111.32 93.3609 109.232ZM91.2489 109.232C91.2489 110.336 89.9769 111.104 88.5129 111.104C87.0489 111.104 85.7529 110.336 85.7529 109.232C85.7529 108.104 87.0249 107.36 88.5129 107.36C89.9769 107.36 91.2489 108.104 91.2489 109.232ZM119.238 107.912V106.232H107.646V103.424H119.718V101.696H105.534V112.64H119.91V110.888H107.646V107.912H119.238ZM122.19 118.016V116.288H103.254V118.016H122.19ZM140.981 101.912H131.237V103.712H138.749C138.701 104.84 138.509 105.896 138.197 106.88L130.397 107.48L130.781 109.352L137.501 108.632C136.013 111.584 133.373 113.84 130.061 115.352L131.381 116.984C137.285 114.008 140.957 109.28 140.981 101.912ZM146.285 99.704H144.173V120.68H146.285V109.904H149.621V108.152H146.285V99.704ZM161.626 101.912H151.882V103.712H159.394C159.346 104.84 159.154 105.896 158.842 106.88L151.042 107.48L151.426 109.352L158.146 108.632C156.658 111.584 154.018 113.84 150.706 115.352L152.026 116.984C157.93 114.008 161.602 109.28 161.626 101.912ZM166.93 99.704H164.818V120.68H166.93V109.904H170.266V108.152H166.93V99.704ZM188.656 106.832C188.656 103.328 185.56 101 180.832 101C176.152 101 173.032 103.328 173.032 106.832C173.032 110.096 175.672 112.304 179.752 112.64V116.216H171.376V117.968H190.312V116.216H181.888V112.664C185.992 112.352 188.656 110.096 188.656 106.832ZM186.472 106.832C186.472 109.232 184.216 110.888 180.832 110.888C177.448 110.888 175.216 109.232 175.216 106.832C175.216 104.456 177.448 102.776 180.832 102.776C184.24 102.776 186.472 104.456 186.472 106.832ZM208.582 108.872V107.168H196.534V105.536H208.174V103.88H196.534V102.272H208.486V100.568H194.398V108.872H200.398V110.84H192.022V112.568H210.958V110.84H202.534V108.872H208.582ZM194.206 114.272V116H206.35V120.776H208.486V114.272H194.206ZM236.564 120.68V99.704H234.524V108.104H232.196V100.16H230.156V119.648H232.196V109.808H234.524V120.68H236.564ZM229.028 106.856V105.152H219.02V106.856H222.956V106.952C222.956 110.936 221.108 113.576 218.492 115.232L219.836 116.648C221.684 115.52 223.508 113.192 224.012 111.08C224.516 113.072 226.436 115.16 228.044 116.144L229.292 114.608C227.06 113.384 225.044 110.864 225.044 106.88V106.856H229.028ZM221.252 103.28H226.772V101.528H221.252V103.28ZM256.706 110.432V99.704H254.57V103.208H248.498V104.984H254.57V110.432H256.706ZM251.738 108.872C251.618 108.272 251.546 107.696 251.426 107.12C248.786 107.696 245.594 107.96 242.714 107.96V100.76H240.626V109.784C241.49 109.784 242.402 109.784 243.314 109.76C246.026 109.688 249.362 109.4 251.738 108.872ZM257.45 120.512V118.784H245.282V116.792H256.706V111.584H243.002V113.312H254.57V115.184H243.17V120.512H257.45ZM284.304 109.304C281.184 108.992 277.656 107.456 276.984 105.128H283.344V103.4H268.224V105.128H274.632C273.984 107.48 270.552 108.992 267.288 109.376L268.248 111.08C271.632 110.6 274.824 108.872 275.784 106.88C276.912 108.848 280.224 110.552 283.344 111.008L284.304 109.304ZM276.816 120.68V114.128H285.264V112.376H266.328V114.128H274.68V120.68H276.816ZM279.192 101.696V99.968H272.376V101.696H279.192ZM303.174 99.704H301.062V120.68H303.174V110.072H306.534V108.296H303.174V99.704ZM297.654 101.936H287.91V103.736H295.374C294.99 108.248 291.942 112.64 286.998 115.016L288.294 116.624C294.03 113.504 297.534 108.608 297.654 101.936ZM333.34 110.216V108.44H330.004V99.704H327.868V120.68H330.004V110.216H333.34ZM323.068 102.8V101.072H316.804V102.8H323.068ZM326.116 106.4V104.696H313.684V106.4H326.116ZM324.94 112.016C324.94 109.496 322.972 107.576 319.996 107.576C317.02 107.576 315.028 109.544 315.028 112.016C315.028 114.536 317.02 116.408 319.996 116.408C322.972 116.408 324.94 114.488 324.94 112.016ZM322.852 112.016C322.852 113.552 321.724 114.632 319.996 114.632C318.34 114.632 317.164 113.552 317.164 112.016C317.164 110.456 318.364 109.352 319.996 109.352C321.628 109.352 322.852 110.456 322.852 112.016ZM353.385 117.632V115.88H343.785V108.824H341.649V115.88H334.449V117.632H353.385ZM350.937 101.648H336.393V103.376H348.753V105.896C348.753 108.368 348.465 111.296 348.009 113.096C348.705 113.192 349.377 113.312 350.049 113.432C350.649 110.888 350.889 108.224 350.937 104.864V101.648ZM90.2207 152.68V131.704H88.1807V140.224H85.8287V132.16H83.8127V151.648H85.8287V141.952H88.1807V152.68H90.2207ZM83.0687 145.912C80.6687 144.424 78.7487 141.304 78.7487 137.248V133.648H76.6607V137.272C76.6607 141.496 74.5487 144.928 72.1007 146.512L73.4207 148C75.4847 146.584 77.2367 144.088 77.7407 141.76C78.3647 144.04 80.2127 146.344 81.7487 147.4L83.0687 145.912ZM112.09 150.016V148.288H103.642V144.976H110.314V143.248H97.5464V139.96H109.738V133.432H95.3863V135.16H107.626V138.232H95.4343V144.976H101.506V148.288H93.1543V150.016H112.09ZM130.48 136.504C130.48 133.96 127.768 132.4 123.256 132.4C118.72 132.4 116.08 133.96 116.08 136.504C116.08 139.096 118.72 140.632 123.256 140.632C127.768 140.632 130.48 139.096 130.48 136.504ZM124.432 148.144V144.064H132.736V142.336H113.8V144.064H122.32V148.144H124.432ZM123.256 134.152C126.328 134.152 128.32 134.992 128.32 136.528C128.32 138.064 126.304 138.904 123.232 138.904C120.208 138.904 118.24 138.064 118.24 136.528C118.24 134.992 120.208 134.152 123.256 134.152ZM130.48 152.056V150.328H118.384V145.96H116.272V152.056H130.48ZM159.95 139.768V137.992H156.83V131.704H154.718V145.72H156.83V139.768H159.95ZM158.486 151.192C155.27 150.76 151.55 148.816 151.55 145.84V145.288H149.318V145.84C149.318 148.792 145.67 150.832 142.262 151.216L143.294 152.896C146.678 152.32 149.63 150.376 150.398 148.672C151.238 150.328 154.214 152.296 157.454 152.92L158.486 151.192ZM149.606 133.816V132.088H143.51V133.816H149.606ZM152.582 136.84V135.112H140.51V136.84H152.582ZM151.382 141.232C151.382 139.12 149.294 137.728 146.534 137.728C143.726 137.728 141.686 139.12 141.686 141.232C141.686 143.32 143.75 144.76 146.534 144.76C149.294 144.76 151.382 143.32 151.382 141.232ZM149.27 141.232C149.27 142.336 147.998 143.104 146.534 143.104C145.07 143.104 143.774 142.336 143.774 141.232C143.774 140.104 145.046 139.36 146.534 139.36C147.998 139.36 149.27 140.104 149.27 141.232ZM179.18 152.536V150.784H166.988V148.72H178.436V143.488H164.708V145.192H176.324V147.136H164.876V152.536H179.18ZM164.564 139.84V134.704H172.268V133H162.428V141.568H164.612C168.428 141.568 172.22 141.28 174.452 140.824L174.116 139.12C171.884 139.624 167.684 139.84 164.564 139.84ZM178.46 142.432V131.704H176.348V142.432H178.46ZM206.37 141.904C203.178 141.28 198.666 138.208 198.666 134.704V133.264H196.482V134.704C196.482 138.232 192.258 141.232 188.826 141.832L189.906 143.56C193.314 142.672 196.722 140.056 197.562 137.656C198.546 140.032 201.93 142.648 205.218 143.584L206.37 141.904ZM207.042 150.016V148.288H198.594V143.08H196.458V148.288H188.106V150.016H207.042ZM225.96 144.16V131.728H223.824V144.16H225.96ZM221.448 141.352C219.048 140.512 216.24 137.992 216.24 134.512V132.568H214.056V134.608C214.056 138.04 211.56 140.728 208.608 142L209.904 143.632C212.304 142.456 214.536 140.248 215.16 138.088C216.048 140.176 218.328 142.144 220.2 142.984L221.448 141.352ZM225.96 152.704V145.288H211.896V147.016H223.824V152.704H225.96ZM248.333 142.384V140.656H229.397V142.384H248.333ZM246.749 152.536V150.784H233.669V148.984H245.957V144.16H231.509V145.888H243.845V147.4H231.557V152.536H246.749ZM246.149 135.712C246.149 133.336 243.437 131.992 238.877 131.992C234.365 131.992 231.653 133.336 231.653 135.712C231.653 138.064 234.365 139.408 238.877 139.408C243.437 139.408 246.149 138.064 246.149 135.712ZM238.877 133.696C241.997 133.696 243.965 134.512 243.965 135.712C243.965 136.888 241.997 137.704 238.877 137.704C235.805 137.704 233.861 136.888 233.861 135.712C233.861 134.512 235.805 133.696 238.877 133.696ZM275.548 138.808V137.056H272.428V131.704H270.292V143.752H272.428V138.808H275.548ZM266.956 142.696V132.88H264.844V136.12H259.06V132.904H256.948V142.696H266.956ZM264.844 140.968H259.06V137.848H264.844V140.968ZM272.692 152.392V150.688H261.292V146.704H272.476V144.976H259.18V152.392H272.692ZM296.433 141.784V140.032H293.073V131.704H290.937V152.68H293.073V141.784H296.433ZM277.185 140.608C277.185 144.76 278.817 148.024 282.513 148.024C286.209 148.024 287.817 144.76 287.817 140.632C287.817 136.456 286.209 133.192 282.513 133.192C278.817 133.192 277.185 136.456 277.185 140.608ZM285.729 140.632C285.729 143.848 284.625 146.2 282.513 146.2C280.401 146.2 279.321 143.848 279.321 140.632C279.321 137.368 280.401 135.016 282.513 135.016C284.625 135.016 285.729 137.368 285.729 140.632ZM314.151 144.256V133.168H312.039V136.984H301.935V133.168H299.799V144.256H305.871V148.384H297.519V150.112H316.455V148.384H308.007V144.256H314.151ZM312.039 142.504H301.935V138.712H312.039V142.504ZM335.877 152.68V131.704H333.837V152.68H335.877ZM331.725 151.648V132.184H329.709V139.144H326.397V140.896H329.709V151.648H331.725ZM328.605 145.96C326.229 144.472 324.285 141.304 324.285 137.248V133.696H322.245V137.272C322.245 141.496 320.109 144.928 317.637 146.512L318.957 148C321.021 146.584 322.773 144.088 323.277 141.76C323.901 144.04 325.749 146.392 327.309 147.448L328.605 145.96ZM356.09 138.544C356.09 135.28 352.994 133.096 348.266 133.096C343.586 133.096 340.466 135.28 340.466 138.544C340.466 141.808 343.586 143.968 348.266 143.968C352.97 143.968 356.09 141.808 356.09 138.544ZM353.906 138.544C353.906 140.728 351.65 142.216 348.266 142.216C344.882 142.216 342.65 140.728 342.65 138.544C342.65 136.336 344.882 134.848 348.266 134.848C351.674 134.848 353.906 136.336 353.906 138.544ZM357.746 150.016V148.288H353.138V144.568L351.026 144.496V148.288H345.482V144.496L343.346 144.568V148.288H338.81V150.016H357.746ZM359.6 150.544H361.928V148.192H359.6V150.544Z" fill="#333333"/>
<path d="M78.4874 26.6085C64.7643 26.6085 53.6328 37.0398 53.6328 49.9047C53.6328 57.5054 57.5166 64.2524 63.5241 68.5057V78.7273C63.5241 78.8696 63.6058 79.0044 63.7321 79.0718C63.7841 79.1017 63.8435 79.1167 63.9103 79.1167C63.992 79.1167 64.0662 79.0942 64.1331 79.0418L73.0293 72.6318C74.7893 72.9987 76.6161 73.2009 78.4948 73.2009C92.2254 73.2009 103.349 62.7697 103.349 49.9047C103.342 37.0398 92.2179 26.6085 78.4874 26.6085Z" fill="#040000"/>
<path d="M94.0072 47.2102C93.1606 46.2891 91.913 45.8173 90.3016 45.8173C89.4031 45.8173 88.5862 46.0195 87.8659 46.4089C87.3312 46.701 86.8634 47.0529 86.4698 47.4498V39.9091H82.95V59.8879H86.4401V52.4221C86.4401 51.8005 86.5218 51.2389 86.6926 50.7522C86.856 50.2654 87.0862 49.8536 87.361 49.5241C87.6357 49.1946 87.9699 48.94 88.3337 48.7678C88.705 48.5955 89.0986 48.5057 89.5145 48.5057C90.2348 48.5057 90.7992 48.7004 91.1853 49.0898C91.5715 49.4791 91.772 50.2055 91.772 51.2389V59.8804H95.2621V51.3887C95.2696 49.5316 94.8463 48.1238 94.0072 47.2102Z" fill="#F1D824"/>
<path d="M71.0684 44.0643C73.519 44.0643 75.6131 45.6668 76.4448 47.9208H80.1949C79.2444 43.5551 75.524 40.3052 71.0684 40.3052C65.9 40.3052 61.7043 44.6933 61.7043 50.0999C61.7043 55.514 65.8926 59.8946 71.0684 59.8946C75.524 59.8946 79.2518 56.6372 80.1949 52.2715H76.4448C75.6131 54.5255 73.519 56.128 71.0684 56.128C67.8827 56.128 65.3059 53.4247 65.3059 50.0924C65.3059 46.7601 67.8827 44.0643 71.0684 44.0643Z" fill="#F1D824"/>
<rect x="113.725" y="26" width="265.33" height="47.4973" rx="14" fill="white"/>
<path fill-rule="evenodd" clip-rule="evenodd" d="M341.422 58.0614C336.624 53.2638 336.624 45.4872 341.422 40.6895C346.219 35.8919 353.996 35.8919 358.793 40.6895C363.591 45.4872 363.591 53.2638 358.793 58.0614C353.996 62.8591 346.219 62.8591 341.422 58.0614ZM357.08 49.3855C357.082 48.9088 356.695 48.522 356.218 48.5203L350.969 48.5135L350.961 43.2629C350.959 42.7862 350.572 42.3994 350.096 42.4011C349.619 42.4028 349.232 42.7896 349.234 43.2663L349.242 48.5101L344 48.5033C343.524 48.5016 343.137 48.8884 343.135 49.3651C343.133 49.8418 343.52 50.2286 343.997 50.2303L349.246 50.2371L349.253 55.486C349.254 55.9627 349.641 56.3495 350.118 56.3478C350.355 56.3478 350.571 56.2511 350.727 56.095C350.883 55.9389 350.981 55.7218 350.98 55.4826L350.973 50.2405L356.215 50.2473C356.454 50.249 356.671 50.1506 356.827 49.9945C356.983 49.8384 357.08 49.623 357.08 49.3855Z" fill="#040000"/>
<path d="M156.518 44.2093V41.9893H152.618V34.1293H149.978V51.6493H152.618V44.2093H156.518ZM154.688 58.4893C150.668 57.9493 146.018 55.5193 146.018 51.7993V51.1093H143.228V51.7993C143.228 55.4893 138.668 58.0393 134.408 58.5193L135.698 60.6193C139.928 59.8993 143.618 57.4693 144.578 55.3393C145.628 57.4093 149.348 59.8693 153.398 60.6493L154.688 58.4893ZM143.588 36.7693V34.6093H135.968V36.7693H143.588ZM147.308 40.5493V38.3893H132.218V40.5493H147.308ZM145.808 46.0393C145.808 43.3993 143.198 41.6593 139.748 41.6593C136.238 41.6593 133.688 43.3993 133.688 46.0393C133.688 48.6493 136.268 50.4493 139.748 50.4493C143.198 50.4493 145.808 48.6493 145.808 46.0393ZM143.168 46.0393C143.168 47.4193 141.578 48.3793 139.748 48.3793C137.918 48.3793 136.298 47.4193 136.298 46.0393C136.298 44.6293 137.888 43.6993 139.748 43.6993C141.578 43.6993 143.168 44.6293 143.168 46.0393ZM178.155 44.3893V42.2893H163.665V38.7793H178.755V36.6193H161.025V50.2993H178.995V48.1093H163.665V44.3893H178.155ZM181.845 57.0193V54.8593H158.175V57.0193H181.845Z" fill="#3E2A2E"/>
</svg>
