<svg width="44" height="44" viewBox="0 0 44 44" fill="none" xmlns="http://www.w3.org/2000/svg">
<rect x="0.5" y="0.5" width="43" height="43" rx="5.5" fill="white" stroke="#CECECE"/>
<path fill-rule="evenodd" clip-rule="evenodd" d="M36.7853 15.1363L33.8253 12.1762C33.5903 11.9412 33.1753 11.9412 32.9416 12.1762L20.5503 24.5688L12.0253 16.045C11.7916 15.81 11.3766 15.81 11.1416 16.045L8.18281 19.005C7.93906 19.2488 7.93906 19.6438 8.18281 19.8888L17.1016 28.8075C17.1153 28.8238 17.1291 28.84 17.1453 28.8563L20.1053 31.8162C20.1941 31.9037 20.3016 31.96 20.4153 31.985C20.4278 31.9862 20.4391 31.9888 20.4516 31.99C20.4841 31.9963 20.5178 31.9988 20.5516 31.9988C20.7166 31.9988 20.8741 31.9338 20.9928 31.8162L23.9528 28.8563C23.9666 28.8425 23.9791 28.8287 23.9916 28.8137L36.7853 16.02C37.0291 15.7762 37.0291 15.38 36.7853 15.1363Z" fill="#D8D8D8"/>
</svg>
