<svg width="186" height="40" viewBox="0 0 186 40" fill="none" xmlns="http://www.w3.org/2000/svg">
<path d="M186 40L162.784 1.69282C162.147 0.641248 161.017 0 159.799 0H26.2006C24.9831 0 23.8532 0.641248 23.2155 1.69282L0 40H186Z" fill="#BBBBBB"/>
<path d="M185 40L162.034 2.6505C161.403 1.62522 160.285 1 159.081 1H26.9188C25.7144 1 24.5966 1.62522 23.9658 2.6505L0.999939 40H185Z" fill="#F5F5F5"/>
<path fill-rule="evenodd" clip-rule="evenodd" d="M83.1203 21.1276L92.0257 31.314C92.1736 31.5331 92.4357 31.6667 92.7181 31.6667H93.2817C93.5642 31.6667 93.8263 31.5331 93.9742 31.314L102.88 21.1276C103.034 20.8993 103.041 20.6128 102.896 20.3789C102.753 20.1451 102.482 20 102.187 20H83.8127C83.5181 20 83.2471 20.1451 83.1036 20.3789C82.9594 20.6128 82.9663 20.8993 83.1203 21.1276" fill="#999999"/>
</svg>
